<svg width="248" height="150" viewBox="0 0 248 150" fill="none" xmlns="http://www.w3.org/2000/svg">
<path d="M204 0H74C68.4772 0 64 4.47715 64 10V140C64 145.523 68.4772 150 74 150H204C209.523 150 214 145.523 214 140V10C214 4.47715 209.523 0 204 0Z" fill="white"/>
<path d="M138.977 134.046C131.217 134.055 123.532 132.522 116.37 129.535C109.208 126.548 102.711 122.167 97.2568 116.646C86.2003 105.431 80.002 90.3142 80.002 74.5649C80.002 58.8157 86.2003 43.6991 97.2568 32.4834C102.716 26.9698 109.214 22.593 116.376 19.606C123.537 16.619 131.219 15.0811 138.978 15.0811C146.738 15.0811 154.42 16.619 161.581 19.606C168.742 22.593 175.24 26.9698 180.7 32.4834C191.756 43.6991 197.955 58.8157 197.955 74.5649C197.955 90.3142 191.756 105.431 180.7 116.646C175.245 122.166 168.747 126.547 161.585 129.534C154.422 132.521 146.737 134.055 138.977 134.046ZM138.977 22.6323C132.202 22.6249 125.492 23.9644 119.239 26.5723C112.986 29.1801 107.313 33.0046 102.551 37.8237C92.8982 47.6156 87.4869 60.8128 87.4869 74.5625C87.4869 88.3122 92.8982 101.51 102.551 111.302C107.317 116.115 112.991 119.935 119.243 122.543C125.495 125.15 132.201 126.493 138.975 126.493C145.749 126.493 152.456 125.15 158.708 122.543C164.96 119.935 170.633 116.115 175.4 111.302C185.052 101.51 190.463 88.3125 190.463 74.563C190.463 60.8135 185.052 47.6166 175.4 37.8247C170.638 33.0057 164.966 29.1808 158.713 26.5728C152.46 23.9647 145.752 22.6253 138.977 22.6323Z" fill="#F1F4F9"/>
<path d="M137.649 116.705C129.001 116.727 120.541 114.183 113.34 109.394C106.139 104.606 100.521 97.7885 97.1963 89.8053C93.8718 81.8221 92.9905 73.0323 94.6641 64.548C96.3377 56.0637 100.491 48.2668 106.598 42.1442C112.705 36.0215 120.492 31.8482 128.972 30.153C137.452 28.4578 146.244 29.317 154.235 32.6212C162.227 35.9255 169.059 41.5262 173.865 48.715C178.672 55.9038 181.238 64.3572 181.238 73.005C181.239 84.5762 176.651 95.6754 168.479 103.868C160.308 112.06 149.22 116.677 137.649 116.705ZM137.649 36.7389C130.473 36.7203 123.452 38.8314 117.476 42.8048C111.5 46.7782 106.838 52.4355 104.078 59.0602C101.319 65.6848 100.588 72.979 101.976 80.0197C103.365 87.0603 106.811 93.5309 111.879 98.6119C116.947 103.693 123.408 107.156 130.445 108.563C137.482 109.97 144.778 109.258 151.41 106.516C158.042 103.774 163.711 99.1262 167.7 93.1608C171.689 87.1953 173.819 80.1803 173.819 73.004C173.821 63.4018 170.014 54.1909 163.233 47.3922C156.452 40.5935 147.251 36.7622 137.649 36.7389Z" fill="#F1F4F9"/>
<path d="M137.649 29.354C126.059 29.354 114.943 33.958 106.748 42.1533C98.5528 50.3487 93.9487 61.4638 93.9487 73.0537C93.9487 84.6437 98.5528 95.7593 106.748 103.955C114.943 112.15 126.059 116.754 137.649 116.754C138.635 116.754 139.581 116.362 140.278 115.665C140.976 114.967 141.368 114.021 141.368 113.035C141.368 112.048 140.976 111.103 140.278 110.405C139.581 109.708 138.635 109.316 137.649 109.316C130.472 109.335 123.452 107.223 117.476 103.25C111.5 99.2766 106.837 93.6193 104.078 86.9946C101.319 80.3699 100.587 73.0754 101.976 66.0347C103.365 58.994 106.811 52.5239 111.879 47.4429C116.947 42.3619 123.408 38.8986 130.445 37.4917C137.482 36.0848 144.779 36.7976 151.411 39.5396C158.042 42.2815 163.712 46.9294 167.701 52.895C171.689 58.8606 173.819 65.8754 173.819 73.0518C173.819 74.0356 174.209 74.9791 174.905 75.6748C175.601 76.3705 176.544 76.7612 177.528 76.7612C178.512 76.7612 179.456 76.3705 180.151 75.6748C180.847 74.9791 181.238 74.0356 181.238 73.0518C181.237 61.4813 176.648 50.3836 168.477 42.1919C160.306 34.0002 149.219 29.3834 137.649 29.354Z" fill="#5C96FD"/>
<path d="M138.118 132.173C130.374 132.195 122.702 130.689 115.541 127.741C108.38 124.794 101.871 120.462 96.3865 114.995C96.0388 114.651 95.7628 114.241 95.5745 113.79C95.3861 113.338 95.2891 112.854 95.2891 112.365C95.2891 111.876 95.3861 111.391 95.5745 110.94C95.7628 110.489 96.0388 110.079 96.3865 109.735C97.0917 109.036 98.0441 108.645 99.0366 108.645C100.029 108.645 100.981 109.036 101.687 109.735C111.378 119.343 124.472 124.733 138.119 124.733C151.765 124.733 164.859 119.343 174.551 109.735C179.338 105.01 183.14 99.382 185.735 93.1763C188.329 86.9706 189.665 80.3113 189.665 73.585C189.665 66.8586 188.329 60.1994 185.735 53.9937C183.14 47.7879 179.338 42.159 174.551 37.4346C164.859 27.8271 151.765 22.437 138.119 22.437C124.472 22.437 111.378 27.8271 101.687 37.4346C100.981 38.1327 100.029 38.5244 99.0366 38.5244C98.0442 38.5244 97.0918 38.1327 96.3865 37.4346C96.0388 37.0905 95.7628 36.6809 95.5745 36.2295C95.3861 35.7781 95.2891 35.2938 95.2891 34.8047C95.2891 34.3155 95.3861 33.8313 95.5745 33.3799C95.7628 32.9284 96.0388 32.5189 96.3865 32.1748C107.489 21.171 122.488 14.9971 138.119 14.9971C153.75 14.9971 168.749 21.171 179.852 32.1748C185.335 37.5871 189.688 44.0343 192.66 51.1426C195.631 58.2508 197.161 65.8787 197.161 73.583C197.161 81.2873 195.631 88.9147 192.66 96.0229C189.688 103.131 185.335 109.578 179.852 114.991C174.367 120.459 167.858 124.791 160.696 127.739C153.535 130.688 145.862 132.194 138.118 132.173Z" fill="#6C4FFE"/>
<path d="M95.7149 116.044C99.1324 116.044 101.903 113.268 101.903 109.844C101.903 106.419 99.1324 103.644 95.7149 103.644C92.2973 103.644 89.5269 106.419 89.5269 109.844C89.5269 113.268 92.2973 116.044 95.7149 116.044Z" fill="white"/>
<path d="M96.0201 117.498C94.488 117.494 92.9914 117.037 91.7193 116.183C90.4472 115.329 89.4567 114.118 88.8729 112.701C88.289 111.285 88.1381 109.727 88.4392 108.225C88.7403 106.723 89.4798 105.343 90.5643 104.261C91.6489 103.179 93.0299 102.443 94.5327 102.146C96.0356 101.848 97.5929 102.002 99.008 102.59C100.423 103.177 101.632 104.17 102.483 105.444C103.334 106.718 103.788 108.216 103.788 109.748C103.784 111.805 102.963 113.776 101.507 115.229C100.051 116.682 98.0772 117.498 96.0201 117.498ZM96.0201 105.258C95.1325 105.26 94.2654 105.525 93.5284 106.019C92.7913 106.514 92.2174 107.216 91.8791 108.036C91.5408 108.857 91.4532 109.759 91.6275 110.63C91.8018 111.5 92.2301 112.299 92.8583 112.926C93.4866 113.553 94.2865 113.98 95.1572 114.152C96.0278 114.325 96.9301 114.235 97.7499 113.895C98.5698 113.555 99.2705 112.98 99.7635 112.242C100.257 111.504 100.52 110.636 100.52 109.749C100.518 108.557 100.043 107.414 99.1989 106.572C98.3552 105.73 97.212 105.258 96.0201 105.258Z" fill="#6C4FFE"/>
<path d="M176.447 82.9527C179.864 82.9527 182.635 80.1769 182.635 76.7527C182.635 73.3286 179.864 70.5527 176.447 70.5527C173.029 70.5527 170.259 73.3286 170.259 76.7527C170.259 80.1769 173.029 82.9527 176.447 82.9527Z" fill="white"/>
<path d="M176.743 84.4C175.211 84.3964 173.714 83.9388 172.442 83.085C171.17 82.2313 170.179 81.0195 169.596 79.6031C169.012 78.1867 168.861 76.6292 169.162 75.127C169.463 73.6249 170.202 72.2457 171.287 71.1636C172.372 70.0816 173.753 69.345 175.255 69.0474C176.758 68.7499 178.316 68.9047 179.731 69.4918C181.146 70.0789 182.355 71.0722 183.206 72.3463C184.057 73.6204 184.511 75.1179 184.511 76.65C184.506 78.7071 183.686 80.6785 182.229 82.1314C180.773 83.5844 178.8 84.4002 176.743 84.4ZM176.743 72.1597C175.855 72.1617 174.988 72.4269 174.251 72.9215C173.514 73.416 172.94 74.1179 172.602 74.9385C172.263 75.7592 172.176 76.6615 172.35 77.5318C172.525 78.4021 172.953 79.2013 173.581 79.8282C174.21 80.4551 175.01 80.8818 175.88 81.0543C176.751 81.2267 177.653 81.1376 178.473 80.7974C179.293 80.4573 179.994 79.8818 180.487 79.1436C180.98 78.4055 181.243 77.5376 181.243 76.65C181.24 75.4582 180.765 74.3159 179.921 73.4742C179.078 72.6324 177.935 72.1597 176.743 72.1597Z" fill="#5C96FD"/>
<path d="M34.001 19H10.001C4.47813 19 0.000976562 23.4772 0.000976562 29V54C0.000976562 59.5228 4.47813 64 10.001 64H34.001C39.5238 64 44.001 59.5228 44.001 54V29C44.001 23.4772 39.5238 19 34.001 19Z" fill="white"/>
<path d="M28.1799 32.25L31.6509 35.715L24.2509 43.1L18.1919 37.05L6.96191 48.276L9.09891 50.41L18.1919 41.33L24.2539 47.383L33.8019 37.864L37.2729 41.33V32.25H28.1799Z" fill="#1AD598" stroke="#777E90" stroke-opacity="0.1"/>
<path d="M238 52H145C139.477 52 135 56.4772 135 62V88C135 93.5228 139.477 98 145 98H238C243.523 98 248 93.5228 248 88V62C248 56.4772 243.523 52 238 52Z" fill="white"/>
<path d="M184.771 72.7971H186.255V75.6951H189.083V77.0391H186.255V79.9371H184.771V77.0391H181.943V75.6951H184.771V72.7971ZM191.867 78.6491H193.337C193.519 79.5591 194.121 80.0771 195.185 80.0771C196.459 80.0771 197.103 79.2231 197.103 76.6191C196.641 77.2631 195.759 77.6131 194.835 77.6131C193.043 77.6131 191.587 76.5071 191.587 74.3511C191.587 72.3211 192.833 70.9771 194.975 70.9771C197.607 70.9771 198.489 72.7831 198.489 76.1291C198.489 79.5731 197.761 81.4071 195.087 81.4071C192.973 81.4071 191.993 80.1051 191.867 78.6491ZM195.115 76.2691C196.249 76.2691 196.921 75.4991 196.921 74.3511C196.921 73.0491 196.179 72.3071 195.017 72.3071C193.827 72.3071 193.113 73.1331 193.113 74.3091C193.113 75.3591 193.701 76.2691 195.115 76.2691ZM199.466 83.3671L200.46 79.5031H202.196L200.502 83.3671H199.466ZM203.353 73.7351C203.465 71.9711 204.837 70.9771 206.699 70.9771C208.729 70.9771 209.835 72.1531 209.835 73.6371C209.835 74.8551 209.065 75.6811 208.267 75.9471V76.0031C209.331 76.3251 210.017 77.2071 210.017 78.6211C210.017 80.2451 208.869 81.4771 206.741 81.4771C204.809 81.4771 203.311 80.4691 203.213 78.4671H204.753C204.823 79.4191 205.523 80.1471 206.727 80.1471C207.917 80.1471 208.505 79.4191 208.505 78.4671C208.505 77.1231 207.637 76.6611 205.971 76.6611H205.607V75.3451H205.985C207.427 75.3311 208.309 74.9111 208.309 73.8191C208.309 72.9371 207.735 72.3491 206.643 72.3491C205.523 72.3491 205.005 73.0211 204.907 73.7351H203.353ZM211.567 81.2811V80.1191C213.975 78.0051 216.509 76.1571 216.509 74.1551C216.509 73.0911 216.047 72.3631 214.857 72.3631C213.737 72.3631 213.135 73.1471 213.093 74.2951H211.553C211.609 72.0831 213.037 71.0051 214.843 71.0051C216.915 71.0051 218.091 72.2511 218.091 74.0851C218.091 76.5631 215.571 78.4531 213.933 79.9511H218.371V81.2811H211.567ZM219.521 73.6791C219.521 72.2931 220.431 71.4951 221.649 71.4951C222.867 71.4951 223.777 72.2931 223.777 73.6791C223.777 75.0791 222.867 75.8771 221.649 75.8771C220.431 75.8771 219.521 75.0791 219.521 73.6791ZM221.649 72.4611C221.103 72.4611 220.767 72.8111 220.767 73.6791C220.767 74.5471 221.103 74.9111 221.649 74.9111C222.181 74.9111 222.531 74.5471 222.531 73.6791C222.531 72.8111 222.181 72.4611 221.649 72.4611ZM220.907 81.4211L226.493 71.6771H228.061L222.475 81.4211H220.907ZM225.219 79.4051C225.219 78.0051 226.129 77.2211 227.347 77.2211C228.551 77.2211 229.461 78.0051 229.461 79.4051C229.461 80.8051 228.551 81.6031 227.347 81.6031C226.129 81.6031 225.219 80.8051 225.219 79.4051ZM227.333 78.1871C226.801 78.1871 226.451 78.5371 226.451 79.4051C226.451 80.2731 226.801 80.6231 227.333 80.6231C227.865 80.6231 228.215 80.2731 228.215 79.4051C228.215 78.5371 227.865 78.1871 227.333 78.1871Z" fill="#1AD598"/>
<path d="M163.999 86.999C170.626 86.999 175.999 81.8503 175.999 75.499C175.999 69.1477 170.626 63.999 163.999 63.999C157.372 63.999 151.999 69.1477 151.999 75.499C151.999 81.8503 157.372 86.999 163.999 86.999Z" fill="#1AD598" fill-opacity="0.2"/>
<path d="M160.266 79.439C160.105 79.2756 160.015 79.0554 160.015 78.826C160.015 78.5967 160.105 78.3765 160.266 78.213L165.678 72.754H162.595C162.365 72.754 162.144 72.6626 161.982 72.5C161.819 72.3373 161.728 72.1166 161.728 71.8865C161.728 71.6565 161.819 71.4358 161.982 71.2731C162.144 71.1104 162.365 71.019 162.595 71.019H167.755C167.872 71.019 167.988 71.0432 168.095 71.09H168.103H168.111C168.205 71.133 168.29 71.1927 168.363 71.266C168.411 71.3149 168.454 71.3693 168.489 71.428L168.495 71.439L168.505 71.462C168.578 71.592 168.615 71.7383 168.615 71.887V77.087C168.615 77.3153 168.524 77.5341 168.363 77.6955C168.202 77.8569 167.983 77.9475 167.755 77.9475C167.526 77.9475 167.308 77.8569 167.146 77.6955C166.985 77.5341 166.894 77.3153 166.894 77.087V73.981L161.482 79.439C161.403 79.5195 161.308 79.5833 161.204 79.6269C161.099 79.6705 160.987 79.6929 160.874 79.6929C160.761 79.6929 160.649 79.6705 160.545 79.6269C160.44 79.5833 160.346 79.5195 160.266 79.439Z" fill="#1AD598"/>
</svg>
