<svg width="187" height="123" viewBox="0 0 187 123" fill="none" xmlns="http://www.w3.org/2000/svg">
<path d="M176.448 0.572998H10C4.47715 0.572998 0 5.05015 0 10.573V112.425C0 117.948 4.47715 122.425 10 122.425H176.448C181.971 122.425 186.448 117.948 186.448 112.425V10.573C186.448 5.05015 181.971 0.572998 176.448 0.572998Z" fill="white"/>
<path opacity="0.9" d="M162.522 101.872C162.194 101.872 161.869 101.807 161.565 101.682C161.262 101.556 160.986 101.372 160.754 101.14C160.522 100.908 160.338 100.632 160.212 100.329C160.087 100.025 160.022 99.7003 160.022 99.372V63.265C160.022 62.6019 160.285 61.966 160.754 61.4972C161.223 61.0284 161.859 60.765 162.522 60.765H163.394C164.057 60.765 164.693 61.0284 165.162 61.4972C165.631 61.966 165.894 62.6019 165.894 63.265V99.372C165.894 99.7003 165.829 100.025 165.704 100.329C165.578 100.632 165.394 100.908 165.162 101.14C164.93 101.372 164.654 101.556 164.351 101.682C164.047 101.807 163.722 101.872 163.394 101.872H162.522ZM127.285 100.698C126.622 100.698 125.986 100.435 125.517 99.9657C125.048 99.4969 124.785 98.861 124.785 98.198V49.171C124.785 48.5079 125.048 47.872 125.517 47.4032C125.986 46.9344 126.622 46.671 127.285 46.671H128.157C128.82 46.671 129.456 46.9344 129.925 47.4032C130.394 47.872 130.657 48.5079 130.657 49.171V98.197C130.657 98.5253 130.592 98.8504 130.467 99.1537C130.341 99.457 130.157 99.7326 129.925 99.9647C129.693 100.197 129.417 100.381 129.114 100.507C128.81 100.632 128.485 100.697 128.157 100.697L127.285 100.698ZM109.668 100.698C109.005 100.698 108.369 100.435 107.9 99.9657C107.431 99.4969 107.168 98.861 107.168 98.198V26.858C107.168 26.1949 107.431 25.559 107.9 25.0902C108.369 24.6214 109.005 24.358 109.668 24.358H110.54C111.203 24.358 111.839 24.6214 112.308 25.0902C112.777 25.559 113.04 26.1949 113.04 26.858V98.197C113.04 98.5253 112.975 98.8504 112.85 99.1537C112.724 99.457 112.54 99.7326 112.308 99.9647C112.076 100.197 111.8 100.381 111.497 100.507C111.193 100.632 110.868 100.697 110.54 100.697L109.668 100.698ZM92.05 100.698C91.3869 100.698 90.751 100.435 90.2822 99.9657C89.8134 99.4969 89.55 98.861 89.55 98.198V37.427C89.55 36.7639 89.8134 36.128 90.2822 35.6592C90.751 35.1904 91.3869 34.927 92.05 34.927H92.922C93.585 34.927 94.2209 35.1904 94.6897 35.6592C95.1586 36.128 95.422 36.7639 95.422 37.427V98.197C95.422 98.5253 95.3573 98.8504 95.2317 99.1537C95.106 99.457 94.9219 99.7326 94.6897 99.9647C94.4576 100.197 94.182 100.381 93.8787 100.507C93.5754 100.632 93.2503 100.697 92.922 100.697L92.05 100.698ZM74.433 100.698C73.7699 100.698 73.134 100.435 72.6652 99.9657C72.1964 99.4969 71.933 98.861 71.933 98.198V22.158C71.933 21.4949 72.1964 20.859 72.6652 20.3902C73.134 19.9214 73.7699 19.658 74.433 19.658H75.305C75.968 19.658 76.6039 19.9214 77.0727 20.3902C77.5416 20.859 77.805 21.4949 77.805 22.158V98.197C77.805 98.5253 77.7403 98.8504 77.6147 99.1537C77.489 99.457 77.3049 99.7326 77.0727 99.9647C76.8406 100.197 76.565 100.381 76.2617 100.507C75.9584 100.632 75.6333 100.697 75.305 100.697L74.433 100.698ZM56.815 100.698C56.1519 100.698 55.516 100.435 55.0472 99.9657C54.5784 99.4969 54.315 98.861 54.315 98.198V67.958C54.315 67.2949 54.5784 66.659 55.0472 66.1902C55.516 65.7214 56.1519 65.458 56.815 65.458H57.687C58.35 65.458 58.9859 65.7214 59.4547 66.1902C59.9236 66.659 60.187 67.2949 60.187 67.958V98.197C60.187 98.5253 60.1223 98.8504 59.9967 99.1537C59.871 99.457 59.6869 99.7326 59.4547 99.9647C59.2226 100.197 58.947 100.381 58.6437 100.507C58.3404 100.632 58.0153 100.697 57.687 100.697L56.815 100.698ZM39.198 100.698C38.5349 100.698 37.899 100.435 37.4302 99.9657C36.9614 99.4969 36.698 98.861 36.698 98.198V37.427C36.698 36.7639 36.9614 36.128 37.4302 35.6592C37.899 35.1904 38.5349 34.927 39.198 34.927H40.07C40.733 34.927 41.3689 35.1904 41.8377 35.6592C42.3066 36.128 42.57 36.7639 42.57 37.427V98.197C42.57 98.5253 42.5053 98.8504 42.3797 99.1537C42.254 99.457 42.0699 99.7326 41.8377 99.9647C41.6056 100.197 41.33 100.381 41.0267 100.507C40.7234 100.632 40.3983 100.697 40.07 100.697L39.198 100.698ZM21.585 100.698C20.9219 100.698 20.286 100.435 19.8172 99.9657C19.3484 99.4969 19.085 98.861 19.085 98.198V58.567C19.085 57.9039 19.3484 57.268 19.8172 56.7992C20.286 56.3303 20.9219 56.067 21.585 56.067H22.457C22.7853 56.067 23.1104 56.1316 23.4137 56.2573C23.717 56.3829 23.9926 56.567 24.2247 56.7992C24.4569 57.0313 24.641 57.3069 24.7667 57.6102C24.8923 57.9136 24.957 58.2387 24.957 58.567V98.197C24.957 98.5253 24.8923 98.8504 24.7667 99.1537C24.641 99.457 24.4569 99.7326 24.2247 99.9647C23.9926 100.197 23.717 100.381 23.4137 100.507C23.1104 100.632 22.7853 100.697 22.457 100.697L21.585 100.698ZM142.405 97.758V31.99C142.405 31.2112 142.714 30.4642 143.265 29.9135C143.816 29.3628 144.563 29.0535 145.341 29.0535C146.12 29.0535 146.867 29.3628 147.418 29.9135C147.969 30.4642 148.278 31.2112 148.278 31.99V97.758C148.278 98.5368 147.969 99.2837 147.418 99.8344C146.867 100.385 146.12 100.694 145.341 100.694C144.563 100.694 143.816 100.385 143.265 99.8344C142.714 99.2837 142.405 98.5368 142.405 97.758Z" fill="url(#paint0_linear_493_838)"/>
<defs>
<linearGradient id="paint0_linear_493_838" x1="92.4895" y1="19.658" x2="92.4895" y2="101.872" gradientUnits="userSpaceOnUse">
<stop stop-color="#5C96FD"/>
<stop offset="1" stop-color="#6C4FFE"/>
</linearGradient>
</defs>
</svg>
