<svg width="1370" height="310" viewBox="0 0 1370 310" fill="none" xmlns="http://www.w3.org/2000/svg">
<g opacity="0.25">
<mask id="mask0_408_3105" style="mask-type:luminance" maskUnits="userSpaceOnUse" x="277" y="0" width="63" height="63">
<path d="M340 0.312012H277.502V62.811H340V0.312012Z" fill="white"/>
</mask>
<g mask="url(#mask0_408_3105)">
<path d="M312.035 45.624C310.335 45.6817 308.649 45.2913 307.148 44.492C305.646 43.6927 304.381 42.5126 303.48 41.07C302.696 39.9053 302.096 38.6266 301.702 37.279H311.228V33.479H301.087C301.075 33.205 301.067 32.93 301.067 32.651C301.067 31.904 301.103 31.186 301.167 30.493H314.354V26.693H301.962C302.287 25.7317 302.727 24.8128 303.271 23.956C305.248 20.8287 308.352 19.265 312.585 19.265C315.727 19.2246 318.846 19.8107 321.76 20.989L323.14 17.539C319.743 16.172 316.108 15.4922 312.447 15.539C307.342 15.539 303.363 17.1947 300.512 20.506C299.005 22.3037 297.924 24.4187 297.349 26.693H292.049V30.493H296.721C296.671 31.1484 296.646 31.8217 296.645 32.513C296.645 32.8397 296.651 33.1617 296.662 33.479H292.049V37.279H297.1C297.616 40.0098 298.825 42.5623 300.611 44.692C301.896 46.2158 303.511 47.4271 305.334 48.234C307.157 49.0409 309.14 49.4222 311.132 49.349C315.241 49.4501 319.327 48.6982 323.132 47.141L321.959 43.554C318.851 44.9987 315.451 45.7071 312.025 45.624" fill="url(#paint0_linear_408_3105)"/>
<path d="M308.751 62.812C302.571 62.8118 296.529 60.979 291.39 57.5452C286.252 54.1114 282.246 49.231 279.881 43.521C277.516 37.8111 276.898 31.528 278.103 25.4664C279.309 19.4048 282.285 13.8368 286.656 9.46662C291.026 5.09643 296.594 2.12028 302.655 0.914497C308.717 -0.291284 315 0.327473 320.71 2.69251C326.42 5.05755 331.3 9.06264 334.734 14.2014C338.168 19.3401 340.001 25.3816 340.001 31.562C339.992 39.8472 336.696 47.7904 330.838 53.6489C324.979 59.5074 317.036 62.8027 308.751 62.812ZM308.751 3.59101C303.219 3.59101 297.81 5.23153 293.211 8.30514C288.611 11.3787 285.025 15.7474 282.908 20.8586C280.791 25.9698 280.237 31.594 281.316 37.0201C282.396 42.4461 285.06 47.4302 288.972 51.3422C292.884 55.2542 297.868 57.9182 303.294 58.9975C308.72 60.0768 314.344 59.5229 319.455 57.4058C324.567 55.2886 328.935 51.7034 332.009 47.1034C335.082 42.5034 336.723 37.0954 336.723 31.563C336.716 24.1467 333.766 17.0362 328.522 11.792C323.278 6.54784 316.167 3.59842 308.751 3.59101Z" fill="url(#paint1_linear_408_3105)"/>
</g>
</g>
<g opacity="0.25">
<mask id="mask1_408_3105" style="mask-type:luminance" maskUnits="userSpaceOnUse" x="0" y="108" width="61" height="62">
<path d="M60.331 108.835H0V169.166H60.331V108.835Z" fill="white"/>
</mask>
<g mask="url(#mask1_408_3105)">
<path d="M44.5692 122.79H39.4862L30.2372 137.899L20.9182 122.79H15.7642L27.8922 141.469H17.3342V145.157H28.0492V147.897H17.3342V151.585H28.0492V156.397H32.4261V151.585H43.0432V147.897H32.4261V145.157H43.0432V141.469H32.5361L44.5692 122.79Z" fill="url(#paint2_linear_408_3105)"/>
<path d="M30.167 169.166C24.201 169.166 18.369 167.396 13.4085 164.082C8.44808 160.767 4.58191 156.056 2.29892 150.544C0.0159225 145.032 -0.581348 138.967 0.582607 133.116C1.74656 127.264 4.61939 121.89 8.83798 117.671C13.0566 113.452 18.4315 110.58 24.2828 109.416C30.1341 108.252 36.1991 108.849 41.711 111.132C47.2229 113.415 51.9341 117.281 55.2487 122.242C58.5634 127.202 60.3327 133.034 60.3329 139C60.3239 146.998 57.1428 154.665 51.4875 160.321C45.8322 165.976 38.1647 169.157 30.167 169.166ZM30.167 111.999C24.8269 111.999 19.6066 113.582 15.1665 116.549C10.7263 119.516 7.2657 123.733 5.22213 128.667C3.17857 133.6 2.64396 139.029 3.68576 144.266C4.72756 149.504 7.29902 154.315 11.075 158.091C14.8511 161.867 19.662 164.438 24.8995 165.48C30.137 166.522 35.5658 165.987 40.4994 163.944C45.433 161.9 49.6497 158.439 52.6165 153.999C55.5833 149.559 57.167 144.339 57.167 138.999C57.1585 131.841 54.3111 124.978 49.2495 119.916C44.1878 114.855 37.3252 112.007 30.167 111.999Z" fill="url(#paint3_linear_408_3105)"/>
</g>
</g>
<g opacity="0.25">
<mask id="mask2_408_3105" style="mask-type:luminance" maskUnits="userSpaceOnUse" x="1312" y="154" width="58" height="59">
<path d="M1369.81 154.201H1312V212.007H1369.81V154.201Z" fill="white"/>
</mask>
<g mask="url(#mask2_408_3105)">
<path d="M1348.38 185.329C1346.77 183.751 1344.88 182.495 1342.8 181.629L1342.96 171.929C1344.66 172.092 1346.28 172.755 1347.61 173.837L1349.7 170.425C1347.64 169.243 1345.37 168.462 1343.02 168.125V163.041H1338.98V168.195C1336.89 168.533 1334.98 169.534 1333.51 171.05C1332.2 172.445 1331.49 174.293 1331.52 176.204C1331.52 179.254 1333.91 181.946 1338.69 184.281L1338.49 195.281C1336.32 195.089 1334.27 194.267 1332.57 192.916L1330.69 196.259C1332.93 197.943 1335.62 198.935 1338.42 199.114V203.989H1342.53V198.975C1344.7 198.574 1346.68 197.474 1348.17 195.841C1349.51 194.403 1350.25 192.512 1350.26 190.548C1350.32 188.63 1349.65 186.762 1348.38 185.324M1335.77 175.853C1335.75 175.27 1335.88 174.692 1336.15 174.174C1336.42 173.656 1336.82 173.215 1337.3 172.893C1337.79 172.552 1338.33 172.291 1338.9 172.121L1338.77 179.589C1336.77 178.333 1335.77 177.088 1335.77 175.853M1344.33 194.065C1343.81 194.464 1343.22 194.768 1342.59 194.965L1342.72 186.219C1344.91 187.532 1346 189.021 1346.01 190.684C1346.02 191.34 1345.88 191.99 1345.58 192.578C1345.29 193.167 1344.86 193.676 1344.33 194.062" fill="url(#paint4_linear_408_3105)"/>
<path d="M1340.9 212.007C1335.19 212.007 1329.6 210.312 1324.85 207.136C1320.09 203.961 1316.39 199.447 1314.2 194.167C1312.02 188.886 1311.44 183.075 1312.56 177.469C1313.67 171.863 1316.43 166.713 1320.47 162.672C1324.51 158.63 1329.66 155.877 1335.26 154.762C1340.87 153.647 1346.68 154.22 1351.96 156.407C1357.24 158.594 1361.76 162.298 1364.93 167.051C1368.11 171.804 1369.8 177.391 1369.8 183.107C1369.79 190.769 1366.75 198.114 1361.33 203.532C1355.91 208.95 1348.56 211.998 1340.9 212.007ZM1340.9 157.233C1335.79 157.233 1330.78 158.75 1326.53 161.593C1322.28 164.436 1318.96 168.476 1317 173.204C1315.04 177.931 1314.53 183.133 1315.53 188.151C1316.53 193.17 1318.99 197.779 1322.61 201.398C1326.23 205.016 1330.84 207.48 1335.86 208.478C1340.87 209.476 1346.08 208.964 1350.8 207.006C1355.53 205.048 1359.57 201.732 1362.41 197.477C1365.26 193.223 1366.77 188.221 1366.77 183.104C1366.77 176.245 1364.04 169.669 1359.19 164.819C1354.34 159.969 1347.76 157.241 1340.9 157.233Z" fill="url(#paint5_linear_408_3105)"/>
</g>
</g>
<g opacity="0.25">
<mask id="mask3_408_3105" style="mask-type:luminance" maskUnits="userSpaceOnUse" x="1028" y="250" width="60" height="60">
<path d="M1087.03 250.419H1028V309.453H1087.03V250.419Z" fill="white"/>
</mask>
<g mask="url(#mask3_408_3105)">
<mask id="mask4_408_3105" style="mask-type:luminance" maskUnits="userSpaceOnUse" x="1028" y="250" width="60" height="60">
<path d="M1087.03 250.419H1028V309.453H1087.03V250.419Z" fill="white"/>
</mask>
<g mask="url(#mask4_408_3105)">
<g style="mix-blend-mode:color-dodge">
<mask id="mask5_408_3105" style="mask-type:luminance" maskUnits="userSpaceOnUse" x="1028" y="250" width="60" height="60">
<path d="M1087.03 250.419H1028V309.453H1087.03V250.419Z" fill="white"/>
</mask>
<g mask="url(#mask5_408_3105)">
<path d="M1051.81 292.884C1053.2 290.483 1053.94 287.758 1053.94 284.984V281.284H1063.88V277.215H1053.94V272.598C1053.94 271.774 1054.1 270.959 1054.41 270.198C1054.73 269.437 1055.19 268.746 1055.77 268.164C1056.36 267.581 1057.05 267.12 1057.81 266.804C1058.57 266.489 1059.38 266.327 1060.21 266.327H1070.63V262.408H1059.32C1056.68 262.408 1054.15 263.457 1052.28 265.325C1050.41 267.193 1049.36 269.726 1049.36 272.368V277.215H1044.19V281.288H1049.36V285.534C1049.36 288.184 1048.62 290.782 1047.23 293.034L1044.79 296.956H1071.78V292.884H1051.81Z" fill="url(#paint6_linear_408_3105)"/>
<path d="M1057.52 309.453C1051.68 309.453 1045.97 307.722 1041.12 304.479C1036.26 301.235 1032.48 296.625 1030.25 291.232C1028.01 285.838 1027.43 279.903 1028.57 274.178C1029.71 268.452 1032.52 263.192 1036.65 259.064C1040.77 254.936 1046.03 252.125 1051.76 250.986C1057.48 249.847 1063.42 250.432 1068.81 252.666C1074.21 254.9 1078.82 258.683 1082.06 263.537C1085.3 268.391 1087.03 274.098 1087.03 279.936C1087.03 287.762 1083.91 295.264 1078.38 300.798C1072.85 306.332 1065.34 309.444 1057.52 309.453ZM1057.52 253.516C1052.29 253.516 1047.18 255.065 1042.84 257.968C1038.49 260.871 1035.11 264.998 1033.11 269.826C1031.11 274.654 1030.58 279.966 1031.6 285.091C1032.62 290.217 1035.14 294.924 1038.83 298.619C1042.53 302.315 1047.24 304.831 1052.36 305.85C1057.49 306.87 1062.8 306.347 1067.63 304.347C1072.46 302.347 1076.58 298.96 1079.48 294.615C1082.39 290.27 1083.94 285.162 1083.94 279.936C1083.93 272.932 1081.14 266.217 1076.19 261.265C1071.24 256.313 1064.52 253.527 1057.52 253.519" fill="url(#paint7_linear_408_3105)"/>
</g>
</g>
</g>
</g>
</g>
<path d="M1289 79.2981H1196C1190.48 79.2981 1186 83.7752 1186 89.2981V115.298C1186 120.821 1190.48 125.298 1196 125.298H1289C1294.52 125.298 1299 120.821 1299 115.298V89.2981C1299 83.7752 1294.52 79.2981 1289 79.2981Z" fill="white"/>
<path d="M1236.77 100.095H1238.26V102.993H1241.08V104.337H1238.26V107.235H1236.77V104.337H1233.94V102.993H1236.77V100.095ZM1248.22 108.719V106.591H1243.15V105.387L1247.86 98.6391H1249.79V105.205H1251.09V106.591H1249.79V108.719H1248.22ZM1244.99 105.205H1248.29V100.263L1244.99 105.205ZM1251.64 110.665L1252.64 106.801H1254.37L1252.68 110.665H1251.64ZM1255.43 108.579V107.417C1257.84 105.303 1260.38 103.455 1260.38 101.453C1260.38 100.389 1259.91 99.6611 1258.72 99.6611C1257.6 99.6611 1257 100.445 1256.96 101.593H1255.42C1255.48 99.3811 1256.9 98.3031 1258.71 98.3031C1260.78 98.3031 1261.96 99.5491 1261.96 101.383C1261.96 103.861 1259.44 105.751 1257.8 107.249H1262.24V108.579H1255.43ZM1263.36 98.5551H1270.11V99.7451L1266.22 108.719H1264.61L1268.54 99.9131H1263.36V98.5551ZM1271.22 100.977C1271.22 99.5911 1272.13 98.7931 1273.35 98.7931C1274.57 98.7931 1275.48 99.5911 1275.48 100.977C1275.48 102.377 1274.57 103.175 1273.35 103.175C1272.13 103.175 1271.22 102.377 1271.22 100.977ZM1273.35 99.7591C1272.8 99.7591 1272.47 100.109 1272.47 100.977C1272.47 101.845 1272.8 102.209 1273.35 102.209C1273.88 102.209 1274.23 101.845 1274.23 100.977C1274.23 100.109 1273.88 99.7591 1273.35 99.7591ZM1272.61 108.719L1278.19 98.9751H1279.76L1274.18 108.719H1272.61ZM1276.92 106.703C1276.92 105.303 1277.83 104.519 1279.05 104.519C1280.25 104.519 1281.16 105.303 1281.16 106.703C1281.16 108.103 1280.25 108.901 1279.05 108.901C1277.83 108.901 1276.92 108.103 1276.92 106.703ZM1279.03 105.485C1278.5 105.485 1278.15 105.835 1278.15 106.703C1278.15 107.571 1278.5 107.921 1279.03 107.921C1279.57 107.921 1279.92 107.571 1279.92 106.703C1279.92 105.835 1279.57 105.485 1279.03 105.485Z" fill="#1AD598"/>
<path d="M1216 114.297C1222.63 114.297 1228 109.148 1228 102.797C1228 96.4458 1222.63 91.2971 1216 91.2971C1209.37 91.2971 1204 96.4458 1204 102.797C1204 109.148 1209.37 114.297 1216 114.297Z" fill="#1AD598" fill-opacity="0.2"/>
<path d="M1212.27 106.737C1212.11 106.574 1212.02 106.353 1212.02 106.124C1212.02 105.895 1212.11 105.675 1212.27 105.511L1217.68 100.052H1214.6C1214.37 100.052 1214.15 99.9607 1213.98 99.7981C1213.82 99.6354 1213.73 99.4147 1213.73 99.1846C1213.73 98.9546 1213.82 98.7339 1213.98 98.5712C1214.15 98.4085 1214.37 98.3171 1214.6 98.3171H1219.76C1219.87 98.3171 1219.99 98.3413 1220.1 98.3881H1220.1H1220.11C1220.21 98.4311 1220.29 98.4907 1220.36 98.5641C1220.41 98.613 1220.45 98.6674 1220.49 98.7261L1220.5 98.7371L1220.51 98.7601C1220.58 98.8901 1220.62 99.0364 1220.62 99.1851V104.385C1220.62 104.613 1220.53 104.832 1220.36 104.994C1220.2 105.155 1219.98 105.246 1219.76 105.246C1219.53 105.246 1219.31 105.155 1219.15 104.994C1218.99 104.832 1218.9 104.613 1218.9 104.385V101.279L1213.48 106.737C1213.4 106.818 1213.31 106.881 1213.2 106.925C1213.1 106.969 1212.99 106.991 1212.88 106.991C1212.76 106.991 1212.65 106.969 1212.55 106.925C1212.44 106.881 1212.35 106.818 1212.27 106.737Z" fill="#1AD598"/>
<path d="M798.501 0.312012H774.501C768.978 0.312012 764.501 4.78916 764.501 10.312V35.312C764.501 40.8349 768.978 45.312 774.501 45.312H798.501C804.024 45.312 808.501 40.8349 808.501 35.312V10.312C808.501 4.78916 804.024 0.312012 798.501 0.312012Z" fill="white"/>
<path d="M792.68 13.562L796.151 17.027L788.751 24.412L782.692 18.362L771.462 29.588L773.599 31.722L782.692 22.642L788.754 28.695L798.302 19.176L801.773 22.642V13.562H792.68Z" fill="#6C4FFE" stroke="#777E90" stroke-opacity="0.1"/>
<path d="M321.251 250.419H296.251C290.728 250.419 286.251 254.896 286.251 260.419V284.419C286.251 289.942 290.728 294.419 296.251 294.419H321.251C326.774 294.419 331.251 289.942 331.251 284.419V260.419C331.251 254.896 326.774 250.419 321.251 250.419Z" fill="white"/>
<path d="M314.647 263.232L318.118 266.697L310.718 274.082L304.659 268.032L293.429 279.258L295.566 281.392L304.659 272.312L310.721 278.365L320.269 268.846L323.74 272.312V263.232H314.647Z" fill="#5C96FD" stroke="#777E90" stroke-opacity="0.1"/>
<path d="M606 183.104H513C507.477 183.104 503 187.581 503 193.104V219.104C503 224.627 507.477 229.104 513 229.104H606C611.523 229.104 616 224.627 616 219.104V193.104C616 187.581 611.523 183.104 606 183.104Z" fill="white"/>
<path d="M552.771 203.901H554.255V206.799H557.083V208.143H554.255V211.041H552.771V208.143H549.943V206.799H552.771V203.901ZM559.069 202.361H565.817V203.551L561.925 212.525H560.315L564.249 203.719H559.069V202.361ZM566.413 214.471L567.407 210.607H569.143L567.449 214.471H566.413ZM571.42 212.525V203.775H570.118V202.319H573.03V212.525H571.42ZM576.314 212.525V203.775H575.012V202.319H577.924V212.525H576.314ZM579.865 204.783C579.865 203.397 580.775 202.599 581.993 202.599C583.211 202.599 584.121 203.397 584.121 204.783C584.121 206.183 583.211 206.981 581.993 206.981C580.775 206.981 579.865 206.183 579.865 204.783ZM581.993 203.565C581.447 203.565 581.111 203.915 581.111 204.783C581.111 205.651 581.447 206.015 581.993 206.015C582.525 206.015 582.875 205.651 582.875 204.783C582.875 203.915 582.525 203.565 581.993 203.565ZM581.251 212.525L586.837 202.781H588.405L582.819 212.525H581.251ZM585.563 210.509C585.563 209.109 586.473 208.325 587.691 208.325C588.895 208.325 589.805 209.109 589.805 210.509C589.805 211.909 588.895 212.707 587.691 212.707C586.473 212.707 585.563 211.909 585.563 210.509ZM587.677 209.291C587.145 209.291 586.795 209.641 586.795 210.509C586.795 211.377 587.145 211.727 587.677 211.727C588.209 211.727 588.559 211.377 588.559 210.509C588.559 209.641 588.209 209.291 587.677 209.291Z" fill="#1AD598"/>
<path d="M531.999 218.103C538.626 218.103 543.999 212.954 543.999 206.603C543.999 200.252 538.626 195.103 531.999 195.103C525.372 195.103 519.999 200.252 519.999 206.603C519.999 212.954 525.372 218.103 531.999 218.103Z" fill="#1AD598" fill-opacity="0.2"/>
<path d="M528.266 210.543C528.105 210.38 528.015 210.159 528.015 209.93C528.015 209.701 528.105 209.481 528.266 209.317L533.678 203.858H530.595C530.365 203.858 530.144 203.767 529.982 203.604C529.819 203.441 529.728 203.221 529.728 202.991C529.728 202.76 529.819 202.54 529.982 202.377C530.144 202.214 530.365 202.123 530.595 202.123H535.755C535.872 202.123 535.988 202.147 536.095 202.194H536.103H536.111C536.205 202.237 536.29 202.297 536.363 202.37C536.411 202.419 536.454 202.473 536.489 202.532L536.495 202.543L536.505 202.566C536.578 202.696 536.615 202.842 536.615 202.991V208.191C536.615 208.419 536.524 208.638 536.363 208.8C536.202 208.961 535.983 209.052 535.755 209.052C535.526 209.052 535.308 208.961 535.146 208.8C534.985 208.638 534.894 208.419 534.894 208.191V205.085L529.482 210.543C529.403 210.623 529.308 210.687 529.204 210.731C529.099 210.774 528.987 210.797 528.874 210.797C528.761 210.797 528.649 210.774 528.545 210.731C528.44 210.687 528.346 210.623 528.266 210.543Z" fill="#1AD598"/>
<path d="M862 95H738C732.477 95 728 99.4772 728 105V129C728 134.523 732.477 139 738 139H862C867.523 139 872 134.523 872 129V105C872 99.4772 867.523 95 862 95Z" fill="white"/>
<path d="M758.249 113.991C758.048 113.833 757.804 113.74 757.549 113.722L752.909 113.397L751.188 109.064C751.095 108.824 750.931 108.618 750.719 108.473C750.507 108.328 750.256 108.25 749.999 108.25C749.742 108.25 749.491 108.328 749.279 108.473C749.067 108.618 748.904 108.824 748.811 109.064L747.065 113.423L742.451 113.723C742.194 113.74 741.949 113.833 741.746 113.991C741.543 114.149 741.393 114.365 741.315 114.61C741.232 114.858 741.225 115.126 741.297 115.377C741.368 115.629 741.514 115.853 741.715 116.021L745.265 119.021L744.212 123.176C744.139 123.456 744.152 123.751 744.25 124.023C744.348 124.295 744.526 124.532 744.76 124.701C744.986 124.865 745.256 124.958 745.536 124.967C745.815 124.976 746.091 124.9 746.327 124.75L749.989 122.43C749.989 122.43 749.999 122.424 750.01 122.43L753.95 124.93C754.164 125.067 754.414 125.136 754.668 125.128C754.921 125.12 755.167 125.036 755.372 124.886C755.585 124.733 755.746 124.519 755.836 124.273C755.925 124.026 755.937 123.759 755.872 123.505L754.749 118.963L758.283 116.022C758.484 115.854 758.629 115.63 758.701 115.378C758.772 115.127 758.766 114.859 758.683 114.611C758.604 114.365 758.453 114.149 758.249 113.991Z" fill="#FFC74A"/>
<path d="M783.249 113.991C783.048 113.833 782.804 113.74 782.549 113.722L777.909 113.397L776.188 109.064C776.095 108.824 775.931 108.618 775.719 108.473C775.507 108.328 775.256 108.25 774.999 108.25C774.742 108.25 774.491 108.328 774.279 108.473C774.067 108.618 773.904 108.824 773.811 109.064L772.065 113.423L767.451 113.723C767.194 113.74 766.949 113.833 766.746 113.991C766.543 114.149 766.393 114.365 766.315 114.61C766.232 114.858 766.225 115.126 766.297 115.377C766.368 115.629 766.514 115.853 766.715 116.021L770.265 119.021L769.212 123.176C769.139 123.456 769.152 123.751 769.25 124.023C769.348 124.295 769.526 124.532 769.76 124.701C769.986 124.865 770.256 124.958 770.536 124.967C770.815 124.976 771.091 124.9 771.327 124.75L774.989 122.43C774.989 122.43 774.999 122.424 775.01 122.43L778.95 124.93C779.164 125.067 779.414 125.136 779.668 125.128C779.921 125.12 780.167 125.036 780.372 124.886C780.585 124.733 780.746 124.519 780.836 124.273C780.925 124.026 780.937 123.759 780.872 123.505L779.749 118.963L783.283 116.022C783.484 115.854 783.629 115.63 783.701 115.378C783.772 115.127 783.766 114.859 783.683 114.611C783.604 114.365 783.453 114.149 783.249 113.991Z" fill="#FFC74A"/>
<path d="M808.249 113.991C808.048 113.833 807.804 113.74 807.549 113.722L802.909 113.397L801.188 109.064C801.095 108.824 800.931 108.618 800.719 108.473C800.507 108.328 800.256 108.25 799.999 108.25C799.742 108.25 799.491 108.328 799.279 108.473C799.067 108.618 798.904 108.824 798.811 109.064L797.065 113.423L792.451 113.723C792.194 113.74 791.949 113.833 791.746 113.991C791.543 114.149 791.393 114.365 791.315 114.61C791.232 114.858 791.225 115.126 791.297 115.377C791.368 115.629 791.514 115.853 791.715 116.021L795.265 119.021L794.212 123.176C794.139 123.456 794.152 123.751 794.25 124.023C794.348 124.295 794.526 124.532 794.76 124.701C794.986 124.865 795.256 124.958 795.536 124.967C795.815 124.976 796.091 124.9 796.327 124.75L799.989 122.43C799.989 122.43 799.999 122.424 800.01 122.43L803.95 124.93C804.164 125.067 804.414 125.136 804.668 125.128C804.921 125.12 805.167 125.036 805.372 124.886C805.585 124.733 805.746 124.519 805.836 124.273C805.925 124.026 805.937 123.759 805.872 123.505L804.749 118.963L808.283 116.022C808.484 115.854 808.629 115.63 808.701 115.378C808.772 115.127 808.766 114.859 808.683 114.611C808.604 114.365 808.453 114.149 808.249 113.991Z" fill="#FFC74A"/>
<path d="M833.249 113.991C833.048 113.833 832.804 113.74 832.549 113.722L827.909 113.397L826.188 109.064C826.095 108.824 825.931 108.618 825.719 108.473C825.507 108.328 825.256 108.25 824.999 108.25C824.742 108.25 824.491 108.328 824.279 108.473C824.067 108.618 823.904 108.824 823.811 109.064L822.065 113.423L817.451 113.723C817.194 113.74 816.949 113.833 816.746 113.991C816.543 114.149 816.393 114.365 816.315 114.61C816.232 114.858 816.225 115.126 816.297 115.377C816.368 115.629 816.514 115.853 816.715 116.021L820.265 119.021L819.212 123.176C819.139 123.456 819.152 123.751 819.25 124.023C819.348 124.295 819.526 124.532 819.76 124.701C819.986 124.865 820.256 124.958 820.536 124.967C820.815 124.976 821.091 124.9 821.327 124.75L824.989 122.43C824.989 122.43 824.999 122.424 825.01 122.43L828.95 124.93C829.164 125.067 829.414 125.136 829.668 125.128C829.921 125.12 830.167 125.036 830.372 124.886C830.585 124.733 830.746 124.519 830.836 124.273C830.925 124.026 830.937 123.759 830.872 123.505L829.749 118.963L833.283 116.022C833.484 115.854 833.629 115.63 833.701 115.378C833.772 115.127 833.766 114.859 833.683 114.611C833.604 114.365 833.453 114.149 833.249 113.991Z" fill="#FFC74A"/>
<path d="M858.249 113.991C858.048 113.833 857.804 113.74 857.549 113.722L852.909 113.397L851.188 109.064C851.095 108.824 850.931 108.618 850.719 108.473C850.507 108.328 850.256 108.25 849.999 108.25C849.742 108.25 849.491 108.328 849.279 108.473C849.067 108.618 848.904 108.824 848.811 109.064L847.065 113.423L842.451 113.723C842.194 113.74 841.949 113.833 841.746 113.991C841.543 114.149 841.393 114.365 841.315 114.61C841.232 114.858 841.225 115.126 841.297 115.377C841.368 115.629 841.514 115.853 841.715 116.021L845.265 119.021L844.212 123.176C844.139 123.456 844.152 123.751 844.25 124.023C844.348 124.295 844.526 124.532 844.76 124.701C844.986 124.865 845.256 124.958 845.536 124.967C845.815 124.976 846.091 124.9 846.327 124.75L849.989 122.43C849.989 122.43 849.999 122.424 850.01 122.43L853.95 124.93C854.164 125.067 854.414 125.136 854.668 125.128C854.921 125.12 855.167 125.036 855.372 124.886C855.585 124.733 855.746 124.519 855.836 124.273C855.925 124.026 855.937 123.759 855.872 123.505L854.749 118.963L858.283 116.022C858.484 115.854 858.629 115.63 858.701 115.378C858.772 115.127 858.766 114.859 858.683 114.611C858.604 114.365 858.453 114.149 858.249 113.991Z" fill="#FFC74A"/>
<path d="M1039.42 12.3962L1009.06 29.9237C1004.27 32.6851 1002.64 38.801 1005.4 43.584L1022.92 73.9425C1025.69 78.7254 1031.8 80.3642 1036.58 77.6027L1066.94 60.0752C1071.73 57.3138 1073.36 51.1979 1070.6 46.415L1053.08 16.0565C1050.31 11.2735 1044.2 9.63478 1039.42 12.3962Z" fill="white"/>
<path fill-rule="evenodd" clip-rule="evenodd" d="M1027.89 26.8858C1024.29 28.967 1021.38 32.0703 1019.54 35.8034C1017.7 39.5364 1017.01 43.7315 1017.55 47.8582C1018.1 51.9849 1019.85 55.8579 1022.59 58.9873C1025.34 62.1166 1028.95 64.362 1032.97 65.4392C1036.99 66.5165 1041.24 66.3774 1045.18 65.0395C1049.12 63.7015 1052.58 61.2249 1055.11 57.9227C1057.65 54.6205 1059.14 50.6411 1059.42 46.4877C1059.69 42.3343 1058.72 38.1935 1056.64 34.5888C1053.85 29.7551 1049.26 26.228 1043.86 24.7834C1038.47 23.3388 1032.73 24.0951 1027.89 26.8858ZM1029.08 28.9392C1032.28 27.0925 1035.95 26.2357 1039.64 26.4773C1043.32 26.7189 1046.85 28.0479 1049.78 30.2962C1052.72 32.5446 1054.91 35.6114 1056.1 39.1088C1057.29 42.6061 1057.41 46.377 1056.45 49.9445C1055.5 53.512 1053.51 56.716 1050.73 59.1512C1047.95 61.5864 1044.52 63.1435 1040.85 63.6256C1037.19 64.1076 1033.47 63.4931 1030.16 61.8595C1026.85 60.226 1024.09 57.6469 1022.24 54.4483C1019.77 50.1592 1019.1 45.062 1020.38 40.2781C1021.66 35.4942 1024.79 31.4155 1029.08 28.9392Z" fill="#9ADAF7"/>
<path d="M1048.58 64.7099L1048.07 63.8367L1046.89 61.7831L1046.39 60.9171L1047.25 60.4171C1051.34 58.0567 1054.27 54.2455 1055.49 49.6855C1056.71 45.1255 1056.08 40.3627 1053.72 36.2744C1051.39 32.2301 1047.62 29.3184 1043.12 28.0755C1038.63 26.8343 1033.91 27.3968 1029.84 29.6592L1029.57 29.8095L1028.71 30.2984L1028.21 29.4394L1027.03 27.3858L1026.53 26.5198L1027.39 26.0198C1029.97 24.532 1032.76 23.5933 1035.69 23.2299C1038.52 22.8789 1041.36 23.0766 1044.12 23.8175C1046.89 24.5584 1049.44 25.8054 1051.72 27.5237C1054.07 29.303 1056.02 31.5119 1057.51 34.0888C1058.98 36.64 1059.92 39.4032 1060.29 42.3015C1060.65 45.1003 1060.47 47.9103 1059.75 50.6533C1059.04 53.3943 1057.83 55.935 1056.16 58.2049C1054.43 60.5527 1052.27 62.5085 1049.75 64.018L1049.75 64.02L1049.75 64.022L1049.45 64.1985L1048.58 64.7099Z" fill="#5C96FD"/>
<path d="M1027.89 26.8858L1029.08 28.9394L1029.35 28.7872C1038.24 23.8446 1049.48 26.9323 1054.59 35.7744C1059.75 44.7058 1056.69 56.1265 1047.75 61.2831L1048.94 63.3367L1049.24 63.1601C1059.07 57.2682 1062.4 44.5538 1056.64 34.5888C1050.83 24.5232 1037.96 21.0744 1027.89 26.8858ZM1025.16 26.1538L1026.89 25.1538C1029.59 23.5987 1032.51 22.6175 1035.57 22.2375C1038.53 21.8705 1041.49 22.0772 1044.38 22.8516C1047.27 23.626 1049.94 24.9295 1052.32 26.7258C1054.78 28.5863 1056.82 30.8953 1058.37 33.5888C1059.91 36.2554 1060.89 39.144 1061.28 42.1744C1061.65 45.1004 1061.47 48.0377 1060.72 50.9047C1059.98 53.7696 1058.71 56.4254 1056.96 58.7984C1055.15 61.2532 1052.9 63.2979 1050.27 64.8758L1050.25 64.8838L1048.22 66.0832L1045.02 60.5511L1046.75 59.5511C1050.61 57.3242 1053.37 53.7286 1054.52 49.4267C1055.68 45.1247 1055.08 40.6314 1052.86 36.7744C1050.65 32.959 1047.1 30.2119 1042.86 29.0394C1038.62 27.8687 1034.17 28.3989 1030.33 30.5319L1028.34 31.6575L1025.16 26.1538Z" fill="white"/>
<path d="M457.681 91.7253L432.726 77.3173C427.943 74.5558 421.827 76.1946 419.065 80.9775L404.657 105.933C401.896 110.716 403.535 116.832 408.318 119.593L433.273 134.001C438.056 136.763 444.172 135.124 446.933 130.341L461.341 105.386C464.103 100.603 462.464 94.4867 457.681 91.7253Z" fill="white"/>
<path d="M418.76 96.8813L419.344 97.2188C419.574 97.3514 419.741 97.5698 419.81 97.826C419.879 98.0822 419.843 98.3551 419.71 98.5848L411.068 113.553L408.752 112.216L417.394 97.2473C417.526 97.0176 417.745 96.85 418.001 96.7814C418.257 96.7127 418.53 96.7487 418.76 96.8813Z" fill="#E3E1E5"/>
<path d="M428.193 93.9167L428.777 94.2542C429.007 94.3868 429.175 94.6052 429.243 94.8614C429.312 95.1176 429.276 95.3905 429.143 95.6202L416.859 116.897L414.543 115.559L426.827 94.2827C426.959 94.053 427.178 93.8854 427.434 93.8168C427.69 93.7481 427.963 93.7841 428.193 93.9167Z" fill="#E3E1E5"/>
<path d="M438.961 88.6389L439.546 88.9764C439.775 89.109 439.943 89.3274 440.012 89.5836C440.08 89.8398 440.044 90.1128 439.912 90.3424L422.65 120.24L420.334 118.903L437.595 89.0049C437.728 88.7753 437.946 88.6077 438.202 88.539C438.459 88.4704 438.732 88.5063 438.961 88.6389Z" fill="#E3E1E5"/>
<path d="M442.925 95.1486L443.509 95.4861C443.739 95.6187 443.906 95.8371 443.975 96.0933C444.044 96.3495 444.008 96.6225 443.875 96.8521L428.442 123.583L426.126 122.245L441.559 95.5146C441.691 95.285 441.91 95.1174 442.166 95.0487C442.422 94.9801 442.695 95.016 442.925 95.1486Z" fill="#E3E1E5"/>
<path d="M450.007 96.256L450.591 96.5935C450.821 96.7262 450.989 96.9446 451.057 97.2007C451.126 97.4569 451.09 97.7299 450.957 97.9596L434.233 126.927L431.916 125.59L448.641 96.6221C448.773 96.3924 448.992 96.2248 449.248 96.1561C449.504 96.0875 449.777 96.1234 450.007 96.256Z" fill="#E3E1E5"/>
<path d="M453.709 103.219L454.294 103.557C454.524 103.689 454.691 103.908 454.76 104.164C454.828 104.42 454.792 104.693 454.66 104.923L440.025 130.271L437.708 128.934L452.343 103.585C452.476 103.355 452.694 103.188 452.95 103.119C453.207 103.051 453.48 103.087 453.709 103.219Z" fill="#E3E1E5"/>
<path d="M411.338 109.737L411.922 110.074C412.152 110.207 412.32 110.425 412.388 110.681C412.457 110.937 412.421 111.21 412.288 111.44L411.069 113.552L408.752 112.215L409.972 110.103C410.104 109.873 410.323 109.705 410.579 109.637C410.835 109.568 411.108 109.604 411.338 109.737Z" fill="#5C96FD"/>
<path d="M419.135 109.606L419.719 109.943C419.949 110.076 420.116 110.294 420.185 110.55C420.254 110.806 420.218 111.079 420.085 111.309L416.86 116.896L414.543 115.558L417.769 109.972C417.901 109.742 418.12 109.574 418.376 109.506C418.632 109.437 418.905 109.473 419.135 109.606Z" fill="#5C96FD"/>
<path d="M430.945 102.525L431.529 102.862C431.759 102.995 431.926 103.213 431.995 103.469C432.064 103.726 432.028 103.999 431.895 104.228L422.651 120.239L420.335 118.902L429.579 102.891C429.711 102.661 429.93 102.494 430.186 102.425C430.442 102.356 430.715 102.392 430.945 102.525Z" fill="#5C96FD"/>
<path d="M435.589 107.854L436.174 108.192C436.403 108.324 436.571 108.543 436.64 108.799C436.708 109.055 436.672 109.328 436.54 109.558L428.44 123.587L426.123 122.25L434.223 108.22C434.356 107.99 434.574 107.823 434.83 107.754C435.087 107.686 435.359 107.721 435.589 107.854Z" fill="#5C96FD"/>
<path d="M442.24 109.708L442.825 110.046C443.054 110.178 443.222 110.397 443.291 110.653C443.359 110.909 443.323 111.182 443.191 111.412L434.233 126.926L431.917 125.589L440.874 110.074C441.007 109.844 441.225 109.677 441.481 109.608C441.737 109.539 442.01 109.575 442.24 109.708Z" fill="#5C96FD"/>
<path d="M446.886 115.038L447.47 115.375C447.7 115.508 447.867 115.726 447.936 115.982C448.005 116.239 447.969 116.512 447.836 116.741L440.025 130.27L437.709 128.933L445.52 115.404C445.652 115.174 445.871 115.007 446.127 114.938C446.383 114.869 446.656 114.905 446.886 115.038Z" fill="#5C96FD"/>
<defs>
<linearGradient id="paint0_linear_408_3105" x1="307.594" y1="15.5367" x2="307.594" y2="49.358" gradientUnits="userSpaceOnUse">
<stop stop-color="#5C96FD"/>
<stop offset="1" stop-color="#6C4FFE"/>
</linearGradient>
<linearGradient id="paint1_linear_408_3105" x1="308.752" y1="0.313995" x2="308.752" y2="62.812" gradientUnits="userSpaceOnUse">
<stop stop-color="#5C96FD"/>
<stop offset="1" stop-color="#6C4FFE"/>
</linearGradient>
<linearGradient id="paint2_linear_408_3105" x1="30.1667" y1="122.79" x2="30.1667" y2="156.397" gradientUnits="userSpaceOnUse">
<stop stop-color="#5C96FD"/>
<stop offset="1" stop-color="#6C4FFE"/>
</linearGradient>
<linearGradient id="paint3_linear_408_3105" x1="30.1679" y1="108.836" x2="30.1679" y2="169.166" gradientUnits="userSpaceOnUse">
<stop stop-color="#5C96FD"/>
<stop offset="1" stop-color="#6C4FFE"/>
</linearGradient>
<linearGradient id="paint4_linear_408_3105" x1="1340.47" y1="163.041" x2="1340.47" y2="203.989" gradientUnits="userSpaceOnUse">
<stop stop-color="#5C96FD"/>
<stop offset="1" stop-color="#6C4FFE"/>
</linearGradient>
<linearGradient id="paint5_linear_408_3105" x1="1340.9" y1="154.207" x2="1340.9" y2="212.007" gradientUnits="userSpaceOnUse">
<stop stop-color="#5C96FD"/>
<stop offset="1" stop-color="#6C4FFE"/>
</linearGradient>
<linearGradient id="paint6_linear_408_3105" x1="1057.99" y1="262.408" x2="1057.99" y2="296.956" gradientUnits="userSpaceOnUse">
<stop stop-color="#5C96FD"/>
<stop offset="1" stop-color="#6C4FFE"/>
</linearGradient>
<linearGradient id="paint7_linear_408_3105" x1="1057.52" y1="250.419" x2="1057.52" y2="309.453" gradientUnits="userSpaceOnUse">
<stop stop-color="#5C96FD"/>
<stop offset="1" stop-color="#6C4FFE"/>
</linearGradient>
</defs>
</svg>
