<svg width="1148" height="280" viewBox="0 0 1148 280" fill="none" xmlns="http://www.w3.org/2000/svg">
<g clip-path="url(#clip0_493_936)">
<g opacity="0.03">
<path d="M314.121 118.771H289.71L277.504 139.91L289.71 161.051H314.122L326.327 139.91L314.121 118.771Z" fill="#6C4FFE"/>
<path d="M353.087 141.268H328.675L316.469 162.409L328.675 183.554H353.087L365.293 162.413L353.087 141.268Z" fill="#6C4FFE"/>
<path d="M250.743 141.268L238.537 162.409L250.743 183.554H275.155L287.361 162.413L275.155 141.272L250.743 141.268Z" fill="#6C4FFE"/>
<path d="M431.019 141.268H406.607L394.401 162.409L406.607 183.554H431.019L443.225 162.413L431.019 141.268Z" fill="#6C4FFE"/>
<path d="M367.642 163.765L355.436 184.906L367.642 206.047H392.053L404.259 184.906L392.053 163.765H367.642Z" fill="#6C4FFE"/>
<path d="M445.572 163.765L433.365 184.906L445.571 206.047H469.983L482.189 184.906L469.983 163.765H445.572Z" fill="#6C4FFE"/>
<path d="M236.188 118.771H211.776L199.571 139.91L211.777 161.051H236.189L248.395 139.91L236.188 118.771Z" fill="#6C4FFE"/>
<path d="M133.846 73.777L121.64 94.922L133.846 116.059H158.257L170.463 94.922L158.257 73.777H133.846Z" fill="#6C4FFE"/>
<path d="M974.972 138.503L987.178 117.362L974.972 96.221H950.561L938.354 117.362L950.561 138.503H974.972Z" fill="#6C4FFE"/>
<path d="M586.883 138.556L599.089 117.415L586.883 96.274H562.471L550.265 117.415L562.471 138.556H586.883Z" fill="#6C4FFE"/>
<path d="M781.714 161.053L793.92 139.912L781.714 118.771H757.302L745.093 139.91L757.299 161.051L781.714 161.053Z" fill="#6C4FFE"/>
<path d="M989.527 73.724L977.321 94.865L989.527 116.006H1013.94L1026.15 94.865L1013.94 73.724H989.527Z" fill="#6C4FFE"/>
<path d="M484.544 141.268L472.338 162.409L484.544 183.554H508.956L521.162 162.413L508.956 141.272L484.544 141.268Z" fill="#6C4FFE"/>
<path d="M133.846 118.771L121.64 139.91L133.846 161.051H158.257L170.463 139.91L158.257 118.771H133.846Z" fill="#6C4FFE"/>
<path d="M353.087 138.556L365.293 117.415L353.087 96.274H328.675L316.47 117.415L328.676 138.556H353.087Z" fill="#6C4FFE"/>
<path d="M197.222 96.274H172.811L160.605 117.415L172.811 138.556H197.223L209.429 117.415L197.222 96.274Z" fill="#6C4FFE"/>
<path d="M547.918 118.771H523.506L511.3 139.91L523.506 161.051H547.918L560.123 139.91L547.918 118.771Z" fill="#6C4FFE"/>
<path d="M936.007 118.718H911.595L899.389 139.859L911.595 161H936.007L948.213 139.859L936.007 118.718Z" fill="#6C4FFE"/>
<path d="M897.508 96.17H873.095L860.89 117.311L873.095 138.452H897.508L909.714 117.311L897.508 96.17Z" fill="#6C4FFE"/>
<path d="M974.972 141.215H950.561L938.355 162.356L950.562 183.497H974.973L987.179 162.356L974.972 141.215Z" fill="#6C4FFE"/>
<path d="M835.233 118.771L823.027 139.91L835.233 161.051H859.649L871.849 139.91L859.649 118.771H835.233Z" fill="#6C4FFE"/>
<path d="M989.27 162.545L977.07 183.686L989.276 204.827H1013.69L1025.89 183.686L1013.68 162.545H989.27Z" fill="#6C4FFE"/>
<path d="M989.527 118.718L977.321 139.859L989.527 161H1013.94L1026.15 139.859L1013.94 118.718H989.527Z" fill="#6C4FFE"/>
<path d="M796.271 141.268L784.064 162.409L796.271 183.554H820.682L832.888 162.413L820.682 141.272L796.271 141.268Z" fill="#6C4FFE"/>
<path d="M703.782 118.771H679.37L667.164 139.91L679.37 161.051H703.782L715.988 139.91L703.782 118.771Z" fill="#6C4FFE"/>
<path d="M640.402 141.268L628.196 162.409L640.402 183.55H664.814L677.02 162.409L664.814 141.268H640.402Z" fill="#6C4FFE"/>
<path d="M586.883 141.268H562.471L550.265 162.409L562.471 183.55H586.883L599.089 162.409L586.883 141.268Z" fill="#6C4FFE"/>
<path d="M601.438 163.765L589.231 184.906L601.438 206.047H625.849L638.054 184.906L625.849 163.765H601.438Z" fill="#6C4FFE"/>
<path d="M757.302 163.765L745.093 184.906L757.299 206.047H781.711L793.917 184.906L781.711 163.765H757.302Z" fill="#6C4FFE"/>
<path d="M742.747 141.268H718.335L706.129 162.409L718.335 183.55H742.747L754.953 162.409L742.747 141.268Z" fill="#6C4FFE"/>
</g>
<g opacity="0.25">
<path d="M218.702 143.975H173.677L151.161 182.968L173.677 221.958H218.702L241.215 182.965L229.959 163.465L218.702 143.975Z" fill="url(#paint0_linear_493_936)"/>
<path d="M305.541 119.834L294.285 100.334H249.259L226.746 139.327L238.002 158.827L249.258 178.327H294.283L316.796 139.334L305.541 119.834Z" fill="url(#paint1_linear_493_936)"/>
<path d="M143.12 100.338H98.095L75.5811 139.331L98.094 178.324H143.119L165.632 139.331L143.12 100.338Z" fill="url(#paint2_linear_493_936)"/>
<path d="M476.006 143.975L453.493 182.968L464.749 202.468L476.005 221.968H521.03L543.543 182.975L521.03 143.982L476.006 143.975Z" fill="url(#paint3_linear_493_936)"/>
<path d="M369.866 143.975H324.841L302.329 182.968L324.841 221.958H369.866L392.379 182.965L369.866 143.975Z" fill="url(#paint4_linear_493_936)"/>
<path d="M400.423 187.612L377.911 226.605L400.423 265.598H445.448L467.96 226.605L456.704 207.105L445.448 187.605L400.423 187.612Z" fill="url(#paint5_linear_493_936)"/>
<path d="M702.752 91.048H747.777L759.033 71.548L770.289 52.048L747.778 13.062H702.752L680.24 52.055L691.496 71.555L702.752 91.048Z" fill="url(#paint6_linear_493_936)"/>
<path d="M143.12 91.048L165.633 52.055L143.12 13.062H98.095L75.5811 52.055L98.094 91.048H143.12Z" fill="url(#paint7_linear_493_936)"/>
<path d="M680.24 139.331L702.752 178.324H747.777L770.289 139.331L747.777 100.338H702.752L680.24 139.331Z" fill="url(#paint8_linear_493_936)"/>
<path d="M521.031 56.7H476.006L453.493 95.693L476.006 134.686H521.031L543.544 95.693L532.288 76.193L521.031 56.7Z" fill="url(#paint9_linear_493_936)"/>
<path d="M294.284 91.048L305.54 71.548L316.796 52.048L294.284 13.062H249.259L226.747 52.055L249.26 91.048H294.284Z" fill="url(#paint10_linear_493_936)"/>
<path d="M302.329 95.693L324.842 134.686H369.867L392.38 95.693L369.867 56.7H324.842L313.586 76.2L302.329 95.693Z" fill="url(#paint11_linear_493_936)"/>
<path d="M22.512 143.975L0 182.968L22.512 221.958H67.537L90.05 182.968L67.537 143.975H22.512Z" fill="url(#paint12_linear_493_936)"/>
<path d="M1004.52 13L982.014 51.992L993.27 71.492L1004.53 90.992H1049.55L1060.81 71.492L1072.06 51.992L1049.55 13H1004.52Z" fill="url(#paint13_linear_493_936)"/>
<path d="M619.126 52.055L596.613 13.063H551.588L529.076 52.056L540.332 71.556L551.588 91.056H596.613L607.869 71.556L619.126 52.055Z" fill="url(#paint14_linear_493_936)"/>
<path d="M853.36 13L831.105 51.541L853.879 90.985H898.379L909.635 71.485L920.891 51.985L898.385 13H853.36Z" fill="url(#paint15_linear_493_936)"/>
<path d="M1080.11 56.637L1068.85 76.137L1057.59 95.637L1080.11 134.63H1125.13L1147.64 95.637L1125.13 56.645L1080.11 56.637Z" fill="url(#paint16_linear_493_936)"/>
<path d="M973.967 56.637H928.942L917.686 76.137L906.43 95.637L928.942 134.63H973.967L996.48 95.637L985.224 76.137L973.967 56.637Z" fill="url(#paint17_linear_493_936)"/>
<path d="M672.196 134.685L694.709 95.692L683.453 76.192L672.197 56.692H627.172L615.916 76.192L604.659 95.692L627.172 134.685H672.196Z" fill="url(#paint18_linear_493_936)"/>
<path d="M694.708 182.967L672.195 143.974H627.17L604.658 182.967L627.17 221.958H672.195L683.451 202.458L694.708 182.967Z" fill="url(#paint19_linear_493_936)"/>
<path d="M702.752 187.612L691.496 207.112L680.24 226.612L702.752 265.605H747.777L770.289 226.612L759.033 207.112L747.777 187.612H702.752Z" fill="url(#paint20_linear_493_936)"/>
<path d="M778.335 56.7L767.078 76.2L755.822 95.7L778.334 134.693H823.359L845.611 96.151L822.838 56.707L778.335 56.7Z" fill="url(#paint21_linear_493_936)"/>
<path d="M778.335 143.975L755.823 182.968L767.079 202.468L778.336 221.968H823.361L845.873 182.975L823.361 143.982L778.335 143.975Z" fill="url(#paint22_linear_493_936)"/>
</g>
<mask id="mask0_493_936" style="mask-type:luminance" maskUnits="userSpaceOnUse" x="51" y="0" width="1031" height="280">
<path d="M1081.95 0H51.1445V279.218H1081.95V0Z" fill="white"/>
</mask>
<g mask="url(#mask0_493_936)">
<path d="M788.11 0.548009C787.697 0.832138 787.36 1.21234 787.126 1.65587C786.893 2.09939 786.772 2.59295 786.772 3.09401C786.772 3.59507 786.893 4.08862 787.126 4.53215C787.36 4.97568 787.697 5.35588 788.11 5.64001L764.919 45.807C764.467 45.5908 763.969 45.4879 763.468 45.5073C762.968 45.5267 762.479 45.6677 762.045 45.9182C761.611 46.1687 761.245 46.5211 760.978 46.945C760.711 47.3689 760.551 47.8515 760.512 48.351H714.129C714.09 47.8513 713.93 47.3686 713.663 46.9446C713.396 46.5206 713.029 46.1681 712.595 45.9176C712.161 45.6671 711.672 45.5261 711.172 45.5068C710.671 45.4875 710.173 45.5906 709.721 45.807L686.531 5.64001C687.205 5.1816 687.675 4.48006 687.843 3.68249C688.011 2.88492 687.864 2.05324 687.432 1.36182C687.001 0.670409 686.318 0.172949 685.528 -0.0262615C684.737 -0.225472 683.901 -0.110963 683.193 0.293258C682.485 0.69748 681.961 1.36002 681.731 2.14198C681.501 2.92394 681.583 3.76459 681.959 4.48769C682.335 5.21079 682.977 5.76018 683.749 6.02068C684.521 6.28118 685.364 6.23255 686.102 5.88501L709.293 46.053C708.88 46.3371 708.543 46.7173 708.309 47.1609C708.076 47.6044 707.955 48.0979 707.955 48.599C707.955 49.1001 708.076 49.5936 708.309 50.0371C708.543 50.4807 708.88 50.8609 709.293 51.145L686.102 91.312C685.65 91.0958 685.152 90.9929 684.651 91.0123C684.15 91.0318 683.662 91.1729 683.228 91.4235C682.794 91.6741 682.427 92.0267 682.16 92.4507C681.893 92.8747 681.733 93.3574 681.695 93.857H635.312C635.273 93.3574 635.113 92.8747 634.846 92.4507C634.579 92.0267 634.213 91.6741 633.779 91.4235C633.345 91.1729 632.856 91.0318 632.356 91.0123C631.855 90.9929 631.357 91.0958 630.905 91.312L607.714 51.145C608.388 50.6865 608.858 49.9847 609.027 49.1869C609.195 48.3891 609.047 47.5571 608.616 46.8655C608.184 46.1738 607.501 45.6762 606.711 45.4769C605.92 45.2776 605.083 45.3922 604.375 45.7965C603.667 46.2009 603.143 46.8636 602.913 47.6458C602.683 48.4281 602.764 49.269 603.141 49.9923C603.517 50.7156 604.159 51.2652 604.931 51.5258C605.704 51.7863 606.547 51.7377 607.285 51.39L630.476 91.558C630.063 91.8421 629.726 92.2223 629.492 92.6659C629.259 93.1094 629.138 93.6029 629.138 94.104C629.138 94.6051 629.259 95.0986 629.492 95.5422C629.726 95.9857 630.063 96.3659 630.476 96.65L607.285 136.818C606.833 136.602 606.335 136.499 605.834 136.518C605.334 136.538 604.845 136.679 604.411 136.929C603.977 137.18 603.611 137.532 603.344 137.956C603.077 138.38 602.917 138.862 602.878 139.362H556.495C556.456 138.862 556.296 138.38 556.029 137.956C555.762 137.532 555.395 137.18 554.961 136.929C554.527 136.679 554.039 136.538 553.538 136.518C553.038 136.499 552.54 136.602 552.088 136.818L547.345 128.601L528.897 96.65C529.31 96.3659 529.647 95.9857 529.88 95.5422C530.113 95.0986 530.235 94.6051 530.235 94.104C530.235 93.6029 530.113 93.1094 529.88 92.6659C529.647 92.2223 529.31 91.8421 528.897 91.558L552.088 51.39C552.807 51.7272 553.628 51.7731 554.38 51.5181C555.133 51.2632 555.757 50.7272 556.123 50.0223C556.488 49.3174 556.567 48.4983 556.343 47.7366C556.118 46.9749 555.608 46.3295 554.918 45.9357C554.229 45.5418 553.413 45.4301 552.643 45.6238C551.873 45.8175 551.208 46.3016 550.787 46.9748C550.365 47.6481 550.221 48.4581 550.383 49.2355C550.546 50.0128 551.003 50.6971 551.659 51.145L528.468 91.312C528.016 91.0956 527.518 90.9925 527.017 91.0118C526.516 91.0312 526.027 91.1722 525.593 91.4229C525.159 91.6735 524.793 92.0261 524.525 92.4503C524.258 92.8744 524.098 93.3572 524.06 93.857H477.678C477.639 93.3574 477.479 92.8747 477.212 92.4507C476.945 92.0267 476.579 91.6741 476.145 91.4235C475.711 91.1729 475.222 91.0318 474.722 91.0123C474.221 90.9929 473.723 91.0958 473.271 91.312L468.394 82.865L450.08 51.145C450.492 50.8609 450.83 50.4807 451.063 50.0371C451.296 49.5936 451.418 49.1001 451.418 48.599C451.418 48.0979 451.296 47.6044 451.063 47.1609C450.83 46.7173 450.492 46.3371 450.08 46.053L473.27 5.88501C473.989 6.2223 474.811 6.26825 475.563 6.01324C476.316 5.75823 476.94 5.22203 477.306 4.51692C477.672 3.81181 477.751 2.99247 477.526 2.23047C477.302 1.46847 476.791 0.8229 476.101 0.428937C475.411 0.0349754 474.596 -0.0768253 473.826 0.116946C473.055 0.310717 472.39 0.795032 471.968 1.46848C471.547 2.14193 471.402 2.95228 471.565 3.72985C471.728 4.50743 472.185 5.19192 472.841 5.64001L449.651 45.807C449.199 45.5908 448.701 45.4879 448.2 45.5073C447.7 45.5267 447.211 45.6677 446.777 45.9182C446.343 46.1687 445.977 46.5211 445.71 46.945C445.442 47.3689 445.283 47.8515 445.244 48.351H398.861C398.822 47.8515 398.662 47.3689 398.395 46.945C398.128 46.5211 397.761 46.1687 397.327 45.9182C396.893 45.6677 396.405 45.5267 395.904 45.5073C395.404 45.4879 394.906 45.5908 394.454 45.807L371.262 5.64001C371.936 5.1816 372.406 4.48006 372.574 3.68249C372.742 2.88492 372.595 2.05324 372.163 1.36182C371.732 0.670409 371.049 0.172949 370.259 -0.0262615C369.468 -0.225472 368.632 -0.110963 367.924 0.293258C367.216 0.69748 366.692 1.36002 366.462 2.14198C366.232 2.92394 366.314 3.76459 366.69 4.48769C367.066 5.21079 367.708 5.76018 368.48 6.02068C369.252 6.28118 370.095 6.23255 370.833 5.88501L394.024 46.053C393.611 46.3371 393.274 46.7173 393.04 47.1609C392.807 47.6044 392.686 48.0979 392.686 48.599C392.686 49.1001 392.807 49.5936 393.04 50.0371C393.274 50.4807 393.611 50.8609 394.024 51.145L370.834 91.312C370.382 91.0958 369.884 90.9929 369.383 91.0123C368.882 91.0318 368.394 91.1729 367.96 91.4235C367.526 91.6741 367.159 92.0267 366.892 92.4507C366.625 92.8747 366.465 93.3574 366.427 93.857H320.045C320.006 93.3574 319.846 92.8747 319.579 92.4507C319.312 92.0267 318.946 91.6741 318.512 91.4235C318.078 91.1729 317.589 91.0318 317.089 91.0123C316.588 90.9929 316.09 91.0958 315.638 91.312L292.445 51.145C293.119 50.6866 293.589 49.9851 293.757 49.1875C293.925 48.3899 293.778 47.5582 293.346 46.8668C292.915 46.1754 292.232 45.6779 291.442 45.4787C290.651 45.2795 289.815 45.394 289.107 45.7983C288.399 46.2025 287.875 46.865 287.645 47.647C287.415 48.4289 287.497 49.2696 287.873 49.9927C288.249 50.7158 288.891 51.2652 289.663 51.5257C290.435 51.7862 291.279 51.7376 292.016 51.39L315.207 91.558C314.794 91.8421 314.457 92.2223 314.223 92.6659C313.99 93.1094 313.869 93.6029 313.869 94.104C313.869 94.6051 313.99 95.0986 314.223 95.5422C314.457 95.9857 314.794 96.3659 315.207 96.65L292.016 136.818C291.564 136.602 291.066 136.499 290.565 136.518C290.065 136.538 289.576 136.679 289.142 136.929C288.708 137.18 288.342 137.532 288.075 137.956C287.808 138.38 287.648 138.862 287.609 139.362H241.226C241.187 138.862 241.027 138.38 240.76 137.956C240.493 137.532 240.126 137.18 239.692 136.929C239.258 136.679 238.77 136.538 238.269 136.518C237.769 136.499 237.271 136.602 236.819 136.818L213.628 96.65C214.058 96.354 214.405 95.954 214.639 95.4873C214.873 95.0206 214.984 94.5023 214.964 93.9809C214.943 93.4594 214.79 92.9516 214.521 92.5049C214.251 92.0582 213.872 91.687 213.42 91.426C212.968 91.165 212.458 91.0226 211.936 91.0122C211.414 91.0017 210.898 91.1235 210.436 91.3661C209.974 91.6088 209.581 91.9645 209.294 92.4C209.006 92.8356 208.833 93.3368 208.792 93.857H162.409C162.37 93.3574 162.21 92.8747 161.943 92.4507C161.676 92.0267 161.31 91.6741 160.876 91.4235C160.442 91.1729 159.953 91.0318 159.453 91.0123C158.952 90.9929 158.454 91.0958 158.002 91.312L134.811 51.145C135.482 50.6864 135.95 49.9858 136.116 49.19C136.282 48.3942 136.133 47.565 135.702 46.8762C135.27 46.1874 134.588 45.6926 133.799 45.4953C133.011 45.2981 132.176 45.4138 131.471 45.8182C130.766 46.2226 130.245 46.8843 130.017 47.6646C129.788 48.4448 129.871 49.2831 130.248 50.0037C130.624 50.7243 131.265 51.2712 132.035 51.5299C132.806 51.7885 133.647 51.7387 134.382 51.391L157.573 91.558C157.16 91.8421 156.823 92.2223 156.589 92.6659C156.356 93.1094 156.235 93.6029 156.235 94.104C156.235 94.6051 156.356 95.0986 156.589 95.5422C156.823 95.9857 157.16 96.3659 157.573 96.65L141.623 124.276L134.382 136.818C133.93 136.602 133.432 136.499 132.931 136.518C132.431 136.538 131.942 136.679 131.508 136.929C131.074 137.18 130.708 137.532 130.441 137.956C130.174 138.38 130.014 138.862 129.975 139.362H83.5918C83.553 138.862 83.3931 138.38 83.1259 137.956C82.8587 137.532 82.4922 137.179 82.0581 136.929C81.624 136.678 81.1354 136.537 80.6346 136.518C80.1338 136.499 79.6358 136.602 79.1838 136.818L55.9938 96.65C56.668 96.1915 57.1385 95.4897 57.3066 94.6919C57.4748 93.8941 57.3275 93.0621 56.8958 92.3705C56.464 91.6788 55.7812 91.1812 54.9906 90.9819C54.1999 90.7826 53.3629 90.8972 52.6548 91.3015C51.9468 91.7059 51.4228 92.3686 51.1927 93.1508C50.9626 93.9331 51.0443 94.774 51.4206 95.4973C51.7969 96.2206 52.4386 96.7702 53.2112 97.0308C53.9838 97.2913 54.8273 97.2427 55.5648 96.895L78.7558 137.063C78.3431 137.347 78.0056 137.727 77.7725 138.171C77.5394 138.614 77.4175 139.108 77.4175 139.609C77.4175 140.11 77.5394 140.604 77.7725 141.047C78.0056 141.491 78.3431 141.871 78.7558 142.155L55.5648 182.323C54.8453 181.986 54.0232 181.94 53.2706 182.195C52.518 182.45 51.8932 182.986 51.5272 183.691C51.1611 184.397 51.0821 185.216 51.3068 185.979C51.5314 186.741 52.0422 187.387 52.7323 187.781C53.4224 188.175 54.2382 188.287 55.0088 188.093C55.7795 187.899 56.4453 187.415 56.8668 186.741C57.2883 186.067 57.4328 185.257 57.2701 184.479C57.1073 183.701 56.65 183.016 55.9938 182.568L79.1838 142.401C79.6358 142.617 80.1338 142.72 80.6346 142.701C81.1354 142.682 81.624 142.541 82.0581 142.29C82.4922 142.04 82.8587 141.687 83.1259 141.263C83.3931 140.839 83.553 140.357 83.5918 139.857H129.974C130.013 140.357 130.173 140.839 130.44 141.263C130.707 141.687 131.073 142.039 131.507 142.29C131.941 142.54 132.429 142.682 132.93 142.701C133.431 142.721 133.929 142.618 134.381 142.402L150.332 170.029L157.572 182.569C157.159 182.853 156.822 183.233 156.588 183.677C156.355 184.12 156.234 184.614 156.234 185.115C156.234 185.616 156.355 186.11 156.588 186.553C156.822 186.997 157.159 187.377 157.572 187.661L134.382 227.828C133.663 227.491 132.841 227.445 132.088 227.7C131.336 227.955 130.711 228.491 130.346 229.196C129.98 229.901 129.901 230.721 130.125 231.483C130.35 232.245 130.86 232.89 131.55 233.284C132.24 233.678 133.056 233.79 133.826 233.596C134.596 233.402 135.262 232.918 135.683 232.245C136.105 231.571 136.249 230.761 136.087 229.983C135.924 229.206 135.467 228.521 134.811 228.073L158.002 187.901C158.454 188.117 158.952 188.22 159.452 188.201C159.953 188.181 160.441 188.04 160.875 187.79C161.309 187.539 161.676 187.187 161.943 186.763C162.21 186.339 162.37 185.857 162.409 185.357H208.792C208.831 185.857 208.991 186.339 209.258 186.763C209.525 187.187 209.891 187.539 210.325 187.79C210.759 188.04 211.248 188.181 211.748 188.201C212.249 188.22 212.747 188.117 213.199 187.901L236.39 228.069C235.716 228.527 235.245 229.229 235.077 230.027C234.909 230.824 235.057 231.656 235.488 232.347C235.92 233.039 236.602 233.536 237.393 233.735C238.183 233.934 239.02 233.82 239.728 233.416C240.436 233.012 240.959 232.349 241.189 231.567C241.419 230.785 241.338 229.944 240.962 229.221C240.585 228.498 239.944 227.949 239.172 227.688C238.399 227.428 237.556 227.476 236.819 227.824L213.628 187.656C214.041 187.372 214.378 186.992 214.611 186.548C214.844 186.105 214.966 185.611 214.966 185.11C214.966 184.609 214.844 184.115 214.611 183.672C214.378 183.228 214.041 182.848 213.628 182.564L229.578 154.938L236.819 142.397C237.271 142.613 237.769 142.716 238.269 142.697C238.77 142.677 239.258 142.536 239.692 142.286C240.126 142.035 240.493 141.683 240.76 141.259C241.027 140.835 241.187 140.353 241.226 139.853H287.609C287.648 140.353 287.808 140.835 288.075 141.259C288.342 141.683 288.708 142.035 289.142 142.286C289.576 142.536 290.065 142.677 290.565 142.697C291.066 142.716 291.564 142.613 292.016 142.397L315.207 182.565C314.777 182.861 314.429 183.261 314.196 183.728C313.962 184.194 313.85 184.713 313.871 185.234C313.892 185.756 314.044 186.263 314.314 186.71C314.584 187.157 314.962 187.528 315.414 187.789C315.866 188.05 316.377 188.192 316.899 188.203C317.42 188.213 317.936 188.092 318.398 187.849C318.86 187.606 319.253 187.251 319.541 186.815C319.829 186.379 320.001 185.878 320.043 185.358H366.426C366.465 185.858 366.624 186.34 366.892 186.764C367.159 187.188 367.525 187.54 367.959 187.791C368.393 188.041 368.882 188.182 369.382 188.202C369.883 188.221 370.381 188.118 370.833 187.902L394.024 228.07C393.611 228.354 393.274 228.734 393.04 229.178C392.807 229.621 392.686 230.115 392.686 230.616C392.686 231.117 392.807 231.611 393.04 232.054C393.274 232.498 393.611 232.878 394.024 233.162L370.833 273.33C370.114 272.993 369.292 272.947 368.54 273.202C367.788 273.457 367.164 273.993 366.798 274.698C366.432 275.403 366.353 276.222 366.578 276.983C366.802 277.745 367.313 278.391 368.002 278.784C368.692 279.178 369.507 279.29 370.277 279.096C371.047 278.903 371.713 278.418 372.134 277.745C372.555 277.072 372.7 276.262 372.537 275.485C372.375 274.707 371.918 274.023 371.262 273.575L394.453 233.407C394.905 233.623 395.403 233.726 395.903 233.707C396.404 233.687 396.892 233.546 397.326 233.296C397.76 233.045 398.127 232.693 398.394 232.269C398.661 231.845 398.821 231.363 398.86 230.863H445.245C445.284 231.363 445.443 231.845 445.711 232.269C445.978 232.693 446.344 233.045 446.778 233.296C447.212 233.546 447.701 233.687 448.201 233.707C448.702 233.726 449.2 233.623 449.652 233.407L454.462 241.739L472.842 273.575C472.429 273.859 472.092 274.239 471.858 274.683C471.625 275.126 471.504 275.62 471.504 276.121C471.504 276.622 471.625 277.116 471.858 277.559C472.092 278.003 472.429 278.383 472.842 278.667L473.271 278.912C473.742 279.137 474.263 279.24 474.785 279.209C475.307 279.179 475.813 279.017 476.255 278.738C476.697 278.459 477.062 278.073 477.314 277.615C477.567 277.157 477.699 276.643 477.699 276.121C477.699 275.598 477.567 275.084 477.314 274.626C477.062 274.168 476.697 273.782 476.255 273.503C475.813 273.224 475.307 273.062 474.785 273.032C474.263 273.001 473.742 273.104 473.271 273.329L461.711 253.306L450.08 233.161C450.492 232.877 450.83 232.497 451.063 232.053C451.296 231.61 451.418 231.116 451.418 230.615C451.418 230.114 451.296 229.62 451.063 229.177C450.83 228.733 450.492 228.353 450.08 228.069L473.27 187.901C473.722 188.117 474.22 188.22 474.72 188.201C475.221 188.181 475.709 188.04 476.143 187.79C476.577 187.539 476.944 187.187 477.211 186.763C477.478 186.339 477.638 185.857 477.677 185.357H524.059C524.098 185.857 524.257 186.339 524.525 186.763C524.792 187.187 525.158 187.54 525.592 187.79C526.027 188.041 526.515 188.182 527.016 188.201C527.517 188.22 528.015 188.117 528.467 187.901L551.658 228.069C551.228 228.365 550.88 228.765 550.647 229.232C550.413 229.698 550.301 230.217 550.322 230.738C550.343 231.26 550.495 231.767 550.765 232.214C551.035 232.661 551.413 233.032 551.865 233.293C552.317 233.554 552.828 233.696 553.35 233.707C553.871 233.717 554.387 233.596 554.849 233.353C555.311 233.11 555.704 232.755 555.992 232.319C556.28 231.883 556.452 231.382 556.494 230.862H602.877C602.916 231.362 603.076 231.844 603.343 232.268C603.61 232.692 603.976 233.044 604.41 233.295C604.844 233.545 605.333 233.686 605.833 233.706C606.334 233.725 606.832 233.622 607.284 233.406L630.475 273.574C630.045 273.87 629.697 274.27 629.464 274.737C629.23 275.203 629.118 275.722 629.139 276.243C629.16 276.765 629.312 277.272 629.582 277.719C629.852 278.166 630.23 278.537 630.682 278.798C631.134 279.059 631.645 279.201 632.167 279.212C632.688 279.222 633.204 279.101 633.666 278.858C634.128 278.615 634.521 278.26 634.809 277.824C635.097 277.388 635.269 276.887 635.311 276.367H681.695C681.736 276.887 681.909 277.388 682.197 277.824C682.484 278.26 682.877 278.615 683.339 278.858C683.801 279.101 684.317 279.222 684.839 279.212C685.361 279.201 685.871 279.059 686.323 278.798C686.775 278.537 687.154 278.166 687.424 277.719C687.693 277.272 687.846 276.765 687.867 276.243C687.887 275.722 687.776 275.203 687.542 274.737C687.308 274.27 686.961 273.87 686.531 273.574L709.722 233.406C710.174 233.622 710.672 233.725 711.173 233.706C711.673 233.687 712.162 233.546 712.596 233.295C713.03 233.045 713.397 232.692 713.664 232.268C713.931 231.844 714.091 231.362 714.13 230.862H760.513C760.554 231.382 760.727 231.883 761.015 232.319C761.302 232.755 761.695 233.11 762.157 233.353C762.619 233.596 763.135 233.717 763.657 233.707C764.179 233.696 764.689 233.554 765.141 233.293C765.593 233.032 765.972 232.661 766.242 232.214C766.511 231.767 766.664 231.26 766.685 230.738C766.705 230.217 766.594 229.698 766.36 229.232C766.126 228.765 765.779 228.365 765.349 228.069L788.539 187.901C788.991 188.117 789.489 188.22 789.99 188.201C790.49 188.182 790.979 188.041 791.413 187.79C791.847 187.54 792.214 187.187 792.481 186.763C792.748 186.339 792.908 185.857 792.947 185.357H839.329C839.368 185.857 839.528 186.339 839.795 186.763C840.062 187.187 840.428 187.539 840.862 187.79C841.296 188.04 841.785 188.181 842.285 188.201C842.786 188.22 843.284 188.117 843.736 187.901L866.927 228.069C866.253 228.527 865.782 229.229 865.614 230.027C865.446 230.824 865.594 231.656 866.025 232.347C866.457 233.039 867.139 233.536 867.93 233.735C868.72 233.934 869.557 233.82 870.265 233.416C870.973 233.012 871.496 232.349 871.726 231.567C871.956 230.785 871.875 229.944 871.499 229.221C871.122 228.498 870.481 227.949 869.709 227.688C868.936 227.428 868.093 227.476 867.356 227.824L844.165 187.66C844.578 187.376 844.915 186.996 845.148 186.552C845.381 186.109 845.503 185.615 845.503 185.114C845.503 184.613 845.381 184.119 845.148 183.676C844.915 183.232 844.578 182.852 844.165 182.568L867.356 142.401C867.808 142.617 868.306 142.72 868.806 142.701C869.307 142.681 869.795 142.54 870.229 142.29C870.663 142.039 871.03 141.687 871.297 141.263C871.564 140.839 871.724 140.357 871.763 139.857H918.145C918.184 140.357 918.343 140.839 918.611 141.263C918.878 141.687 919.244 142.04 919.678 142.29C920.113 142.541 920.601 142.682 921.102 142.701C921.603 142.72 922.101 142.617 922.553 142.401L945.745 182.568C945.315 182.864 944.967 183.264 944.734 183.731C944.5 184.197 944.388 184.716 944.409 185.237C944.43 185.759 944.582 186.266 944.852 186.713C945.122 187.16 945.5 187.531 945.952 187.792C946.404 188.053 946.915 188.195 947.437 188.206C947.958 188.216 948.474 188.095 948.936 187.852C949.398 187.609 949.792 187.254 950.079 186.818C950.367 186.382 950.539 185.881 950.581 185.361H996.964C997.003 185.861 997.163 186.343 997.43 186.767C997.697 187.191 998.063 187.543 998.497 187.794C998.931 188.044 999.42 188.185 999.92 188.205C1000.42 188.224 1000.92 188.121 1001.37 187.905L1024.56 228.073C1023.89 228.532 1023.42 229.233 1023.25 230.031C1023.08 230.829 1023.23 231.661 1023.66 232.353C1024.09 233.044 1024.77 233.542 1025.57 233.741C1026.36 233.94 1027.19 233.826 1027.9 233.421C1028.61 233.017 1029.13 232.354 1029.36 231.572C1029.59 230.79 1029.51 229.949 1029.14 229.226C1028.76 228.502 1028.12 227.953 1027.34 227.692C1026.57 227.432 1025.73 227.48 1024.99 227.828L1001.8 187.66C1002.21 187.376 1002.55 186.996 1002.78 186.552C1003.02 186.109 1003.14 185.615 1003.14 185.114C1003.14 184.613 1003.02 184.119 1002.78 183.676C1002.55 183.232 1002.21 182.852 1001.8 182.568L1024.99 142.401C1025.44 142.617 1025.94 142.72 1026.44 142.701C1026.94 142.682 1027.43 142.541 1027.87 142.29C1028.3 142.04 1028.67 141.687 1028.93 141.263C1029.2 140.839 1029.36 140.357 1029.4 139.857H1075.78C1075.85 140.654 1076.22 141.395 1076.81 141.925C1077.41 142.455 1078.19 142.733 1078.99 142.702C1079.79 142.67 1080.54 142.33 1081.1 141.754C1081.65 141.177 1081.96 140.409 1081.96 139.61C1081.96 138.811 1081.65 138.043 1081.1 137.466C1080.54 136.89 1079.79 136.55 1078.99 136.518C1078.19 136.487 1077.41 136.765 1076.81 137.295C1076.22 137.825 1075.85 138.566 1075.78 139.363H1029.4C1029.36 138.863 1029.2 138.381 1028.93 137.957C1028.66 137.533 1028.3 137.18 1027.86 136.93C1027.43 136.679 1026.94 136.538 1026.44 136.519C1025.94 136.5 1025.44 136.603 1024.99 136.819L1020.24 128.601L1001.8 96.65C1002.21 96.3659 1002.55 95.9857 1002.78 95.5422C1003.02 95.0986 1003.14 94.6051 1003.14 94.104C1003.14 93.6029 1003.02 93.1094 1002.78 92.6659C1002.55 92.2223 1002.21 91.8421 1001.8 91.558L1024.99 51.39C1025.71 51.7272 1026.53 51.7731 1027.28 51.5181C1028.04 51.2632 1028.66 50.7272 1029.03 50.0223C1029.39 49.3174 1029.47 48.4983 1029.25 47.7366C1029.02 46.9749 1028.51 46.3295 1027.82 45.9357C1027.13 45.5418 1026.32 45.4301 1025.55 45.6238C1024.78 45.8175 1024.11 46.3016 1023.69 46.9748C1023.27 47.6481 1023.12 48.4581 1023.29 49.2355C1023.45 50.0128 1023.91 50.6971 1024.56 51.145L1001.37 91.312C1000.92 91.0958 1000.42 90.9929 999.92 91.0123C999.419 91.0318 998.931 91.1729 998.497 91.4235C998.063 91.6741 997.696 92.0267 997.429 92.4507C997.162 92.8747 997.002 93.3574 996.964 93.857H950.581C950.542 93.3574 950.382 92.8747 950.115 92.4507C949.848 92.0267 949.482 91.6741 949.048 91.4235C948.614 91.1729 948.125 91.0318 947.625 91.0123C947.124 90.9929 946.626 91.0958 946.174 91.312L922.983 51.145C923.413 50.8488 923.761 50.4486 923.994 49.9817C924.228 49.5148 924.339 48.9964 924.319 48.4747C924.298 47.9531 924.145 47.4452 923.875 46.9984C923.605 46.5515 923.227 46.1803 922.774 45.9193C922.322 45.6583 921.811 45.516 921.289 45.5056C920.767 45.4952 920.251 45.6171 919.789 45.86C919.327 46.1028 918.934 46.4587 918.646 46.8944C918.359 47.3302 918.186 47.8316 918.145 48.352H871.764C871.725 47.8525 871.565 47.3699 871.298 46.946C871.031 46.5221 870.664 46.1697 870.23 45.9192C869.796 45.6687 869.308 45.5277 868.807 45.5083C868.307 45.4889 867.809 45.5918 867.357 45.808L844.165 5.64001C844.838 5.18213 845.307 4.48147 845.475 3.68492C845.643 2.88837 845.496 2.05779 845.065 1.36729C844.634 0.6768 843.952 0.180014 843.163 -0.0189178C842.373 -0.21785 841.538 -0.103479 840.831 0.300216C840.124 0.703911 839.601 1.36558 839.371 2.14652C839.141 2.92746 839.223 3.76701 839.598 4.48919C839.974 5.21136 840.615 5.76008 841.386 6.02029C842.157 6.28051 842.999 6.23203 843.736 5.88501L866.927 46.053C866.514 46.3371 866.177 46.7173 865.943 47.1609C865.71 47.6044 865.589 48.0979 865.589 48.599C865.589 49.1001 865.71 49.5936 865.943 50.0371C866.177 50.4807 866.514 50.8609 866.927 51.145L843.737 91.312C843.285 91.0956 842.787 90.9925 842.286 91.0118C841.785 91.0312 841.296 91.1722 840.862 91.4229C840.428 91.6735 840.061 92.0261 839.794 92.4503C839.527 92.8744 839.367 93.3572 839.329 93.857H792.945C792.906 93.3572 792.746 92.8744 792.479 92.4503C792.212 92.0261 791.846 91.6735 791.411 91.4229C790.977 91.1722 790.489 91.0312 789.988 91.0118C789.487 90.9925 788.989 91.0956 788.537 91.312L765.345 51.145C765.758 50.8609 766.095 50.4807 766.328 50.0371C766.561 49.5936 766.683 49.1001 766.683 48.599C766.683 48.0979 766.561 47.6044 766.328 47.1609C766.095 46.7173 765.758 46.3371 765.345 46.053L788.539 5.88501C788.958 6.08439 789.416 6.18692 789.88 6.18498C790.344 6.18304 790.802 6.0767 791.219 5.87383C791.637 5.67095 792.003 5.37675 792.291 5.01304C792.579 4.64933 792.782 4.22543 792.884 3.77276C792.986 3.3201 792.985 2.85028 792.88 2.39813C792.776 1.94599 792.571 1.52311 792.281 1.16084C791.991 0.79858 791.624 0.506224 791.205 0.305446C790.787 0.104668 790.329 0.000617862 789.865 0.00100894C789.406 0.000790767 788.953 0.103297 788.539 0.301009M236.39 142.155L220.445 169.781L213.204 182.323C212.752 182.107 212.254 182.004 211.753 182.023C211.253 182.043 210.764 182.184 210.33 182.434C209.896 182.685 209.53 183.037 209.263 183.461C208.996 183.885 208.836 184.367 208.797 184.867H162.409C162.37 184.367 162.21 183.885 161.943 183.461C161.676 183.037 161.309 182.685 160.875 182.434C160.441 182.184 159.953 182.042 159.452 182.023C158.952 182.003 158.454 182.106 158.002 182.322L142.051 154.695L134.811 142.155C135.224 141.871 135.561 141.491 135.794 141.047C136.027 140.604 136.149 140.11 136.149 139.609C136.149 139.108 136.027 138.614 135.794 138.171C135.561 137.727 135.224 137.347 134.811 137.063L150.761 109.437L158.002 96.895C158.454 97.1112 158.952 97.2141 159.452 97.1947C159.953 97.1754 160.441 97.0343 160.875 96.7838C161.309 96.5333 161.676 96.1809 161.943 95.757C162.21 95.3331 162.37 94.8506 162.409 94.351H208.792C208.831 94.8506 208.991 95.3331 209.258 95.757C209.525 96.1809 209.891 96.5333 210.325 96.7838C210.759 97.0343 211.248 97.1754 211.748 97.1947C212.249 97.2141 212.747 97.1112 213.199 96.895L236.39 137.063C235.977 137.347 235.64 137.727 235.406 138.171C235.173 138.614 235.052 139.108 235.052 139.609C235.052 140.11 235.173 140.604 235.406 141.047C235.64 141.491 235.977 141.871 236.39 142.155ZM607.714 137.063L630.905 96.895C631.357 97.1112 631.855 97.2141 632.355 97.1947C632.856 97.1754 633.344 97.0343 633.778 96.7838C634.212 96.5333 634.579 96.1809 634.846 95.757C635.113 95.3331 635.273 94.8506 635.312 94.351H681.695C681.736 94.8712 681.909 95.3725 682.197 95.808C682.484 96.2435 682.877 96.5992 683.339 96.8419C683.801 97.0845 684.317 97.2063 684.839 97.1959C685.361 97.1854 685.871 97.043 686.323 96.782C686.775 96.521 687.154 96.1498 687.424 95.7031C687.693 95.2564 687.846 94.7486 687.867 94.2272C687.887 93.7057 687.776 93.1875 687.542 92.7207C687.308 92.254 686.961 91.854 686.531 91.558L709.722 51.39C710.174 51.6064 710.672 51.7095 711.173 51.6902C711.673 51.6709 712.162 51.53 712.596 51.2794C713.03 51.0289 713.397 50.6764 713.664 50.2524C713.931 49.8284 714.091 49.3457 714.13 48.846H760.513C760.552 49.3456 760.711 49.8281 760.979 50.252C761.246 50.6759 761.612 51.0283 762.046 51.2788C762.48 51.5293 762.969 51.6704 763.469 51.6897C763.97 51.7091 764.468 51.6062 764.92 51.39L788.111 91.558C787.698 91.8421 787.361 92.2223 787.128 92.6659C786.894 93.1094 786.773 93.6029 786.773 94.104C786.773 94.6051 786.894 95.0986 787.128 95.5422C787.361 95.9857 787.698 96.3659 788.111 96.65L764.92 136.818C764.468 136.602 763.97 136.499 763.469 136.518C762.969 136.538 762.48 136.679 762.046 136.929C761.612 137.18 761.246 137.532 760.979 137.956C760.711 138.38 760.552 138.862 760.513 139.362H714.129C714.087 138.842 713.914 138.341 713.627 137.905C713.339 137.47 712.946 137.114 712.484 136.872C712.022 136.629 711.506 136.507 710.985 136.518C710.463 136.528 709.952 136.671 709.501 136.932C709.049 137.193 708.67 137.564 708.4 138.01C708.13 138.457 707.978 138.964 707.957 139.486C707.936 140.007 708.048 140.525 708.281 140.992C708.514 141.459 708.862 141.859 709.292 142.155L686.101 182.323C685.649 182.107 685.151 182.004 684.65 182.023C684.15 182.043 683.661 182.184 683.227 182.434C682.793 182.685 682.427 183.037 682.16 183.461C681.893 183.885 681.733 184.367 681.694 184.867H635.312C635.273 184.367 635.113 183.885 634.846 183.461C634.579 183.037 634.212 182.685 633.778 182.434C633.344 182.184 632.856 182.043 632.355 182.023C631.855 182.004 631.357 182.107 630.905 182.323L607.714 142.155C608.126 141.871 608.464 141.491 608.697 141.047C608.93 140.604 609.052 140.11 609.052 139.609C609.052 139.108 608.93 138.614 608.697 138.171C608.464 137.727 608.126 137.347 607.714 137.063ZM371.262 91.558L394.453 51.39C394.905 51.6062 395.403 51.7091 395.903 51.6897C396.404 51.6704 396.892 51.5293 397.326 51.2788C397.76 51.0283 398.127 50.6759 398.394 50.252C398.661 49.8281 398.821 49.3456 398.86 48.846H445.245C445.284 49.3456 445.443 49.8281 445.711 50.252C445.978 50.6759 446.344 51.0283 446.778 51.2788C447.212 51.5293 447.701 51.6704 448.201 51.6897C448.702 51.7091 449.2 51.6062 449.652 51.39L454.529 59.837L472.845 91.558C472.432 91.8421 472.095 92.2223 471.861 92.6659C471.628 93.1094 471.507 93.6029 471.507 94.104C471.507 94.6051 471.628 95.0986 471.861 95.5422C472.095 95.9857 472.432 96.3659 472.845 96.65L449.654 136.818C449.202 136.602 448.704 136.499 448.203 136.518C447.703 136.538 447.214 136.679 446.78 136.929C446.346 137.18 445.98 137.532 445.713 137.956C445.445 138.38 445.286 138.862 445.247 139.362H398.861C398.822 138.862 398.662 138.38 398.395 137.956C398.128 137.532 397.761 137.18 397.327 136.929C396.893 136.679 396.405 136.538 395.904 136.518C395.404 136.499 394.906 136.602 394.454 136.818L389.711 128.603L371.262 96.65C371.674 96.3659 372.012 95.9857 372.245 95.5422C372.478 95.0986 372.6 94.6051 372.6 94.104C372.6 93.6029 372.478 93.1094 372.245 92.6659C372.012 92.2223 371.674 91.8421 371.262 91.558ZM369.507 182.021C368.73 182.021 367.981 182.314 367.41 182.842C366.839 183.369 366.488 184.092 366.426 184.867H320.045C320.006 184.367 319.846 183.885 319.579 183.461C319.312 183.037 318.945 182.685 318.511 182.434C318.077 182.184 317.589 182.043 317.088 182.023C316.588 182.004 316.09 182.107 315.638 182.323L292.445 142.155C292.858 141.871 293.195 141.491 293.428 141.047C293.661 140.604 293.783 140.11 293.783 139.609C293.783 139.108 293.661 138.614 293.428 138.171C293.195 137.727 292.858 137.347 292.445 137.063L315.636 96.895C316.088 97.1116 316.586 97.2149 317.087 97.1957C317.588 97.1765 318.077 97.0356 318.511 96.785C318.945 96.5345 319.312 96.1819 319.579 95.7578C319.846 95.3337 320.006 94.8508 320.045 94.351H366.428C366.467 94.8506 366.626 95.3331 366.894 95.757C367.161 96.1809 367.527 96.5333 367.961 96.7838C368.395 97.0343 368.884 97.1754 369.384 97.1947C369.885 97.2141 370.383 97.1112 370.835 96.895L375.578 105.11L394.026 137.062C393.613 137.346 393.276 137.726 393.042 138.17C392.809 138.613 392.688 139.107 392.688 139.608C392.688 140.109 392.809 140.603 393.042 141.046C393.276 141.49 393.613 141.87 394.026 142.154L370.835 182.322C370.42 182.124 369.967 182.022 369.508 182.022M449.652 227.829C449.2 227.613 448.702 227.51 448.201 227.529C447.701 227.549 447.212 227.69 446.778 227.94C446.344 228.191 445.978 228.543 445.711 228.967C445.443 229.391 445.284 229.873 445.245 230.373H398.861C398.822 229.873 398.662 229.391 398.395 228.967C398.128 228.543 397.761 228.191 397.327 227.94C396.893 227.69 396.405 227.549 395.904 227.529C395.404 227.51 394.906 227.613 394.454 227.829L371.263 187.661C371.676 187.377 372.013 186.997 372.246 186.553C372.479 186.11 372.601 185.616 372.601 185.115C372.601 184.614 372.479 184.12 372.246 183.677C372.013 183.233 371.676 182.853 371.263 182.569L394.453 142.401C394.905 142.617 395.403 142.72 395.904 142.701C396.404 142.682 396.893 142.541 397.327 142.29C397.761 142.04 398.128 141.687 398.395 141.263C398.662 140.839 398.822 140.357 398.861 139.857H445.245C445.284 140.357 445.443 140.839 445.711 141.263C445.978 141.687 446.344 142.039 446.778 142.29C447.212 142.54 447.701 142.681 448.201 142.701C448.702 142.72 449.2 142.617 449.652 142.401L472.845 182.568C472.432 182.852 472.095 183.232 471.861 183.676C471.628 184.119 471.507 184.613 471.507 185.114C471.507 185.615 471.628 186.109 471.861 186.552C472.095 186.996 472.432 187.376 472.845 187.66L449.652 227.829ZM527.145 182.021C526.368 182.021 525.619 182.314 525.048 182.842C524.477 183.369 524.126 184.092 524.064 184.867H477.678C477.639 184.367 477.479 183.885 477.212 183.461C476.945 183.037 476.578 182.685 476.144 182.434C475.71 182.184 475.222 182.043 474.721 182.023C474.221 182.004 473.723 182.107 473.271 182.323L450.08 142.155C450.492 141.871 450.83 141.491 451.063 141.047C451.296 140.604 451.418 140.11 451.418 139.609C451.418 139.108 451.296 138.614 451.063 138.171C450.83 137.727 450.492 137.347 450.08 137.063L473.271 96.895C473.723 97.1112 474.221 97.2141 474.721 97.1947C475.222 97.1754 475.71 97.0343 476.144 96.7838C476.578 96.5333 476.945 96.1809 477.212 95.757C477.479 95.3331 477.639 94.8506 477.678 94.351H524.06C524.099 94.8506 524.258 95.3331 524.526 95.757C524.793 96.1809 525.159 96.5333 525.593 96.7838C526.027 97.0343 526.516 97.1754 527.016 97.1947C527.517 97.2141 528.015 97.1112 528.467 96.895L533.21 105.11L551.658 137.062C551.245 137.346 550.908 137.726 550.674 138.17C550.441 138.613 550.32 139.107 550.32 139.608C550.32 140.109 550.441 140.603 550.674 141.046C550.908 141.49 551.245 141.87 551.658 142.154L528.467 182.322C528.052 182.124 527.599 182.022 527.14 182.022M605.957 227.527C605.179 227.527 604.431 227.82 603.86 228.348C603.289 228.876 602.937 229.599 602.876 230.374H556.495C556.456 229.874 556.296 229.392 556.029 228.968C555.762 228.544 555.395 228.192 554.961 227.941C554.527 227.691 554.039 227.55 553.538 227.53C553.038 227.511 552.54 227.614 552.088 227.83L528.897 187.662C529.31 187.378 529.647 186.998 529.88 186.554C530.113 186.111 530.235 185.617 530.235 185.116C530.235 184.615 530.113 184.121 529.88 183.678C529.647 183.234 529.31 182.854 528.897 182.57L552.088 142.401C552.54 142.617 553.038 142.72 553.538 142.701C554.039 142.681 554.527 142.54 554.961 142.29C555.395 142.039 555.762 141.687 556.029 141.263C556.296 140.839 556.456 140.357 556.495 139.857H602.878C602.917 140.357 603.077 140.839 603.344 141.263C603.611 141.687 603.977 142.039 604.411 142.29C604.845 142.54 605.334 142.681 605.834 142.701C606.335 142.72 606.833 142.617 607.285 142.401L630.476 182.569C630.063 182.853 629.726 183.233 629.492 183.677C629.259 184.12 629.138 184.614 629.138 185.115C629.138 185.616 629.259 186.11 629.492 186.553C629.726 186.997 630.063 187.377 630.476 187.661L607.285 227.828C606.871 227.63 606.418 227.528 605.959 227.528M686.103 273.335C685.651 273.119 685.153 273.016 684.652 273.035C684.152 273.055 683.663 273.196 683.229 273.446C682.795 273.697 682.429 274.049 682.162 274.473C681.895 274.897 681.735 275.379 681.696 275.879H635.312C635.273 275.379 635.113 274.897 634.846 274.473C634.579 274.049 634.212 273.697 633.778 273.446C633.344 273.196 632.856 273.055 632.355 273.035C631.855 273.016 631.357 273.119 630.905 273.335L607.714 233.167C608.126 232.883 608.464 232.503 608.697 232.059C608.93 231.616 609.052 231.122 609.052 230.621C609.052 230.12 608.93 229.626 608.697 229.183C608.464 228.739 608.126 228.359 607.714 228.075L630.905 187.901C631.357 188.117 631.855 188.22 632.355 188.201C632.856 188.181 633.344 188.04 633.778 187.79C634.212 187.539 634.579 187.187 634.846 186.763C635.113 186.339 635.273 185.857 635.312 185.357H681.695C681.734 185.857 681.893 186.339 682.161 186.763C682.428 187.187 682.794 187.539 683.228 187.79C683.662 188.04 684.151 188.181 684.651 188.201C685.152 188.22 685.65 188.117 686.102 187.901L690.912 196.233L709.292 228.069C708.879 228.353 708.542 228.733 708.308 229.177C708.075 229.62 707.954 230.114 707.954 230.615C707.954 231.116 708.075 231.61 708.308 232.053C708.542 232.497 708.879 232.877 709.292 233.161L686.103 273.335ZM764.92 227.83C764.468 227.614 763.97 227.511 763.469 227.53C762.969 227.55 762.48 227.691 762.046 227.941C761.612 228.192 761.246 228.544 760.979 228.968C760.711 229.392 760.552 229.874 760.513 230.374H714.129C714.09 229.874 713.93 229.392 713.663 228.968C713.396 228.544 713.029 228.191 712.595 227.941C712.161 227.69 711.672 227.549 711.172 227.53C710.671 227.511 710.173 227.614 709.721 227.83L704.911 219.498L686.531 187.662C686.943 187.378 687.281 186.998 687.514 186.554C687.747 186.111 687.869 185.617 687.869 185.116C687.869 184.615 687.747 184.121 687.514 183.678C687.281 183.234 686.943 182.854 686.531 182.57L709.722 142.401C710.174 142.617 710.672 142.72 711.173 142.701C711.673 142.682 712.162 142.541 712.596 142.29C713.03 142.04 713.397 141.687 713.664 141.263C713.931 140.839 714.091 140.357 714.13 139.857H760.513C760.552 140.357 760.711 140.839 760.979 141.263C761.246 141.687 761.612 142.039 762.046 142.29C762.48 142.54 762.969 142.681 763.469 142.701C763.97 142.72 764.468 142.617 764.92 142.401L769.797 150.848L788.111 182.569C787.698 182.853 787.361 183.233 787.128 183.677C786.894 184.12 786.773 184.614 786.773 185.115C786.773 185.616 786.894 186.11 787.128 186.553C787.361 186.997 787.698 187.377 788.111 187.661L764.92 227.83ZM866.928 142.157L843.737 182.325C843.285 182.109 842.787 182.006 842.286 182.025C841.786 182.045 841.297 182.186 840.863 182.436C840.429 182.687 840.063 183.039 839.796 183.463C839.529 183.887 839.369 184.369 839.33 184.869H792.945C792.906 184.369 792.746 183.887 792.479 183.463C792.212 183.039 791.845 182.686 791.411 182.436C790.977 182.185 790.488 182.044 789.988 182.025C789.487 182.006 788.989 182.109 788.537 182.325L783.66 173.878L765.345 142.155C765.758 141.871 766.095 141.491 766.328 141.047C766.561 140.604 766.683 140.11 766.683 139.609C766.683 139.108 766.561 138.614 766.328 138.171C766.095 137.727 765.758 137.347 765.345 137.063L788.536 96.895C788.988 97.1116 789.486 97.2149 789.987 97.1957C790.488 97.1765 790.977 97.0356 791.411 96.785C791.845 96.5345 792.212 96.1819 792.479 95.7578C792.746 95.3337 792.906 94.8508 792.945 94.351H839.327C839.366 94.8506 839.526 95.3331 839.793 95.757C840.06 96.1809 840.426 96.5333 840.86 96.7838C841.294 97.0343 841.783 97.1754 842.283 97.1947C842.784 97.2141 843.282 97.1112 843.734 96.895L848.477 105.11L866.925 137.062C866.512 137.346 866.175 137.726 865.941 138.17C865.708 138.613 865.587 139.107 865.587 139.608C865.587 140.109 865.708 140.603 865.941 141.046C866.175 141.49 866.512 141.87 866.925 142.154M922.551 136.817C922.099 136.601 921.601 136.498 921.1 136.518C920.6 136.537 920.111 136.679 919.677 136.929C919.244 137.18 918.877 137.532 918.61 137.956C918.343 138.38 918.184 138.863 918.145 139.362H871.764C871.725 138.862 871.565 138.38 871.298 137.956C871.031 137.532 870.664 137.18 870.23 136.929C869.796 136.679 869.308 136.538 868.807 136.518C868.307 136.499 867.809 136.602 867.357 136.818L862.614 128.603L844.165 96.65C844.578 96.3659 844.915 95.9857 845.148 95.5422C845.381 95.0986 845.503 94.6051 845.503 94.104C845.503 93.6029 845.381 93.1094 845.148 92.6659C844.915 92.2223 844.578 91.8421 844.165 91.558L867.356 51.39C867.808 51.6062 868.306 51.7091 868.806 51.6897C869.307 51.6704 869.795 51.5293 870.229 51.2788C870.663 51.0283 871.03 50.6759 871.297 50.252C871.564 49.8281 871.724 49.3456 871.763 48.846H918.145C918.184 49.3457 918.343 49.8284 918.611 50.2524C918.878 50.6764 919.244 51.0289 919.678 51.2794C920.113 51.53 920.601 51.6709 921.102 51.6902C921.603 51.7095 922.101 51.6064 922.553 51.39L945.745 91.558C945.332 91.8421 944.995 92.2223 944.761 92.6659C944.528 93.1094 944.407 93.6029 944.407 94.104C944.407 94.6051 944.528 95.0986 944.761 95.5422C944.995 95.9857 945.332 96.3659 945.745 96.65L922.551 136.817ZM1024.56 142.154L1001.37 182.322C1000.92 182.106 1000.42 182.003 999.917 182.022C999.417 182.042 998.928 182.183 998.494 182.433C998.06 182.684 997.694 183.036 997.427 183.46C997.16 183.884 997 184.366 996.961 184.866H950.581C950.542 184.366 950.382 183.884 950.115 183.46C949.848 183.036 949.481 182.684 949.047 182.433C948.613 182.183 948.125 182.042 947.624 182.022C947.124 182.003 946.626 182.106 946.174 182.322L922.983 142.154C923.396 141.87 923.733 141.49 923.966 141.046C924.199 140.603 924.321 140.109 924.321 139.608C924.321 139.107 924.199 138.613 923.966 138.17C923.733 137.726 923.396 137.346 922.983 137.062L946.174 96.894C946.626 97.1102 947.124 97.2131 947.624 97.1937C948.125 97.1744 948.613 97.0333 949.047 96.7828C949.481 96.5323 949.848 96.1799 950.115 95.756C950.382 95.3321 950.542 94.8496 950.581 94.35H996.964C997.003 94.8496 997.163 95.3321 997.43 95.756C997.697 96.1799 998.063 96.5323 998.497 96.7828C998.931 97.0333 999.42 97.1744 999.92 97.1937C1000.42 97.2131 1000.92 97.1102 1001.37 96.894L1006.11 105.109L1024.56 137.061C1024.15 137.345 1023.81 137.725 1023.58 138.169C1023.35 138.612 1023.22 139.106 1023.22 139.607C1023.22 140.108 1023.35 140.602 1023.58 141.045C1023.81 141.489 1024.15 141.869 1024.56 142.153" fill="white"/>
</g>
</g>
<defs>
<linearGradient id="paint0_linear_493_936" x1="196.188" y1="143.975" x2="196.188" y2="221.958" gradientUnits="userSpaceOnUse">
<stop stop-color="#6C4FFE"/>
<stop offset="1" stop-color="#FCFCFD"/>
</linearGradient>
<linearGradient id="paint1_linear_493_936" x1="271.771" y1="100.334" x2="271.771" y2="178.327" gradientUnits="userSpaceOnUse">
<stop stop-color="#6C4FFE"/>
<stop offset="1" stop-color="#FCFCFD"/>
</linearGradient>
<linearGradient id="paint2_linear_493_936" x1="120.607" y1="100.338" x2="120.607" y2="178.324" gradientUnits="userSpaceOnUse">
<stop stop-color="#6C4FFE"/>
<stop offset="1" stop-color="#FCFCFD"/>
</linearGradient>
<linearGradient id="paint3_linear_493_936" x1="498.518" y1="143.975" x2="498.518" y2="221.968" gradientUnits="userSpaceOnUse">
<stop stop-color="#6C4FFE"/>
<stop offset="1" stop-color="#FCFCFD"/>
</linearGradient>
<linearGradient id="paint4_linear_493_936" x1="347.354" y1="143.975" x2="347.354" y2="221.958" gradientUnits="userSpaceOnUse">
<stop stop-color="#6C4FFE"/>
<stop offset="1" stop-color="#FCFCFD"/>
</linearGradient>
<linearGradient id="paint5_linear_493_936" x1="422.936" y1="187.605" x2="422.936" y2="265.598" gradientUnits="userSpaceOnUse">
<stop stop-color="#6C4FFE"/>
<stop offset="1" stop-color="#FCFCFD"/>
</linearGradient>
<linearGradient id="paint6_linear_493_936" x1="725.265" y1="13.062" x2="725.265" y2="91.048" gradientUnits="userSpaceOnUse">
<stop stop-color="#6C4FFE"/>
<stop offset="1" stop-color="#FCFCFD"/>
</linearGradient>
<linearGradient id="paint7_linear_493_936" x1="120.607" y1="13.062" x2="120.607" y2="91.048" gradientUnits="userSpaceOnUse">
<stop stop-color="#6C4FFE"/>
<stop offset="1" stop-color="#FCFCFD"/>
</linearGradient>
<linearGradient id="paint8_linear_493_936" x1="725.265" y1="100.338" x2="725.265" y2="178.324" gradientUnits="userSpaceOnUse">
<stop stop-color="#6C4FFE"/>
<stop offset="1" stop-color="#FCFCFD"/>
</linearGradient>
<linearGradient id="paint9_linear_493_936" x1="498.519" y1="56.7" x2="498.519" y2="134.686" gradientUnits="userSpaceOnUse">
<stop stop-color="#6C4FFE"/>
<stop offset="1" stop-color="#FCFCFD"/>
</linearGradient>
<linearGradient id="paint10_linear_493_936" x1="271.772" y1="13.062" x2="271.772" y2="91.048" gradientUnits="userSpaceOnUse">
<stop stop-color="#6C4FFE"/>
<stop offset="1" stop-color="#FCFCFD"/>
</linearGradient>
<linearGradient id="paint11_linear_493_936" x1="347.355" y1="56.7" x2="347.355" y2="134.686" gradientUnits="userSpaceOnUse">
<stop stop-color="#6C4FFE"/>
<stop offset="1" stop-color="#FCFCFD"/>
</linearGradient>
<linearGradient id="paint12_linear_493_936" x1="45.025" y1="143.975" x2="45.025" y2="221.958" gradientUnits="userSpaceOnUse">
<stop stop-color="#6C4FFE"/>
<stop offset="1" stop-color="#FCFCFD"/>
</linearGradient>
<linearGradient id="paint13_linear_493_936" x1="1027.04" y1="13" x2="1027.04" y2="90.992" gradientUnits="userSpaceOnUse">
<stop stop-color="#6C4FFE"/>
<stop offset="1" stop-color="#FCFCFD"/>
</linearGradient>
<linearGradient id="paint14_linear_493_936" x1="574.101" y1="13.063" x2="574.101" y2="91.056" gradientUnits="userSpaceOnUse">
<stop stop-color="#6C4FFE"/>
<stop offset="1" stop-color="#FCFCFD"/>
</linearGradient>
<linearGradient id="paint15_linear_493_936" x1="875.998" y1="13" x2="875.998" y2="90.985" gradientUnits="userSpaceOnUse">
<stop stop-color="#6C4FFE"/>
<stop offset="1" stop-color="#FCFCFD"/>
</linearGradient>
<linearGradient id="paint16_linear_493_936" x1="1102.62" y1="56.637" x2="1102.62" y2="134.63" gradientUnits="userSpaceOnUse">
<stop stop-color="#6C4FFE"/>
<stop offset="1" stop-color="#FCFCFD"/>
</linearGradient>
<linearGradient id="paint17_linear_493_936" x1="951.455" y1="56.637" x2="951.455" y2="134.63" gradientUnits="userSpaceOnUse">
<stop stop-color="#6C4FFE"/>
<stop offset="1" stop-color="#FCFCFD"/>
</linearGradient>
<linearGradient id="paint18_linear_493_936" x1="649.684" y1="56.692" x2="649.684" y2="134.685" gradientUnits="userSpaceOnUse">
<stop stop-color="#6C4FFE"/>
<stop offset="1" stop-color="#FCFCFD"/>
</linearGradient>
<linearGradient id="paint19_linear_493_936" x1="649.683" y1="143.974" x2="649.683" y2="221.958" gradientUnits="userSpaceOnUse">
<stop stop-color="#6C4FFE"/>
<stop offset="1" stop-color="#FCFCFD"/>
</linearGradient>
<linearGradient id="paint20_linear_493_936" x1="725.265" y1="187.612" x2="725.265" y2="265.605" gradientUnits="userSpaceOnUse">
<stop stop-color="#6C4FFE"/>
<stop offset="1" stop-color="#FCFCFD"/>
</linearGradient>
<linearGradient id="paint21_linear_493_936" x1="800.717" y1="56.7" x2="800.717" y2="134.693" gradientUnits="userSpaceOnUse">
<stop stop-color="#6C4FFE"/>
<stop offset="1" stop-color="#FCFCFD"/>
</linearGradient>
<linearGradient id="paint22_linear_493_936" x1="800.848" y1="143.975" x2="800.848" y2="221.968" gradientUnits="userSpaceOnUse">
<stop stop-color="#6C4FFE"/>
<stop offset="1" stop-color="#FCFCFD"/>
</linearGradient>
<clipPath id="clip0_493_936">
<rect width="1147.65" height="279.218" fill="white"/>
</clipPath>
</defs>
</svg>
