<svg width="574" height="542" viewBox="0 0 574 542" fill="none" xmlns="http://www.w3.org/2000/svg">
<path opacity="0.08" d="M554 0H20C8.9543 0 0 8.9543 0 20V522C0 533.046 8.9543 542 20 542H554C565.046 542 574 533.046 574 522V20C574 8.9543 565.046 0 554 0Z" fill="url(#paint0_linear_493_760)"/>
<path d="M528 26H46C34.9543 26 26 34.9543 26 46V496C26 507.046 34.9543 516 46 516H528C539.046 516 548 507.046 548 496V46C548 34.9543 539.046 26 528 26Z" fill="url(#paint1_linear_493_760)"/>
<g opacity="0.9">
<mask id="mask0_493_760" style="mask-type:luminance" maskUnits="userSpaceOnUse" x="85" y="87" width="404" height="368">
<path d="M488.45 87.918H85.5498V454.082H488.45V87.918Z" fill="white"/>
</mask>
<g mask="url(#mask0_493_760)">
<path d="M413.532 134.023L439.813 139.634C435.593 145.366 425.739 158.747 421.189 164.256C409.368 178.237 396.716 191.492 383.301 203.951C369.65 216.341 355.361 228.01 340.494 238.911C325.531 249.777 309.943 259.847 293.946 269.294C261.715 288.092 228.003 304.226 193.146 317.534C175.698 324.25 157.995 330.307 140.037 335.706C131.057 338.357 122.037 340.924 112.948 343.175C103.874 345.396 94.6889 347.628 85.5479 349L85.8339 351.857C95.3699 350.957 104.601 349.228 113.902 347.49C123.182 345.726 132.393 343.642 141.587 341.468C159.95 337.031 178.144 331.9 196.168 326.077C232.336 314.491 267.497 299.969 301.3 282.656C318.2 273.888 334.8 264.42 350.875 254.04C366.956 243.557 382.477 232.239 397.375 220.133C412.238 207.781 426.338 194.541 439.6 180.484C445.305 174.304 456.874 161.093 462.2 154.557L476.689 174.585L488.45 87.918L413.532 134.023Z" fill="url(#paint2_linear_493_760)"/>
</g>
<mask id="mask1_493_760" style="mask-type:luminance" maskUnits="userSpaceOnUse" x="87" y="376" width="45" height="79">
<path d="M98.8609 395.737L87.9609 414.613H98.4289V454.082H121.098V414.613H131.561L120.661 395.737L109.761 376.861L98.8609 395.737Z" fill="white"/>
</mask>
<g mask="url(#mask1_493_760)">
<path d="M131.559 376.861H87.9678V454.081H131.559V376.861Z" fill="url(#paint3_linear_493_760)"/>
</g>
<mask id="mask2_493_760" style="mask-type:luminance" maskUnits="userSpaceOnUse" x="138" y="366" width="44" height="89">
<path d="M149.141 385.545L138.241 404.421H148.702V454.083H171.371V404.421H181.832L170.932 385.545L160.032 366.669L149.141 385.545Z" fill="white"/>
</mask>
<g mask="url(#mask2_493_760)">
<path d="M181.834 366.669H138.243V454.082H181.834V366.669Z" fill="url(#paint4_linear_493_760)"/>
</g>
<mask id="mask3_493_760" style="mask-type:luminance" maskUnits="userSpaceOnUse" x="188" y="351" width="45" height="104">
<path d="M199.416 370.224L188.516 389.1H198.979V454.083H221.649V389.099H232.11L221.21 370.223L210.31 351.347L199.416 370.224Z" fill="white"/>
</mask>
<g mask="url(#mask3_493_760)">
<path d="M232.11 351.348H188.518V454.082H232.11V351.348Z" fill="url(#paint5_linear_493_760)"/>
</g>
<mask id="mask4_493_760" style="mask-type:luminance" maskUnits="userSpaceOnUse" x="238" y="331" width="45" height="124">
<path d="M249.691 350.805L238.791 369.681H249.252V454.081H271.923V369.681H282.384L271.484 350.805L260.584 331.929L249.691 350.805Z" fill="white"/>
</mask>
<g mask="url(#mask4_493_760)">
<path d="M282.384 331.929H238.793V454.082H282.384V331.929Z" fill="url(#paint6_linear_493_760)"/>
</g>
<mask id="mask5_493_760" style="mask-type:luminance" maskUnits="userSpaceOnUse" x="289" y="309" width="44" height="146">
<path d="M299.965 327.99L289.065 346.866H299.526V454.082H322.195V346.865H332.656L321.756 327.989L310.856 309.113L299.965 327.99Z" fill="white"/>
</mask>
<g mask="url(#mask5_493_760)">
<path d="M332.658 309.114H289.067V454.082H332.658V309.114Z" fill="url(#paint7_linear_493_760)"/>
</g>
<mask id="mask6_493_760" style="mask-type:luminance" maskUnits="userSpaceOnUse" x="339" y="279" width="44" height="176">
<path d="M350.242 298.624L339.342 317.5H349.803V454.083H372.472V317.499H382.931L372.031 298.623L361.131 279.747L350.242 298.624Z" fill="white"/>
</mask>
<g mask="url(#mask6_493_760)">
<path d="M382.935 279.748H339.344V454.082H382.935V279.748Z" fill="url(#paint8_linear_493_760)"/>
</g>
<mask id="mask7_493_760" style="mask-type:luminance" maskUnits="userSpaceOnUse" x="389" y="244" width="45" height="211">
<path d="M400.517 263.24L389.617 282.115H400.085V454.081H422.754V282.115H433.215L422.315 263.24L411.415 244.364L400.517 263.24Z" fill="white"/>
</mask>
<g mask="url(#mask7_493_760)">
<path d="M433.211 244.364H389.619V454.081H433.211V244.364Z" fill="url(#paint9_linear_493_760)"/>
</g>
<mask id="mask8_493_760" style="mask-type:luminance" maskUnits="userSpaceOnUse" x="439" y="199" width="45" height="256">
<path d="M450.792 218.546L439.892 237.421H450.353V454.081H473.022V237.421H483.483L472.583 218.546L461.683 199.67L450.792 218.546Z" fill="white"/>
</mask>
<g mask="url(#mask8_493_760)">
<path d="M483.486 199.67H439.894V454.082H483.486V199.67Z" fill="url(#paint10_linear_493_760)"/>
</g>
</g>
<path d="M319.55 87.918H235.55C230.027 87.918 225.55 92.3951 225.55 97.918V124.918C225.55 130.441 230.027 134.918 235.55 134.918H319.55C325.073 134.918 329.55 130.441 329.55 124.918V97.918C329.55 92.3951 325.073 87.918 319.55 87.918Z" fill="white"/>
<path d="M271.552 107.483C273.582 107.483 275.332 108.505 276.074 110.409H274.156C273.638 109.429 272.714 108.939 271.552 108.939C269.62 108.939 268.22 110.311 268.22 112.453C268.22 114.595 269.62 115.981 271.552 115.981C273.316 115.981 274.422 114.917 274.66 113.279H271.006V112.005H276.368V113.251C276.074 115.505 274.17 117.423 271.552 117.423C268.808 117.423 266.582 115.379 266.582 112.453C266.582 109.541 268.808 107.483 271.552 107.483ZM279.539 113.279V117.339H277.943V109.625H279.539V110.745C279.987 109.975 280.757 109.499 281.849 109.499V111.151H281.443C280.267 111.151 279.539 111.641 279.539 113.279ZM290.666 113.475C290.666 115.897 288.874 117.465 286.662 117.465C284.464 117.465 282.798 115.897 282.798 113.475C282.798 111.053 284.534 109.499 286.732 109.499C288.93 109.499 290.666 111.053 290.666 113.475ZM284.422 113.475C284.422 115.225 285.458 116.079 286.662 116.079C287.852 116.079 289.028 115.225 289.028 113.475C289.028 111.725 287.894 110.885 286.704 110.885C285.5 110.885 284.422 111.725 284.422 113.475ZM293.741 117.339L291.333 109.625H292.957L294.567 115.827L296.205 109.625H297.871L299.439 115.799L301.035 109.625H302.603L300.209 117.339H298.529L296.975 111.641L295.421 117.339H293.741ZM304.048 115.197V110.927H303.138V109.625H304.048V107.707H305.658V109.625H307.534V110.927H305.658V115.197C305.658 115.771 305.882 116.009 306.554 116.009H307.534V117.339H306.274C304.902 117.339 304.048 116.765 304.048 115.197ZM309.005 117.339V106.979H310.601V110.521C311.133 109.877 312.001 109.499 312.995 109.499C314.717 109.499 316.061 110.633 316.061 112.789V117.339H314.479V113.027C314.479 111.613 313.709 110.885 312.547 110.885C311.371 110.885 310.601 111.613 310.601 113.027V117.339H309.005Z" fill="#1AD598"/>
<path d="M249.549 122.839C256.176 122.839 261.549 117.69 261.549 111.339C261.549 104.988 256.176 99.8389 249.549 99.8389C242.921 99.8389 237.549 104.988 237.549 111.339C237.549 117.69 242.921 122.839 249.549 122.839Z" fill="#1AD598" fill-opacity="0.2"/>
<path d="M245.816 115.279C245.656 115.115 245.565 114.895 245.565 114.666C245.565 114.437 245.656 114.216 245.816 114.053L251.228 108.594H248.145C247.915 108.594 247.695 108.502 247.532 108.34C247.369 108.177 247.278 107.956 247.278 107.726C247.278 107.496 247.369 107.276 247.532 107.113C247.695 106.95 247.915 106.859 248.145 106.859H253.305C253.422 106.859 253.538 106.883 253.645 106.93H253.653H253.661C253.755 106.973 253.841 107.032 253.913 107.106C253.962 107.155 254.004 107.209 254.039 107.268L254.045 107.279L254.055 107.302C254.128 107.432 254.166 107.578 254.165 107.727V112.927C254.165 113.155 254.075 113.374 253.913 113.535C253.752 113.697 253.533 113.787 253.305 113.787C253.077 113.787 252.858 113.697 252.696 113.535C252.535 113.374 252.444 113.155 252.444 112.927V109.821L247.032 115.279C246.953 115.359 246.858 115.423 246.754 115.467C246.65 115.51 246.538 115.533 246.424 115.533C246.311 115.533 246.199 115.51 246.095 115.467C245.991 115.423 245.896 115.359 245.816 115.279Z" fill="#1AD598"/>
<path d="M188.55 160.5H95.5498C90.027 160.5 85.5498 164.977 85.5498 170.5V228.5C85.5498 234.023 90.027 238.5 95.5498 238.5H188.55C194.073 238.5 198.55 234.023 198.55 228.5V170.5C198.55 164.977 194.073 160.5 188.55 160.5Z" fill="white"/>
<path d="M136.321 186.798H137.805V189.696H140.633V191.04H137.805V193.938H136.321V191.04H133.493V189.696H136.321V186.798ZM143.32 185.188H149.48V186.588H144.79V189.374C145.168 188.87 145.994 188.45 146.904 188.45C149.41 188.45 150.18 190.312 150.18 191.852C150.18 193.882 149.018 195.422 146.652 195.422C144.552 195.422 143.334 194.26 143.096 192.664H144.65C144.86 193.532 145.588 194.092 146.666 194.092C148.038 194.092 148.654 193.154 148.654 191.894C148.654 190.564 147.996 189.808 146.666 189.808C145.728 189.808 145.098 190.326 144.832 191.082H143.32V185.188ZM151.071 197.368L152.065 193.504H153.801L152.107 197.368H151.071ZM156.078 195.422V186.672H154.776V185.216H157.688V195.422H156.078ZM164.752 195.422V193.294H159.684V192.09L164.388 185.342H166.32V191.908H167.622V193.294H166.32V195.422H164.752ZM161.518 191.908H164.822V186.966L161.518 191.908ZM168.692 187.68C168.692 186.294 169.602 185.496 170.82 185.496C172.038 185.496 172.948 186.294 172.948 187.68C172.948 189.08 172.038 189.878 170.82 189.878C169.602 189.878 168.692 189.08 168.692 187.68ZM170.82 186.462C170.274 186.462 169.938 186.812 169.938 187.68C169.938 188.548 170.274 188.912 170.82 188.912C171.352 188.912 171.702 188.548 171.702 187.68C171.702 186.812 171.352 186.462 170.82 186.462ZM170.078 195.422L175.664 185.678H177.232L171.646 195.422H170.078ZM174.39 193.406C174.39 192.006 175.3 191.222 176.518 191.222C177.722 191.222 178.632 192.006 178.632 193.406C178.632 194.806 177.722 195.604 176.518 195.604C175.3 195.604 174.39 194.806 174.39 193.406ZM176.504 192.188C175.972 192.188 175.622 192.538 175.622 193.406C175.622 194.274 175.972 194.624 176.504 194.624C177.036 194.624 177.386 194.274 177.386 193.406C177.386 192.538 177.036 192.188 176.504 192.188Z" fill="#1AD598"/>
<path d="M115.55 201C122.177 201 127.55 195.851 127.55 189.5C127.55 183.149 122.177 178 115.55 178C108.922 178 103.55 183.149 103.55 189.5C103.55 195.851 108.922 201 115.55 201Z" fill="#1AD598" fill-opacity="0.2"/>
<path d="M111.816 193.44C111.656 193.277 111.565 193.056 111.565 192.827C111.565 192.598 111.656 192.378 111.816 192.214L117.228 186.755H114.145C113.915 186.755 113.695 186.664 113.532 186.501C113.369 186.338 113.278 186.118 113.278 185.888C113.278 185.657 113.369 185.437 113.532 185.274C113.695 185.111 113.915 185.02 114.145 185.02H119.305C119.422 185.02 119.538 185.044 119.645 185.091H119.653H119.661C119.755 185.134 119.841 185.194 119.913 185.267C119.962 185.316 120.004 185.37 120.039 185.429L120.045 185.44L120.055 185.463C120.128 185.593 120.166 185.739 120.165 185.888V191.088C120.165 191.316 120.075 191.535 119.913 191.696C119.752 191.858 119.533 191.949 119.305 191.949C119.077 191.949 118.858 191.858 118.696 191.696C118.535 191.535 118.444 191.316 118.444 191.088V187.982L113.032 193.44C112.953 193.52 112.858 193.584 112.754 193.628C112.65 193.671 112.538 193.694 112.424 193.694C112.311 193.694 112.199 193.671 112.095 193.628C111.991 193.584 111.896 193.52 111.816 193.44Z" fill="#1AD598"/>
<path d="M118.378 209.228V210.278H114.402V213.54H117.958V214.59H114.402V217.95H118.378V219H113.128V209.228H118.378ZM119.83 215.136C119.83 212.742 121.412 211.202 123.47 211.202C124.898 211.202 125.878 211.93 126.326 212.728V211.328H127.614V219H126.326V217.572C125.864 218.398 124.87 219.126 123.456 219.126C121.412 219.126 119.83 217.516 119.83 215.136ZM126.326 215.15C126.326 213.372 125.122 212.308 123.722 212.308C122.322 212.308 121.132 213.33 121.132 215.136C121.132 216.942 122.322 218.006 123.722 218.006C125.122 218.006 126.326 216.956 126.326 215.15ZM131.04 214.828V219H129.766V211.328H131.04V212.574C131.474 211.72 132.3 211.188 133.518 211.188V212.504H133.182C131.964 212.504 131.04 213.05 131.04 214.828ZM140.603 219V214.66C140.603 213.092 139.749 212.294 138.461 212.294C137.159 212.294 136.263 213.106 136.263 214.758V219H134.989V211.328H136.263V212.42C136.767 211.622 137.691 211.188 138.727 211.188C140.505 211.188 141.863 212.28 141.863 214.478V219H140.603ZM143.944 219V211.328H145.218V219H143.944ZM144.602 210.082C144.112 210.082 143.734 209.704 143.734 209.214C143.734 208.724 144.112 208.346 144.602 208.346C145.064 208.346 145.442 208.724 145.442 209.214C145.442 209.704 145.064 210.082 144.602 210.082ZM153.004 219V214.66C153.004 213.092 152.15 212.294 150.862 212.294C149.56 212.294 148.664 213.106 148.664 214.758V219H147.39V211.328H148.664V212.42C149.168 211.622 150.092 211.188 151.128 211.188C152.906 211.188 154.264 212.28 154.264 214.478V219H153.004ZM155.869 215.136C155.869 212.742 157.451 211.202 159.509 211.202C160.909 211.202 161.917 211.902 162.365 212.728V211.328H163.653V219.168C163.653 221.282 162.239 222.78 159.985 222.78C157.969 222.78 156.527 221.758 156.275 220.12H157.535C157.815 221.044 158.725 221.674 159.985 221.674C161.343 221.674 162.365 220.806 162.365 219.168V217.558C161.903 218.384 160.909 219.126 159.509 219.126C157.451 219.126 155.869 217.516 155.869 215.136ZM162.365 215.15C162.365 213.372 161.161 212.308 159.761 212.308C158.361 212.308 157.171 213.33 157.171 215.136C157.171 216.942 158.361 218.006 159.761 218.006C161.161 218.006 162.365 216.956 162.365 215.15ZM171.322 216.914C171.322 218.174 170.216 219.126 168.522 219.126C166.73 219.126 165.47 218.146 165.386 216.746H166.702C166.772 217.488 167.43 218.048 168.508 218.048C169.516 218.048 170.076 217.544 170.076 216.914C170.076 215.206 165.54 216.2 165.54 213.344C165.54 212.168 166.646 211.202 168.354 211.202C170.048 211.202 171.168 212.112 171.252 213.61H169.978C169.922 212.84 169.334 212.28 168.312 212.28C167.374 212.28 166.814 212.728 166.814 213.344C166.814 215.164 171.266 214.17 171.322 216.914Z" fill="#777E90"/>
<defs>
<linearGradient id="paint0_linear_493_760" x1="287" y1="0" x2="287" y2="542" gradientUnits="userSpaceOnUse">
<stop stop-color="#5C96FD"/>
<stop offset="1" stop-color="#6C4FFE"/>
</linearGradient>
<linearGradient id="paint1_linear_493_760" x1="287" y1="26" x2="287" y2="516" gradientUnits="userSpaceOnUse">
<stop stop-color="white" stop-opacity="0"/>
<stop offset="1" stop-color="white"/>
</linearGradient>
<linearGradient id="paint2_linear_493_760" x1="286.999" y1="87.918" x2="286.999" y2="351.857" gradientUnits="userSpaceOnUse">
<stop stop-color="#5C96FD"/>
<stop offset="1" stop-color="#6C4FFE"/>
</linearGradient>
<linearGradient id="paint3_linear_493_760" x1="109.763" y1="376.861" x2="109.763" y2="454.081" gradientUnits="userSpaceOnUse">
<stop stop-color="#5C96FD"/>
<stop offset="1" stop-color="#6C4FFE"/>
</linearGradient>
<linearGradient id="paint4_linear_493_760" x1="160.039" y1="366.669" x2="160.039" y2="454.082" gradientUnits="userSpaceOnUse">
<stop stop-color="#5C96FD"/>
<stop offset="1" stop-color="#6C4FFE"/>
</linearGradient>
<linearGradient id="paint5_linear_493_760" x1="210.314" y1="351.348" x2="210.314" y2="454.082" gradientUnits="userSpaceOnUse">
<stop stop-color="#5C96FD"/>
<stop offset="1" stop-color="#6C4FFE"/>
</linearGradient>
<linearGradient id="paint6_linear_493_760" x1="260.588" y1="331.929" x2="260.588" y2="454.082" gradientUnits="userSpaceOnUse">
<stop stop-color="#5C96FD"/>
<stop offset="1" stop-color="#6C4FFE"/>
</linearGradient>
<linearGradient id="paint7_linear_493_760" x1="310.863" y1="309.114" x2="310.863" y2="454.082" gradientUnits="userSpaceOnUse">
<stop stop-color="#5C96FD"/>
<stop offset="1" stop-color="#6C4FFE"/>
</linearGradient>
<linearGradient id="paint8_linear_493_760" x1="361.139" y1="279.748" x2="361.139" y2="454.082" gradientUnits="userSpaceOnUse">
<stop stop-color="#5C96FD"/>
<stop offset="1" stop-color="#6C4FFE"/>
</linearGradient>
<linearGradient id="paint9_linear_493_760" x1="411.415" y1="244.364" x2="411.415" y2="454.081" gradientUnits="userSpaceOnUse">
<stop stop-color="#5C96FD"/>
<stop offset="1" stop-color="#6C4FFE"/>
</linearGradient>
<linearGradient id="paint10_linear_493_760" x1="461.69" y1="199.67" x2="461.69" y2="454.082" gradientUnits="userSpaceOnUse">
<stop stop-color="#5C96FD"/>
<stop offset="1" stop-color="#6C4FFE"/>
</linearGradient>
</defs>
</svg>
