<svg width="883" height="235" viewBox="0 0 883 235" fill="none" xmlns="http://www.w3.org/2000/svg">
<path d="M813 186.385H644C638.477 186.385 634 190.862 634 196.385V224.385C634 229.908 638.477 234.385 644 234.385H813C818.523 234.385 823 229.908 823 224.385V196.385C823 190.862 818.523 186.385 813 186.385Z" fill="white"/>
<path d="M684.518 211.499C684.518 208.587 686.744 206.529 689.488 206.529C691.518 206.529 693.268 207.551 694.01 209.455H692.092C691.574 208.419 690.65 207.929 689.488 207.929C687.556 207.929 686.156 209.301 686.156 211.499C686.156 213.697 687.556 215.083 689.488 215.083C690.65 215.083 691.574 214.593 692.092 213.557H694.01C693.268 215.461 691.518 216.469 689.488 216.469C686.744 216.469 684.518 214.425 684.518 211.499ZM697.474 212.325V216.385H695.878V208.671H697.474V209.791C697.922 209.021 698.692 208.545 699.784 208.545V210.197H699.378C698.202 210.197 697.474 210.687 697.474 212.325ZM704.499 209.889C703.421 209.889 702.553 210.617 702.385 211.835H706.655C706.627 210.645 705.689 209.889 704.499 209.889ZM708.111 214.089C707.677 215.433 706.459 216.511 704.569 216.511C702.357 216.511 700.719 214.943 700.719 212.521C700.719 210.099 702.287 208.545 704.569 208.545C706.767 208.545 708.321 210.071 708.321 212.339C708.321 212.605 708.307 212.857 708.265 213.123H702.371C702.483 214.397 703.393 215.167 704.569 215.167C705.549 215.167 706.095 214.691 706.389 214.089H708.111ZM709.36 212.493C709.36 210.113 710.97 208.545 713.014 208.545C714.022 208.545 715.086 209.021 715.674 209.749V206.025H717.284V216.385H715.674V215.223C715.184 215.923 714.26 216.511 713 216.511C710.97 216.511 709.36 214.873 709.36 212.493ZM715.674 212.521C715.674 210.869 714.54 209.931 713.336 209.931C712.146 209.931 710.998 210.827 710.998 212.493C710.998 214.159 712.146 215.125 713.336 215.125C714.54 215.125 715.674 214.187 715.674 212.521ZM719.38 216.385V208.671H720.976V216.385H719.38ZM720.192 207.649C719.618 207.649 719.17 207.201 719.17 206.627C719.17 206.053 719.618 205.605 720.192 205.605C720.752 205.605 721.2 206.053 721.2 206.627C721.2 207.201 720.752 207.649 720.192 207.649ZM723.323 214.243V209.973H722.413V208.671H723.323V206.753H724.933V208.671H726.809V209.973H724.933V214.243C724.933 214.817 725.157 215.055 725.829 215.055H726.809V216.385H725.549C724.177 216.385 723.323 215.811 723.323 214.243ZM738.483 216.385L737.783 214.397H733.709L733.009 216.385H731.343L734.829 206.641H736.677L740.163 216.385H738.483ZM737.335 213.095L735.753 208.573L734.157 213.095H737.335ZM743.275 209.805C743.765 209.161 744.703 208.545 745.963 208.545C747.993 208.545 749.589 210.113 749.589 212.493C749.589 214.873 747.993 216.511 745.963 216.511C744.689 216.511 743.779 215.867 743.275 215.265V220.053H741.679V208.671H743.275V209.805ZM747.965 212.493C747.965 210.827 746.817 209.931 745.613 209.931C744.423 209.931 743.275 210.869 743.275 212.521C743.275 214.187 744.423 215.125 745.613 215.125C746.817 215.125 747.965 214.159 747.965 212.493ZM752.763 209.805C753.253 209.161 754.191 208.545 755.451 208.545C757.481 208.545 759.077 210.113 759.077 212.493C759.077 214.873 757.481 216.511 755.451 216.511C754.177 216.511 753.267 215.867 752.763 215.265V220.053H751.167V208.671H752.763V209.805ZM757.453 212.493C757.453 210.827 756.305 209.931 755.101 209.931C753.911 209.931 752.763 210.869 752.763 212.521C752.763 214.187 753.911 215.125 755.101 215.125C756.305 215.125 757.453 214.159 757.453 212.493ZM762.251 212.325V216.385H760.655V208.671H762.251V209.791C762.699 209.021 763.469 208.545 764.561 208.545V210.197H764.155C762.979 210.197 762.251 210.687 762.251 212.325ZM773.379 212.521C773.379 214.943 771.587 216.511 769.375 216.511C767.177 216.511 765.511 214.943 765.511 212.521C765.511 210.099 767.247 208.545 769.445 208.545C771.643 208.545 773.379 210.099 773.379 212.521ZM767.135 212.521C767.135 214.271 768.171 215.125 769.375 215.125C770.565 215.125 771.741 214.271 771.741 212.521C771.741 210.771 770.607 209.931 769.417 209.931C768.213 209.931 767.135 210.771 767.135 212.521ZM774.046 208.671H775.754L777.938 214.957L780.122 208.671H781.816L778.876 216.385H776.972L774.046 208.671ZM786.271 209.889C785.193 209.889 784.325 210.617 784.157 211.835H788.427C788.399 210.645 787.461 209.889 786.271 209.889ZM789.883 214.089C789.449 215.433 788.231 216.511 786.341 216.511C784.129 216.511 782.491 214.943 782.491 212.521C782.491 210.099 784.059 208.545 786.341 208.545C788.539 208.545 790.093 210.071 790.093 212.339C790.093 212.605 790.079 212.857 790.037 213.123H784.143C784.255 214.397 785.165 215.167 786.341 215.167C787.321 215.167 787.867 214.691 788.161 214.089H789.883ZM791.131 212.493C791.131 210.113 792.741 208.545 794.785 208.545C795.793 208.545 796.857 209.021 797.445 209.749V206.025H799.055V216.385H797.445V215.223C796.955 215.923 796.031 216.511 794.771 216.511C792.741 216.511 791.131 214.873 791.131 212.493ZM797.445 212.521C797.445 210.869 796.311 209.931 795.107 209.931C793.917 209.931 792.769 210.827 792.769 212.493C792.769 214.159 793.917 215.125 795.107 215.125C796.311 215.125 797.445 214.187 797.445 212.521ZM801.642 213.445L801.46 206.655H803.154L802.972 213.445H801.642ZM803.364 215.461C803.364 216.035 802.916 216.483 802.356 216.483C801.782 216.483 801.334 216.035 801.334 215.461C801.334 214.887 801.782 214.439 802.356 214.439C802.916 214.439 803.364 214.887 803.364 215.461Z" fill="#1AD598"/>
<path d="M664 222.385C670.627 222.385 676 217.012 676 210.385C676 203.758 670.627 198.385 664 198.385C657.373 198.385 652 203.758 652 210.385C652 217.012 657.373 222.385 664 222.385Z" fill="#1AD598" fill-opacity="0.2"/>
<path d="M668.751 212.568C668.751 212.798 668.66 213.019 668.497 213.182C668.334 213.345 668.113 213.436 667.883 213.436C667.653 213.436 667.432 213.345 667.269 213.182C667.106 213.019 667.015 212.798 667.015 212.568V209.485L661.558 214.896C661.395 215.058 661.175 215.148 660.945 215.148C660.715 215.148 660.495 215.058 660.332 214.896C660.252 214.817 660.188 214.722 660.144 214.618C660.101 214.513 660.078 214.401 660.078 214.288C660.078 214.175 660.101 214.063 660.144 213.959C660.188 213.854 660.252 213.76 660.332 213.68L665.79 208.268H662.678C662.45 208.268 662.231 208.178 662.07 208.016C661.909 207.855 661.818 207.636 661.818 207.408C661.818 207.18 661.909 206.961 662.07 206.8C662.231 206.639 662.45 206.548 662.678 206.548H667.878C667.885 206.548 667.893 206.548 667.9 206.548C667.907 206.548 667.914 206.548 667.921 206.548C667.928 206.548 667.934 206.548 667.941 206.548C667.947 206.548 667.954 206.548 667.96 206.548C667.966 206.548 667.973 206.548 667.979 206.548C668.168 206.573 668.344 206.659 668.479 206.793C668.573 206.886 668.644 206.999 668.687 207.124L668.711 207.148V207.163C668.735 207.243 668.747 207.325 668.747 207.408L668.751 212.568Z" fill="#1AD598"/>
<path d="M179 47.385H10C4.47715 47.385 0 51.8622 0 57.385V85.385C0 90.9079 4.47715 95.385 10 95.385H179C184.523 95.385 189 90.9079 189 85.385V57.385C189 51.8622 184.523 47.385 179 47.385Z" fill="white"/>
<path d="M50.518 72.499C50.518 69.587 52.744 67.529 55.488 67.529C57.518 67.529 59.268 68.551 60.01 70.455H58.092C57.574 69.419 56.65 68.929 55.488 68.929C53.556 68.929 52.156 70.301 52.156 72.499C52.156 74.697 53.556 76.083 55.488 76.083C56.65 76.083 57.574 75.593 58.092 74.557H60.01C59.268 76.461 57.518 77.469 55.488 77.469C52.744 77.469 50.518 75.425 50.518 72.499ZM63.4741 73.325V77.385H61.8781V69.671H63.4741V70.791C63.9221 70.021 64.6921 69.545 65.7841 69.545V71.197H65.3781C64.2021 71.197 63.4741 71.687 63.4741 73.325ZM70.4992 70.889C69.4212 70.889 68.5532 71.617 68.3852 72.835H72.6552C72.6272 71.645 71.6892 70.889 70.4992 70.889ZM74.1112 75.089C73.6772 76.433 72.4592 77.511 70.5692 77.511C68.3572 77.511 66.7192 75.943 66.7192 73.521C66.7192 71.099 68.2872 69.545 70.5692 69.545C72.7672 69.545 74.3212 71.071 74.3212 73.339C74.3212 73.605 74.3072 73.857 74.2652 74.123H68.3712C68.4832 75.397 69.3932 76.167 70.5692 76.167C71.5492 76.167 72.0952 75.691 72.3892 75.089H74.1112ZM75.3598 73.493C75.3598 71.113 76.9698 69.545 79.0138 69.545C80.0218 69.545 81.0858 70.021 81.6738 70.749V67.025H83.2838V77.385H81.6738V76.223C81.1838 76.923 80.2598 77.511 78.9998 77.511C76.9698 77.511 75.3598 75.873 75.3598 73.493ZM81.6738 73.521C81.6738 71.869 80.5398 70.931 79.3358 70.931C78.1458 70.931 76.9978 71.827 76.9978 73.493C76.9978 75.159 78.1458 76.125 79.3358 76.125C80.5398 76.125 81.6738 75.187 81.6738 73.521ZM85.3801 77.385V69.671H86.9761V77.385H85.3801ZM86.1921 68.649C85.6181 68.649 85.1701 68.201 85.1701 67.627C85.1701 67.053 85.6181 66.605 86.1921 66.605C86.7521 66.605 87.2001 67.053 87.2001 67.627C87.2001 68.201 86.7521 68.649 86.1921 68.649ZM89.3235 75.243V70.973H88.4135V69.671H89.3235V67.753H90.9335V69.671H92.8095V70.973H90.9335V75.243C90.9335 75.817 91.1575 76.055 91.8295 76.055H92.8095V77.385H91.5495C90.1775 77.385 89.3235 76.811 89.3235 75.243ZM104.483 77.385L103.783 75.397H99.7092L99.0092 77.385H97.3432L100.829 67.641H102.677L106.163 77.385H104.483ZM103.335 74.095L101.753 69.573L100.157 74.095H103.335ZM109.275 70.805C109.765 70.161 110.703 69.545 111.963 69.545C113.993 69.545 115.589 71.113 115.589 73.493C115.589 75.873 113.993 77.511 111.963 77.511C110.689 77.511 109.779 76.867 109.275 76.265V81.053H107.679V69.671H109.275V70.805ZM113.965 73.493C113.965 71.827 112.817 70.931 111.613 70.931C110.423 70.931 109.275 71.869 109.275 73.521C109.275 75.187 110.423 76.125 111.613 76.125C112.817 76.125 113.965 75.159 113.965 73.493ZM118.763 70.805C119.253 70.161 120.191 69.545 121.451 69.545C123.481 69.545 125.077 71.113 125.077 73.493C125.077 75.873 123.481 77.511 121.451 77.511C120.177 77.511 119.267 76.867 118.763 76.265V81.053H117.167V69.671H118.763V70.805ZM123.453 73.493C123.453 71.827 122.305 70.931 121.101 70.931C119.911 70.931 118.763 71.869 118.763 73.521C118.763 75.187 119.911 76.125 121.101 76.125C122.305 76.125 123.453 75.159 123.453 73.493ZM128.251 73.325V77.385H126.655V69.671H128.251V70.791C128.699 70.021 129.469 69.545 130.561 69.545V71.197H130.155C128.979 71.197 128.251 71.687 128.251 73.325ZM139.379 73.521C139.379 75.943 137.587 77.511 135.375 77.511C133.177 77.511 131.511 75.943 131.511 73.521C131.511 71.099 133.247 69.545 135.445 69.545C137.643 69.545 139.379 71.099 139.379 73.521ZM133.135 73.521C133.135 75.271 134.171 76.125 135.375 76.125C136.565 76.125 137.741 75.271 137.741 73.521C137.741 71.771 136.607 70.931 135.417 70.931C134.213 70.931 133.135 71.771 133.135 73.521ZM140.046 69.671H141.754L143.938 75.957L146.122 69.671H147.816L144.876 77.385H142.972L140.046 69.671ZM152.271 70.889C151.193 70.889 150.325 71.617 150.157 72.835H154.427C154.399 71.645 153.461 70.889 152.271 70.889ZM155.883 75.089C155.449 76.433 154.231 77.511 152.341 77.511C150.129 77.511 148.491 75.943 148.491 73.521C148.491 71.099 150.059 69.545 152.341 69.545C154.539 69.545 156.093 71.071 156.093 73.339C156.093 73.605 156.079 73.857 156.037 74.123H150.143C150.255 75.397 151.165 76.167 152.341 76.167C153.321 76.167 153.867 75.691 154.161 75.089H155.883ZM157.131 73.493C157.131 71.113 158.741 69.545 160.785 69.545C161.793 69.545 162.857 70.021 163.445 70.749V67.025H165.055V77.385H163.445V76.223C162.955 76.923 162.031 77.511 160.771 77.511C158.741 77.511 157.131 75.873 157.131 73.493ZM163.445 73.521C163.445 71.869 162.311 70.931 161.107 70.931C159.917 70.931 158.769 71.827 158.769 73.493C158.769 75.159 159.917 76.125 161.107 76.125C162.311 76.125 163.445 75.187 163.445 73.521ZM167.642 74.445L167.46 67.655H169.154L168.972 74.445H167.642ZM169.364 76.461C169.364 77.035 168.916 77.483 168.356 77.483C167.782 77.483 167.334 77.035 167.334 76.461C167.334 75.887 167.782 75.439 168.356 75.439C168.916 75.439 169.364 75.887 169.364 76.461Z" fill="#1AD598"/>
<path d="M30 83.385C36.6274 83.385 42 78.0124 42 71.385C42 64.7576 36.6274 59.385 30 59.385C23.3726 59.385 18 64.7576 18 71.385C18 78.0124 23.3726 83.385 30 83.385Z" fill="#1AD598" fill-opacity="0.2"/>
<path d="M34.751 73.5682C34.751 73.7984 34.6595 74.0192 34.4968 74.182C34.334 74.3447 34.1132 74.4362 33.883 74.4362C33.6528 74.4362 33.432 74.3447 33.2692 74.182C33.1064 74.0192 33.015 73.7984 33.015 73.5682V70.4852L27.558 75.8962C27.3948 76.0575 27.1745 76.148 26.945 76.148C26.7155 76.148 26.4952 76.0575 26.332 75.8962C26.2516 75.8167 26.1877 75.722 26.1441 75.6176C26.1006 75.5133 26.0781 75.4013 26.0781 75.2882C26.0781 75.1751 26.1006 75.0631 26.1441 74.9587C26.1877 74.8544 26.2516 74.7597 26.332 74.6802L31.79 69.2682H28.678C28.4499 69.2682 28.2312 69.1776 28.0699 69.0163C27.9086 68.855 27.818 68.6363 27.818 68.4082C27.818 68.1801 27.9086 67.9614 28.0699 67.8001C28.2312 67.6388 28.4499 67.5482 28.678 67.5482H33.878C33.885 67.5482 33.893 67.5482 33.9 67.5482C33.907 67.5482 33.914 67.5482 33.921 67.5482C33.928 67.5482 33.934 67.5482 33.941 67.5482C33.947 67.5482 33.954 67.5482 33.96 67.5482C33.966 67.5482 33.973 67.5482 33.979 67.5482C34.1681 67.5727 34.3438 67.6588 34.479 67.7932C34.5731 67.8859 34.6443 67.9992 34.687 68.1242L34.711 68.1482V68.1632C34.7349 68.2426 34.7471 68.3252 34.747 68.4082L34.751 73.5682Z" fill="#1AD598"/>
<g opacity="0.9">
<mask id="mask0_493_999" style="mask-type:luminance" maskUnits="userSpaceOnUse" x="563" y="0" width="107" height="46">
<path d="M669.836 0H563V45.552H669.836V0Z" fill="white"/>
</mask>
<g mask="url(#mask0_493_999)">
<path d="M563.629 42.156H633.61" stroke="#6C4FFE" stroke-width="0.75" stroke-miterlimit="10" stroke-linecap="round"/>
<path d="M633.308 45.553C632.636 45.553 631.978 45.3536 631.419 44.98C630.86 44.6064 630.424 44.0754 630.167 43.4541C629.91 42.8328 629.842 42.1492 629.974 41.4897C630.105 40.8302 630.429 40.2243 630.904 39.7488C631.38 39.2733 631.985 38.9495 632.645 38.8183C633.304 38.6871 633.988 38.7545 634.609 39.0118C635.231 39.2691 635.762 39.7049 636.135 40.2641C636.509 40.8232 636.708 41.4805 636.708 42.153C636.708 43.0547 636.35 43.9195 635.712 44.5572C635.075 45.1948 634.21 45.553 633.308 45.553Z" fill="#6C4FFE"/>
<path d="M633.313 43.386C633.07 43.386 632.832 43.3138 632.629 43.1786C632.427 43.0433 632.269 42.851 632.176 42.6261C632.083 42.4012 632.058 42.1536 632.106 41.9149C632.153 41.6761 632.27 41.4567 632.443 41.2846C632.615 41.1124 632.834 40.9952 633.073 40.9477C633.312 40.9002 633.559 40.9245 633.784 41.0177C634.009 41.1109 634.201 41.2687 634.337 41.4711C634.472 41.6735 634.544 41.9115 634.544 42.155C634.544 42.3167 634.512 42.4768 634.451 42.6263C634.389 42.7757 634.298 42.9114 634.184 43.0258C634.069 43.1401 633.934 43.2308 633.784 43.2926C633.635 43.3544 633.475 43.3861 633.313 43.386Z" fill="white"/>
<path d="M650.381 0H603.174C601.966 0 600.808 0.479795 599.954 1.33384C599.1 2.18788 598.62 3.3462 598.62 4.554V24.947C598.62 25.545 598.738 26.1371 598.967 26.6896C599.196 27.242 599.531 27.744 599.954 28.1668C600.377 28.5896 600.879 28.925 601.431 29.1537C601.984 29.3825 602.576 29.5001 603.174 29.5H627.16L632.371 35.972C632.468 36.0926 632.591 36.1899 632.731 36.2568C632.871 36.3237 633.024 36.3584 633.179 36.3584C633.334 36.3584 633.486 36.3237 633.626 36.2568C633.766 36.1899 633.889 36.0926 633.986 35.972L639.196 29.5H650.381C650.979 29.5001 651.571 29.3825 652.124 29.1538C652.676 28.9251 653.178 28.5899 653.601 28.1672C654.024 27.7445 654.359 27.2426 654.588 26.6903C654.817 26.1379 654.935 25.5459 654.935 24.948V4.554C654.935 3.3462 654.455 2.18788 653.601 1.33384C652.747 0.479795 651.589 0 650.381 0Z" fill="white"/>
</g>
<path d="M607.198 21.77V20.636C605.49 20.482 604.258 19.544 604.258 17.962H605.966C606.022 18.662 606.414 19.18 607.198 19.32V16.24C605.798 15.89 604.258 15.498 604.258 13.524C604.258 11.956 605.462 10.878 607.198 10.724V9.576H608.108V10.71C609.718 10.85 610.81 11.732 610.936 13.314H609.228C609.172 12.754 608.78 12.236 608.108 12.068V15.092C609.508 15.428 611.034 15.806 611.034 17.78C611.034 19.138 609.998 20.454 608.108 20.622V21.77H607.198ZM609.424 17.864C609.424 17.066 608.864 16.716 608.108 16.478V19.32C608.948 19.18 609.424 18.592 609.424 17.864ZM605.882 13.44C605.882 14.252 606.442 14.616 607.198 14.854V12.026C606.428 12.124 605.882 12.586 605.882 13.44ZM613.083 10.388H619.831V11.578L615.939 20.552H614.329L618.263 11.746H613.083V10.388ZM620.427 22.498L621.421 18.634H623.157L621.463 22.498H620.427ZM624.314 12.866C624.426 11.102 625.798 10.108 627.66 10.108C629.69 10.108 630.796 11.284 630.796 12.768C630.796 13.986 630.026 14.812 629.228 15.078V15.134C630.292 15.456 630.978 16.338 630.978 17.752C630.978 19.376 629.83 20.608 627.702 20.608C625.77 20.608 624.272 19.6 624.174 17.598H625.714C625.784 18.55 626.484 19.278 627.688 19.278C628.878 19.278 629.466 18.55 629.466 17.598C629.466 16.254 628.598 15.792 626.932 15.792H626.568V14.476H626.946C628.388 14.462 629.27 14.042 629.27 12.95C629.27 12.068 628.696 11.48 627.604 11.48C626.484 11.48 625.966 12.152 625.868 12.866H624.314ZM632.654 15.316C632.654 12.404 633.438 10.164 636.294 10.164C639.15 10.164 639.934 12.404 639.934 15.316C639.934 18.284 639.15 20.524 636.294 20.524C633.438 20.524 632.654 18.284 632.654 15.316ZM638.366 15.316C638.366 13.412 638.156 11.62 636.294 11.62C634.432 11.62 634.222 13.412 634.222 15.316C634.222 17.318 634.432 19.068 636.294 19.068C638.156 19.068 638.366 17.318 638.366 15.316ZM641.623 15.316C641.623 12.404 642.407 10.164 645.263 10.164C648.119 10.164 648.903 12.404 648.903 15.316C648.903 18.284 648.119 20.524 645.263 20.524C642.407 20.524 641.623 18.284 641.623 15.316ZM647.335 15.316C647.335 13.412 647.125 11.62 645.263 11.62C643.401 11.62 643.191 13.412 643.191 15.316C643.191 17.318 643.401 19.068 645.263 19.068C647.125 19.068 647.335 17.318 647.335 15.316Z" fill="#6C4FFE"/>
</g>
<g opacity="0.9">
<mask id="mask1_493_999" style="mask-type:luminance" maskUnits="userSpaceOnUse" x="305" y="127" width="196" height="50">
<path d="M500.553 127.425H305.447V176.827H500.553V127.425Z" fill="white"/>
</mask>
<g mask="url(#mask1_493_999)">
<path d="M306.076 173.431H478.134" stroke="#6C4FFE" stroke-width="0.75" stroke-miterlimit="10" stroke-linecap="round"/>
<path d="M478.133 176.829C477.461 176.829 476.804 176.63 476.244 176.256C475.685 175.882 475.25 175.351 474.992 174.73C474.735 174.109 474.668 173.425 474.799 172.766C474.93 172.106 475.254 171.5 475.729 171.025C476.205 170.549 476.811 170.226 477.47 170.094C478.13 169.963 478.813 170.03 479.435 170.288C480.056 170.545 480.587 170.981 480.96 171.54C481.334 172.099 481.533 172.757 481.533 173.429C481.533 173.875 481.445 174.318 481.275 174.73C481.104 175.143 480.853 175.517 480.538 175.833C480.222 176.149 479.847 176.399 479.435 176.57C479.022 176.741 478.58 176.829 478.133 176.829Z" fill="#6C4FFE"/>
<path d="M478.134 174.661C477.891 174.661 477.653 174.589 477.45 174.454C477.248 174.318 477.09 174.126 476.997 173.901C476.904 173.676 476.879 173.429 476.927 173.19C476.974 172.951 477.092 172.732 477.264 172.56C477.436 172.387 477.655 172.27 477.894 172.223C478.133 172.175 478.38 172.2 478.605 172.293C478.83 172.386 479.023 172.544 479.158 172.746C479.293 172.949 479.365 173.187 479.365 173.43C479.365 173.756 479.235 174.069 479.004 174.3C478.774 174.531 478.461 174.661 478.134 174.661Z" fill="white"/>
<path d="M495.999 127.424H445.331C444.124 127.424 442.965 127.904 442.111 128.758C441.257 129.612 440.777 130.77 440.777 131.978V152.371C440.778 153.579 441.258 154.737 442.112 155.591C442.966 156.444 444.124 156.924 445.331 156.924H472.778L477.988 163.395C478.086 163.515 478.209 163.613 478.349 163.679C478.488 163.746 478.641 163.781 478.796 163.781C478.951 163.781 479.104 163.746 479.244 163.679C479.384 163.613 479.507 163.515 479.604 163.395L484.814 156.924H496C497.208 156.924 498.366 156.444 499.221 155.59C500.075 154.736 500.554 153.578 500.554 152.37V131.978C500.554 131.38 500.437 130.788 500.208 130.235C499.979 129.682 499.643 129.18 499.22 128.757C498.797 128.335 498.295 127.999 497.742 127.77C497.19 127.542 496.597 127.424 495.999 127.424Z" fill="white"/>
</g>
<path d="M450.743 149.344V148.21C449.035 148.056 447.803 147.118 447.803 145.536H449.511C449.567 146.236 449.959 146.754 450.743 146.894V143.814C449.343 143.464 447.803 143.072 447.803 141.098C447.803 139.53 449.007 138.452 450.743 138.298V137.15H451.653V138.284C453.263 138.424 454.355 139.306 454.481 140.888H452.773C452.717 140.328 452.325 139.81 451.653 139.642V142.666C453.053 143.002 454.579 143.38 454.579 145.354C454.579 146.712 453.543 148.028 451.653 148.196V149.344H450.743ZM452.969 145.438C452.969 144.64 452.409 144.29 451.653 144.052V146.894C452.493 146.754 452.969 146.166 452.969 145.438ZM449.427 141.014C449.427 141.826 449.987 142.19 450.743 142.428V139.6C449.973 139.698 449.427 140.16 449.427 141.014ZM457.426 145.354H458.896C459.078 146.264 459.68 146.782 460.744 146.782C462.018 146.782 462.662 145.928 462.662 143.324C462.2 143.968 461.318 144.318 460.394 144.318C458.602 144.318 457.146 143.212 457.146 141.056C457.146 139.026 458.392 137.682 460.534 137.682C463.166 137.682 464.048 139.488 464.048 142.834C464.048 146.278 463.32 148.112 460.646 148.112C458.532 148.112 457.552 146.81 457.426 145.354ZM460.674 142.974C461.808 142.974 462.48 142.204 462.48 141.056C462.48 139.754 461.738 139.012 460.576 139.012C459.386 139.012 458.672 139.838 458.672 141.014C458.672 142.064 459.26 142.974 460.674 142.974ZM465.025 150.072L466.019 146.208H467.755L466.061 150.072H465.025ZM469.36 137.892H475.52V139.292H470.83V142.078C471.208 141.574 472.034 141.154 472.944 141.154C475.45 141.154 476.22 143.016 476.22 144.556C476.22 146.586 475.058 148.126 472.692 148.126C470.592 148.126 469.374 146.964 469.136 145.368H470.69C470.9 146.236 471.628 146.796 472.706 146.796C474.078 146.796 474.694 145.858 474.694 144.598C474.694 143.268 474.036 142.512 472.706 142.512C471.768 142.512 471.138 143.03 470.872 143.786H469.36V137.892ZM477.881 142.89C477.881 139.978 478.665 137.738 481.521 137.738C484.377 137.738 485.161 139.978 485.161 142.89C485.161 145.858 484.377 148.098 481.521 148.098C478.665 148.098 477.881 145.858 477.881 142.89ZM483.593 142.89C483.593 140.986 483.383 139.194 481.521 139.194C479.659 139.194 479.449 140.986 479.449 142.89C479.449 144.892 479.659 146.642 481.521 146.642C483.383 146.642 483.593 144.892 483.593 142.89ZM486.85 142.89C486.85 139.978 487.634 137.738 490.49 137.738C493.346 137.738 494.13 139.978 494.13 142.89C494.13 145.858 493.346 148.098 490.49 148.098C487.634 148.098 486.85 145.858 486.85 142.89ZM492.562 142.89C492.562 140.986 492.352 139.194 490.49 139.194C488.628 139.194 488.418 140.986 488.418 142.89C488.418 144.892 488.628 146.642 490.49 146.642C492.352 146.642 492.562 144.892 492.562 142.89Z" fill="#6C4FFE"/>
</g>
<g opacity="0.9">
<mask id="mask2_493_999" style="mask-type:luminance" maskUnits="userSpaceOnUse" x="634" y="70" width="249" height="51">
<path d="M882.883 70.684H634V120.086H882.883V70.684Z" fill="white"/>
</mask>
<g mask="url(#mask2_493_999)">
<path d="M634.629 116.69H862.164" stroke="#6C4FFE" stroke-width="0.75" stroke-miterlimit="10" stroke-linecap="round"/>
<path d="M862.163 120.088C861.49 120.088 860.833 119.889 860.274 119.515C859.715 119.141 859.279 118.61 859.021 117.989C858.764 117.368 858.697 116.684 858.828 116.025C858.959 115.365 859.283 114.759 859.759 114.284C860.234 113.808 860.84 113.485 861.499 113.353C862.159 113.222 862.843 113.289 863.464 113.547C864.085 113.804 864.616 114.24 864.99 114.799C865.363 115.358 865.563 116.016 865.563 116.688C865.563 117.59 865.204 118.455 864.567 119.092C863.929 119.73 863.064 120.088 862.163 120.088Z" fill="#6C4FFE"/>
<path d="M862.164 117.92C861.92 117.92 861.682 117.848 861.48 117.713C861.277 117.577 861.119 117.385 861.026 117.16C860.933 116.935 860.909 116.688 860.956 116.449C861.004 116.21 861.121 115.991 861.293 115.819C861.465 115.646 861.685 115.529 861.923 115.482C862.162 115.434 862.41 115.459 862.635 115.552C862.86 115.645 863.052 115.803 863.187 116.005C863.322 116.208 863.395 116.446 863.395 116.689C863.394 117.015 863.265 117.328 863.034 117.559C862.803 117.79 862.49 117.92 862.164 117.92Z" fill="white"/>
<path d="M878.324 70.683H827.66C826.453 70.683 825.294 71.1628 824.44 72.0169C823.586 72.8709 823.106 74.0292 823.106 75.237V95.63C823.106 96.8378 823.586 97.9962 824.44 98.8502C825.294 99.7042 826.453 100.184 827.66 100.184H855.107L860.317 106.655C860.415 106.776 860.538 106.873 860.678 106.939C860.818 107.006 860.971 107.041 861.125 107.041C861.28 107.041 861.433 107.006 861.573 106.939C861.713 106.873 861.836 106.776 861.933 106.655L867.143 100.184H878.324C879.532 100.184 880.691 99.7042 881.545 98.8502C882.399 97.9962 882.878 96.8378 882.878 95.63V75.237C882.878 74.0292 882.399 72.8709 881.545 72.0169C880.691 71.1628 879.532 70.683 878.324 70.683Z" fill="white"/>
</g>
<path d="M833.295 92.603V91.469C831.587 91.315 830.355 90.377 830.355 88.795H832.063C832.119 89.495 832.511 90.013 833.295 90.153V87.073C831.895 86.723 830.355 86.331 830.355 84.357C830.355 82.789 831.559 81.711 833.295 81.557V80.409H834.205V81.543C835.815 81.683 836.907 82.565 837.033 84.147H835.325C835.269 83.587 834.877 83.069 834.205 82.901V85.925C835.605 86.261 837.131 86.639 837.131 88.613C837.131 89.971 836.095 91.287 834.205 91.455V92.603H833.295ZM835.521 88.697C835.521 87.899 834.961 87.549 834.205 87.311V90.153C835.045 90.013 835.521 89.425 835.521 88.697ZM831.979 84.273C831.979 85.085 832.539 85.449 833.295 85.687V82.859C832.525 82.957 831.979 83.419 831.979 84.273ZM841.182 86.051C840.314 85.617 839.726 84.889 839.726 83.755C839.726 82.271 840.832 80.997 843.086 80.997C845.34 80.997 846.446 82.285 846.446 83.755C846.446 84.847 845.816 85.645 844.99 86.051C846.026 86.443 846.712 87.353 846.712 88.571C846.712 90.433 845.2 91.637 843.086 91.637C840.986 91.637 839.474 90.433 839.474 88.571C839.474 87.339 840.16 86.429 841.182 86.051ZM843.086 85.547C844.15 85.547 844.92 84.875 844.92 83.951C844.92 82.901 844.206 82.327 843.086 82.327C841.994 82.327 841.266 82.887 841.266 83.965C841.266 84.889 842.022 85.547 843.086 85.547ZM843.086 86.751C841.91 86.751 841 87.325 841 88.515C841 89.551 841.784 90.307 843.086 90.307C844.374 90.307 845.144 89.537 845.144 88.515C845.144 87.367 844.29 86.751 843.086 86.751ZM847.618 93.331L848.612 89.467H850.348L848.654 93.331H847.618ZM851.504 83.699C851.616 81.935 852.988 80.941 854.85 80.941C856.88 80.941 857.986 82.117 857.986 83.601C857.986 84.819 857.216 85.645 856.418 85.911V85.967C857.482 86.289 858.168 87.171 858.168 88.585C858.168 90.209 857.02 91.441 854.892 91.441C852.96 91.441 851.462 90.433 851.364 88.431H852.904C852.974 89.383 853.674 90.111 854.878 90.111C856.068 90.111 856.656 89.383 856.656 88.431C856.656 87.087 855.788 86.625 854.122 86.625H853.758V85.309H854.136C855.578 85.295 856.46 84.875 856.46 83.783C856.46 82.901 855.886 82.313 854.794 82.313C853.674 82.313 853.156 82.985 853.058 83.699H851.504ZM859.845 86.149C859.845 83.237 860.629 80.997 863.485 80.997C866.341 80.997 867.125 83.237 867.125 86.149C867.125 89.117 866.341 91.357 863.485 91.357C860.629 91.357 859.845 89.117 859.845 86.149ZM865.557 86.149C865.557 84.245 865.347 82.453 863.485 82.453C861.623 82.453 861.413 84.245 861.413 86.149C861.413 88.151 861.623 89.901 863.485 89.901C865.347 89.901 865.557 88.151 865.557 86.149ZM868.814 86.149C868.814 83.237 869.598 80.997 872.454 80.997C875.31 80.997 876.094 83.237 876.094 86.149C876.094 89.117 875.31 91.357 872.454 91.357C869.598 91.357 868.814 89.117 868.814 86.149ZM874.526 86.149C874.526 84.245 874.316 82.453 872.454 82.453C870.592 82.453 870.382 84.245 870.382 86.149C870.382 88.151 870.592 89.901 872.454 89.901C874.316 89.901 874.526 88.151 874.526 86.149Z" fill="#6C4FFE"/>
</g>
<g opacity="0.9">
<mask id="mask3_493_999" style="mask-type:luminance" maskUnits="userSpaceOnUse" x="28" y="171" width="133" height="47">
<path d="M160.927 171.577H28.0703V217.129H160.927V171.577Z" fill="white"/>
</mask>
<g mask="url(#mask3_493_999)">
<path d="M28.6992 213.733H139.163" stroke="#6C4FFE" stroke-width="0.75" stroke-miterlimit="10" stroke-linecap="round"/>
<path d="M138.866 217.13C138.193 217.13 137.536 216.931 136.977 216.557C136.418 216.183 135.982 215.652 135.725 215.031C135.467 214.41 135.4 213.726 135.531 213.067C135.662 212.407 135.986 211.801 136.462 211.326C136.937 210.85 137.543 210.527 138.203 210.395C138.862 210.264 139.546 210.331 140.167 210.589C140.788 210.846 141.319 211.282 141.693 211.841C142.066 212.4 142.266 213.058 142.266 213.73C142.266 214.632 141.908 215.497 141.27 216.134C140.632 216.772 139.768 217.13 138.866 217.13Z" fill="#6C4FFE"/>
<path d="M138.866 214.963C138.622 214.963 138.384 214.891 138.182 214.756C137.979 214.62 137.822 214.428 137.728 214.203C137.635 213.978 137.611 213.731 137.658 213.492C137.706 213.253 137.823 213.034 137.995 212.862C138.167 212.689 138.387 212.572 138.626 212.525C138.864 212.477 139.112 212.502 139.337 212.595C139.562 212.688 139.754 212.846 139.889 213.048C140.025 213.251 140.097 213.489 140.097 213.732C140.097 213.894 140.065 214.054 140.003 214.203C139.942 214.353 139.851 214.488 139.737 214.603C139.622 214.717 139.486 214.808 139.337 214.87C139.188 214.931 139.027 214.963 138.866 214.963Z" fill="white"/>
<path d="M156.373 171.577H109.163C107.956 171.577 106.797 172.057 105.943 172.911C105.089 173.765 104.609 174.923 104.609 176.131V196.524C104.61 197.732 105.09 198.89 105.944 199.744C106.798 200.597 107.956 201.077 109.163 201.077H133.152L138.363 207.548C138.461 207.669 138.584 207.766 138.723 207.833C138.863 207.9 139.016 207.934 139.171 207.934C139.326 207.934 139.479 207.9 139.618 207.833C139.758 207.766 139.881 207.669 139.978 207.548L145.188 201.077H156.373C157.581 201.077 158.739 200.597 159.594 199.743C160.448 198.889 160.927 197.731 160.927 196.523V176.131C160.927 174.923 160.448 173.765 159.594 172.911C158.739 172.057 157.581 171.577 156.373 171.577Z" fill="white"/>
</g>
<path d="M112.366 194.344V193.21C110.658 193.056 109.426 192.118 109.426 190.536H111.134C111.19 191.236 111.582 191.754 112.366 191.894V188.814C110.966 188.464 109.426 188.072 109.426 186.098C109.426 184.53 110.63 183.452 112.366 183.298V182.15H113.276V183.284C114.886 183.424 115.978 184.306 116.104 185.888H114.396C114.34 185.328 113.948 184.81 113.276 184.642V187.666C114.676 188.002 116.202 188.38 116.202 190.354C116.202 191.712 115.166 193.028 113.276 193.196V194.344H112.366ZM114.592 190.438C114.592 189.64 114.032 189.29 113.276 189.052V191.894C114.116 191.754 114.592 191.166 114.592 190.438ZM111.05 186.014C111.05 186.826 111.61 187.19 112.366 187.428V184.6C111.596 184.698 111.05 185.16 111.05 186.014ZM123.403 193.126V190.998H118.335V189.794L123.039 183.046H124.971V189.612H126.273V190.998H124.971V193.126H123.403ZM120.169 189.612H123.473V184.67L120.169 189.612ZM126.826 195.072L127.82 191.208H129.556L127.862 195.072H126.826ZM131.16 182.892H137.32V184.292H132.63V187.078C133.008 186.574 133.834 186.154 134.744 186.154C137.25 186.154 138.02 188.016 138.02 189.556C138.02 191.586 136.858 193.126 134.492 193.126C132.392 193.126 131.174 191.964 130.936 190.368H132.49C132.7 191.236 133.428 191.796 134.506 191.796C135.878 191.796 136.494 190.858 136.494 189.598C136.494 188.268 135.836 187.512 134.506 187.512C133.568 187.512 132.938 188.03 132.672 188.786H131.16V182.892ZM139.682 187.89C139.682 184.978 140.466 182.738 143.322 182.738C146.178 182.738 146.962 184.978 146.962 187.89C146.962 190.858 146.178 193.098 143.322 193.098C140.466 193.098 139.682 190.858 139.682 187.89ZM145.394 187.89C145.394 185.986 145.184 184.194 143.322 184.194C141.46 184.194 141.25 185.986 141.25 187.89C141.25 189.892 141.46 191.642 143.322 191.642C145.184 191.642 145.394 189.892 145.394 187.89ZM148.651 187.89C148.651 184.978 149.435 182.738 152.291 182.738C155.147 182.738 155.931 184.978 155.931 187.89C155.931 190.858 155.147 193.098 152.291 193.098C149.435 193.098 148.651 190.858 148.651 187.89ZM154.363 187.89C154.363 185.986 154.153 184.194 152.291 184.194C150.429 184.194 150.219 185.986 150.219 187.89C150.219 189.892 150.429 191.642 152.291 191.642C154.153 191.642 154.363 189.892 154.363 187.89Z" fill="#6C4FFE"/>
</g>
<path d="M395 34.385H318C312.477 34.385 308 38.8622 308 44.385V70.385C308 75.9079 312.477 80.385 318 80.385H395C400.523 80.385 405 75.9079 405 70.385V44.385C405 38.8622 400.523 34.385 395 34.385Z" fill="white"/>
<mask id="mask4_493_999" style="mask-type:luminance" maskUnits="userSpaceOnUse" x="320" y="46" width="73" height="24">
<path d="M392.943 46.385H320V69.39H392.943V46.385Z" fill="white"/>
</mask>
<g mask="url(#mask4_493_999)">
<mask id="mask5_493_999" style="mask-type:luminance" maskUnits="userSpaceOnUse" x="320" y="46" width="73" height="24">
<path d="M392.943 46.385H320V69.39H392.943V46.385Z" fill="white"/>
</mask>
<g mask="url(#mask5_493_999)">
<g opacity="0.25">
<mask id="mask6_493_999" style="mask-type:luminance" maskUnits="userSpaceOnUse" x="320" y="46" width="73" height="23">
<path d="M392.537 46.792H320.406V68.984H392.537V46.792Z" fill="white"/>
</mask>
<g mask="url(#mask6_493_999)">
<path d="M392.536 46.792C375.856 53.962 370.084 58.526 359.474 59.989C352.674 60.927 345.033 63.261 338.037 64.004C331.934 64.7213 325.983 66.4025 320.406 68.985H392.536V46.792Z" fill="#6C4FFE"/>
</g>
</g>
<path d="M392.536 46.792C375.856 53.962 370.084 58.526 359.474 59.989C352.674 60.927 345.033 63.261 338.037 64.004C331.934 64.7213 325.983 66.4025 320.406 68.985" stroke="#6C4FFE" stroke-miterlimit="10" stroke-linecap="round"/>
</g>
</g>
</svg>
