<svg width="574" height="542" viewBox="0 0 574 542" fill="none" xmlns="http://www.w3.org/2000/svg">
<path opacity="0.08" d="M0 20C0 8.95429 8.95431 0 20 0H554C565.046 0 574 8.9543 574 20V522C574 533.046 565.046 542 554 542H20C8.95431 542 0 533.046 0 522V20Z" fill="url(#paint0_linear_263_402)"/>
<path d="M26 44C26 32.9543 34.9543 24 46 24H528C539.046 24 548 32.9543 548 44V498C548 509.046 539.046 518 528 518H46C34.9543 518 26 509.046 26 498V44Z" fill="url(#paint1_linear_263_402)"/>
<g clip-path="url(#clip0_263_402)">
<g opacity="0.9">
<mask id="mask0_263_402" style="mask-type:luminance" maskUnits="userSpaceOnUse" x="162" y="73" width="250" height="396">
<path d="M383.975 451.182C383.975 449.156 384.575 447.175 385.701 445.49C386.826 443.806 388.426 442.492 390.298 441.717C392.17 440.942 394.23 440.739 396.217 441.134C398.204 441.529 400.03 442.505 401.462 443.937C402.895 445.37 403.871 447.196 404.266 449.183C404.661 451.17 404.458 453.23 403.683 455.102C402.907 456.974 401.594 458.573 399.909 459.699C398.225 460.825 396.244 461.425 394.218 461.425C391.502 461.422 388.899 460.342 386.978 458.421C385.058 456.501 383.978 453.898 383.975 451.182ZM276.769 442.394C276.769 440.368 277.369 438.387 278.495 436.702C279.62 435.018 281.22 433.705 283.092 432.929C284.964 432.154 287.023 431.951 289.011 432.346C290.998 432.741 292.823 433.716 294.256 435.149C295.689 436.582 296.665 438.407 297.06 440.394C297.455 442.381 297.252 444.441 296.477 446.313C295.702 448.185 294.389 449.785 292.704 450.911C291.019 452.036 289.039 452.637 287.013 452.637C284.297 452.634 281.693 451.554 279.773 449.633C277.853 447.713 276.772 445.11 276.769 442.394ZM182.469 440.768C182.469 438.742 183.07 436.762 184.195 435.078C185.321 433.393 186.921 432.081 188.792 431.306C190.664 430.53 192.723 430.328 194.71 430.723C196.697 431.118 198.522 432.094 199.955 433.526C201.387 434.959 202.363 436.784 202.758 438.77C203.153 440.757 202.95 442.817 202.175 444.688C201.4 446.56 200.087 448.16 198.403 449.285C196.719 450.411 194.739 451.012 192.713 451.012C189.997 451.009 187.393 449.929 185.472 448.008C183.552 446.088 182.472 443.484 182.469 440.768ZM243.591 417.34C243.591 415.314 244.192 413.333 245.317 411.649C246.443 409.964 248.043 408.651 249.915 407.876C251.786 407.1 253.846 406.898 255.833 407.293C257.82 407.688 259.646 408.664 261.078 410.096C262.511 411.529 263.487 413.354 263.882 415.342C264.277 417.329 264.074 419.388 263.299 421.26C262.524 423.132 261.211 424.732 259.526 425.858C257.841 426.983 255.861 427.584 253.835 427.584C251.119 427.581 248.515 426.501 246.594 424.58C244.674 422.66 243.594 420.056 243.591 417.34ZM309.945 406.24C309.945 404.214 310.545 402.233 311.671 400.548C312.796 398.864 314.396 397.55 316.268 396.775C318.14 396 320.2 395.797 322.187 396.192C324.174 396.587 326 397.563 327.432 398.995C328.865 400.428 329.841 402.254 330.236 404.241C330.631 406.228 330.428 408.288 329.653 410.16C328.877 412.032 327.564 413.631 325.879 414.757C324.195 415.883 322.214 416.483 320.188 416.483C317.472 416.48 314.869 415.4 312.948 413.479C311.028 411.559 309.948 408.956 309.945 406.24ZM208.974 330.69V210.916C208.979 206.104 210.892 201.49 214.294 198.086C217.696 194.683 222.309 192.768 227.122 192.761H346.903C351.715 192.768 356.328 194.683 359.731 198.086C363.133 201.49 365.046 206.104 365.051 210.916V330.69C365.046 335.502 363.133 340.116 359.731 343.52C356.328 346.923 351.715 348.838 346.903 348.845H227.122C222.309 348.838 217.696 346.923 214.294 343.52C210.892 340.116 208.979 335.502 208.974 330.69ZM243.591 135.367C243.591 133.341 244.191 131.36 245.317 129.675C246.442 127.991 248.042 126.678 249.914 125.902C251.786 125.127 253.845 124.924 255.833 125.319C257.82 125.714 259.645 126.689 261.078 128.122C262.511 129.555 263.487 131.38 263.882 133.367C264.277 135.354 264.074 137.414 263.299 139.286C262.524 141.158 261.211 142.758 259.526 143.884C257.842 145.009 255.861 145.61 253.835 145.61C251.119 145.607 248.515 144.527 246.595 142.607C244.674 140.687 243.594 138.083 243.591 135.367ZM309.945 124.267C309.945 122.241 310.545 120.26 311.671 118.575C312.796 116.891 314.396 115.577 316.268 114.802C318.14 114.027 320.2 113.824 322.187 114.219C324.174 114.614 326 115.59 327.432 117.022C328.865 118.455 329.841 120.281 330.236 122.268C330.631 124.255 330.428 126.315 329.653 128.187C328.877 130.059 327.564 131.658 325.879 132.784C324.195 133.91 322.214 134.51 320.188 134.51C317.472 134.507 314.869 133.427 312.948 131.506C311.028 129.586 309.948 126.983 309.945 124.267ZM371.067 100.839C371.067 98.8129 371.667 96.8322 372.793 95.1474C373.918 93.4626 375.518 92.1495 377.39 91.374C379.262 90.5985 381.322 90.3956 383.309 90.7908C385.296 91.1861 387.122 92.1617 388.554 93.5944C389.987 95.0271 390.963 96.8525 391.358 98.8398C391.753 100.827 391.55 102.887 390.775 104.759C389.999 106.631 388.686 108.23 387.001 109.356C385.317 110.482 383.336 111.082 381.31 111.082C378.594 111.079 375.991 109.999 374.07 108.078C372.15 106.158 371.07 103.555 371.067 100.839ZM276.767 99.213C276.767 97.187 277.368 95.2064 278.493 93.5218C279.619 91.8372 281.219 90.5242 283.091 89.7488C284.962 88.9735 287.022 88.7706 289.009 89.1659C290.996 89.5611 292.822 90.5368 294.254 91.9694C295.687 93.4021 296.663 95.2274 297.058 97.2145C297.453 99.2017 297.25 101.261 296.475 103.133C295.7 105.005 294.387 106.605 292.702 107.731C291.017 108.856 289.037 109.457 287.011 109.457C284.295 109.454 281.691 108.374 279.77 106.453C277.85 104.533 276.77 101.929 276.767 99.213ZM169.563 90.425C169.563 88.3992 170.164 86.4188 171.289 84.7343C172.415 83.0499 174.014 81.737 175.886 80.9617C177.758 80.1865 179.817 79.9836 181.804 80.3788C183.791 80.7741 185.616 81.7496 187.049 83.1821C188.481 84.6146 189.457 86.4398 189.852 88.4267C190.247 90.4137 190.044 92.4732 189.269 94.3449C188.494 96.2165 187.181 97.8163 185.496 98.9418C183.812 100.067 181.832 100.668 179.806 100.668C177.09 100.665 174.487 99.5847 172.566 97.6644C170.646 95.7442 169.566 93.1407 169.563 90.425ZM179.806 73.004C177.093 73.002 174.417 73.6335 171.991 74.8482C169.565 76.0629 167.456 77.8273 165.833 80.0008C164.209 82.1743 163.115 84.6969 162.639 87.3677C162.162 90.0385 162.316 92.7838 163.087 95.3847C163.859 97.9857 165.227 100.371 167.083 102.349C168.939 104.328 171.231 105.846 173.778 106.783C176.324 107.719 179.054 108.048 181.749 107.744C184.445 107.439 187.033 106.509 189.306 105.028L217.067 132.845V181.989H216.594C214.178 181.989 211.787 182.465 209.555 183.389C207.324 184.313 205.296 185.668 203.588 187.376C201.881 189.084 200.526 191.111 199.602 193.343C198.677 195.574 198.202 197.966 198.202 200.381V341.225C198.202 343.64 198.677 346.032 199.602 348.263C200.526 350.495 201.881 352.523 203.588 354.23C205.296 355.938 207.324 357.293 209.555 358.217C211.787 359.142 214.178 359.617 216.594 359.617H217.067V411.617L202.302 426.226C198.699 423.846 194.343 422.886 190.074 423.531C185.805 424.176 181.926 426.379 179.187 429.716C176.448 433.053 175.042 437.287 175.242 441.6C175.442 445.913 177.233 449.998 180.269 453.068C183.304 456.138 187.37 457.973 191.681 458.221C195.991 458.468 200.24 457.109 203.607 454.407C206.974 451.705 209.22 447.85 209.912 443.589C210.604 439.327 209.691 434.96 207.352 431.332L224.252 414.614V359.614H250.252V400.285C246.035 401.173 242.298 403.592 239.76 407.074C237.222 410.556 236.065 414.856 236.512 419.141C236.958 423.427 238.976 427.395 242.177 430.28C245.378 433.165 249.534 434.761 253.843 434.761C258.152 434.761 262.308 433.165 265.508 430.28C268.709 427.395 270.728 423.427 271.174 419.141C271.62 414.856 270.463 410.556 267.926 407.074C265.388 403.592 261.65 401.173 257.434 400.285V359.617H283.434V425.342C279.217 426.23 275.48 428.649 272.942 432.131C270.404 435.613 269.247 439.913 269.694 444.198C270.14 448.484 272.158 452.452 275.359 455.337C278.56 458.222 282.716 459.818 287.025 459.818C291.334 459.818 295.49 458.222 298.69 455.337C301.891 452.452 303.91 448.484 304.356 444.198C304.802 439.913 303.645 435.613 301.107 432.131C298.57 428.649 294.832 426.23 290.616 425.342V359.617H316.616V389.188C312.399 390.076 308.662 392.495 306.124 395.977C303.586 399.459 302.429 403.759 302.876 408.044C303.322 412.33 305.34 416.298 308.541 419.183C311.742 422.068 315.898 423.664 320.207 423.664C324.516 423.664 328.672 422.068 331.872 419.183C335.073 416.298 337.092 412.33 337.538 408.044C337.984 403.759 336.827 399.459 334.29 395.977C331.752 392.495 328.014 390.076 323.798 389.188V359.617H349.798V411.732L379.661 441.655C377.298 445.267 376.358 449.626 377.021 453.891C377.685 458.156 379.905 462.023 383.254 464.747C386.602 467.47 390.841 468.856 395.151 468.638C399.461 468.419 403.538 466.61 406.593 463.562C409.648 460.513 411.465 456.441 411.694 452.131C411.922 447.821 410.545 443.579 407.829 440.225C405.112 436.871 401.25 434.642 396.986 433.969C392.723 433.297 388.362 434.227 384.745 436.582L356.957 408.761V359.617H357.432C362.309 359.615 366.986 357.676 370.435 354.228C373.883 350.779 375.822 346.102 375.824 341.225V200.381C375.822 195.504 373.883 190.827 370.435 187.378C366.986 183.93 362.309 181.991 357.432 181.989H356.957V129.989L371.722 115.38C375.324 117.76 379.681 118.72 383.95 118.075C388.219 117.431 392.097 115.227 394.837 111.89C397.576 108.553 398.981 104.319 398.782 100.006C398.582 95.6935 396.791 91.6077 393.755 88.5381C390.719 85.4685 386.653 83.6327 382.343 83.3855C378.033 83.1382 373.784 84.4969 370.417 87.1992C367.05 89.9015 364.803 93.7556 364.112 98.0172C363.42 102.279 364.332 106.646 366.672 110.274L349.772 126.991V181.991H323.772V141.318C327.988 140.43 331.726 138.011 334.264 134.529C336.801 131.047 337.958 126.748 337.512 122.462C337.066 118.176 335.047 114.208 331.846 111.323C328.646 108.439 324.49 106.842 320.181 106.842C315.872 106.842 311.716 108.439 308.515 111.323C305.314 114.208 303.296 118.176 302.85 122.462C302.403 126.748 303.56 131.047 306.098 134.529C308.636 138.011 312.373 140.43 316.59 141.318V181.989H290.59V116.264C294.806 115.376 298.544 112.957 301.082 109.475C303.619 105.993 304.776 101.694 304.33 97.4079C303.884 93.1222 301.865 89.1539 298.664 86.2692C295.464 83.3845 291.308 81.7881 286.999 81.7881C282.69 81.7881 278.534 83.3845 275.333 86.2692C272.132 89.1539 270.114 93.1222 269.668 97.4079C269.221 101.694 270.378 105.993 272.916 109.475C275.454 112.957 279.191 115.376 283.408 116.264V181.989H257.408V152.418C261.624 151.53 265.362 149.111 267.9 145.629C270.437 142.147 271.594 137.848 271.148 133.562C270.702 129.276 268.683 125.308 265.482 122.423C262.282 119.539 258.126 117.942 253.817 117.942C249.508 117.942 245.352 119.539 242.151 122.423C238.95 125.308 236.932 129.276 236.486 133.562C236.039 137.848 237.196 142.147 239.734 145.629C242.272 149.111 246.009 151.53 250.226 152.418V181.989H224.226V129.875L194.386 99.951C196.105 97.3238 197.082 94.2804 197.213 91.1432C197.345 88.006 196.625 84.8918 195.131 82.1301C193.636 79.3685 191.423 77.0624 188.726 75.4558C186.028 73.8492 182.946 73.0021 179.806 73.004Z" fill="white"/>
</mask>
<g mask="url(#mask0_263_402)">
<path d="M276.866 -51.2144L-34.7651 286.911L297.159 592.827L608.79 254.701L276.866 -51.2144Z" fill="url(#paint2_linear_263_402)"/>
</g>
<mask id="mask1_263_402" style="mask-type:luminance" maskUnits="userSpaceOnUse" x="375" y="333" width="99" height="49">
<path d="M445.388 363.613C445.387 361.587 445.988 359.606 447.114 357.922C448.239 356.237 449.839 354.924 451.711 354.148C453.583 353.373 455.642 353.17 457.63 353.565C459.617 353.96 461.442 354.935 462.875 356.368C464.308 357.801 465.283 359.626 465.679 361.613C466.074 363.6 465.871 365.66 465.096 367.532C464.321 369.404 463.008 371.004 461.323 372.13C459.638 373.255 457.658 373.856 455.632 373.856C452.916 373.853 450.312 372.773 448.392 370.853C446.471 368.933 445.391 366.329 445.388 363.613ZM375.824 333.771V340.953H427.843L441.034 354.116C438.68 357.732 437.75 362.092 438.422 366.354C439.095 370.616 441.323 374.477 444.677 377.193C448.03 379.908 452.27 381.284 456.579 381.056C460.887 380.828 464.959 379.012 468.006 375.957C471.054 372.903 472.862 368.828 473.081 364.519C473.299 360.21 471.914 355.972 469.191 352.625C466.469 349.278 462.602 347.058 458.339 346.394C454.076 345.731 449.718 346.67 446.107 349.032L430.815 333.77L375.824 333.771Z" fill="white"/>
</mask>
<g mask="url(#mask1_263_402)">
<path d="M420.481 285.318L352.269 359.33L428.398 429.494L496.611 355.482L420.481 285.318Z" fill="url(#paint3_linear_263_402)"/>
</g>
<mask id="mask2_263_402" style="mask-type:luminance" maskUnits="userSpaceOnUse" x="375" y="253" width="112" height="36">
<path d="M458.986 271.009C458.986 268.983 459.587 267.003 460.712 265.319C461.838 263.634 463.438 262.322 465.31 261.547C467.181 260.771 469.241 260.569 471.228 260.964C473.214 261.359 475.04 262.335 476.472 263.768C477.904 265.2 478.88 267.025 479.275 269.012C479.67 270.999 479.467 273.059 478.692 274.93C477.917 276.802 476.604 278.401 474.919 279.527C473.235 280.652 471.255 281.253 469.229 281.253C466.513 281.25 463.909 280.17 461.989 278.249C460.069 276.329 458.989 273.725 458.986 271.009ZM452.178 267.418H375.823V274.599H452.178C453.066 278.816 455.484 282.553 458.967 285.091C462.449 287.629 466.748 288.786 471.034 288.34C475.319 287.894 479.288 285.875 482.173 282.674C485.057 279.474 486.654 275.317 486.654 271.009C486.654 266.7 485.057 262.544 482.173 259.343C479.288 256.142 475.319 254.124 471.034 253.677C466.748 253.231 462.449 254.388 458.967 256.926C455.484 259.464 453.066 263.202 452.178 267.418Z" fill="white"/>
</mask>
<g mask="url(#mask2_263_402)">
<path d="M426.727 198.353L358.457 272.428L435.751 343.666L504.022 269.591L426.727 198.353Z" fill="url(#paint4_linear_263_402)"/>
</g>
<mask id="mask3_263_402" style="mask-type:luminance" maskUnits="userSpaceOnUse" x="375" y="286" width="74" height="36">
<path d="M420.857 304.185C420.857 302.159 421.458 300.178 422.583 298.494C423.709 296.809 425.309 295.496 427.18 294.721C429.052 293.946 431.112 293.743 433.099 294.138C435.086 294.533 436.912 295.509 438.344 296.941C439.777 298.374 440.753 300.199 441.148 302.187C441.543 304.174 441.34 306.233 440.565 308.105C439.79 309.977 438.477 311.577 436.792 312.703C435.107 313.828 433.127 314.429 431.101 314.429C428.385 314.426 425.781 313.346 423.86 311.425C421.94 309.505 420.86 306.901 420.857 304.185ZM414.05 300.594H375.824V307.776H414.05C414.938 311.993 417.357 315.731 420.839 318.269C424.322 320.806 428.621 321.964 432.907 321.517C437.193 321.071 441.161 319.052 444.046 315.851C446.931 312.651 448.528 308.494 448.528 304.185C448.528 299.876 446.931 295.72 444.046 292.519C441.161 289.318 437.193 287.299 432.907 286.853C428.621 286.406 424.322 287.564 420.839 290.102C417.357 292.639 414.938 296.377 414.05 300.594Z" fill="white"/>
</mask>
<g mask="url(#mask3_263_402)">
<path d="M409.215 250.529L358.456 305.604L415.134 357.841L465.893 302.767L409.215 250.529Z" fill="url(#paint5_linear_263_402)"/>
</g>
<mask id="mask4_263_402" style="mask-type:luminance" maskUnits="userSpaceOnUse" x="375" y="220" width="59" height="36">
<path d="M405.367 237.832C405.367 235.806 405.968 233.826 407.093 232.142C408.219 230.457 409.819 229.145 411.69 228.37C413.562 227.594 415.621 227.392 417.608 227.787C419.595 228.182 421.42 229.158 422.853 230.59C424.285 232.023 425.261 233.848 425.656 235.835C426.051 237.821 425.848 239.881 425.073 241.752C424.298 243.624 422.985 245.224 421.301 246.349C419.617 247.475 417.636 248.076 415.611 248.076C412.895 248.073 410.291 246.993 408.37 245.072C406.45 243.152 405.37 240.548 405.367 237.832ZM398.56 234.241H375.825V241.423H398.56C399.448 245.639 401.866 249.377 405.349 251.915C408.831 254.452 413.13 255.61 417.416 255.163C421.701 254.717 425.67 252.698 428.554 249.498C431.439 246.297 433.036 242.141 433.036 237.832C433.036 233.523 431.439 229.367 428.554 226.166C425.67 222.966 421.701 220.947 417.416 220.501C413.13 220.054 408.831 221.212 405.349 223.749C401.866 226.287 399.448 230.025 398.56 234.241Z" fill="white"/>
</mask>
<g mask="url(#mask4_263_402)">
<path d="M402.119 191.918L358.457 239.251L406.736 283.787L450.399 236.453L402.119 191.918Z" fill="url(#paint6_linear_263_402)"/>
</g>
<mask id="mask5_263_402" style="mask-type:luminance" maskUnits="userSpaceOnUse" x="375" y="143" width="112" height="66">
<path d="M459.355 161.1C459.355 159.074 459.955 157.093 461.081 155.408C462.206 153.724 463.806 152.411 465.678 151.635C467.55 150.86 469.61 150.657 471.597 151.052C473.584 151.447 475.41 152.423 476.842 153.855C478.275 155.288 479.251 157.114 479.646 159.101C480.041 161.088 479.838 163.148 479.063 165.02C478.287 166.892 476.974 168.492 475.289 169.617C473.605 170.743 471.624 171.343 469.598 171.343C466.882 171.34 464.279 170.26 462.359 168.339C460.438 166.419 459.358 163.816 459.355 161.1ZM452.173 161.1C452.17 164.508 453.172 167.84 455.054 170.681L424.954 201.064H375.82V208.246H427.95L460.15 175.734C463.404 177.83 467.263 178.783 471.119 178.442C474.974 178.1 478.607 176.484 481.442 173.849C484.276 171.213 486.153 167.709 486.774 163.888C487.395 160.068 486.726 156.149 484.872 152.751C483.019 149.353 480.086 146.67 476.537 145.124C472.988 143.579 469.025 143.259 465.275 144.217C461.525 145.174 458.2 147.354 455.826 150.411C453.452 153.468 452.164 157.229 452.166 161.1" fill="white"/>
</mask>
<g mask="url(#mask5_263_402)">
<path d="M426.897 88.2597L343.646 178.589L435.951 263.661L519.202 173.332L426.897 88.2597Z" fill="url(#paint7_linear_263_402)"/>
</g>
<mask id="mask6_263_402" style="mask-type:luminance" maskUnits="userSpaceOnUse" x="100" y="160" width="99" height="49">
<path d="M108.149 178.404C108.149 176.378 108.75 174.397 109.876 172.713C111.002 171.028 112.602 169.716 114.474 168.94C116.345 168.165 118.405 167.963 120.392 168.358C122.379 168.753 124.205 169.729 125.637 171.162C127.07 172.595 128.045 174.42 128.44 176.407C128.835 178.395 128.632 180.454 127.857 182.326C127.081 184.198 125.768 185.798 124.083 186.923C122.399 188.049 120.418 188.649 118.392 188.649C115.676 188.646 113.072 187.566 111.151 185.645C109.231 183.725 108.151 181.121 108.148 178.405M100.966 178.405C100.963 181.546 101.81 184.628 103.417 187.327C105.024 190.025 107.331 192.239 110.093 193.733C112.855 195.227 115.97 195.947 119.108 195.815C122.246 195.683 125.289 194.705 127.917 192.985L143.21 208.249H198.199V201.067H146.181L132.991 187.903C134.469 185.63 135.397 183.044 135.7 180.35C136.003 177.655 135.673 174.928 134.736 172.383C133.799 169.839 132.281 167.549 130.303 165.694C128.325 163.84 125.942 162.473 123.342 161.702C120.743 160.931 118 160.777 115.331 161.253C112.661 161.728 110.14 162.821 107.967 164.442C105.795 166.064 104.03 168.171 102.815 170.594C101.6 173.018 100.967 175.692 100.967 178.403" fill="white"/>
</mask>
<g mask="url(#mask6_263_402)">
<path d="M145.654 112.558L77.4116 186.537L153.507 256.731L221.749 182.752L145.654 112.558Z" fill="url(#paint8_linear_263_402)"/>
</g>
<mask id="mask7_263_402" style="mask-type:luminance" maskUnits="userSpaceOnUse" x="87" y="253" width="112" height="36">
<path d="M94.5521 271.009C94.5523 268.983 95.1532 267.003 96.2787 265.319C97.4043 263.634 99.004 262.322 100.876 261.547C102.747 260.771 104.806 260.569 106.793 260.964C108.78 261.359 110.605 262.334 112.038 263.767C113.47 265.199 114.446 267.024 114.841 269.011C115.237 270.998 115.034 273.057 114.259 274.929C113.484 276.8 112.171 278.4 110.487 279.526C108.803 280.652 106.823 281.253 104.797 281.253C102.081 281.25 99.4777 280.17 97.5574 278.249C95.6371 276.329 94.557 273.725 94.5541 271.009M87.3721 271.009C87.3721 275.318 88.9685 279.474 91.8532 282.675C94.7379 285.876 98.7062 287.894 102.992 288.34C107.278 288.787 111.577 287.629 115.059 285.092C118.541 282.554 120.96 278.816 121.848 274.6H198.197V267.415H121.846C120.958 263.199 118.539 259.461 115.057 256.923C111.575 254.386 107.276 253.228 102.99 253.675C98.7042 254.121 94.7359 256.139 91.8512 259.34C88.9665 262.541 87.3701 266.697 87.3701 271.006" fill="white"/>
</mask>
<g mask="url(#mask7_263_402)">
<path d="M138.303 198.386L70.0029 272.428L147.262 343.696L215.562 269.654L138.303 198.386Z" fill="url(#paint9_linear_263_402)"/>
</g>
<mask id="mask8_263_402" style="mask-type:luminance" maskUnits="userSpaceOnUse" x="125" y="220" width="74" height="36">
<path d="M132.68 237.832C132.68 235.806 133.281 233.826 134.407 232.142C135.532 230.457 137.132 229.145 139.004 228.369C140.876 227.594 142.935 227.392 144.922 227.787C146.909 228.182 148.734 229.158 150.166 230.591C151.599 232.023 152.574 233.848 152.969 235.835C153.364 237.822 153.162 239.881 152.386 241.753C151.611 243.625 150.298 245.224 148.614 246.35C146.929 247.475 144.949 248.076 142.923 248.076C140.207 248.073 137.604 246.993 135.683 245.072C133.763 243.152 132.683 240.548 132.68 237.832ZM125.498 237.832C125.498 242.141 127.094 246.297 129.979 249.498C132.864 252.699 136.832 254.717 141.118 255.164C145.404 255.61 149.703 254.453 153.185 251.915C156.667 249.377 159.086 245.639 159.974 241.423H198.199V234.241H159.974C159.086 230.025 156.667 226.287 153.185 223.749C149.703 221.212 145.404 220.054 141.118 220.501C136.832 220.947 132.864 222.966 129.979 226.166C127.094 229.367 125.498 233.523 125.498 237.832Z" fill="white"/>
</mask>
<g mask="url(#mask8_263_402)">
<path d="M158.889 184.178L108.131 239.251L164.809 291.488L215.566 236.414L158.889 184.178Z" fill="url(#paint10_linear_263_402)"/>
</g>
<mask id="mask9_263_402" style="mask-type:luminance" maskUnits="userSpaceOnUse" x="140" y="286" width="59" height="36">
<path d="M148.171 304.185C148.171 302.159 148.772 300.178 149.897 298.494C151.023 296.809 152.623 295.496 154.495 294.721C156.367 293.945 158.426 293.743 160.414 294.138C162.401 294.533 164.226 295.509 165.659 296.942C167.091 298.374 168.067 300.2 168.462 302.187C168.857 304.174 168.654 306.234 167.879 308.106C167.103 309.978 165.79 311.578 164.105 312.703C162.421 313.829 160.44 314.429 158.414 314.429C155.698 314.426 153.094 313.345 151.174 311.425C149.254 309.505 148.174 306.901 148.171 304.185ZM140.989 304.185C140.989 308.494 142.585 312.65 145.47 315.851C148.355 319.052 152.323 321.07 156.609 321.516C160.894 321.963 165.193 320.805 168.676 318.268C172.158 315.73 174.577 311.992 175.465 307.776H198.2V300.594H175.465C174.577 296.378 172.158 292.64 168.676 290.102C165.193 287.565 160.894 286.407 156.609 286.854C152.323 287.3 148.355 289.318 145.47 292.519C142.585 295.72 140.989 299.876 140.989 304.185Z" fill="white"/>
</mask>
<g mask="url(#mask9_263_402)">
<path d="M167.283 258.271L123.621 305.604L171.901 350.14L215.563 302.807L167.283 258.271Z" fill="url(#paint11_linear_263_402)"/>
</g>
<mask id="mask10_263_402" style="mask-type:luminance" maskUnits="userSpaceOnUse" x="86" y="333" width="113" height="66">
<path d="M94.1819 380.917C94.1819 378.891 94.7827 376.91 95.9084 375.226C97.0341 373.541 98.634 372.228 100.506 371.453C102.378 370.677 104.438 370.475 106.425 370.87C108.412 371.265 110.237 372.241 111.67 373.674C113.102 375.107 114.078 376.932 114.473 378.919C114.868 380.906 114.665 382.966 113.89 384.838C113.114 386.71 111.801 388.31 110.116 389.435C108.432 390.561 106.451 391.161 104.425 391.161C101.709 391.158 99.1055 390.078 97.1852 388.157C95.2649 386.237 94.1848 383.633 94.1819 380.917ZM146.071 333.772L113.871 366.283C110.248 363.943 105.886 363.028 101.628 363.716C97.3698 364.404 93.5176 366.645 90.8151 370.006C88.1127 373.368 86.7517 377.612 86.9951 381.918C87.2385 386.224 89.0689 390.288 92.1329 393.323C95.1969 396.359 99.2771 398.152 103.585 398.355C107.894 398.559 112.125 397.159 115.461 394.425C118.798 391.692 121.003 387.819 121.651 383.555C122.299 379.291 121.344 374.937 118.971 371.336L149.071 340.953H198.2V333.771L146.071 333.772Z" fill="white"/>
</mask>
<g mask="url(#mask10_263_402)">
<path d="M138.072 278.358L54.8218 368.686L147.126 453.758L230.377 363.429L138.072 278.358Z" fill="url(#paint12_linear_263_402)"/>
</g>
<mask id="mask11_263_402" style="mask-type:luminance" maskUnits="userSpaceOnUse" x="216" y="199" width="142" height="143">
<path d="M227.122 199.943C224.214 199.948 221.426 201.106 219.371 203.163C217.315 205.22 216.159 208.008 216.156 210.916V330.69C216.159 333.598 217.315 336.386 219.37 338.443C221.426 340.5 224.214 341.658 227.122 341.663H346.903C349.811 341.658 352.598 340.5 354.654 338.443C356.709 336.386 357.866 333.598 357.869 330.69V210.916C357.866 208.008 356.709 205.22 354.654 203.163C352.598 201.106 349.811 199.948 346.903 199.943H227.122Z" fill="white"/>
</mask>
<g mask="url(#mask11_263_402)">
<path d="M281.244 129.323L145.531 276.574L292.782 412.287L428.495 265.036L281.244 129.323Z" fill="url(#paint13_linear_263_402)"/>
</g>
</g>
<g clip-path="url(#clip1_263_402)">
<path d="M237.053 266.159V274.394L265.936 287.045V278.512L245.766 270.217L265.936 261.922V253.508L237.053 266.159Z" fill="white"/>
<path d="M295.95 243.662L269.516 298.921H277.216L303.65 243.662H295.95Z" fill="white"/>
<path d="M308.066 262.042L328.236 270.337L308.066 278.632V287.046L336.949 274.395V266.16L308.066 253.509V262.042Z" fill="white"/>
<path d="M477.024 407.5H325.024C319.501 407.5 315.024 411.977 315.024 417.5V444.5C315.024 450.023 319.501 454.5 325.024 454.5H477.024C482.547 454.5 487.024 450.023 487.024 444.5V417.5C487.024 411.977 482.547 407.5 477.024 407.5Z" fill="white"/>
<path d="M362.987 427.177H364.583V436.921H362.987L358.185 429.655V436.921H356.589V427.177H358.185L362.987 434.429V427.177ZM369.927 430.425C368.849 430.425 367.981 431.153 367.813 432.371H372.083C372.055 431.181 371.117 430.425 369.927 430.425ZM373.539 434.625C373.105 435.969 371.887 437.047 369.997 437.047C367.785 437.047 366.147 435.479 366.147 433.057C366.147 430.635 367.715 429.081 369.997 429.081C372.195 429.081 373.749 430.607 373.749 432.875C373.749 433.141 373.735 433.393 373.693 433.659H367.799C367.911 434.933 368.821 435.703 369.997 435.703C370.977 435.703 371.523 435.227 371.817 434.625H373.539ZM376.818 436.921L374.41 429.207H376.034L377.644 435.409L379.282 429.207H380.948L382.516 435.381L384.112 429.207H385.68L383.286 436.921H381.606L380.052 431.223L378.498 436.921H376.818ZM399.917 432.035C399.917 434.961 397.719 437.019 394.947 437.019C392.203 437.019 389.977 434.961 389.977 432.035C389.977 429.123 392.203 427.065 394.947 427.065C397.719 427.065 399.917 429.123 399.917 432.035ZM391.615 432.035C391.615 434.233 393.015 435.633 394.947 435.633C396.879 435.633 398.279 434.233 398.279 432.035C398.279 429.837 396.879 428.465 394.947 428.465C393.015 428.465 391.615 429.837 391.615 432.035ZM403.084 430.341C403.574 429.697 404.512 429.081 405.772 429.081C407.802 429.081 409.398 430.649 409.398 433.029C409.398 435.409 407.802 437.047 405.772 437.047C404.498 437.047 403.588 436.403 403.084 435.801V440.589H401.488V429.207H403.084V430.341ZM407.774 433.029C407.774 431.363 406.626 430.467 405.422 430.467C404.232 430.467 403.084 431.405 403.084 433.057C403.084 434.723 404.232 435.661 405.422 435.661C406.626 435.661 407.774 434.695 407.774 433.029ZM412.572 430.341C413.062 429.697 414 429.081 415.26 429.081C417.29 429.081 418.886 430.649 418.886 433.029C418.886 435.409 417.29 437.047 415.26 437.047C413.986 437.047 413.076 436.403 412.572 435.801V440.589H410.976V429.207H412.572V430.341ZM417.262 433.029C417.262 431.363 416.114 430.467 414.91 430.467C413.72 430.467 412.572 431.405 412.572 433.057C412.572 434.723 413.72 435.661 414.91 435.661C416.114 435.661 417.262 434.695 417.262 433.029ZM427.814 433.057C427.814 435.479 426.022 437.047 423.81 437.047C421.612 437.047 419.946 435.479 419.946 433.057C419.946 430.635 421.682 429.081 423.88 429.081C426.078 429.081 427.814 430.635 427.814 433.057ZM421.57 433.057C421.57 434.807 422.606 435.661 423.81 435.661C425 435.661 426.176 434.807 426.176 433.057C426.176 431.307 425.042 430.467 423.852 430.467C422.648 430.467 421.57 431.307 421.57 433.057ZM430.988 432.861V436.921H429.392V429.207H430.988V430.327C431.436 429.557 432.206 429.081 433.298 429.081V430.733H432.892C431.716 430.733 430.988 431.223 430.988 432.861ZM435.017 434.779V430.509H434.107V429.207H435.017V427.289H436.627V429.207H438.503V430.509H436.627V434.779C436.627 435.353 436.851 435.591 437.523 435.591H438.503V436.921H437.243C435.871 436.921 435.017 436.347 435.017 434.779ZM446.96 429.207V436.921H445.364V435.997C444.86 436.655 443.992 437.033 443.082 437.033C441.276 437.033 439.904 435.899 439.904 433.743V429.207H441.486V433.505C441.486 434.919 442.256 435.647 443.418 435.647C444.594 435.647 445.364 434.919 445.364 433.505V429.207H446.96ZM454.54 436.921V432.609C454.54 431.195 453.77 430.467 452.608 430.467C451.432 430.467 450.662 431.195 450.662 432.609V436.921H449.066V429.207H450.662V430.089C451.18 429.459 452.034 429.081 452.958 429.081C454.764 429.081 456.122 430.215 456.122 432.371V436.921H454.54ZM458.157 436.921V429.207H459.753V436.921H458.157ZM458.969 428.185C458.395 428.185 457.947 427.737 457.947 427.163C457.947 426.589 458.395 426.141 458.969 426.141C459.529 426.141 459.977 426.589 459.977 427.163C459.977 427.737 459.529 428.185 458.969 428.185ZM462.101 434.779V430.509H461.191V429.207H462.101V427.289H463.711V429.207H465.587V430.509H463.711V434.779C463.711 435.353 463.935 435.591 464.607 435.591H465.587V436.921H464.327C462.955 436.921 462.101 436.347 462.101 434.779ZM470.096 435.087L472.35 429.207H474.002L469.27 440.547H467.618L469.186 436.795L466.148 429.207H467.926L470.096 435.087Z" fill="#1AD598"/>
<path d="M339.024 442.5C345.651 442.5 351.024 437.351 351.024 431C351.024 424.649 345.651 419.5 339.024 419.5C332.397 419.5 327.024 424.649 327.024 431C327.024 437.351 332.397 442.5 339.024 442.5Z" fill="#1AD598" fill-opacity="0.2"/>
<path d="M336.225 435.409L333.056 432.22C332.82 431.98 332.688 431.657 332.688 431.32C332.688 430.983 332.82 430.66 333.056 430.42C333.173 430.302 333.313 430.208 333.467 430.144C333.621 430.08 333.786 430.047 333.952 430.047C334.119 430.047 334.284 430.08 334.438 430.144C334.591 430.208 334.731 430.302 334.849 430.42L337.121 432.708L343.197 426.594C343.314 426.476 343.454 426.382 343.608 426.318C343.762 426.254 343.927 426.221 344.093 426.221C344.26 426.221 344.425 426.254 344.579 426.318C344.733 426.382 344.872 426.476 344.99 426.594C345.226 426.834 345.358 427.157 345.358 427.494C345.358 427.831 345.226 428.154 344.99 428.394L338.018 435.41C337.9 435.528 337.76 435.622 337.607 435.686C337.453 435.75 337.288 435.783 337.121 435.783C336.955 435.783 336.79 435.75 336.636 435.686C336.482 435.622 336.342 435.527 336.225 435.409Z" fill="#1AD598"/>
<path d="M249 88H97C91.4772 88 87 92.4772 87 98V125C87 130.523 91.4772 135 97 135H249C254.523 135 259 130.523 259 125V98C259 92.4772 254.523 88 249 88Z" fill="white"/>
<path d="M134.963 107.677H136.559V117.421H134.963L130.161 110.155V117.421H128.565V107.677H130.161L134.963 114.929V107.677ZM141.903 110.925C140.825 110.925 139.957 111.653 139.789 112.871H144.059C144.031 111.681 143.093 110.925 141.903 110.925ZM145.515 115.125C145.081 116.469 143.863 117.547 141.973 117.547C139.761 117.547 138.123 115.979 138.123 113.557C138.123 111.135 139.691 109.581 141.973 109.581C144.171 109.581 145.725 111.107 145.725 113.375C145.725 113.641 145.711 113.893 145.669 114.159H139.775C139.887 115.433 140.797 116.203 141.973 116.203C142.953 116.203 143.499 115.727 143.793 115.125H145.515ZM148.794 117.421L146.386 109.707H148.01L149.62 115.909L151.258 109.707H152.924L154.492 115.881L156.088 109.707H157.656L155.262 117.421H153.582L152.028 111.723L150.474 117.421H148.794ZM171.893 112.535C171.893 115.461 169.695 117.519 166.923 117.519C164.179 117.519 161.953 115.461 161.953 112.535C161.953 109.623 164.179 107.565 166.923 107.565C169.695 107.565 171.893 109.623 171.893 112.535ZM163.591 112.535C163.591 114.733 164.991 116.133 166.923 116.133C168.855 116.133 170.255 114.733 170.255 112.535C170.255 110.337 168.855 108.965 166.923 108.965C164.991 108.965 163.591 110.337 163.591 112.535ZM175.06 110.841C175.55 110.197 176.488 109.581 177.748 109.581C179.778 109.581 181.374 111.149 181.374 113.529C181.374 115.909 179.778 117.547 177.748 117.547C176.474 117.547 175.564 116.903 175.06 116.301V121.089H173.464V109.707H175.06V110.841ZM179.75 113.529C179.75 111.863 178.602 110.967 177.398 110.967C176.208 110.967 175.06 111.905 175.06 113.557C175.06 115.223 176.208 116.161 177.398 116.161C178.602 116.161 179.75 115.195 179.75 113.529ZM184.548 110.841C185.038 110.197 185.976 109.581 187.236 109.581C189.266 109.581 190.862 111.149 190.862 113.529C190.862 115.909 189.266 117.547 187.236 117.547C185.962 117.547 185.052 116.903 184.548 116.301V121.089H182.952V109.707H184.548V110.841ZM189.238 113.529C189.238 111.863 188.09 110.967 186.886 110.967C185.696 110.967 184.548 111.905 184.548 113.557C184.548 115.223 185.696 116.161 186.886 116.161C188.09 116.161 189.238 115.195 189.238 113.529ZM199.79 113.557C199.79 115.979 197.998 117.547 195.786 117.547C193.588 117.547 191.922 115.979 191.922 113.557C191.922 111.135 193.658 109.581 195.856 109.581C198.054 109.581 199.79 111.135 199.79 113.557ZM193.546 113.557C193.546 115.307 194.582 116.161 195.786 116.161C196.976 116.161 198.152 115.307 198.152 113.557C198.152 111.807 197.018 110.967 195.828 110.967C194.624 110.967 193.546 111.807 193.546 113.557ZM202.964 113.361V117.421H201.368V109.707H202.964V110.827C203.412 110.057 204.182 109.581 205.274 109.581V111.233H204.868C203.692 111.233 202.964 111.723 202.964 113.361ZM206.993 115.279V111.009H206.083V109.707H206.993V107.789H208.603V109.707H210.479V111.009H208.603V115.279C208.603 115.853 208.827 116.091 209.499 116.091H210.479V117.421H209.219C207.847 117.421 206.993 116.847 206.993 115.279ZM218.936 109.707V117.421H217.34V116.497C216.836 117.155 215.968 117.533 215.058 117.533C213.252 117.533 211.88 116.399 211.88 114.243V109.707H213.462V114.005C213.462 115.419 214.232 116.147 215.394 116.147C216.57 116.147 217.34 115.419 217.34 114.005V109.707H218.936ZM226.516 117.421V113.109C226.516 111.695 225.746 110.967 224.584 110.967C223.408 110.967 222.638 111.695 222.638 113.109V117.421H221.042V109.707H222.638V110.589C223.156 109.959 224.01 109.581 224.934 109.581C226.74 109.581 228.098 110.715 228.098 112.871V117.421H226.516ZM230.133 117.421V109.707H231.729V117.421H230.133ZM230.945 108.685C230.371 108.685 229.923 108.237 229.923 107.663C229.923 107.089 230.371 106.641 230.945 106.641C231.505 106.641 231.953 107.089 231.953 107.663C231.953 108.237 231.505 108.685 230.945 108.685ZM234.077 115.279V111.009H233.167V109.707H234.077V107.789H235.687V109.707H237.563V111.009H235.687V115.279C235.687 115.853 235.911 116.091 236.583 116.091H237.563V117.421H236.303C234.931 117.421 234.077 116.847 234.077 115.279ZM242.072 115.587L244.326 109.707H245.978L241.246 121.047H239.594L241.162 117.295L238.124 109.707H239.902L242.072 115.587Z" fill="#1AD598"/>
<path d="M111 123C117.627 123 123 117.851 123 111.5C123 105.149 117.627 100 111 100C104.373 100 99 105.149 99 111.5C99 117.851 104.373 123 111 123Z" fill="#1AD598" fill-opacity="0.2"/>
<path d="M108.201 115.909L105.032 112.72C104.796 112.48 104.664 112.157 104.664 111.82C104.664 111.483 104.796 111.16 105.032 110.92C105.149 110.802 105.289 110.708 105.443 110.644C105.597 110.58 105.762 110.547 105.928 110.547C106.095 110.547 106.26 110.58 106.414 110.644C106.568 110.708 106.707 110.802 106.825 110.92L109.097 113.208L115.173 107.094C115.29 106.976 115.43 106.882 115.584 106.818C115.738 106.754 115.903 106.721 116.069 106.721C116.236 106.721 116.401 106.754 116.555 106.818C116.709 106.882 116.848 106.976 116.966 107.094C117.202 107.334 117.334 107.657 117.334 107.994C117.334 108.331 117.202 108.654 116.966 108.894L109.994 115.91C109.876 116.028 109.736 116.122 109.583 116.186C109.429 116.25 109.264 116.283 109.097 116.283C108.931 116.283 108.766 116.25 108.612 116.186C108.458 116.122 108.318 116.027 108.201 115.909Z" fill="#1AD598"/>
</g>
</g>
<defs>
<linearGradient id="paint0_linear_263_402" x1="143.5" y1="135.5" x2="143.5" y2="135.5" gradientUnits="userSpaceOnUse">
<stop stop-color="#5C96FD"/>
<stop offset="1" stop-color="#6C4FFE"/>
</linearGradient>
<linearGradient id="paint1_linear_263_402" x1="156.5" y1="147.5" x2="156.5" y2="147.5" gradientUnits="userSpaceOnUse">
<stop stop-color="white" stop-opacity="0"/>
<stop offset="1" stop-color="white"/>
</linearGradient>
<linearGradient id="paint2_linear_263_402" x1="287.17" y1="81.4742" x2="293.847" y2="460.015" gradientUnits="userSpaceOnUse">
<stop stop-color="#5C96FD"/>
<stop offset="1" stop-color="#6C4FFE"/>
</linearGradient>
<linearGradient id="paint3_linear_263_402" x1="423.487" y1="315.053" x2="423.008" y2="399.745" gradientUnits="userSpaceOnUse">
<stop stop-color="#5C96FD"/>
<stop offset="1" stop-color="#6C4FFE"/>
</linearGradient>
<linearGradient id="paint4_linear_263_402" x1="429.973" y1="228.333" x2="428.882" y2="313.64" gradientUnits="userSpaceOnUse">
<stop stop-color="#5C96FD"/>
<stop offset="1" stop-color="#6C4FFE"/>
</linearGradient>
<linearGradient id="paint5_linear_263_402" x1="411.458" y1="272.662" x2="411.085" y2="335.698" gradientUnits="userSpaceOnUse">
<stop stop-color="#5C96FD"/>
<stop offset="1" stop-color="#6C4FFE"/>
</linearGradient>
<linearGradient id="paint6_linear_263_402" x1="403.946" y1="210.862" x2="403.843" y2="264.84" gradientUnits="userSpaceOnUse">
<stop stop-color="#5C96FD"/>
<stop offset="1" stop-color="#6C4FFE"/>
</linearGradient>
<linearGradient id="paint7_linear_263_402" x1="430.435" y1="124.43" x2="430.188" y2="227.486" gradientUnits="userSpaceOnUse">
<stop stop-color="#5C96FD"/>
<stop offset="1" stop-color="#6C4FFE"/>
</linearGradient>
<linearGradient id="paint8_linear_263_402" x1="148.647" y1="142.294" x2="148.13" y2="226.981" gradientUnits="userSpaceOnUse">
<stop stop-color="#5C96FD"/>
<stop offset="1" stop-color="#6C4FFE"/>
</linearGradient>
<linearGradient id="paint9_linear_263_402" x1="141.536" y1="228.366" x2="140.407" y2="313.668" gradientUnits="userSpaceOnUse">
<stop stop-color="#5C96FD"/>
<stop offset="1" stop-color="#6C4FFE"/>
</linearGradient>
<linearGradient id="paint10_linear_263_402" x1="161.132" y1="206.31" x2="160.759" y2="269.344" gradientUnits="userSpaceOnUse">
<stop stop-color="#5C96FD"/>
<stop offset="1" stop-color="#6C4FFE"/>
</linearGradient>
<linearGradient id="paint11_linear_263_402" x1="169.11" y1="277.215" x2="169.007" y2="331.193" gradientUnits="userSpaceOnUse">
<stop stop-color="#5C96FD"/>
<stop offset="1" stop-color="#6C4FFE"/>
</linearGradient>
<linearGradient id="paint12_linear_263_402" x1="141.61" y1="314.528" x2="141.363" y2="417.582" gradientUnits="userSpaceOnUse">
<stop stop-color="#5C96FD"/>
<stop offset="1" stop-color="#6C4FFE"/>
</linearGradient>
<linearGradient id="paint13_linear_263_402" x1="286.314" y1="187.645" x2="287.711" y2="353.964" gradientUnits="userSpaceOnUse">
<stop stop-color="#5C96FD"/>
<stop offset="1" stop-color="#6C4FFE"/>
</linearGradient>
<clipPath id="clip0_263_402">
<rect width="400.024" height="395.607" fill="white" transform="translate(87 73)"/>
</clipPath>
<clipPath id="clip1_263_402">
<rect width="400.024" height="366.5" fill="white" transform="translate(87 88)"/>
</clipPath>
</defs>
</svg>
