<svg width="574" height="542" viewBox="0 0 574 542" fill="none" xmlns="http://www.w3.org/2000/svg">
<path opacity="0.08" d="M554 0H20C8.9543 0 0 8.9543 0 20V522C0 533.046 8.9543 542 20 542H554C565.046 542 574 533.046 574 522V20C574 8.9543 565.046 0 554 0Z" fill="url(#paint0_linear_419_1189)"/>
<path d="M528 26H46C34.9543 26 26 34.9543 26 46V496C26 507.046 34.9543 516 46 516H528C539.046 516 548 507.046 548 496V46C548 34.9543 539.046 26 528 26Z" fill="url(#paint1_linear_419_1189)"/>
<g opacity="0.9">
<path d="M125.654 242.631H139.932V457.066H165.408V242.631H179.686L152.671 197.141L125.654 242.631Z" fill="url(#paint2_linear_419_1189)"/>
<path d="M394.495 242.631H408.773V457.066H434.249V242.631H448.527L421.51 197.141L394.495 242.631Z" fill="url(#paint3_linear_419_1189)"/>
<path d="M288.882 84.9331L261.865 143.623H276.143V457.066H301.624V143.623H315.902L288.882 84.9331Z" fill="url(#paint4_linear_419_1189)"/>
<path d="M333.189 205.034H347.467V457.066H372.944V205.034H387.221L360.204 155.783L333.189 205.034Z" fill="url(#paint5_linear_419_1189)"/>
<path d="M190.707 205.034H204.985V457.066H230.461V205.034H244.739L217.722 155.783L190.707 205.034Z" fill="url(#paint6_linear_419_1189)"/>
<path d="M65 302.686H79.278V457.066H104.754V302.686H119.032L92.017 261.941L65 302.686Z" fill="url(#paint7_linear_419_1189)"/>
<path d="M455.149 302.686H469.427V457.066H494.903V302.686H509.181L482.164 261.942L455.149 302.686Z" fill="url(#paint8_linear_419_1189)"/>
</g>
<path d="M499.001 153H474.001C468.478 153 464.001 157.477 464.001 163V187C464.001 192.523 468.478 197 474.001 197H499.001C504.524 197 509.001 192.523 509.001 187V163C509.001 157.477 504.524 153 499.001 153Z" fill="white"/>
<path d="M492.397 165.813L495.868 169.278L488.468 176.663L482.409 170.613L471.179 181.839L473.316 183.973L482.409 174.893L488.471 180.946L498.019 171.427L501.49 174.893V165.813H492.397Z" fill="#5C96FD" stroke="#777E90" stroke-opacity="0.1"/>
<path d="M167.999 70H74.999C69.4762 70 64.999 74.4772 64.999 80V138C64.999 143.523 69.4762 148 74.999 148H167.999C173.522 148 177.999 143.523 177.999 138V80C177.999 74.4772 173.522 70 167.999 70Z" fill="white"/>
<path d="M115.771 96.2981H117.255V99.1961H120.083V100.54H117.255V103.438H115.771V100.54H112.943V99.1961H115.771V96.2981ZM122.321 97.2361C122.433 95.4721 123.805 94.4781 125.667 94.4781C127.697 94.4781 128.803 95.6541 128.803 97.1381C128.803 98.3561 128.033 99.1821 127.235 99.4481V99.5041C128.299 99.8261 128.985 100.708 128.985 102.122C128.985 103.746 127.837 104.978 125.709 104.978C123.777 104.978 122.279 103.97 122.181 101.968H123.721C123.791 102.92 124.491 103.648 125.695 103.648C126.885 103.648 127.473 102.92 127.473 101.968C127.473 100.624 126.605 100.162 124.939 100.162H124.575V98.8461H124.953C126.395 98.8321 127.277 98.4121 127.277 97.3201C127.277 96.4381 126.703 95.8501 125.611 95.8501C124.491 95.8501 123.973 96.5221 123.875 97.2361H122.321ZM129.891 106.868L130.885 103.004H132.621L130.927 106.868H129.891ZM134.898 104.922V96.1721H133.596V94.7161H136.508V104.922H134.898ZM143.572 104.922V102.794H138.504V101.59L143.208 94.8421H145.14V101.408H146.442V102.794H145.14V104.922H143.572ZM140.338 101.408H143.642V96.4661L140.338 101.408ZM147.513 97.1801C147.513 95.7941 148.423 94.9961 149.641 94.9961C150.859 94.9961 151.769 95.7941 151.769 97.1801C151.769 98.5801 150.859 99.3781 149.641 99.3781C148.423 99.3781 147.513 98.5801 147.513 97.1801ZM149.641 95.9621C149.095 95.9621 148.759 96.3121 148.759 97.1801C148.759 98.0481 149.095 98.4121 149.641 98.4121C150.173 98.4121 150.523 98.0481 150.523 97.1801C150.523 96.3121 150.173 95.9621 149.641 95.9621ZM148.899 104.922L154.485 95.1781H156.053L150.467 104.922H148.899ZM153.211 102.906C153.211 101.506 154.121 100.722 155.339 100.722C156.543 100.722 157.453 101.506 157.453 102.906C157.453 104.306 156.543 105.104 155.339 105.104C154.121 105.104 153.211 104.306 153.211 102.906ZM155.325 101.688C154.793 101.688 154.443 102.038 154.443 102.906C154.443 103.774 154.793 104.124 155.325 104.124C155.857 104.124 156.207 103.774 156.207 102.906C156.207 102.038 155.857 101.688 155.325 101.688Z" fill="#1AD598"/>
<path d="M94.999 110.5C101.626 110.5 106.999 105.351 106.999 99C106.999 92.6487 101.626 87.5 94.999 87.5C88.3716 87.5 82.999 92.6487 82.999 99C82.999 105.351 88.3716 110.5 94.999 110.5Z" fill="#1AD598" fill-opacity="0.2"/>
<path d="M91.2657 102.94C91.1048 102.777 91.0146 102.556 91.0146 102.327C91.0146 102.098 91.1048 101.878 91.2657 101.714L96.6777 96.255H93.5947C93.3646 96.255 93.1439 96.1636 92.9813 96.0009C92.8186 95.8382 92.7272 95.6176 92.7272 95.3875C92.7272 95.1574 92.8186 94.9368 92.9813 94.7741C93.1439 94.6114 93.3646 94.52 93.5947 94.52H98.7547C98.8717 94.52 98.9874 94.5442 99.0947 94.591H99.1027H99.1107C99.2046 94.634 99.29 94.6936 99.3627 94.767C99.4108 94.8159 99.4531 94.8703 99.4887 94.929L99.4947 94.94L99.5047 94.963C99.5771 95.0929 99.615 95.2393 99.6147 95.388V100.588C99.6147 100.816 99.524 101.035 99.3626 101.196C99.2013 101.358 98.9824 101.449 98.7542 101.449C98.5259 101.449 98.3071 101.358 98.1457 101.196C97.9843 101.035 97.8937 100.816 97.8937 100.588V97.482L92.4817 102.94C92.4021 103.02 92.3075 103.084 92.2031 103.128C92.0987 103.171 91.9868 103.194 91.8737 103.194C91.7606 103.194 91.6486 103.171 91.5442 103.128C91.4399 103.084 91.3452 103.02 91.2657 102.94Z" fill="#1AD598"/>
<path d="M97.0839 118.728V119.778H93.1079V123.04H96.6639V124.09H93.1079V127.45H97.0839V128.5H91.8339V118.728H97.0839ZM98.5356 124.636C98.5356 122.242 100.118 120.702 102.176 120.702C103.604 120.702 104.584 121.43 105.032 122.228V120.828H106.32V128.5H105.032V127.072C104.57 127.898 103.576 128.626 102.162 128.626C100.118 128.626 98.5356 127.016 98.5356 124.636ZM105.032 124.65C105.032 122.872 103.828 121.808 102.428 121.808C101.028 121.808 99.8376 122.83 99.8376 124.636C99.8376 126.442 101.028 127.506 102.428 127.506C103.828 127.506 105.032 126.456 105.032 124.65ZM109.747 124.328V128.5H108.473V120.828H109.747V122.074C110.181 121.22 111.007 120.688 112.225 120.688V122.004H111.889C110.671 122.004 109.747 122.55 109.747 124.328ZM119.309 128.5V124.16C119.309 122.592 118.455 121.794 117.167 121.794C115.865 121.794 114.969 122.606 114.969 124.258V128.5H113.695V120.828H114.969V121.92C115.473 121.122 116.397 120.688 117.433 120.688C119.211 120.688 120.569 121.78 120.569 123.978V128.5H119.309ZM122.65 128.5V120.828H123.924V128.5H122.65ZM123.308 119.582C122.818 119.582 122.44 119.204 122.44 118.714C122.44 118.224 122.818 117.846 123.308 117.846C123.77 117.846 124.148 118.224 124.148 118.714C124.148 119.204 123.77 119.582 123.308 119.582ZM131.71 128.5V124.16C131.71 122.592 130.856 121.794 129.568 121.794C128.266 121.794 127.37 122.606 127.37 124.258V128.5H126.096V120.828H127.37V121.92C127.874 121.122 128.798 120.688 129.834 120.688C131.612 120.688 132.97 121.78 132.97 123.978V128.5H131.71ZM134.575 124.636C134.575 122.242 136.157 120.702 138.215 120.702C139.615 120.702 140.623 121.402 141.071 122.228V120.828H142.359V128.668C142.359 130.782 140.945 132.28 138.691 132.28C136.675 132.28 135.233 131.258 134.981 129.62H136.241C136.521 130.544 137.431 131.174 138.691 131.174C140.049 131.174 141.071 130.306 141.071 128.668V127.058C140.609 127.884 139.615 128.626 138.215 128.626C136.157 128.626 134.575 127.016 134.575 124.636ZM141.071 124.65C141.071 122.872 139.867 121.808 138.467 121.808C137.067 121.808 135.877 122.83 135.877 124.636C135.877 126.442 137.067 127.506 138.467 127.506C139.867 127.506 141.071 126.456 141.071 124.65ZM150.028 126.414C150.028 127.674 148.922 128.626 147.228 128.626C145.436 128.626 144.176 127.646 144.092 126.246H145.408C145.478 126.988 146.136 127.548 147.214 127.548C148.222 127.548 148.782 127.044 148.782 126.414C148.782 124.706 144.246 125.7 144.246 122.844C144.246 121.668 145.352 120.702 147.06 120.702C148.754 120.702 149.874 121.612 149.958 123.11H148.684C148.628 122.34 148.04 121.78 147.018 121.78C146.08 121.78 145.52 122.228 145.52 122.844C145.52 124.664 149.972 123.67 150.028 126.414Z" fill="#777E90"/>
<path d="M454 85.5H370C364.477 85.5 360 89.9772 360 95.5V122.5C360 128.023 364.477 132.5 370 132.5H454C459.523 132.5 464 128.023 464 122.5V95.5C464 89.9772 459.523 85.5 454 85.5Z" fill="white"/>
<path d="M406.003 105.065C408.033 105.065 409.783 106.087 410.525 107.991H408.607C408.089 107.011 407.165 106.521 406.003 106.521C404.071 106.521 402.671 107.893 402.671 110.035C402.671 112.177 404.071 113.563 406.003 113.563C407.767 113.563 408.873 112.499 409.111 110.861H405.457V109.587H410.819V110.833C410.525 113.087 408.621 115.005 406.003 115.005C403.259 115.005 401.033 112.961 401.033 110.035C401.033 107.123 403.259 105.065 406.003 105.065ZM413.989 110.861V114.921H412.393V107.207H413.989V108.327C414.437 107.557 415.207 107.081 416.299 107.081V108.733H415.893C414.717 108.733 413.989 109.223 413.989 110.861ZM425.116 111.057C425.116 113.479 423.324 115.047 421.112 115.047C418.914 115.047 417.248 113.479 417.248 111.057C417.248 108.635 418.984 107.081 421.182 107.081C423.38 107.081 425.116 108.635 425.116 111.057ZM418.872 111.057C418.872 112.807 419.908 113.661 421.112 113.661C422.302 113.661 423.478 112.807 423.478 111.057C423.478 109.307 422.344 108.467 421.154 108.467C419.95 108.467 418.872 109.307 418.872 111.057ZM428.192 114.921L425.784 107.207H427.408L429.018 113.409L430.656 107.207H432.322L433.89 113.381L435.486 107.207H437.054L434.66 114.921H432.98L431.426 109.223L429.872 114.921H428.192ZM438.498 112.779V108.509H437.588V107.207H438.498V105.289H440.108V107.207H441.984V108.509H440.108V112.779C440.108 113.353 440.332 113.591 441.004 113.591H441.984V114.921H440.724C439.352 114.921 438.498 114.347 438.498 112.779ZM443.455 114.921V104.561H445.051V108.103C445.583 107.459 446.451 107.081 447.445 107.081C449.167 107.081 450.511 108.215 450.511 110.371V114.921H448.929V110.609C448.929 109.195 448.159 108.467 446.997 108.467C445.821 108.467 445.051 109.195 445.051 110.609V114.921H443.455Z" fill="#1AD598"/>
<path d="M383.999 120.421C390.626 120.421 395.999 115.272 395.999 108.921C395.999 102.57 390.626 97.4209 383.999 97.4209C377.372 97.4209 371.999 102.57 371.999 108.921C371.999 115.272 377.372 120.421 383.999 120.421Z" fill="#1AD598" fill-opacity="0.2"/>
<path d="M380.267 112.861C380.106 112.697 380.016 112.477 380.016 112.248C380.016 112.019 380.106 111.798 380.267 111.635L385.679 106.176H382.596C382.366 106.176 382.145 106.085 381.982 105.922C381.82 105.759 381.728 105.538 381.728 105.308C381.728 105.078 381.82 104.858 381.982 104.695C382.145 104.532 382.366 104.441 382.596 104.441H387.756C387.873 104.441 387.988 104.465 388.096 104.512H388.104H388.112C388.206 104.555 388.291 104.615 388.364 104.688C388.412 104.737 388.454 104.791 388.49 104.85L388.496 104.861L388.506 104.884C388.578 105.014 388.616 105.16 388.616 105.309V110.509C388.616 110.737 388.525 110.956 388.364 111.117C388.202 111.279 387.983 111.369 387.755 111.369C387.527 111.369 387.308 111.279 387.147 111.117C386.985 110.956 386.895 110.737 386.895 110.509V107.403L381.483 112.861C381.403 112.941 381.308 113.005 381.204 113.049C381.1 113.092 380.988 113.115 380.875 113.115C380.762 113.115 380.65 113.092 380.545 113.049C380.441 113.005 380.346 112.941 380.267 112.861Z" fill="#1AD598"/>
<defs>
<linearGradient id="paint0_linear_419_1189" x1="287" y1="0" x2="287" y2="542" gradientUnits="userSpaceOnUse">
<stop stop-color="#5C96FD"/>
<stop offset="1" stop-color="#6C4FFE"/>
</linearGradient>
<linearGradient id="paint1_linear_419_1189" x1="287" y1="26" x2="287" y2="516" gradientUnits="userSpaceOnUse">
<stop stop-color="white" stop-opacity="0"/>
<stop offset="1" stop-color="white"/>
</linearGradient>
<linearGradient id="paint2_linear_419_1189" x1="152.67" y1="197.141" x2="152.67" y2="457.066" gradientUnits="userSpaceOnUse">
<stop stop-color="#5C96FD"/>
<stop offset="1" stop-color="#6C4FFE"/>
</linearGradient>
<linearGradient id="paint3_linear_419_1189" x1="421.511" y1="197.141" x2="421.511" y2="457.066" gradientUnits="userSpaceOnUse">
<stop stop-color="#5C96FD"/>
<stop offset="1" stop-color="#6C4FFE"/>
</linearGradient>
<linearGradient id="paint4_linear_419_1189" x1="288.884" y1="84.9331" x2="288.884" y2="457.066" gradientUnits="userSpaceOnUse">
<stop stop-color="#5C96FD"/>
<stop offset="1" stop-color="#6C4FFE"/>
</linearGradient>
<linearGradient id="paint5_linear_419_1189" x1="360.205" y1="155.783" x2="360.205" y2="457.066" gradientUnits="userSpaceOnUse">
<stop stop-color="#5C96FD"/>
<stop offset="1" stop-color="#6C4FFE"/>
</linearGradient>
<linearGradient id="paint6_linear_419_1189" x1="217.723" y1="155.783" x2="217.723" y2="457.066" gradientUnits="userSpaceOnUse">
<stop stop-color="#5C96FD"/>
<stop offset="1" stop-color="#6C4FFE"/>
</linearGradient>
<linearGradient id="paint7_linear_419_1189" x1="92.016" y1="261.941" x2="92.016" y2="457.066" gradientUnits="userSpaceOnUse">
<stop stop-color="#5C96FD"/>
<stop offset="1" stop-color="#6C4FFE"/>
</linearGradient>
<linearGradient id="paint8_linear_419_1189" x1="482.165" y1="261.942" x2="482.165" y2="457.066" gradientUnits="userSpaceOnUse">
<stop stop-color="#5C96FD"/>
<stop offset="1" stop-color="#6C4FFE"/>
</linearGradient>
</defs>
</svg>
