<svg width="470" height="130" viewBox="0 0 470 130" fill="none" xmlns="http://www.w3.org/2000/svg">
<g filter="url(#filter0_d_8_598)">
<path d="M15 11C15 6.58172 18.5817 3 23 3H447C451.418 3 455 6.58172 455 11V95C455 99.4183 451.418 103 447 103H23C18.5817 103 15 99.4183 15 95V11Z" fill="white"/>
</g>
<g filter="url(#filter1_d_8_598)">
<path d="M39 23C39 20.7909 40.7909 19 43 19H158C160.209 19 162 20.7909 162 23V83C162 85.2091 160.209 87 158 87H43C40.7909 87 39 85.2091 39 83V23Z" fill="white"/>
</g>
<path d="M71.4659 62V41.6364H83.6761V43.8239H73.9318V50.7045H82.7614V52.892H73.9318V62H71.4659ZM92.8636 62.3182C91.392 62.3182 90.1226 61.9934 89.0554 61.3438C87.9948 60.6875 87.1761 59.7727 86.5994 58.5994C86.0294 57.4195 85.7443 56.0473 85.7443 54.483C85.7443 52.9186 86.0294 51.5398 86.5994 50.3466C87.1761 49.1468 87.9782 48.2121 89.0057 47.5426C90.0398 46.8665 91.2462 46.5284 92.625 46.5284C93.4205 46.5284 94.206 46.661 94.9815 46.9261C95.7571 47.1913 96.4631 47.6222 97.0994 48.2188C97.7358 48.8087 98.2429 49.5909 98.6207 50.5653C98.9986 51.5398 99.1875 52.7396 99.1875 54.1648V55.1591H87.4148V53.1307H96.8011C96.8011 52.2689 96.6288 51.5 96.2841 50.8239C95.946 50.1477 95.4621 49.6141 94.8324 49.223C94.2093 48.8319 93.4735 48.6364 92.625 48.6364C91.6903 48.6364 90.8816 48.8684 90.1989 49.3324C89.5227 49.7898 89.0024 50.3864 88.6378 51.1222C88.2732 51.858 88.0909 52.6468 88.0909 53.4886V54.8409C88.0909 55.9943 88.2898 56.9721 88.6875 57.7741C89.0919 58.5696 89.652 59.1761 90.3679 59.5938C91.0838 60.0047 91.9157 60.2102 92.8636 60.2102C93.4801 60.2102 94.0369 60.1241 94.5341 59.9517C95.0379 59.7727 95.4721 59.5076 95.8366 59.1562C96.2012 58.7983 96.483 58.3542 96.6818 57.8239L98.9489 58.4602C98.7102 59.2292 98.3092 59.9053 97.7457 60.4886C97.1823 61.0653 96.4863 61.5161 95.6577 61.8409C94.8291 62.1591 93.8977 62.3182 92.8636 62.3182ZM109.161 62.3182C107.689 62.3182 106.42 61.9934 105.352 61.3438C104.292 60.6875 103.473 59.7727 102.896 58.5994C102.326 57.4195 102.041 56.0473 102.041 54.483C102.041 52.9186 102.326 51.5398 102.896 50.3466C103.473 49.1468 104.275 48.2121 105.303 47.5426C106.337 46.8665 107.543 46.5284 108.922 46.5284C109.717 46.5284 110.503 46.661 111.278 46.9261C112.054 47.1913 112.76 47.6222 113.396 48.2188C114.033 48.8087 114.54 49.5909 114.918 50.5653C115.295 51.5398 115.484 52.7396 115.484 54.1648V55.1591H103.712V53.1307H113.098C113.098 52.2689 112.926 51.5 112.581 50.8239C112.243 50.1477 111.759 49.6141 111.129 49.223C110.506 48.8319 109.77 48.6364 108.922 48.6364C107.987 48.6364 107.179 48.8684 106.496 49.3324C105.82 49.7898 105.299 50.3864 104.935 51.1222C104.57 51.858 104.388 52.6468 104.388 53.4886V54.8409C104.388 55.9943 104.587 56.9721 104.984 57.7741C105.389 58.5696 105.949 59.1761 106.665 59.5938C107.381 60.0047 108.213 60.2102 109.161 60.2102C109.777 60.2102 110.334 60.1241 110.831 59.9517C111.335 59.7727 111.769 59.5076 112.134 59.1562C112.498 58.7983 112.78 58.3542 112.979 57.8239L115.246 58.4602C115.007 59.2292 114.606 59.9053 114.043 60.4886C113.479 61.0653 112.783 61.5161 111.955 61.8409C111.126 62.1591 110.195 62.3182 109.161 62.3182ZM129.872 50.1477L127.764 50.7443C127.632 50.393 127.436 50.0516 127.178 49.7202C126.926 49.3821 126.581 49.1037 126.143 48.8849C125.706 48.6662 125.146 48.5568 124.463 48.5568C123.528 48.5568 122.75 48.7723 122.126 49.2031C121.51 49.6274 121.202 50.1676 121.202 50.8239C121.202 51.4072 121.414 51.8679 121.838 52.206C122.262 52.544 122.925 52.8258 123.827 53.0511L126.094 53.608C127.459 53.9394 128.477 54.4465 129.146 55.1293C129.816 55.8054 130.151 56.6771 130.151 57.7443C130.151 58.6193 129.899 59.4015 129.395 60.0909C128.898 60.7803 128.202 61.3239 127.307 61.7216C126.412 62.1193 125.371 62.3182 124.185 62.3182C122.627 62.3182 121.338 61.9801 120.317 61.304C119.296 60.6278 118.65 59.6402 118.378 58.3409L120.605 57.7841C120.817 58.6061 121.218 59.2225 121.808 59.6335C122.405 60.0445 123.184 60.25 124.145 60.25C125.239 60.25 126.107 60.018 126.75 59.554C127.4 59.0833 127.724 58.5199 127.724 57.8636C127.724 57.3333 127.539 56.8892 127.168 56.5312C126.796 56.1667 126.226 55.8949 125.457 55.7159L122.912 55.1193C121.513 54.7879 120.486 54.2741 119.83 53.5781C119.18 52.8755 118.855 51.9972 118.855 50.9432C118.855 50.0814 119.097 49.3191 119.581 48.6562C120.071 47.9934 120.738 47.473 121.58 47.0952C122.428 46.7173 123.389 46.5284 124.463 46.5284C125.974 46.5284 127.161 46.8598 128.023 47.5227C128.891 48.1856 129.508 49.0606 129.872 50.1477Z" fill="#6C4FFE"/>
<path d="M178.688 32.416C178.688 29.072 181.136 26.704 184.256 26.704C186.672 26.704 188.592 27.92 189.424 30.08H187.68C187.072 28.736 185.888 27.984 184.256 27.984C181.92 27.984 180.176 29.68 180.176 32.416C180.176 35.136 181.92 36.832 184.256 36.832C185.888 36.832 187.072 36.08 187.68 34.752H189.424C188.592 36.896 186.672 38.096 184.256 38.096C181.136 38.096 178.688 35.76 178.688 32.416ZM199.911 33.6C199.911 36.384 197.911 38.144 195.415 38.144C192.935 38.144 191.047 36.384 191.047 33.6C191.047 30.832 192.999 29.088 195.479 29.088C197.975 29.088 199.911 30.832 199.911 33.6ZM192.535 33.6C192.535 35.824 193.895 36.864 195.415 36.864C196.935 36.864 198.423 35.824 198.423 33.6C198.423 31.392 196.967 30.352 195.463 30.352C193.927 30.352 192.535 31.392 192.535 33.6ZM214.482 38V33.04C214.482 31.248 213.522 30.336 212.082 30.336C210.61 30.336 209.602 31.28 209.602 33.168V38H208.162V33.04C208.162 31.248 207.202 30.336 205.762 30.336C204.29 30.336 203.282 31.28 203.282 33.168V38H201.826V29.232H203.282V30.496C203.858 29.568 204.898 29.072 206.05 29.072C207.49 29.072 208.69 29.712 209.266 31.024C209.778 29.76 211.026 29.072 212.37 29.072C214.37 29.072 215.922 30.32 215.922 32.832V38H214.482ZM219.766 30.848C220.294 29.92 221.446 29.088 223.046 29.088C225.398 29.088 227.206 30.848 227.206 33.584C227.206 36.304 225.398 38.144 223.046 38.144C221.446 38.144 220.31 37.28 219.766 36.384V42.16H218.31V29.232H219.766V30.848ZM225.718 33.584C225.718 31.52 224.358 30.352 222.742 30.352C221.158 30.352 219.766 31.568 219.766 33.6C219.766 35.664 221.158 36.864 222.742 36.864C224.358 36.864 225.718 35.648 225.718 33.584ZM232.851 30.32C231.427 30.32 230.243 31.264 230.083 32.976H235.619C235.635 31.264 234.355 30.32 232.851 30.32ZM236.947 35.296C236.499 36.896 235.091 38.144 232.915 38.144C230.419 38.144 228.579 36.384 228.579 33.6C228.579 30.832 230.355 29.088 232.915 29.088C235.459 29.088 237.123 30.88 237.123 33.28C237.123 33.6 237.107 33.856 237.075 34.16H230.067C230.179 35.936 231.427 36.912 232.915 36.912C234.227 36.912 235.059 36.24 235.379 35.296H236.947ZM239.365 35.6V30.432H238.229V29.232H239.365V27.024H240.821V29.232H243.109V30.432H240.821V35.6C240.821 36.464 241.141 36.768 242.036 36.768H243.109V38H241.797C240.245 38 239.365 37.36 239.365 35.6ZM244.873 38V29.232H246.329V38H244.873ZM245.625 27.808C245.065 27.808 244.633 27.376 244.633 26.816C244.633 26.256 245.065 25.824 245.625 25.824C246.153 25.824 246.585 26.256 246.585 26.816C246.585 27.376 246.153 27.808 245.625 27.808ZM249.13 35.6V30.432H247.994V29.232H249.13V27.024H250.586V29.232H252.874V30.432H250.586V35.6C250.586 36.464 250.906 36.768 251.802 36.768H252.874V38H251.562C250.01 38 249.13 37.36 249.13 35.6ZM254.638 38V29.232H256.094V38H254.638ZM255.39 27.808C254.83 27.808 254.398 27.376 254.398 26.816C254.398 26.256 254.83 25.824 255.39 25.824C255.918 25.824 256.35 26.256 256.35 26.816C256.35 27.376 255.918 27.808 255.39 27.808ZM257.536 29.232H259.104L261.84 36.656L264.56 29.232H266.112L262.672 38H260.976L257.536 29.232ZM271.273 30.32C269.849 30.32 268.664 31.264 268.505 32.976H274.041C274.057 31.264 272.777 30.32 271.273 30.32ZM275.369 35.296C274.921 36.896 273.513 38.144 271.337 38.144C268.841 38.144 267.001 36.384 267.001 33.6C267.001 30.832 268.777 29.088 271.337 29.088C273.881 29.088 275.545 30.88 275.545 33.28C275.545 33.6 275.529 33.856 275.497 34.16H268.489C268.601 35.936 269.849 36.912 271.337 36.912C272.649 36.912 273.481 36.24 273.801 35.296H275.369ZM281.732 38V26.848H283.188V38H281.732ZM292.086 38V33.04C292.086 31.248 291.11 30.336 289.638 30.336C288.15 30.336 287.126 31.264 287.126 33.152V38H285.67V29.232H287.126V30.48C287.702 29.568 288.758 29.072 289.942 29.072C291.974 29.072 293.526 30.32 293.526 32.832V38H292.086ZM296.224 35.6V30.432H295.088V29.232H296.224V27.024H297.68V29.232H299.968V30.432H297.68V35.6C297.68 36.464 298 36.768 298.896 36.768H299.968V38H298.656C297.104 38 296.224 37.36 296.224 35.6ZM305.46 30.32C304.036 30.32 302.852 31.264 302.692 32.976H308.228C308.244 31.264 306.964 30.32 305.46 30.32ZM309.556 35.296C309.108 36.896 307.7 38.144 305.524 38.144C303.028 38.144 301.188 36.384 301.188 33.6C301.188 30.832 302.964 29.088 305.524 29.088C308.068 29.088 309.732 30.88 309.732 33.28C309.732 33.6 309.716 33.856 309.684 34.16H302.676C302.788 35.936 304.036 36.912 305.524 36.912C306.836 36.912 307.668 36.24 307.988 35.296H309.556ZM313.11 33.232V38H311.654V29.232H313.11V30.656C313.606 29.68 314.55 29.072 315.942 29.072V30.576H315.558C314.166 30.576 313.11 31.2 313.11 33.232ZM321.351 30.32C319.927 30.32 318.743 31.264 318.583 32.976H324.119C324.135 31.264 322.855 30.32 321.351 30.32ZM325.447 35.296C324.999 36.896 323.591 38.144 321.415 38.144C318.919 38.144 317.079 36.384 317.079 33.6C317.079 30.832 318.855 29.088 321.415 29.088C323.959 29.088 325.623 30.88 325.623 33.28C325.623 33.6 325.607 33.856 325.575 34.16H318.567C318.679 35.936 319.927 36.912 321.415 36.912C322.727 36.912 323.559 36.24 323.879 35.296H325.447ZM333.849 35.616C333.849 37.056 332.585 38.144 330.649 38.144C328.601 38.144 327.161 37.024 327.065 35.424H328.569C328.649 36.272 329.401 36.912 330.633 36.912C331.785 36.912 332.425 36.336 332.425 35.616C332.425 33.664 327.241 34.8 327.241 31.536C327.241 30.192 328.505 29.088 330.457 29.088C332.393 29.088 333.673 30.128 333.769 31.84H332.313C332.249 30.96 331.577 30.32 330.409 30.32C329.337 30.32 328.697 30.832 328.697 31.536C328.697 33.616 333.785 32.48 333.849 35.616ZM336.224 35.6V30.432H335.088V29.232H336.224V27.024H337.68V29.232H339.968V30.432H337.68V35.6C337.68 36.464 338 36.768 338.896 36.768H339.968V38H338.656C337.104 38 336.224 37.36 336.224 35.6ZM351.966 30.128C351.966 28.864 351.262 28.048 349.598 28.048H347.454V32.272H349.598C351.246 32.272 351.966 31.376 351.966 30.128ZM345.998 26.848H349.598C352.222 26.848 353.47 28.304 353.47 30.128C353.47 31.552 352.686 32.912 350.814 33.328L353.614 38H351.87L349.214 33.44H347.454V38H345.998V26.848ZM355.188 33.584C355.188 30.848 356.996 29.088 359.348 29.088C360.98 29.088 362.1 29.92 362.612 30.832V29.232H364.084V38H362.612V36.368C362.084 37.312 360.948 38.144 359.332 38.144C356.996 38.144 355.188 36.304 355.188 33.584ZM362.612 33.6C362.612 31.568 361.236 30.352 359.636 30.352C358.036 30.352 356.676 31.52 356.676 33.584C356.676 35.648 358.036 36.864 359.636 36.864C361.236 36.864 362.612 35.664 362.612 33.6ZM366.865 35.6V30.432H365.729V29.232H366.865V27.024H368.321V29.232H370.609V30.432H368.321V35.6C368.321 36.464 368.641 36.768 369.536 36.768H370.609V38H369.297C367.745 38 366.865 37.36 366.865 35.6ZM376.101 30.32C374.677 30.32 373.493 31.264 373.333 32.976H378.869C378.885 31.264 377.605 30.32 376.101 30.32ZM380.197 35.296C379.749 36.896 378.341 38.144 376.165 38.144C373.669 38.144 371.829 36.384 371.829 33.6C371.829 30.832 373.605 29.088 376.165 29.088C378.709 29.088 380.373 30.88 380.373 33.28C380.373 33.6 380.357 33.856 380.325 34.16H373.317C373.429 35.936 374.677 36.912 376.165 36.912C377.477 36.912 378.309 36.24 378.629 35.296H380.197ZM388.599 35.616C388.599 37.056 387.335 38.144 385.399 38.144C383.351 38.144 381.911 37.024 381.815 35.424H383.319C383.399 36.272 384.151 36.912 385.383 36.912C386.535 36.912 387.175 36.336 387.175 35.616C387.175 33.664 381.991 34.8 381.991 31.536C381.991 30.192 383.255 29.088 385.207 29.088C387.143 29.088 388.423 30.128 388.519 31.84H387.063C386.999 30.96 386.327 30.32 385.159 30.32C384.087 30.32 383.447 30.832 383.447 31.536C383.447 33.616 388.535 32.48 388.599 35.616Z" fill="#2E2C34"/>
<path d="M179.078 52.242H180.352V60.964H183.768V62H179.078V52.242ZM192.401 58.15C192.401 60.586 190.651 62.126 188.467 62.126C186.297 62.126 184.645 60.586 184.645 58.15C184.645 55.728 186.353 54.202 188.523 54.202C190.707 54.202 192.401 55.728 192.401 58.15ZM185.947 58.15C185.947 60.096 187.137 61.006 188.467 61.006C189.797 61.006 191.099 60.096 191.099 58.15C191.099 56.218 189.825 55.308 188.509 55.308C187.165 55.308 185.947 56.218 185.947 58.15ZM195.35 57.828V62H194.076V54.328H195.35V55.574C195.784 54.72 196.61 54.188 197.828 54.188V55.504H197.492C196.274 55.504 195.35 56.05 195.35 57.828ZM202.561 55.28C201.315 55.28 200.279 56.106 200.139 57.604H204.983C204.997 56.106 203.877 55.28 202.561 55.28ZM206.145 59.634C205.753 61.034 204.521 62.126 202.617 62.126C200.433 62.126 198.823 60.586 198.823 58.15C198.823 55.728 200.377 54.202 202.617 54.202C204.843 54.202 206.299 55.77 206.299 57.87C206.299 58.15 206.285 58.374 206.257 58.64H200.125C200.223 60.194 201.315 61.048 202.617 61.048C203.765 61.048 204.493 60.46 204.773 59.634H206.145ZM219.054 62V57.66C219.054 56.092 218.214 55.294 216.954 55.294C215.666 55.294 214.784 56.12 214.784 57.772V62H213.524V57.66C213.524 56.092 212.684 55.294 211.424 55.294C210.136 55.294 209.254 56.12 209.254 57.772V62H207.98V54.328H209.254V55.434C209.758 54.622 210.668 54.188 211.676 54.188C212.936 54.188 213.986 54.748 214.49 55.896C214.938 54.79 216.03 54.188 217.206 54.188C218.956 54.188 220.314 55.28 220.314 57.478V62H219.054ZM226.137 62V54.328H227.411V62H226.137ZM226.795 53.082C226.305 53.082 225.927 52.704 225.927 52.214C225.927 51.724 226.305 51.346 226.795 51.346C227.257 51.346 227.635 51.724 227.635 52.214C227.635 52.704 227.257 53.082 226.795 53.082ZM230.856 55.742C231.318 54.93 232.326 54.202 233.726 54.202C235.784 54.202 237.366 55.742 237.366 58.136C237.366 60.516 235.784 62.126 233.726 62.126C232.326 62.126 231.332 61.37 230.856 60.586V65.64H229.582V54.328H230.856V55.742ZM236.064 58.136C236.064 56.33 234.874 55.308 233.46 55.308C232.074 55.308 230.856 56.372 230.856 58.15C230.856 59.956 232.074 61.006 233.46 61.006C234.874 61.006 236.064 59.942 236.064 58.136ZM244.559 59.914C244.559 61.174 243.453 62.126 241.759 62.126C239.967 62.126 238.707 61.146 238.623 59.746H239.939C240.009 60.488 240.667 61.048 241.745 61.048C242.753 61.048 243.313 60.544 243.313 59.914C243.313 58.206 238.777 59.2 238.777 56.344C238.777 55.168 239.883 54.202 241.591 54.202C243.285 54.202 244.405 55.112 244.489 56.61H243.215C243.159 55.84 242.571 55.28 241.549 55.28C240.611 55.28 240.051 55.728 240.051 56.344C240.051 58.164 244.503 57.17 244.559 59.914ZM253.161 54.328V62H251.887V60.866C251.397 61.664 250.459 62.112 249.437 62.112C247.673 62.112 246.287 61.02 246.287 58.822V54.328H247.547V58.654C247.547 60.208 248.401 61.006 249.689 61.006C251.005 61.006 251.887 60.194 251.887 58.542V54.328H253.161ZM266.386 62V57.66C266.386 56.092 265.546 55.294 264.286 55.294C262.998 55.294 262.116 56.12 262.116 57.772V62H260.856V57.66C260.856 56.092 260.016 55.294 258.756 55.294C257.468 55.294 256.586 56.12 256.586 57.772V62H255.312V54.328H256.586V55.434C257.09 54.622 258 54.188 259.008 54.188C260.268 54.188 261.318 54.748 261.822 55.896C262.27 54.79 263.362 54.188 264.538 54.188C266.288 54.188 267.646 55.28 267.646 57.478V62H266.386ZM272.993 58.136C272.993 55.742 274.575 54.202 276.647 54.202C277.851 54.202 278.957 54.818 279.489 55.7V51.64H280.777V62H279.489V60.558C279.027 61.412 278.033 62.126 276.633 62.126C274.575 62.126 272.993 60.516 272.993 58.136ZM279.489 58.15C279.489 56.372 278.285 55.308 276.885 55.308C275.485 55.308 274.295 56.33 274.295 58.136C274.295 59.942 275.485 61.006 276.885 61.006C278.285 61.006 279.489 59.956 279.489 58.15ZM290.21 58.15C290.21 60.586 288.46 62.126 286.276 62.126C284.106 62.126 282.454 60.586 282.454 58.15C282.454 55.728 284.162 54.202 286.332 54.202C288.516 54.202 290.21 55.728 290.21 58.15ZM283.756 58.15C283.756 60.096 284.946 61.006 286.276 61.006C287.606 61.006 288.908 60.096 288.908 58.15C288.908 56.218 287.634 55.308 286.318 55.308C284.974 55.308 283.756 56.218 283.756 58.15ZM291.885 62V51.64H293.159V62H291.885ZM302.61 58.15C302.61 60.586 300.86 62.126 298.676 62.126C296.506 62.126 294.854 60.586 294.854 58.15C294.854 55.728 296.562 54.202 298.732 54.202C300.916 54.202 302.61 55.728 302.61 58.15ZM296.156 58.15C296.156 60.096 297.346 61.006 298.676 61.006C300.006 61.006 301.308 60.096 301.308 58.15C301.308 56.218 300.034 55.308 298.718 55.308C297.374 55.308 296.156 56.218 296.156 58.15ZM305.559 57.828V62H304.285V54.328H305.559V55.574C305.993 54.72 306.819 54.188 308.037 54.188V55.504H307.701C306.483 55.504 305.559 56.05 305.559 57.828ZM318.756 59.914C318.756 61.174 317.65 62.126 315.956 62.126C314.164 62.126 312.904 61.146 312.82 59.746H314.136C314.206 60.488 314.864 61.048 315.942 61.048C316.95 61.048 317.51 60.544 317.51 59.914C317.51 58.206 312.974 59.2 312.974 56.344C312.974 55.168 314.08 54.202 315.788 54.202C317.482 54.202 318.602 55.112 318.686 56.61H317.412C317.356 55.84 316.768 55.28 315.746 55.28C314.808 55.28 314.248 55.728 314.248 56.344C314.248 58.164 318.7 57.17 318.756 59.914ZM320.555 62V54.328H321.829V62H320.555ZM321.213 53.082C320.723 53.082 320.345 52.704 320.345 52.214C320.345 51.724 320.723 51.346 321.213 51.346C321.675 51.346 322.053 51.724 322.053 52.214C322.053 52.704 321.675 53.082 321.213 53.082ZM324.28 59.9V55.378H323.286V54.328H324.28V52.396H325.554V54.328H327.556V55.378H325.554V59.9C325.554 60.656 325.834 60.922 326.618 60.922H327.556V62H326.408C325.05 62 324.28 61.44 324.28 59.9ZM332.356 58.136C332.356 55.742 333.938 54.202 335.996 54.202C337.424 54.202 338.404 54.93 338.852 55.728V54.328H340.14V62H338.852V60.572C338.39 61.398 337.396 62.126 335.982 62.126C333.938 62.126 332.356 60.516 332.356 58.136ZM338.852 58.15C338.852 56.372 337.648 55.308 336.248 55.308C334.848 55.308 333.658 56.33 333.658 58.136C333.658 59.942 334.848 61.006 336.248 61.006C337.648 61.006 338.852 59.956 338.852 58.15ZM353.367 62V57.66C353.367 56.092 352.527 55.294 351.267 55.294C349.979 55.294 349.097 56.12 349.097 57.772V62H347.837V57.66C347.837 56.092 346.997 55.294 345.737 55.294C344.449 55.294 343.567 56.12 343.567 57.772V62H342.293V54.328H343.567V55.434C344.071 54.622 344.981 54.188 345.989 54.188C347.249 54.188 348.299 54.748 348.803 55.896C349.251 54.79 350.343 54.188 351.519 54.188C353.269 54.188 354.627 55.28 354.627 57.478V62H353.367ZM359.979 55.28C358.733 55.28 357.697 56.106 357.557 57.604H362.401C362.415 56.106 361.295 55.28 359.979 55.28ZM363.563 59.634C363.171 61.034 361.939 62.126 360.035 62.126C357.851 62.126 356.241 60.586 356.241 58.15C356.241 55.728 357.795 54.202 360.035 54.202C362.261 54.202 363.717 55.77 363.717 57.87C363.717 58.15 363.703 58.374 363.675 58.64H357.543C357.641 60.194 358.733 61.048 360.035 61.048C361.183 61.048 361.911 60.46 362.191 59.634H363.563ZM365.678 59.9V55.378H364.684V54.328H365.678V52.396H366.952V54.328H368.954V55.378H366.952V59.9C366.952 60.656 367.232 60.922 368.016 60.922H368.954V62H367.806C366.448 62 365.678 61.44 365.678 59.9ZM369.392 64.002L370.414 60.236H371.814L370.246 64.002H369.392ZM178.602 78.15C178.602 75.742 180.156 74.202 182.34 74.202C184.244 74.202 185.49 75.182 185.882 76.792H184.51C184.244 75.868 183.474 75.28 182.34 75.28C180.94 75.28 179.904 76.274 179.904 78.15C179.904 80.054 180.94 81.048 182.34 81.048C183.474 81.048 184.23 80.502 184.51 79.536H185.882C185.49 81.062 184.244 82.126 182.34 82.126C180.156 82.126 178.602 80.586 178.602 78.15ZM194.862 78.15C194.862 80.586 193.112 82.126 190.928 82.126C188.758 82.126 187.106 80.586 187.106 78.15C187.106 75.728 188.814 74.202 190.984 74.202C193.168 74.202 194.862 75.728 194.862 78.15ZM188.408 78.15C188.408 80.096 189.598 81.006 190.928 81.006C192.258 81.006 193.56 80.096 193.56 78.15C193.56 76.218 192.286 75.308 190.97 75.308C189.626 75.308 188.408 76.218 188.408 78.15ZM202.151 82V77.66C202.151 76.092 201.297 75.294 200.009 75.294C198.707 75.294 197.811 76.106 197.811 77.758V82H196.537V74.328H197.811V75.42C198.315 74.622 199.239 74.188 200.275 74.188C202.053 74.188 203.411 75.28 203.411 77.478V82H202.151ZM211.008 79.914C211.008 81.174 209.902 82.126 208.208 82.126C206.416 82.126 205.156 81.146 205.072 79.746H206.388C206.458 80.488 207.116 81.048 208.194 81.048C209.202 81.048 209.762 80.544 209.762 79.914C209.762 78.206 205.226 79.2 205.226 76.344C205.226 75.168 206.332 74.202 208.04 74.202C209.734 74.202 210.854 75.112 210.938 76.61H209.664C209.608 75.84 209.02 75.28 207.998 75.28C207.06 75.28 206.5 75.728 206.5 76.344C206.5 78.164 210.952 77.17 211.008 79.914ZM216.069 75.28C214.823 75.28 213.787 76.106 213.647 77.604H218.491C218.505 76.106 217.385 75.28 216.069 75.28ZM219.653 79.634C219.261 81.034 218.029 82.126 216.125 82.126C213.941 82.126 212.331 80.586 212.331 78.15C212.331 75.728 213.885 74.202 216.125 74.202C218.351 74.202 219.807 75.77 219.807 77.87C219.807 78.15 219.793 78.374 219.765 78.64H213.633C213.731 80.194 214.823 81.048 216.125 81.048C217.273 81.048 218.001 80.46 218.281 79.634H219.653ZM221.012 78.15C221.012 75.742 222.566 74.202 224.75 74.202C226.654 74.202 227.9 75.182 228.292 76.792H226.92C226.654 75.868 225.884 75.28 224.75 75.28C223.35 75.28 222.314 76.274 222.314 78.15C222.314 80.054 223.35 81.048 224.75 81.048C225.884 81.048 226.64 80.502 226.92 79.536H228.292C227.9 81.062 226.654 82.126 224.75 82.126C222.566 82.126 221.012 80.586 221.012 78.15ZM230.272 79.9V75.378H229.278V74.328H230.272V72.396H231.546V74.328H233.548V75.378H231.546V79.9C231.546 80.656 231.826 80.922 232.61 80.922H233.548V82H232.4C231.042 82 230.272 81.44 230.272 79.9ZM238.354 75.28C237.108 75.28 236.072 76.106 235.932 77.604H240.776C240.79 76.106 239.67 75.28 238.354 75.28ZM241.938 79.634C241.546 81.034 240.314 82.126 238.41 82.126C236.226 82.126 234.616 80.586 234.616 78.15C234.616 75.728 236.17 74.202 238.41 74.202C240.636 74.202 242.092 75.77 242.092 77.87C242.092 78.15 242.078 78.374 242.05 78.64H235.918C236.016 80.194 237.108 81.048 238.41 81.048C239.558 81.048 240.286 80.46 240.566 79.634H241.938ZM244.053 79.9V75.378H243.059V74.328H244.053V72.396H245.327V74.328H247.329V75.378H245.327V79.9C245.327 80.656 245.607 80.922 246.391 80.922H247.329V82H246.181C244.823 82 244.053 81.44 244.053 79.9ZM255.677 74.328V82H254.403V80.866C253.913 81.664 252.975 82.112 251.953 82.112C250.189 82.112 248.803 81.02 248.803 78.822V74.328H250.063V78.654C250.063 80.208 250.917 81.006 252.205 81.006C253.521 81.006 254.403 80.194 254.403 78.542V74.328H255.677ZM259.102 77.828V82H257.828V74.328H259.102V75.574C259.536 74.72 260.362 74.188 261.58 74.188V75.504H261.244C260.026 75.504 259.102 76.05 259.102 77.828ZM266.307 78.136C266.307 75.742 267.889 74.202 269.947 74.202C271.375 74.202 272.355 74.93 272.803 75.728V74.328H274.091V82H272.803V80.572C272.341 81.398 271.347 82.126 269.933 82.126C267.889 82.126 266.307 80.516 266.307 78.136ZM272.803 78.15C272.803 76.372 271.599 75.308 270.199 75.308C268.799 75.308 267.609 76.33 267.609 78.136C267.609 79.942 268.799 81.006 270.199 81.006C271.599 81.006 272.803 79.956 272.803 78.15ZM275.768 78.136C275.768 75.742 277.35 74.202 279.422 74.202C280.626 74.202 281.732 74.818 282.264 75.7V71.64H283.552V82H282.264V80.558C281.802 81.412 280.808 82.126 279.408 82.126C277.35 82.126 275.768 80.516 275.768 78.136ZM282.264 78.15C282.264 76.372 281.06 75.308 279.66 75.308C278.26 75.308 277.07 76.33 277.07 78.136C277.07 79.942 278.26 81.006 279.66 81.006C281.06 81.006 282.264 79.956 282.264 78.15ZM285.705 82V74.328H286.979V82H285.705ZM286.363 73.082C285.873 73.082 285.495 72.704 285.495 72.214C285.495 71.724 285.873 71.346 286.363 71.346C286.825 71.346 287.203 71.724 287.203 72.214C287.203 72.704 286.825 73.082 286.363 73.082ZM290.424 75.742C290.886 74.93 291.894 74.202 293.294 74.202C295.352 74.202 296.934 75.742 296.934 78.136C296.934 80.516 295.352 82.126 293.294 82.126C291.894 82.126 290.9 81.37 290.424 80.586V85.64H289.15V74.328H290.424V75.742ZM295.632 78.136C295.632 76.33 294.442 75.308 293.028 75.308C291.642 75.308 290.424 76.372 290.424 78.15C290.424 79.956 291.642 81.006 293.028 81.006C294.442 81.006 295.632 79.942 295.632 78.136ZM298.611 82V74.328H299.885V82H298.611ZM299.269 73.082C298.779 73.082 298.401 72.704 298.401 72.214C298.401 71.724 298.779 71.346 299.269 71.346C299.731 71.346 300.109 71.724 300.109 72.214C300.109 72.704 299.731 73.082 299.269 73.082ZM307.573 79.914C307.573 81.174 306.467 82.126 304.773 82.126C302.981 82.126 301.721 81.146 301.637 79.746H302.953C303.023 80.488 303.681 81.048 304.759 81.048C305.767 81.048 306.327 80.544 306.327 79.914C306.327 78.206 301.791 79.2 301.791 76.344C301.791 75.168 302.897 74.202 304.605 74.202C306.299 74.202 307.419 75.112 307.503 76.61H306.229C306.173 75.84 305.585 75.28 304.563 75.28C303.625 75.28 303.065 75.728 303.065 76.344C303.065 78.164 307.517 77.17 307.573 79.914ZM308.895 78.15C308.895 75.742 310.449 74.202 312.633 74.202C314.537 74.202 315.783 75.182 316.175 76.792H314.803C314.537 75.868 313.767 75.28 312.633 75.28C311.233 75.28 310.197 76.274 310.197 78.15C310.197 80.054 311.233 81.048 312.633 81.048C313.767 81.048 314.523 80.502 314.803 79.536H316.175C315.783 81.062 314.537 82.126 312.633 82.126C310.449 82.126 308.895 80.586 308.895 78.15ZM317.875 82V74.328H319.149V82H317.875ZM318.533 73.082C318.043 73.082 317.665 72.704 317.665 72.214C317.665 71.724 318.043 71.346 318.533 71.346C318.995 71.346 319.373 71.724 319.373 72.214C319.373 72.704 318.995 73.082 318.533 73.082ZM326.934 82V77.66C326.934 76.092 326.08 75.294 324.792 75.294C323.49 75.294 322.594 76.106 322.594 77.758V82H321.32V74.328H322.594V75.42C323.098 74.622 324.022 74.188 325.058 74.188C326.836 74.188 328.194 75.28 328.194 77.478V82H326.934ZM329.799 78.136C329.799 75.742 331.381 74.202 333.439 74.202C334.839 74.202 335.847 74.902 336.295 75.728V74.328H337.583V82.168C337.583 84.282 336.169 85.78 333.915 85.78C331.899 85.78 330.457 84.758 330.205 83.12H331.465C331.745 84.044 332.655 84.674 333.915 84.674C335.273 84.674 336.295 83.806 336.295 82.168V80.558C335.833 81.384 334.839 82.126 333.439 82.126C331.381 82.126 329.799 80.516 329.799 78.136ZM336.295 78.15C336.295 76.372 335.091 75.308 333.691 75.308C332.291 75.308 331.101 76.33 331.101 78.136C331.101 79.942 332.291 81.006 333.691 81.006C335.091 81.006 336.295 79.956 336.295 78.15ZM346.731 75.28C345.485 75.28 344.449 76.106 344.309 77.604H349.153C349.167 76.106 348.047 75.28 346.731 75.28ZM350.315 79.634C349.923 81.034 348.691 82.126 346.787 82.126C344.603 82.126 342.993 80.586 342.993 78.15C342.993 75.728 344.547 74.202 346.787 74.202C349.013 74.202 350.469 75.77 350.469 77.87C350.469 78.15 350.455 78.374 350.427 78.64H344.295C344.393 80.194 345.485 81.048 346.787 81.048C347.935 81.048 348.663 80.46 348.943 79.634H350.315ZM352.15 82V71.64H353.424V82H352.15ZM355.596 82V74.328H356.87V82H355.596ZM356.254 73.082C355.764 73.082 355.386 72.704 355.386 72.214C355.386 71.724 355.764 71.346 356.254 71.346C356.716 71.346 357.094 71.724 357.094 72.214C357.094 72.704 356.716 73.082 356.254 73.082ZM359.321 79.9V75.378H358.327V74.328H359.321V72.396H360.595V74.328H362.597V75.378H360.595V79.9C360.595 80.656 360.875 80.922 361.659 80.922H362.597V82H361.449C360.091 82 359.321 81.44 359.321 79.9Z" fill="#84818A"/>
<defs>
<filter id="filter0_d_8_598" x="0" y="0" width="470" height="130" filterUnits="userSpaceOnUse" color-interpolation-filters="sRGB">
<feFlood flood-opacity="0" result="BackgroundImageFix"/>
<feColorMatrix in="SourceAlpha" type="matrix" values="0 0 0 0 0 0 0 0 0 0 0 0 0 0 0 0 0 0 127 0" result="hardAlpha"/>
<feOffset dy="12"/>
<feGaussianBlur stdDeviation="7.5"/>
<feComposite in2="hardAlpha" operator="out"/>
<feColorMatrix type="matrix" values="0 0 0 0 0 0 0 0 0 0 0 0 0 0 0 0 0 0 0.05 0"/>
<feBlend mode="normal" in2="BackgroundImageFix" result="effect1_dropShadow_8_598"/>
<feBlend mode="normal" in="SourceGraphic" in2="effect1_dropShadow_8_598" result="shape"/>
</filter>
<filter id="filter1_d_8_598" x="31" y="19" width="139" height="88" filterUnits="userSpaceOnUse" color-interpolation-filters="sRGB">
<feFlood flood-opacity="0" result="BackgroundImageFix"/>
<feColorMatrix in="SourceAlpha" type="matrix" values="0 0 0 0 0 0 0 0 0 0 0 0 0 0 0 0 0 0 127 0" result="hardAlpha"/>
<feOffset dy="12"/>
<feGaussianBlur stdDeviation="4"/>
<feComposite in2="hardAlpha" operator="out"/>
<feColorMatrix type="matrix" values="0 0 0 0 0 0 0 0 0 0 0 0 0 0 0 0 0 0 0.0784314 0"/>
<feBlend mode="normal" in2="BackgroundImageFix" result="effect1_dropShadow_8_598"/>
<feBlend mode="normal" in="SourceGraphic" in2="effect1_dropShadow_8_598" result="shape"/>
</filter>
</defs>
</svg>
