<svg width="208" height="208" viewBox="0 0 208 208" fill="none" xmlns="http://www.w3.org/2000/svg">
<g filter="url(#filter0_d_1_153)">
<path d="M15 23C15 11.9543 23.9543 3 35 3H173C184.046 3 193 11.9543 193 23V161C193 172.046 184.046 181 173 181H35C23.9543 181 15 172.046 15 161V23Z" fill="white"/>
<path d="M176.634 91.8157C176.634 132.032 144.032 164.634 103.816 164.634C63.5994 164.634 30.9976 132.032 30.9976 91.8157C30.9976 51.5994 63.5994 18.9976 103.816 18.9976C144.032 18.9976 176.634 51.5994 176.634 91.8157Z" fill="#C8C2FC"/>
<path d="M41.5448 127.4C53.8972 149.619 77.46 164.634 104.497 164.634C144.337 164.634 176.634 132.032 176.634 91.8157C176.634 51.5994 144.337 18.9976 104.497 18.9976V91.8157L41.5448 127.4Z" fill="#6C4FFE"/>
</g>
<defs>
<filter id="filter0_d_1_153" x="0" y="0" width="208" height="208" filterUnits="userSpaceOnUse" color-interpolation-filters="sRGB">
<feFlood flood-opacity="0" result="BackgroundImageFix"/>
<feColorMatrix in="SourceAlpha" type="matrix" values="0 0 0 0 0 0 0 0 0 0 0 0 0 0 0 0 0 0 127 0" result="hardAlpha"/>
<feOffset dy="12"/>
<feGaussianBlur stdDeviation="7.5"/>
<feComposite in2="hardAlpha" operator="out"/>
<feColorMatrix type="matrix" values="0 0 0 0 0 0 0 0 0 0 0 0 0 0 0 0 0 0 0.05 0"/>
<feBlend mode="normal" in2="BackgroundImageFix" result="effect1_dropShadow_1_153"/>
<feBlend mode="normal" in="SourceGraphic" in2="effect1_dropShadow_1_153" result="shape"/>
</filter>
</defs>
</svg>
