<svg width="823" height="286" viewBox="0 0 823 286" fill="none" xmlns="http://www.w3.org/2000/svg">
<path d="M94 181H70C64.4772 181 60 185.477 60 191V216C60 221.523 64.4772 226 70 226H94C99.5228 226 104 221.523 104 216V191C104 185.477 99.5228 181 94 181Z" fill="white"/>
<path d="M90.375 198.333H89.063V195.667C89.0761 193.913 88.3921 192.225 87.1615 190.975C85.9308 189.725 84.2542 189.015 82.5 189C80.746 189.015 79.0696 189.725 77.8392 190.975C76.6088 192.226 75.925 193.913 75.938 195.667V198.333H74.625C73.9239 198.341 73.2543 198.625 72.7625 199.125C72.2707 199.625 71.9966 200.299 72 201V214.333C71.9966 215.034 72.2707 215.708 72.7625 216.208C73.2543 216.708 73.9239 216.992 74.625 217H90.375C91.0761 216.992 91.7457 216.708 92.2376 216.208C92.7294 215.708 93.0035 215.034 93 214.333V201C93.0035 200.299 92.7294 199.625 92.2376 199.125C91.7457 198.625 91.0761 198.341 90.375 198.333ZM82.5 210.333C81.9708 210.341 81.4511 210.192 81.0071 209.904C80.563 209.616 80.2146 209.203 80.0063 208.716C79.798 208.23 79.7391 207.692 79.8373 207.172C79.9354 206.652 80.186 206.173 80.5573 205.796C80.9285 205.418 81.4036 205.16 81.9221 205.054C82.4405 204.947 82.9789 204.998 83.4687 205.198C83.9585 205.399 84.3775 205.741 84.6725 206.18C84.9674 206.619 85.125 207.137 85.125 207.666C85.1285 208.367 84.8544 209.041 84.3626 209.541C83.8707 210.041 83.2011 210.325 82.5 210.333ZM86.569 198.333H78.431V195.667C78.431 195.133 78.5363 194.604 78.7408 194.11C78.9453 193.616 79.245 193.168 79.6228 192.79C80.0007 192.412 80.4492 192.112 80.9429 191.908C81.4366 191.703 81.9657 191.598 82.5 191.598C83.0344 191.598 83.5635 191.703 84.0572 191.908C84.5508 192.112 84.9994 192.412 85.3772 192.79C85.7551 193.168 86.0548 193.616 86.2593 194.11C86.4638 194.604 86.569 195.133 86.569 195.667V198.333Z" fill="#1AD598"/>
<path d="M694 61H670C664.477 61 660 65.4772 660 71V96C660 101.523 664.477 106 670 106H694C699.523 106 704 101.523 704 96V71C704 65.4772 699.523 61 694 61Z" fill="white"/>
<path d="M690.375 78.333H689.063V75.667C689.076 73.9128 688.392 72.2252 687.161 70.9751C685.931 69.7249 684.254 69.0145 682.5 69C680.746 69.0148 679.07 69.7253 677.839 70.9754C676.609 72.2255 675.925 73.913 675.938 75.667V78.333H674.625C673.924 78.3407 673.254 78.6254 672.763 79.1251C672.271 79.6248 671.997 80.2989 672 81V94.333C671.997 95.0341 672.271 95.7082 672.763 96.2079C673.254 96.7076 673.924 96.9923 674.625 97H690.375C691.076 96.9923 691.746 96.7076 692.238 96.2079C692.729 95.7082 693.004 95.0341 693 94.333V81C693.004 80.2989 692.729 79.6248 692.238 79.1251C691.746 78.6254 691.076 78.3407 690.375 78.333ZM682.5 90.333C681.971 90.3413 681.451 90.192 681.007 89.9041C680.563 89.6161 680.215 89.2026 680.006 88.7161C679.798 88.2295 679.739 87.692 679.837 87.1719C679.935 86.6518 680.186 86.1727 680.557 85.7955C680.929 85.4183 681.404 85.1601 681.922 85.0537C682.441 84.9474 682.979 84.9977 683.469 85.1983C683.958 85.3988 684.378 85.7406 684.672 86.18C684.967 86.6195 685.125 87.1367 685.125 87.666C685.129 88.3671 684.854 89.0412 684.363 89.5409C683.871 90.0406 683.201 90.3253 682.5 90.333ZM686.569 78.333H678.431V75.667C678.431 75.1327 678.536 74.6035 678.741 74.1099C678.945 73.6162 679.245 73.1676 679.623 72.7898C680.001 72.4119 680.449 72.1122 680.943 71.9077C681.437 71.7032 681.966 71.598 682.5 71.598C683.034 71.598 683.563 71.7032 684.057 71.9077C684.551 72.1122 684.999 72.4119 685.377 72.7898C685.755 73.1676 686.055 73.6162 686.259 74.1099C686.464 74.6035 686.569 75.1327 686.569 75.667V78.333Z" fill="#1AD598"/>
<path d="M570 149H494C488.477 149 484 153.477 484 159V187C484 192.523 488.477 197 494 197H570C575.523 197 580 192.523 580 187V159C580 153.477 575.523 149 570 149Z" fill="white"/>
<path d="M540.216 172.182C540.216 171.202 539.656 170.572 538.41 170.572H536.646V173.834H538.41C539.656 173.834 540.216 173.148 540.216 172.182ZM535.05 169.27H538.41C540.72 169.27 541.854 170.6 541.854 172.182C541.854 173.33 541.238 174.562 539.6 174.968L542.008 179H540.104L537.864 175.108H536.646V179H535.05V169.27ZM543.896 179V171.286H545.492V179H543.896ZM544.708 170.264C544.134 170.264 543.686 169.816 543.686 169.242C543.686 168.668 544.134 168.22 544.708 168.22C545.268 168.22 545.716 168.668 545.716 169.242C545.716 169.816 545.268 170.264 544.708 170.264ZM553.341 176.844C553.341 178.146 552.207 179.126 550.387 179.126C548.539 179.126 547.237 178.034 547.167 176.634H548.819C548.875 177.264 549.477 177.782 550.359 177.782C551.283 177.782 551.773 177.39 551.773 176.858C551.773 175.346 547.293 176.214 547.293 173.386C547.293 172.154 548.441 171.16 550.261 171.16C552.011 171.16 553.159 172.098 553.243 173.638H551.647C551.591 172.966 551.073 172.504 550.205 172.504C549.351 172.504 548.903 172.854 548.903 173.372C548.903 174.926 553.257 174.058 553.341 176.844ZM555.066 179V168.64H556.662V174.66L559.462 171.286H561.674L558.118 175.15L561.674 179H559.518L556.662 175.682V179H555.066Z" fill="#EA3A3D"/>
<path d="M514 185C520.627 185 526 179.627 526 173C526 166.373 520.627 161 514 161C507.373 161 502 166.373 502 173C502 179.627 507.373 185 514 185Z" fill="#EA3A3D" fill-opacity="0.2"/>
<path d="M512.695 177.799C512.465 177.799 512.244 177.707 512.081 177.545C511.919 177.382 511.827 177.161 511.827 176.931C511.827 176.701 511.919 176.48 512.081 176.317C512.244 176.154 512.465 176.063 512.695 176.063H515.778L510.367 170.606C510.206 170.443 510.115 170.222 510.115 169.993C510.115 169.763 510.206 169.543 510.367 169.38C510.447 169.299 510.541 169.236 510.646 169.192C510.75 169.148 510.862 169.126 510.975 169.126C511.088 169.126 511.2 169.148 511.304 169.192C511.409 169.236 511.504 169.299 511.583 169.38L516.995 174.838V171.726C516.995 171.498 517.086 171.279 517.247 171.118C517.408 170.956 517.627 170.866 517.855 170.866C518.083 170.866 518.302 170.956 518.463 171.118C518.624 171.279 518.715 171.498 518.715 171.726V176.926C518.715 176.933 518.715 176.941 518.715 176.948C518.715 176.955 518.715 176.962 518.715 176.969C518.715 176.976 518.715 176.982 518.715 176.989C518.715 176.995 518.715 177.002 518.715 177.008C518.715 177.014 518.715 177.021 518.715 177.027C518.691 177.216 518.604 177.392 518.47 177.527C518.377 177.621 518.264 177.692 518.139 177.735L518.115 177.759H518.1C518.021 177.783 517.938 177.795 517.855 177.795L512.695 177.799Z" fill="#EA3A3D"/>
<path d="M279 89H185C179.477 89 175 93.4772 175 99V127C175 132.523 179.477 137 185 137H279C284.523 137 289 132.523 289 127V99C289 93.4772 284.523 89 279 89Z" fill="white"/>
<path d="M231.216 112.182C231.216 111.202 230.656 110.572 229.41 110.572H227.646V113.834H229.41C230.656 113.834 231.216 113.148 231.216 112.182ZM226.05 109.27H229.41C231.72 109.27 232.854 110.6 232.854 112.182C232.854 113.33 232.238 114.562 230.6 114.968L233.008 119H231.104L228.864 115.108H227.646V119H226.05V109.27ZM238.144 112.504C237.066 112.504 236.198 113.232 236.03 114.45H240.3C240.272 113.26 239.334 112.504 238.144 112.504ZM241.756 116.704C241.322 118.048 240.104 119.126 238.214 119.126C236.002 119.126 234.364 117.558 234.364 115.136C234.364 112.714 235.932 111.16 238.214 111.16C240.412 111.16 241.966 112.686 241.966 114.954C241.966 115.22 241.952 115.472 241.91 115.738H236.016C236.128 117.012 237.038 117.782 238.214 117.782C239.194 117.782 239.74 117.306 240.034 116.704H241.756ZM243.788 116.858V112.588H242.878V111.286H243.788V109.368H245.398V111.286H247.274V112.588H245.398V116.858C245.398 117.432 245.622 117.67 246.294 117.67H247.274V119H246.014C244.642 119 243.788 118.426 243.788 116.858ZM255.731 111.286V119H254.135V118.076C253.631 118.734 252.763 119.112 251.853 119.112C250.047 119.112 248.675 117.978 248.675 115.822V111.286H250.257V115.584C250.257 116.998 251.027 117.726 252.189 117.726C253.365 117.726 254.135 116.998 254.135 115.584V111.286H255.731ZM259.433 114.94V119H257.837V111.286H259.433V112.406C259.881 111.636 260.651 111.16 261.743 111.16V112.812H261.337C260.161 112.812 259.433 113.302 259.433 114.94ZM268.684 119V114.688C268.684 113.274 267.914 112.546 266.752 112.546C265.576 112.546 264.806 113.274 264.806 114.688V119H263.21V111.286H264.806V112.168C265.324 111.538 266.178 111.16 267.102 111.16C268.908 111.16 270.266 112.294 270.266 114.45V119H268.684Z" fill="#1AD598"/>
<path d="M205 125C211.627 125 217 119.627 217 113C217 106.373 211.627 101 205 101C198.373 101 193 106.373 193 113C193 119.627 198.373 125 205 125Z" fill="#1AD598" fill-opacity="0.2"/>
<path d="M209.751 115.183C209.751 115.413 209.66 115.634 209.497 115.797C209.334 115.96 209.113 116.051 208.883 116.051C208.653 116.051 208.432 115.96 208.269 115.797C208.106 115.634 208.015 115.413 208.015 115.183V112.1L202.558 117.511C202.395 117.673 202.175 117.763 201.945 117.763C201.715 117.763 201.495 117.673 201.332 117.511C201.252 117.432 201.188 117.337 201.144 117.233C201.101 117.128 201.078 117.016 201.078 116.903C201.078 116.79 201.101 116.678 201.144 116.574C201.188 116.469 201.252 116.375 201.332 116.295L206.79 110.883H203.678C203.45 110.883 203.231 110.793 203.07 110.631C202.909 110.47 202.818 110.251 202.818 110.023C202.818 109.795 202.909 109.576 203.07 109.415C203.231 109.254 203.45 109.163 203.678 109.163H208.878C208.885 109.163 208.893 109.163 208.9 109.163C208.907 109.163 208.914 109.163 208.921 109.163C208.928 109.163 208.934 109.163 208.941 109.163C208.947 109.163 208.954 109.163 208.96 109.163C208.966 109.163 208.973 109.163 208.979 109.163C209.168 109.188 209.344 109.274 209.479 109.408C209.573 109.501 209.644 109.614 209.687 109.739L209.711 109.763V109.778C209.735 109.858 209.747 109.94 209.747 110.023L209.751 115.183Z" fill="#1AD598"/>
<path d="M394.001 181H370.001C364.478 181 360.001 185.477 360.001 191V216C360.001 221.523 364.478 226 370.001 226H394.001C399.524 226 404.001 221.523 404.001 216V191C404.001 185.477 399.524 181 394.001 181Z" fill="white"/>
<path d="M388.18 194.25L391.651 197.715L384.251 205.1L378.192 199.05L366.962 210.276L369.099 212.41L378.192 203.33L384.254 209.383L393.802 199.864L397.273 203.33V194.25H388.18Z" fill="#1AD598" stroke="#777E90" stroke-opacity="0.1"/>
<path d="M34.001 61H10.001C4.47813 61 0.000976562 65.4772 0.000976562 71V96C0.000976562 101.523 4.47813 106 10.001 106H34.001C39.5238 106 44.001 101.523 44.001 96V71C44.001 65.4772 39.5238 61 34.001 61Z" fill="white"/>
<path d="M28.1799 74.25L31.6509 77.715L24.2509 85.1L18.1919 79.05L6.96191 90.276L9.09891 92.41L18.1919 83.33L24.2539 89.383L33.8019 79.864L37.2729 83.33V74.25H28.1799Z" fill="#1AD598" stroke="#777E90" stroke-opacity="0.1"/>
<path d="M519 0H426C420.477 0 416 4.47715 416 10V36C416 41.5228 420.477 46 426 46H519C524.523 46 529 41.5228 529 36V10C529 4.47715 524.523 0 519 0Z" fill="white"/>
<path d="M465.771 20.797H467.255V23.695H470.083V25.039H467.255V27.937H465.771V25.039H462.943V23.695H465.771V20.797ZM472.867 26.649H474.337C474.519 27.559 475.121 28.077 476.185 28.077C477.459 28.077 478.103 27.223 478.103 24.619C477.641 25.263 476.759 25.613 475.835 25.613C474.043 25.613 472.587 24.507 472.587 22.351C472.587 20.321 473.833 18.977 475.975 18.977C478.607 18.977 479.489 20.783 479.489 24.129C479.489 27.573 478.761 29.407 476.087 29.407C473.973 29.407 472.993 28.105 472.867 26.649ZM476.115 24.269C477.249 24.269 477.921 23.499 477.921 22.351C477.921 21.049 477.179 20.307 476.017 20.307C474.827 20.307 474.113 21.133 474.113 22.309C474.113 23.359 474.701 24.269 476.115 24.269ZM480.466 31.367L481.46 27.503H483.196L481.502 31.367H480.466ZM484.352 21.735C484.464 19.971 485.836 18.977 487.698 18.977C489.728 18.977 490.834 20.153 490.834 21.637C490.834 22.855 490.064 23.681 489.266 23.947V24.003C490.33 24.325 491.016 25.207 491.016 26.621C491.016 28.245 489.868 29.477 487.74 29.477C485.808 29.477 484.31 28.469 484.212 26.467H485.752C485.822 27.419 486.522 28.147 487.726 28.147C488.916 28.147 489.504 27.419 489.504 26.467C489.504 25.123 488.636 24.661 486.97 24.661H486.606V23.345H486.984C488.426 23.331 489.308 22.911 489.308 21.819C489.308 20.937 488.734 20.349 487.642 20.349C486.522 20.349 486.004 21.021 485.906 21.735H484.352ZM492.567 29.281V28.119C494.975 26.005 497.509 24.157 497.509 22.155C497.509 21.091 497.047 20.363 495.857 20.363C494.737 20.363 494.135 21.147 494.093 22.295H492.553C492.609 20.083 494.037 19.005 495.843 19.005C497.915 19.005 499.091 20.251 499.091 22.085C499.091 24.563 496.571 26.453 494.933 27.951H499.371V29.281H492.567ZM500.521 21.679C500.521 20.293 501.431 19.495 502.649 19.495C503.867 19.495 504.777 20.293 504.777 21.679C504.777 23.079 503.867 23.877 502.649 23.877C501.431 23.877 500.521 23.079 500.521 21.679ZM502.649 20.461C502.103 20.461 501.767 20.811 501.767 21.679C501.767 22.547 502.103 22.911 502.649 22.911C503.181 22.911 503.531 22.547 503.531 21.679C503.531 20.811 503.181 20.461 502.649 20.461ZM501.907 29.421L507.493 19.677H509.061L503.475 29.421H501.907ZM506.219 27.405C506.219 26.005 507.129 25.221 508.347 25.221C509.551 25.221 510.461 26.005 510.461 27.405C510.461 28.805 509.551 29.603 508.347 29.603C507.129 29.603 506.219 28.805 506.219 27.405ZM508.333 26.187C507.801 26.187 507.451 26.537 507.451 27.405C507.451 28.273 507.801 28.623 508.333 28.623C508.865 28.623 509.215 28.273 509.215 27.405C509.215 26.537 508.865 26.187 508.333 26.187Z" fill="#1AD598"/>
<path d="M444.999 34.999C451.626 34.999 456.999 29.8503 456.999 23.499C456.999 17.1477 451.626 11.999 444.999 11.999C438.372 11.999 432.999 17.1477 432.999 23.499C432.999 29.8503 438.372 34.999 444.999 34.999Z" fill="#1AD598" fill-opacity="0.2"/>
<path d="M441.266 27.439C441.105 27.2755 441.015 27.0554 441.015 26.826C441.015 26.5967 441.105 26.3765 441.266 26.213L446.678 20.754H443.595C443.365 20.754 443.144 20.6626 442.981 20.4999C442.819 20.3372 442.727 20.1166 442.727 19.8865C442.727 19.6564 442.819 19.4358 442.981 19.2731C443.144 19.1104 443.365 19.019 443.595 19.019H448.755C448.872 19.019 448.987 19.0432 449.095 19.09H449.103H449.111C449.205 19.133 449.29 19.1926 449.363 19.266C449.411 19.3149 449.453 19.3693 449.489 19.428L449.495 19.439L449.505 19.462C449.577 19.5919 449.615 19.7383 449.615 19.887V25.087C449.615 25.3152 449.524 25.5341 449.363 25.6955C449.201 25.8569 448.982 25.9475 448.754 25.9475C448.526 25.9475 448.307 25.8569 448.146 25.6955C447.984 25.5341 447.894 25.3152 447.894 25.087V21.981L442.482 27.439C442.402 27.5194 442.307 27.5833 442.203 27.6269C442.099 27.6704 441.987 27.6929 441.874 27.6929C441.761 27.6929 441.649 27.6704 441.544 27.6269C441.44 27.5833 441.345 27.5194 441.266 27.439Z" fill="#1AD598"/>
<path d="M813.001 138H731.001C725.478 138 721.001 142.477 721.001 148V199C721.001 204.523 725.478 209 731.001 209H813.001C818.524 209 823.001 204.523 823.001 199V148C823.001 142.477 818.524 138 813.001 138Z" fill="white"/>
<path d="M812.501 145.136H731.846V202.066H812.501V145.136Z" fill="white"/>
<mask id="mask0_447_1719" style="mask-type:luminance" maskUnits="userSpaceOnUse" x="731" y="145" width="82" height="58">
<path d="M812.501 145.136H731.846V202.066H812.501V145.136Z" fill="white"/>
</mask>
<g mask="url(#mask0_447_1719)">
<path d="M733.22 196.809H811.747C812.038 197.141 812.128 160.793 812.357 160.364C812.469 160.147 812.518 159.902 812.498 159.659C812.478 159.415 812.391 159.182 812.246 158.985L809.236 155.545C809.179 155.471 809.103 155.413 809.016 155.378C808.929 155.343 808.834 155.331 808.741 155.345L801.862 156.623C801.781 156.639 801.705 156.673 801.639 156.723L795.29 161.481L789.252 159.042C789.182 159.013 789.105 159.002 789.029 159.009C788.953 159.016 788.88 159.041 788.816 159.083L782.628 162.846L771.171 156.257C771.109 156.224 771.041 156.203 770.971 156.197C770.901 156.19 770.83 156.198 770.763 156.219C770.695 156.24 770.633 156.274 770.579 156.319C770.525 156.365 770.481 156.42 770.449 156.483L769.066 158.53L765.202 154.53C765.14 154.457 765.057 154.403 764.965 154.375C764.873 154.348 764.774 154.347 764.681 154.373C764.58 154.412 764.489 154.472 764.414 154.549C764.338 154.627 764.28 154.72 764.244 154.822L757.798 170.03L755.075 170.536L747.975 165.236C747.872 165.156 747.742 165.119 747.612 165.134C747.482 165.149 747.363 165.214 747.28 165.315L743.669 169.093L740.434 166.642C740.328 166.559 740.194 166.522 740.061 166.538C739.928 166.554 739.806 166.623 739.723 166.728L732.211 174.916C731.911 175.241 732.635 197.216 732.856 197.654C732.902 197.778 732.987 197.883 733.099 197.953C733.211 198.022 733.343 198.054 733.475 198.041C733.598 198.015 733.71 197.949 733.793 197.853" fill="white" fill-opacity="0.3"/>
<path opacity="0.251" d="M733.22 196.809H811.747C812.038 197.141 812.128 160.793 812.357 160.364C812.468 160.147 812.517 159.902 812.497 159.659C812.477 159.415 812.39 159.182 812.245 158.985L809.239 155.544C809.182 155.47 809.106 155.412 809.019 155.377C808.932 155.342 808.837 155.33 808.745 155.344L801.862 156.624C801.78 156.64 801.704 156.674 801.639 156.724L795.29 161.482L789.252 159.043C789.181 159.014 789.104 159.003 789.028 159.01C788.952 159.017 788.879 159.042 788.816 159.084L782.628 162.847L771.171 156.255C771.108 156.222 771.04 156.201 770.97 156.195C770.9 156.188 770.829 156.196 770.762 156.217C770.694 156.238 770.632 156.272 770.578 156.317C770.524 156.363 770.48 156.418 770.448 156.481L769.066 158.532L765.202 154.532C765.139 154.459 765.056 154.405 764.964 154.378C764.872 154.35 764.773 154.349 764.681 154.375C764.578 154.413 764.486 154.473 764.41 154.551C764.333 154.629 764.275 154.722 764.239 154.825L757.797 170.034L755.075 170.54L747.975 165.24C747.871 165.16 747.741 165.123 747.611 165.138C747.481 165.153 747.362 165.218 747.28 165.319L743.669 169.094L740.432 166.643C740.326 166.56 740.192 166.523 740.059 166.539C739.926 166.555 739.804 166.624 739.722 166.729L732.21 174.917C731.91 175.242 732.633 197.217 732.854 197.655C732.9 197.779 732.985 197.884 733.097 197.954C733.209 198.023 733.341 198.055 733.473 198.042C733.596 198.016 733.708 197.95 733.792 197.854" fill="url(#paint0_linear_447_1719)"/>
<path d="M732.628 174.679C732.496 174.693 732.364 174.662 732.252 174.592C732.139 174.522 732.054 174.416 732.009 174.292C731.901 174.072 731.858 173.827 731.883 173.584C731.908 173.341 732.001 173.11 732.15 172.917L739.663 164.729C739.745 164.624 739.867 164.555 740 164.539C740.133 164.523 740.267 164.56 740.373 164.643L743.608 167.094L747.22 163.316C747.302 163.215 747.421 163.15 747.551 163.135C747.681 163.12 747.811 163.157 747.915 163.237L755.014 168.537L757.737 168.031L764.184 152.823C764.219 152.721 764.277 152.628 764.353 152.55C764.428 152.473 764.52 152.413 764.621 152.374C764.713 152.348 764.812 152.349 764.904 152.376C764.996 152.404 765.079 152.458 765.142 152.531L769.005 156.531L770.388 154.484C770.42 154.421 770.464 154.366 770.518 154.32C770.572 154.275 770.634 154.241 770.702 154.22C770.769 154.199 770.84 154.191 770.91 154.198C770.98 154.204 771.048 154.225 771.111 154.258L782.567 160.847L788.755 157.084C788.819 157.042 788.893 157.017 788.968 157.01C789.044 157.003 789.121 157.014 789.191 157.043L795.229 159.482L801.579 154.724C801.644 154.674 801.72 154.64 801.801 154.624L808.681 153.346C808.773 153.332 808.868 153.343 808.955 153.379C809.042 153.414 809.118 153.472 809.175 153.546L812.185 156.986C812.33 157.183 812.417 157.416 812.437 157.66C812.457 157.903 812.408 158.148 812.296 158.365C812.067 158.794 811.647 158.872 811.356 158.539L808.564 155.349L802.077 156.554L795.601 161.408C795.534 161.463 795.453 161.498 795.368 161.511C795.283 161.524 795.195 161.514 795.116 161.481L789.05 159.03L782.824 162.816C782.749 162.864 782.663 162.89 782.575 162.892C782.486 162.893 782.399 162.87 782.324 162.824L771.024 156.324L769.551 158.502C769.513 158.579 769.457 158.646 769.387 158.697C769.317 158.747 769.236 158.779 769.15 158.791C769.065 158.802 768.978 158.793 768.897 158.763C768.816 158.733 768.744 158.683 768.686 158.619L764.941 154.744L758.702 169.464C758.665 169.575 758.601 169.675 758.515 169.755C758.43 169.836 758.326 169.894 758.213 169.925L754.968 170.525C754.901 170.537 754.831 170.534 754.764 170.516C754.698 170.499 754.635 170.468 754.582 170.425L747.659 165.258L744.046 169.037C743.963 169.139 743.843 169.205 743.712 169.219C743.581 169.233 743.45 169.195 743.347 169.113L740.118 166.667L732.944 174.487C732.862 174.584 732.751 174.651 732.628 174.679Z" fill="#6C4FFE" fill-opacity="0.5"/>
</g>
<path d="M154 1H130C124.477 1 120 5.47715 120 11V36C120 41.5228 124.477 46 130 46H154C159.523 46 164 41.5228 164 36V11C164 5.47715 159.523 1 154 1Z" fill="white"/>
<path d="M151.298 20.611C151.069 20.4335 150.793 20.329 150.504 20.311L145.278 19.944L143.344 15.06C143.238 14.7894 143.054 14.5571 142.814 14.3935C142.574 14.23 142.29 14.143 142 14.144C141.71 14.1441 141.428 14.2316 141.189 14.3951C140.95 14.5585 140.767 14.7903 140.662 15.06L138.695 19.97L133.495 20.308C133.206 20.3268 132.929 20.4323 132.701 20.6107C132.473 20.7891 132.304 21.0321 132.216 21.308C132.123 21.5881 132.117 21.8897 132.198 22.1733C132.28 22.457 132.445 22.7095 132.672 22.898L136.672 26.278L135.481 30.956C135.399 31.271 135.414 31.6035 135.524 31.9098C135.634 32.2162 135.834 32.4822 136.098 32.673C136.352 32.8582 136.657 32.9626 136.972 32.9724C137.287 32.9822 137.597 32.897 137.863 32.728L141.988 30.115C141.993 30.115 141.999 30.108 142.011 30.115L146.449 32.927C146.689 33.0807 146.971 33.1582 147.256 33.1494C147.542 33.1407 147.818 33.0461 148.049 32.878C148.288 32.7052 148.469 32.4642 148.569 32.1866C148.669 31.9089 148.683 31.6076 148.609 31.322L147.344 26.211L151.325 22.898C151.551 22.7093 151.716 22.4568 151.797 22.1734C151.878 21.89 151.871 21.5888 151.779 21.309C151.692 21.0334 151.524 20.7902 151.298 20.611Z" fill="#FFC74A"/>
<path d="M634 241H610C604.477 241 600 245.477 600 251V276C600 281.523 604.477 286 610 286H634C639.523 286 644 281.523 644 276V251C644 245.477 639.523 241 634 241Z" fill="white"/>
<path d="M631.298 260.611C631.069 260.434 630.793 260.329 630.504 260.311L625.278 259.944L623.344 255.06C623.238 254.789 623.054 254.557 622.814 254.394C622.574 254.23 622.29 254.143 622 254.144C621.71 254.144 621.428 254.232 621.189 254.395C620.95 254.559 620.767 254.79 620.662 255.06L618.695 259.97L613.495 260.308C613.206 260.327 612.929 260.432 612.701 260.611C612.473 260.789 612.304 261.032 612.216 261.308C612.123 261.588 612.117 261.89 612.198 262.173C612.28 262.457 612.445 262.71 612.672 262.898L616.672 266.278L615.481 270.956C615.399 271.271 615.414 271.604 615.524 271.91C615.634 272.216 615.834 272.482 616.098 272.673C616.352 272.858 616.657 272.963 616.972 272.972C617.287 272.982 617.597 272.897 617.863 272.728L621.988 270.115C621.993 270.115 621.999 270.108 622.011 270.115L626.449 272.927C626.689 273.081 626.971 273.158 627.256 273.149C627.542 273.141 627.818 273.046 628.049 272.878C628.288 272.705 628.469 272.464 628.569 272.187C628.669 271.909 628.683 271.608 628.609 271.322L627.344 266.211L631.325 262.898C631.551 262.709 631.716 262.457 631.797 262.174C631.878 261.89 631.871 261.589 631.779 261.309C631.692 261.033 631.524 260.79 631.298 260.611Z" fill="#FFC74A"/>
<defs>
<linearGradient id="paint0_linear_447_1719" x1="772.32" y1="154.356" x2="772.32" y2="198.045" gradientUnits="userSpaceOnUse">
<stop stop-color="#6C4FFE"/>
<stop offset="1" stop-color="#E0D9FF"/>
</linearGradient>
</defs>
</svg>
