<svg width="855" height="823" viewBox="0 0 855 823" fill="none" xmlns="http://www.w3.org/2000/svg">
<g clip-path="url(#clip0_263_732)">
<path opacity="0.1" d="M427.005 693.261C582.399 693.261 708.372 567.334 708.372 411.995C708.372 256.656 582.399 130.729 427.005 130.729C271.61 130.729 145.637 256.656 145.637 411.995C145.637 567.334 271.61 693.261 427.005 693.261Z" fill="url(#paint0_linear_263_732)"/>
<path opacity="0.1" d="M427.005 761.597C620.154 761.597 776.732 605.075 776.732 411.995C776.732 218.915 620.154 62.3935 427.005 62.3935C233.855 62.3935 77.2769 218.915 77.2769 411.995C77.2769 605.075 233.855 761.597 427.005 761.597Z" fill="url(#paint1_linear_263_732)"/>
<path opacity="0.1" d="M427.004 619.974C541.909 619.974 635.058 526.858 635.058 411.995C635.058 297.132 541.909 204.017 427.004 204.017C312.1 204.017 218.951 297.132 218.951 411.995C218.951 526.858 312.1 619.974 427.004 619.974Z" fill="url(#paint2_linear_263_732)"/>
<path d="M1267 0.990387H-413V823H1267V0.990387Z" fill="url(#paint3_linear_263_732)"/>
<path d="M588 208.969H267C258.716 208.969 252 215.62 252 223.824V425.86C252 434.065 258.716 440.716 267 440.716H588C596.284 440.716 603 434.065 603 425.86V223.824C603 215.62 596.284 208.969 588 208.969Z" fill="white"/>
<path d="M555.747 258.618C554.698 258.624 553.672 258.319 552.797 257.741C551.923 257.163 551.24 256.338 550.834 255.372C550.429 254.405 550.32 253.34 550.521 252.311C550.722 251.283 551.224 250.337 551.963 249.594C552.702 248.851 553.645 248.344 554.673 248.137C555.701 247.93 556.767 248.033 557.736 248.433C558.705 248.833 559.534 249.511 560.117 250.382C560.7 251.253 561.012 252.278 561.012 253.326C561.014 254.019 560.879 254.705 560.615 255.346C560.352 255.987 559.965 256.57 559.476 257.062C558.987 257.553 558.406 257.944 557.766 258.211C557.126 258.478 556.44 258.616 555.747 258.618ZM555.747 279.191C554.698 279.197 553.672 278.892 552.797 278.314C551.923 277.736 551.24 276.911 550.834 275.945C550.429 274.978 550.32 273.913 550.521 272.884C550.722 271.856 551.224 270.91 551.963 270.167C552.702 269.424 553.645 268.917 554.673 268.71C555.701 268.503 556.767 268.606 557.736 269.006C558.705 269.406 559.534 270.084 560.117 270.955C560.7 271.826 561.012 272.851 561.012 273.899C561.014 274.592 560.879 275.278 560.615 275.919C560.352 276.56 559.965 277.143 559.476 277.635C558.987 278.126 558.406 278.517 557.766 278.784C557.126 279.051 556.44 279.189 555.747 279.191ZM555.747 299.763C554.698 299.769 553.672 299.464 552.797 298.886C551.923 298.308 551.24 297.483 550.834 296.517C550.429 295.55 550.32 294.485 550.521 293.456C550.722 292.428 551.224 291.482 551.963 290.739C552.702 289.996 553.645 289.489 554.673 289.282C555.701 289.075 556.767 289.178 557.736 289.578C558.705 289.978 559.534 290.656 560.117 291.527C560.7 292.398 561.012 293.423 561.012 294.471C561.014 295.164 560.879 295.851 560.616 296.492C560.352 297.133 559.965 297.716 559.476 298.207C558.987 298.699 558.406 299.09 557.766 299.357C557.126 299.624 556.44 299.761 555.747 299.763ZM555.747 320.335C554.698 320.341 553.672 320.036 552.797 319.458C551.923 318.88 551.24 318.055 550.834 317.089C550.429 316.122 550.32 315.057 550.521 314.028C550.722 313 551.224 312.054 551.963 311.311C552.702 310.568 553.645 310.061 554.673 309.854C555.701 309.647 556.767 309.75 557.736 310.15C558.705 310.55 559.534 311.228 560.117 312.099C560.7 312.97 561.012 313.995 561.012 315.043C561.014 315.736 560.879 316.423 560.616 317.064C560.352 317.705 559.965 318.288 559.476 318.78C558.987 319.271 558.406 319.662 557.766 319.929C557.126 320.196 556.44 320.334 555.747 320.336V320.335ZM555.747 340.907C554.698 340.913 553.672 340.608 552.797 340.03C551.923 339.452 551.24 338.627 550.834 337.661C550.429 336.694 550.32 335.629 550.521 334.6C550.722 333.572 551.224 332.626 551.963 331.883C552.702 331.14 553.645 330.633 554.673 330.426C555.701 330.219 556.767 330.322 557.736 330.722C558.705 331.122 559.534 331.8 560.117 332.671C560.7 333.542 561.012 334.567 561.012 335.615C561.014 336.308 560.879 336.995 560.616 337.636C560.352 338.277 559.965 338.86 559.476 339.352C558.987 339.843 558.406 340.234 557.766 340.501C557.126 340.768 556.44 340.905 555.747 340.907ZM555.747 361.48C554.698 361.486 553.671 361.181 552.796 360.603C551.921 360.025 551.238 359.2 550.833 358.234C550.427 357.267 550.318 356.201 550.519 355.173C550.72 354.144 551.222 353.198 551.961 352.454C552.701 351.711 553.644 351.204 554.672 350.997C555.7 350.79 556.767 350.894 557.736 351.293C558.706 351.693 559.534 352.372 560.117 353.243C560.701 354.115 561.012 355.139 561.012 356.188C561.014 356.881 560.879 357.568 560.616 358.209C560.352 358.85 559.965 359.433 559.476 359.925C558.987 360.416 558.406 360.807 557.766 361.074C557.126 361.341 556.44 361.479 555.747 361.481V361.48ZM555.747 382.052C554.698 382.058 553.672 381.753 552.797 381.175C551.923 380.597 551.24 379.772 550.834 378.806C550.429 377.839 550.32 376.774 550.521 375.746C550.722 374.717 551.224 373.771 551.963 373.028C552.702 372.285 553.645 371.778 554.673 371.571C555.701 371.364 556.767 371.468 557.736 371.867C558.705 372.267 559.534 372.945 560.117 373.816C560.7 374.687 561.012 375.712 561.012 376.76C561.014 377.453 560.879 378.14 560.616 378.781C560.353 379.422 559.965 380.006 559.476 380.497C558.987 380.989 558.406 381.379 557.767 381.647C557.127 381.914 556.44 382.052 555.747 382.054V382.052ZM555.747 402.626C554.698 402.632 553.672 402.327 552.797 401.749C551.923 401.171 551.24 400.346 550.834 399.38C550.429 398.413 550.32 397.348 550.521 396.32C550.722 395.291 551.224 394.345 551.963 393.602C552.702 392.859 553.645 392.352 554.673 392.145C555.701 391.938 556.767 392.042 557.736 392.441C558.705 392.841 559.534 393.519 560.117 394.39C560.7 395.261 561.012 396.286 561.012 397.334C561.014 398.027 560.879 398.713 560.615 399.355C560.352 399.996 559.965 400.578 559.476 401.07C558.987 401.561 558.406 401.952 557.766 402.219C557.126 402.486 556.44 402.624 555.747 402.626ZM535.847 279.191C534.799 279.197 533.772 278.892 532.898 278.314C532.023 277.736 531.34 276.911 530.934 275.945C530.529 274.978 530.42 273.913 530.621 272.884C530.822 271.856 531.324 270.91 532.063 270.167C532.802 269.424 533.746 268.917 534.773 268.71C535.801 268.503 536.867 268.606 537.836 269.006C538.806 269.406 539.634 270.084 540.217 270.955C540.8 271.826 541.112 272.851 541.112 273.899C541.115 275.298 540.563 276.642 539.576 277.635C538.588 278.627 537.247 279.187 535.847 279.191ZM535.847 299.763C534.799 299.769 533.772 299.464 532.898 298.886C532.023 298.308 531.34 297.483 530.934 296.517C530.529 295.55 530.42 294.485 530.621 293.456C530.822 292.428 531.324 291.482 532.063 290.739C532.802 289.996 533.746 289.489 534.773 289.282C535.801 289.075 536.867 289.178 537.836 289.578C538.806 289.978 539.634 290.656 540.217 291.527C540.8 292.398 541.112 293.423 541.112 294.471C541.114 295.164 540.979 295.851 540.716 296.492C540.452 297.133 540.065 297.716 539.576 298.207C539.087 298.699 538.506 299.09 537.867 299.357C537.227 299.624 536.54 299.761 535.847 299.763ZM535.847 320.335C534.799 320.341 533.772 320.036 532.898 319.458C532.023 318.88 531.34 318.055 530.934 317.089C530.529 316.122 530.42 315.057 530.621 314.028C530.822 313 531.324 312.054 532.063 311.311C532.802 310.568 533.746 310.061 534.773 309.854C535.801 309.647 536.867 309.75 537.836 310.15C538.806 310.55 539.634 311.228 540.217 312.099C540.8 312.97 541.112 313.995 541.112 315.043C541.114 315.736 540.979 316.423 540.716 317.064C540.452 317.705 540.065 318.288 539.576 318.78C539.087 319.271 538.506 319.662 537.867 319.929C537.227 320.196 536.54 320.334 535.847 320.336V320.335ZM535.847 340.907C534.799 340.913 533.772 340.608 532.898 340.03C532.023 339.452 531.34 338.627 530.934 337.661C530.529 336.694 530.42 335.629 530.621 334.6C530.822 333.572 531.324 332.626 532.063 331.883C532.802 331.14 533.746 330.633 534.773 330.426C535.801 330.219 536.867 330.322 537.836 330.722C538.806 331.122 539.634 331.8 540.217 332.671C540.8 333.542 541.112 334.567 541.112 335.615C541.114 336.308 540.979 336.995 540.716 337.636C540.452 338.277 540.065 338.86 539.576 339.352C539.087 339.843 538.506 340.234 537.867 340.501C537.227 340.768 536.54 340.905 535.847 340.907ZM535.847 361.48C534.798 361.486 533.771 361.181 532.897 360.603C532.022 360.025 531.338 359.2 530.933 358.234C530.527 357.267 530.418 356.201 530.619 355.173C530.82 354.144 531.322 353.198 532.061 352.454C532.801 351.711 533.744 351.204 534.772 350.997C535.801 350.79 536.867 350.894 537.836 351.293C538.806 351.693 539.634 352.372 540.218 353.243C540.801 354.115 541.112 355.139 541.112 356.188C541.116 357.587 540.563 358.932 539.576 359.924C538.589 360.917 537.247 361.477 535.847 361.481V361.48ZM535.847 382.052C534.799 382.058 533.772 381.753 532.898 381.175C532.023 380.597 531.34 379.772 530.934 378.806C530.529 377.839 530.42 376.774 530.621 375.746C530.822 374.717 531.324 373.771 532.063 373.028C532.802 372.285 533.746 371.778 534.773 371.571C535.801 371.364 536.867 371.468 537.836 371.867C538.806 372.267 539.634 372.945 540.217 373.816C540.8 374.687 541.112 375.712 541.112 376.76C541.114 377.453 540.98 378.14 540.716 378.781C540.453 379.422 540.066 380.006 539.577 380.497C539.088 380.989 538.507 381.379 537.867 381.647C537.227 381.914 536.541 382.052 535.847 382.054V382.052ZM535.847 402.626C534.799 402.632 533.772 402.327 532.898 401.749C532.023 401.171 531.34 400.346 530.934 399.38C530.529 398.413 530.42 397.348 530.621 396.32C530.822 395.291 531.324 394.345 532.063 393.602C532.802 392.859 533.746 392.352 534.773 392.145C535.801 391.938 536.867 392.042 537.836 392.441C538.806 392.841 539.634 393.519 540.217 394.39C540.8 395.261 541.112 396.286 541.112 397.334C541.114 398.027 540.979 398.713 540.716 399.355C540.452 399.996 540.065 400.578 539.576 401.07C539.087 401.561 538.506 401.952 537.866 402.219C537.226 402.486 536.54 402.624 535.847 402.626ZM516.131 320.336C515.083 320.342 514.057 320.036 513.182 319.458C512.308 318.88 511.625 318.056 511.22 317.089C510.814 316.122 510.706 315.057 510.907 314.029C511.108 313 511.61 312.055 512.349 311.311C513.088 310.568 514.031 310.062 515.059 309.855C516.087 309.648 517.153 309.752 518.122 310.151C519.091 310.551 519.92 311.229 520.503 312.1C521.086 312.971 521.397 313.996 521.397 315.044C521.399 315.737 521.265 316.424 521.001 317.065C520.737 317.706 520.35 318.289 519.861 318.78C519.372 319.272 518.791 319.662 518.151 319.929C517.511 320.196 516.825 320.334 516.131 320.336ZM516.131 340.908C515.083 340.914 514.057 340.608 513.182 340.03C512.308 339.452 511.625 338.628 511.22 337.661C510.814 336.694 510.706 335.629 510.907 334.601C511.108 333.572 511.61 332.627 512.349 331.884C513.088 331.14 514.031 330.634 515.059 330.427C516.087 330.22 517.153 330.324 518.122 330.723C519.091 331.123 519.92 331.801 520.503 332.672C521.086 333.543 521.397 334.568 521.397 335.616C521.399 336.309 521.265 336.996 521.001 337.637C520.737 338.278 520.35 338.861 519.861 339.352C519.372 339.844 518.791 340.234 518.151 340.501C517.511 340.768 516.825 340.906 516.131 340.908ZM516.131 361.481C515.083 361.487 514.056 361.182 513.181 360.604C512.307 360.025 511.623 359.201 511.218 358.234C510.813 357.267 510.703 356.202 510.905 355.173C511.106 354.144 511.608 353.198 512.347 352.455C513.087 351.712 514.03 351.205 515.058 350.998C516.086 350.791 517.153 350.895 518.122 351.295C519.091 351.694 519.92 352.373 520.503 353.244C521.086 354.116 521.397 355.14 521.397 356.189C521.401 357.588 520.848 358.932 519.861 359.925C518.873 360.917 517.532 361.477 516.131 361.481ZM516.131 382.053C515.083 382.059 514.057 381.753 513.182 381.175C512.308 380.597 511.625 379.773 511.22 378.806C510.814 377.839 510.706 376.774 510.907 375.746C511.108 374.717 511.61 373.772 512.349 373.029C513.088 372.286 514.031 371.779 515.059 371.572C516.087 371.365 517.153 371.469 518.122 371.868C519.091 372.268 519.92 372.946 520.503 373.817C521.086 374.688 521.397 375.713 521.397 376.761C521.399 377.454 521.265 378.141 521.001 378.782C520.738 379.423 520.35 380.006 519.861 380.498C519.372 380.99 518.791 381.38 518.151 381.647C517.511 381.914 516.825 382.052 516.131 382.054V382.053ZM516.131 402.626C515.083 402.632 514.057 402.326 513.182 401.748C512.308 401.17 511.625 400.346 511.22 399.379C510.814 398.412 510.706 397.347 510.907 396.319C511.108 395.29 511.61 394.345 512.349 393.602C513.088 392.859 514.031 392.352 515.059 392.145C516.087 391.938 517.153 392.042 518.122 392.441C519.091 392.841 519.92 393.519 520.503 394.39C521.086 395.261 521.397 396.286 521.397 397.334C521.399 398.027 521.265 398.714 521.001 399.355C520.737 399.996 520.35 400.579 519.861 401.07C519.372 401.562 518.791 401.952 518.151 402.219C517.511 402.486 516.825 402.624 516.131 402.626ZM496.229 340.908C495.18 340.914 494.154 340.609 493.279 340.031C492.405 339.453 491.721 338.628 491.316 337.662C490.911 336.695 490.802 335.63 491.003 334.601C491.204 333.573 491.705 332.627 492.445 331.884C493.184 331.141 494.127 330.634 495.155 330.427C496.183 330.22 497.249 330.323 498.218 330.723C499.187 331.123 500.016 331.801 500.599 332.672C501.182 333.543 501.493 334.568 501.493 335.616C501.497 337.015 500.945 338.358 499.959 339.35C498.972 340.343 497.632 340.903 496.233 340.908H496.229ZM496.229 361.481C495.18 361.487 494.153 361.182 493.278 360.604C492.403 360.026 491.72 359.201 491.314 358.235C490.909 357.268 490.8 356.202 491.001 355.174C491.202 354.145 491.704 353.199 492.443 352.455C493.182 351.712 494.126 351.205 495.154 350.998C496.182 350.791 497.249 350.895 498.218 351.294C499.187 351.694 500.016 352.373 500.599 353.244C501.182 354.116 501.494 355.14 501.493 356.189C501.497 357.588 500.945 358.931 499.959 359.923C498.972 360.916 497.632 361.476 496.233 361.481H496.229ZM496.229 382.053C495.18 382.059 494.154 381.754 493.279 381.176C492.405 380.598 491.721 379.773 491.316 378.807C490.911 377.84 490.802 376.775 491.003 375.746C491.204 374.718 491.705 373.772 492.445 373.029C493.184 372.286 494.127 371.779 495.155 371.572C496.183 371.365 497.249 371.469 498.218 371.868C499.187 372.268 500.016 372.946 500.599 373.817C501.182 374.688 501.493 375.713 501.493 376.761C501.497 378.16 500.946 379.503 499.959 380.496C498.973 381.488 497.632 382.049 496.233 382.054L496.229 382.053ZM496.233 402.626C495.184 402.632 494.158 402.327 493.283 401.749C492.409 401.171 491.725 400.346 491.32 399.38C490.915 398.413 490.806 397.348 491.007 396.32C491.208 395.291 491.709 394.345 492.449 393.602C493.188 392.859 494.131 392.352 495.159 392.145C496.187 391.938 497.253 392.042 498.222 392.441C499.191 392.841 500.02 393.519 500.603 394.39C501.186 395.261 501.497 396.286 501.497 397.334C501.501 398.733 500.949 400.077 499.961 401.07C498.974 402.062 497.633 402.622 496.233 402.626ZM476.329 361.481C475.28 361.487 474.253 361.182 473.378 360.604C472.504 360.026 471.82 359.201 471.415 358.235C471.009 357.268 470.9 356.202 471.101 355.174C471.302 354.145 471.804 353.199 472.543 352.455C473.283 351.712 474.226 351.205 475.254 350.998C476.282 350.791 477.349 350.895 478.318 351.294C479.288 351.694 480.116 352.373 480.699 353.244C481.283 354.116 481.594 355.14 481.594 356.189C481.596 356.882 481.461 357.568 481.197 358.209C480.934 358.851 480.547 359.433 480.058 359.925C479.569 360.416 478.988 360.807 478.348 361.074C477.708 361.341 477.022 361.479 476.329 361.481ZM476.329 382.053C475.281 382.059 474.254 381.754 473.379 381.176C472.505 380.598 471.822 379.773 471.416 378.807C471.011 377.84 470.902 376.775 471.103 375.746C471.304 374.718 471.806 373.772 472.545 373.029C473.284 372.286 474.227 371.779 475.255 371.572C476.283 371.365 477.349 371.469 478.318 371.868C479.288 372.268 480.116 372.946 480.699 373.817C481.282 374.688 481.594 375.713 481.594 376.761C481.596 377.454 481.461 378.141 481.198 378.782C480.934 379.423 480.547 380.006 480.058 380.498C479.569 380.989 478.988 381.38 478.348 381.647C477.709 381.914 477.022 382.052 476.329 382.054V382.053ZM476.329 402.626C475.281 402.632 474.254 402.327 473.379 401.749C472.505 401.171 471.822 400.346 471.416 399.38C471.011 398.413 470.902 397.348 471.103 396.32C471.304 395.291 471.806 394.345 472.545 393.602C473.284 392.859 474.227 392.352 475.255 392.145C476.283 391.938 477.349 392.042 478.318 392.441C479.288 392.841 480.116 393.519 480.699 394.39C481.282 395.261 481.594 396.286 481.594 397.334C481.596 398.027 481.461 398.713 481.197 399.355C480.934 399.996 480.547 400.578 480.058 401.07C479.569 401.561 478.988 401.952 478.348 402.219C477.708 402.486 477.022 402.624 476.329 402.626ZM456.426 299.764C455.378 299.77 454.351 299.465 453.477 298.887C452.602 298.309 451.919 297.484 451.514 296.518C451.108 295.551 450.999 294.486 451.2 293.457C451.401 292.429 451.903 291.483 452.642 290.74C453.381 289.997 454.325 289.49 455.353 289.283C456.38 289.076 457.446 289.179 458.416 289.579C459.385 289.979 460.213 290.657 460.796 291.528C461.38 292.399 461.691 293.424 461.691 294.472C461.693 295.165 461.558 295.851 461.295 296.492C461.031 297.133 460.644 297.716 460.155 298.208C459.666 298.699 459.085 299.09 458.445 299.357C457.806 299.624 457.119 299.762 456.426 299.764ZM456.426 320.336C455.378 320.342 454.351 320.037 453.477 319.459C452.602 318.881 451.919 318.056 451.514 317.09C451.108 316.123 450.999 315.058 451.2 314.029C451.401 313.001 451.903 312.055 452.642 311.312C453.381 310.569 454.325 310.062 455.353 309.855C456.38 309.648 457.446 309.751 458.416 310.151C459.385 310.551 460.213 311.229 460.796 312.1C461.38 312.971 461.691 313.996 461.691 315.044C461.693 315.737 461.558 316.423 461.295 317.064C461.031 317.706 460.644 318.288 460.155 318.78C459.666 319.271 459.085 319.662 458.445 319.929C457.806 320.196 457.119 320.334 456.426 320.336ZM456.426 340.908C455.378 340.914 454.351 340.609 453.477 340.031C452.602 339.453 451.919 338.628 451.514 337.662C451.108 336.695 450.999 335.63 451.2 334.601C451.401 333.573 451.903 332.627 452.642 331.884C453.381 331.141 454.325 330.634 455.353 330.427C456.38 330.22 457.446 330.323 458.416 330.723C459.385 331.123 460.213 331.801 460.796 332.672C461.38 333.543 461.691 334.568 461.691 335.616C461.693 336.309 461.558 336.995 461.295 337.636C461.031 338.278 460.644 338.86 460.155 339.352C459.666 339.843 459.085 340.234 458.445 340.501C457.806 340.768 457.119 340.906 456.426 340.908ZM456.426 361.481C455.377 361.487 454.351 361.182 453.476 360.604C452.601 360.026 451.917 359.201 451.512 358.235C451.106 357.268 450.997 356.202 451.198 355.174C451.399 354.145 451.901 353.199 452.64 352.455C453.38 351.712 454.323 351.205 455.352 350.998C456.38 350.791 457.446 350.895 458.415 351.294C459.385 351.694 460.214 352.373 460.797 353.244C461.38 354.116 461.691 355.14 461.691 356.189C461.693 356.882 461.558 357.568 461.295 358.209C461.031 358.851 460.644 359.433 460.155 359.925C459.666 360.416 459.085 360.807 458.445 361.074C457.806 361.341 457.119 361.479 456.426 361.481ZM456.426 382.053C455.378 382.059 454.351 381.754 453.477 381.176C452.602 380.598 451.919 379.773 451.514 378.807C451.108 377.84 450.999 376.775 451.2 375.746C451.401 374.718 451.903 373.772 452.642 373.029C453.381 372.286 454.325 371.779 455.353 371.572C456.38 371.365 457.446 371.469 458.416 371.868C459.385 372.268 460.213 372.946 460.796 373.817C461.38 374.688 461.691 375.713 461.691 376.761C461.693 377.454 461.558 378.141 461.295 378.782C461.031 379.423 460.644 380.006 460.155 380.498C459.666 380.989 459.086 381.38 458.446 381.647C457.806 381.914 457.12 382.052 456.426 382.054V382.053ZM456.426 402.626C455.378 402.632 454.351 402.327 453.477 401.749C452.602 401.171 451.919 400.346 451.514 399.38C451.108 398.413 450.999 397.348 451.2 396.32C451.401 395.291 451.903 394.345 452.642 393.602C453.381 392.859 454.325 392.352 455.353 392.145C456.38 391.938 457.446 392.042 458.416 392.441C459.385 392.841 460.213 393.519 460.796 394.39C461.38 395.261 461.691 396.286 461.691 397.334C461.693 398.027 461.558 398.713 461.295 399.355C461.031 399.996 460.644 400.578 460.155 401.07C459.666 401.561 459.085 401.952 458.445 402.219C457.806 402.486 457.119 402.624 456.426 402.626ZM436.719 340.908C435.67 340.914 434.644 340.608 433.769 340.03C432.895 339.452 432.212 338.628 431.807 337.661C431.402 336.694 431.293 335.629 431.494 334.601C431.695 333.572 432.197 332.627 432.936 331.884C433.675 331.14 434.618 330.634 435.646 330.427C436.674 330.22 437.74 330.324 438.709 330.723C439.678 331.123 440.507 331.801 441.09 332.672C441.673 333.543 441.984 334.568 441.984 335.616C441.986 336.309 441.852 336.996 441.588 337.637C441.324 338.278 440.937 338.861 440.448 339.352C439.959 339.844 439.378 340.234 438.738 340.501C438.098 340.768 437.412 340.906 436.719 340.908ZM436.719 361.481C435.67 361.487 434.643 361.182 433.768 360.604C432.894 360.025 432.21 359.201 431.805 358.234C431.4 357.267 431.291 356.202 431.492 355.173C431.693 354.144 432.195 353.198 432.934 352.455C433.674 351.712 434.617 351.205 435.645 350.998C436.673 350.791 437.74 350.895 438.709 351.295C439.678 351.694 440.507 352.373 441.09 353.244C441.673 354.116 441.984 355.14 441.984 356.189C441.988 357.588 441.435 358.932 440.448 359.925C439.46 360.917 438.119 361.477 436.719 361.481ZM436.719 382.053C435.67 382.059 434.644 381.753 433.769 381.175C432.895 380.597 432.212 379.773 431.807 378.806C431.402 377.839 431.293 376.774 431.494 375.746C431.695 374.717 432.197 373.772 432.936 373.029C433.675 372.286 434.618 371.779 435.646 371.572C436.674 371.365 437.74 371.469 438.709 371.868C439.678 372.268 440.507 372.946 441.09 373.817C441.673 374.688 441.984 375.713 441.984 376.761C441.986 377.454 441.852 378.141 441.588 378.782C441.325 379.423 440.937 380.006 440.448 380.498C439.959 380.99 439.378 381.38 438.738 381.647C438.098 381.914 437.412 382.052 436.719 382.054V382.053ZM436.719 402.626C435.67 402.632 434.644 402.326 433.769 401.748C432.895 401.17 432.212 400.346 431.807 399.379C431.402 398.412 431.293 397.347 431.494 396.319C431.695 395.29 432.197 394.345 432.936 393.602C433.675 392.859 434.618 392.352 435.646 392.145C436.674 391.938 437.74 392.042 438.709 392.441C439.678 392.841 440.507 393.519 441.09 394.39C441.673 395.261 441.984 396.286 441.984 397.334C441.986 398.027 441.852 398.714 441.588 399.355C441.324 399.996 440.937 400.579 440.448 401.07C439.959 401.562 439.378 401.952 438.738 402.219C438.098 402.486 437.412 402.624 436.719 402.626ZM416.816 258.618C415.767 258.624 414.741 258.319 413.866 257.741C412.992 257.163 412.308 256.338 411.903 255.372C411.498 254.405 411.389 253.34 411.59 252.311C411.791 251.283 412.293 250.337 413.032 249.594C413.771 248.851 414.714 248.344 415.742 248.137C416.77 247.93 417.836 248.033 418.805 248.433C419.774 248.833 420.603 249.511 421.186 250.382C421.769 251.253 422.08 252.278 422.08 253.326C422.082 254.019 421.948 254.705 421.684 255.346C421.421 255.987 421.034 256.57 420.545 257.062C420.056 257.553 419.475 257.944 418.835 258.211C418.195 258.478 417.509 258.616 416.816 258.618ZM416.816 279.191C415.767 279.197 414.741 278.892 413.866 278.314C412.992 277.736 412.308 276.911 411.903 275.945C411.498 274.978 411.389 273.913 411.59 272.884C411.791 271.856 412.293 270.91 413.032 270.167C413.771 269.424 414.714 268.917 415.742 268.71C416.77 268.503 417.836 268.606 418.805 269.006C419.774 269.406 420.603 270.084 421.186 270.955C421.769 271.826 422.08 272.851 422.08 273.899C422.084 275.298 421.532 276.642 420.544 277.635C419.557 278.627 418.216 279.187 416.816 279.191ZM416.816 299.763C415.767 299.769 414.741 299.464 413.866 298.886C412.992 298.308 412.308 297.483 411.903 296.517C411.498 295.55 411.389 294.485 411.59 293.456C411.791 292.428 412.293 291.482 413.032 290.739C413.771 289.996 414.714 289.489 415.742 289.282C416.77 289.075 417.836 289.178 418.805 289.578C419.774 289.978 420.603 290.656 421.186 291.527C421.769 292.398 422.08 293.423 422.08 294.471C422.084 295.87 421.532 297.214 420.545 298.207C419.557 299.2 418.216 299.759 416.816 299.763ZM416.816 320.335C415.767 320.341 414.741 320.036 413.866 319.458C412.992 318.88 412.308 318.055 411.903 317.089C411.498 316.122 411.389 315.057 411.59 314.028C411.791 313 412.293 312.054 413.032 311.311C413.771 310.568 414.714 310.061 415.742 309.854C416.77 309.647 417.836 309.75 418.805 310.15C419.774 310.55 420.603 311.228 421.186 312.099C421.769 312.97 422.08 313.995 422.08 315.043C422.083 315.736 421.948 316.423 421.685 317.064C421.421 317.705 421.034 318.288 420.545 318.78C420.056 319.271 419.475 319.662 418.835 319.929C418.195 320.196 417.509 320.334 416.816 320.336V320.335ZM416.816 340.907C415.767 340.913 414.741 340.608 413.866 340.03C412.992 339.452 412.308 338.627 411.903 337.661C411.498 336.694 411.389 335.629 411.59 334.6C411.791 333.572 412.293 332.626 413.032 331.883C413.771 331.14 414.714 330.633 415.742 330.426C416.77 330.219 417.836 330.322 418.805 330.722C419.774 331.122 420.603 331.8 421.186 332.671C421.769 333.542 422.08 334.567 422.08 335.615C422.084 337.014 421.532 338.359 420.545 339.351C419.557 340.344 418.216 340.903 416.816 340.907ZM416.816 361.48C415.767 361.486 414.74 361.181 413.865 360.603C412.99 360.025 412.307 359.2 411.901 358.234C411.496 357.267 411.387 356.201 411.588 355.173C411.789 354.144 412.291 353.198 413.03 352.454C413.77 351.711 414.713 351.204 415.741 350.997C416.769 350.79 417.836 350.894 418.805 351.293C419.774 351.693 420.603 352.372 421.186 353.243C421.769 354.115 422.081 355.139 422.08 356.188C422.084 357.587 421.532 358.932 420.545 359.924C419.557 360.917 418.216 361.477 416.816 361.481V361.48ZM416.816 382.052C415.767 382.058 414.741 381.753 413.866 381.175C412.992 380.597 412.308 379.772 411.903 378.806C411.498 377.839 411.389 376.774 411.59 375.746C411.791 374.717 412.293 373.771 413.032 373.028C413.771 372.285 414.714 371.778 415.742 371.571C416.77 371.364 417.836 371.468 418.805 371.867C419.774 372.267 420.603 372.945 421.186 373.816C421.769 374.687 422.08 375.712 422.08 376.76C422.083 377.453 421.948 378.14 421.685 378.781C421.421 379.422 421.034 380.005 420.545 380.497C420.056 380.989 419.475 381.379 418.835 381.646C418.195 381.914 417.509 382.052 416.816 382.054V382.052ZM416.816 402.626C415.767 402.632 414.741 402.327 413.866 401.749C412.992 401.171 412.308 400.346 411.903 399.38C411.498 398.413 411.389 397.348 411.59 396.32C411.791 395.291 412.293 394.345 413.032 393.602C413.771 392.859 414.714 392.352 415.742 392.145C416.77 391.938 417.836 392.042 418.805 392.441C419.774 392.841 420.603 393.519 421.186 394.39C421.769 395.261 422.08 396.286 422.08 397.334C422.082 398.027 421.948 398.713 421.684 399.355C421.421 399.996 421.034 400.578 420.545 401.07C420.056 401.561 419.475 401.952 418.835 402.219C418.195 402.486 417.509 402.624 416.816 402.626ZM396.912 320.336C395.864 320.342 394.837 320.037 393.962 319.459C393.088 318.881 392.405 318.056 391.999 317.09C391.594 316.123 391.485 315.058 391.686 314.029C391.887 313.001 392.389 312.055 393.128 311.312C393.867 310.569 394.811 310.062 395.838 309.855C396.866 309.648 397.932 309.751 398.901 310.151C399.871 310.551 400.699 311.229 401.282 312.1C401.865 312.971 402.177 313.996 402.177 315.044C402.179 315.737 402.044 316.423 401.781 317.064C401.517 317.706 401.13 318.288 400.641 318.78C400.152 319.271 399.571 319.662 398.931 319.929C398.291 320.196 397.605 320.334 396.912 320.336ZM396.912 340.908C395.864 340.914 394.837 340.609 393.962 340.031C393.088 339.453 392.405 338.628 391.999 337.662C391.594 336.695 391.485 335.63 391.686 334.601C391.887 333.573 392.389 332.627 393.128 331.884C393.867 331.141 394.811 330.634 395.838 330.427C396.866 330.22 397.932 330.323 398.901 330.723C399.871 331.123 400.699 331.801 401.282 332.672C401.865 333.543 402.177 334.568 402.177 335.616C402.179 336.309 402.044 336.995 401.781 337.636C401.517 338.278 401.13 338.86 400.641 339.352C400.152 339.843 399.571 340.234 398.931 340.501C398.291 340.768 397.605 340.906 396.912 340.908ZM396.912 361.481C395.863 361.487 394.836 361.182 393.962 360.604C393.087 360.026 392.403 359.201 391.998 358.235C391.592 357.268 391.483 356.202 391.684 355.174C391.885 354.145 392.387 353.199 393.126 352.455C393.866 351.712 394.809 351.205 395.837 350.998C396.866 350.791 397.932 350.895 398.901 351.294C399.871 351.694 400.699 352.373 401.283 353.244C401.866 354.116 402.177 355.14 402.177 356.189C402.179 356.882 402.044 357.568 401.781 358.209C401.517 358.851 401.13 359.433 400.641 359.925C400.152 360.416 399.571 360.807 398.931 361.074C398.291 361.341 397.605 361.479 396.912 361.481ZM396.912 382.053C395.864 382.059 394.837 381.754 393.962 381.176C393.088 380.598 392.405 379.773 391.999 378.807C391.594 377.84 391.485 376.775 391.686 375.746C391.887 374.718 392.389 373.772 393.128 373.029C393.867 372.286 394.811 371.779 395.838 371.572C396.866 371.365 397.932 371.469 398.901 371.868C399.871 372.268 400.699 372.946 401.282 373.817C401.865 374.688 402.177 375.713 402.177 376.761C402.179 377.454 402.044 378.141 401.781 378.782C401.517 379.423 401.13 380.006 400.641 380.498C400.152 380.989 399.571 381.38 398.932 381.647C398.292 381.914 397.605 382.052 396.912 382.054V382.053ZM396.912 402.626C395.864 402.632 394.837 402.327 393.962 401.749C393.088 401.171 392.405 400.346 391.999 399.38C391.594 398.413 391.485 397.348 391.686 396.32C391.887 395.291 392.389 394.345 393.128 393.602C393.867 392.859 394.811 392.352 395.838 392.145C396.866 391.938 397.932 392.042 398.901 392.441C399.871 392.841 400.699 393.519 401.282 394.39C401.865 395.261 402.177 396.286 402.177 397.334C402.179 398.027 402.044 398.713 401.781 399.355C401.517 399.996 401.13 400.578 400.641 401.07C400.152 401.561 399.571 401.952 398.931 402.219C398.291 402.486 397.605 402.624 396.912 402.626ZM377.008 340.908C375.96 340.914 374.933 340.609 374.059 340.031C373.184 339.453 372.501 338.628 372.096 337.662C371.69 336.695 371.581 335.63 371.782 334.601C371.983 333.573 372.485 332.627 373.224 331.884C373.963 331.141 374.907 330.634 375.935 330.427C376.962 330.22 378.029 330.323 378.998 330.723C379.967 331.123 380.795 331.801 381.379 332.672C381.962 333.543 382.273 334.568 382.273 335.616C382.275 336.309 382.14 336.995 381.877 337.636C381.613 338.278 381.226 338.86 380.737 339.352C380.248 339.843 379.667 340.234 379.028 340.501C378.388 340.768 377.702 340.906 377.008 340.908ZM377.008 361.481C375.96 361.487 374.933 361.182 374.058 360.604C373.183 360.026 372.499 359.201 372.094 358.235C371.688 357.268 371.579 356.202 371.78 355.174C371.981 354.145 372.483 353.199 373.223 352.455C373.962 351.712 374.906 351.205 375.934 350.998C376.962 350.791 378.028 350.895 378.998 351.294C379.967 351.694 380.796 352.373 381.379 353.244C381.962 354.116 382.273 355.14 382.273 356.189C382.275 356.882 382.14 357.568 381.877 358.209C381.613 358.851 381.226 359.433 380.737 359.925C380.248 360.416 379.667 360.807 379.028 361.074C378.388 361.341 377.702 361.479 377.008 361.481ZM377.008 382.053C375.96 382.059 374.933 381.754 374.059 381.176C373.184 380.598 372.501 379.773 372.096 378.807C371.69 377.84 371.581 376.775 371.782 375.746C371.983 374.718 372.485 373.772 373.224 373.029C373.963 372.286 374.907 371.779 375.935 371.572C376.962 371.365 378.029 371.469 378.998 371.868C379.967 372.268 380.795 372.946 381.379 373.817C381.962 374.688 382.273 375.713 382.273 376.761C382.275 377.454 382.141 378.141 381.877 378.782C381.614 379.423 381.226 380.006 380.737 380.498C380.249 380.989 379.668 381.38 379.028 381.647C378.388 381.914 377.702 382.052 377.008 382.054V382.053ZM377.008 402.626C375.96 402.632 374.933 402.327 374.059 401.749C373.184 401.171 372.501 400.346 372.096 399.38C371.69 398.413 371.581 397.348 371.782 396.32C371.983 395.291 372.485 394.345 373.224 393.602C373.963 392.859 374.907 392.352 375.935 392.145C376.962 391.938 378.029 392.042 378.998 392.441C379.967 392.841 380.795 393.519 381.379 394.39C381.962 395.261 382.273 396.286 382.273 397.334C382.275 398.027 382.14 398.713 381.877 399.355C381.613 399.996 381.226 400.578 380.737 401.07C380.248 401.561 379.667 401.952 379.028 402.219C378.388 402.486 377.702 402.624 377.008 402.626ZM357.301 340.908C356.252 340.913 355.226 340.608 354.352 340.029C353.478 339.451 352.795 338.626 352.39 337.66C351.985 336.693 351.877 335.628 352.078 334.6C352.279 333.571 352.781 332.626 353.521 331.883C354.26 331.14 355.203 330.633 356.231 330.427C357.259 330.22 358.325 330.324 359.294 330.723C360.263 331.123 361.091 331.802 361.674 332.672C362.257 333.543 362.568 334.568 362.568 335.616C362.57 336.309 362.436 336.996 362.172 337.637C361.908 338.278 361.521 338.861 361.031 339.353C360.542 339.844 359.961 340.235 359.321 340.502C358.681 340.768 357.994 340.907 357.301 340.908ZM357.301 361.481C356.252 361.487 355.225 361.181 354.351 360.603C353.477 360.024 352.793 359.199 352.388 358.232C351.983 357.266 351.875 356.2 352.076 355.172C352.277 354.143 352.779 353.197 353.519 352.454C354.259 351.711 355.202 351.204 356.23 350.998C357.258 350.791 358.324 350.895 359.294 351.295C360.263 351.695 361.091 352.373 361.674 353.245C362.257 354.116 362.569 355.14 362.568 356.189C362.57 356.882 362.435 357.569 362.172 358.21C361.908 358.851 361.52 359.434 361.031 359.926C360.542 360.417 359.961 360.807 359.321 361.074C358.681 361.341 357.994 361.48 357.301 361.481ZM357.301 382.053C356.252 382.059 355.226 381.753 354.352 381.174C353.478 380.596 352.795 379.771 352.39 378.804C351.985 377.838 351.877 376.773 352.078 375.744C352.279 374.716 352.782 373.77 353.521 373.027C354.26 372.285 355.204 371.778 356.232 371.572C357.26 371.365 358.325 371.469 359.294 371.869C360.263 372.269 361.092 372.947 361.675 373.818C362.257 374.689 362.569 375.714 362.568 376.762C362.57 377.455 362.436 378.142 362.172 378.783C361.908 379.424 361.521 380.007 361.031 380.499C360.542 380.99 359.961 381.381 359.321 381.648C358.681 381.915 357.994 382.053 357.301 382.054V382.053ZM357.301 402.626C356.252 402.632 355.226 402.326 354.352 401.747C353.478 401.169 352.795 400.344 352.39 399.378C351.985 398.411 351.877 397.346 352.078 396.318C352.279 395.289 352.781 394.344 353.521 393.601C354.26 392.858 355.203 392.351 356.231 392.145C357.259 391.938 358.325 392.042 359.294 392.442C360.263 392.841 361.091 393.52 361.674 394.391C362.257 395.261 362.568 396.286 362.568 397.334C362.57 398.027 362.436 398.714 362.172 399.355C361.908 399.996 361.521 400.58 361.031 401.071C360.542 401.563 359.961 401.953 359.321 402.22C358.681 402.487 357.994 402.625 357.301 402.626ZM337.398 299.764C336.349 299.77 335.323 299.465 334.448 298.887C333.574 298.309 332.891 297.484 332.485 296.518C332.08 295.551 331.971 294.486 332.172 293.457C332.373 292.429 332.875 291.483 333.614 290.74C334.353 289.997 335.296 289.49 336.324 289.283C337.352 289.076 338.418 289.179 339.387 289.579C340.356 289.979 341.185 290.657 341.768 291.528C342.351 292.399 342.663 293.424 342.663 294.472C342.666 295.871 342.114 297.215 341.126 298.208C340.139 299.2 338.798 299.76 337.398 299.764ZM337.398 320.336C336.349 320.342 335.323 320.037 334.448 319.459C333.574 318.881 332.891 318.056 332.485 317.09C332.08 316.123 331.971 315.058 332.172 314.029C332.373 313.001 332.875 312.055 333.614 311.312C334.353 310.569 335.296 310.062 336.324 309.855C337.352 309.648 338.418 309.751 339.387 310.151C340.356 310.551 341.185 311.229 341.768 312.1C342.351 312.971 342.663 313.996 342.663 315.044C342.665 315.737 342.53 316.423 342.266 317.064C342.003 317.706 341.616 318.288 341.127 318.78C340.638 319.271 340.057 319.662 339.417 319.929C338.777 320.196 338.091 320.334 337.398 320.336ZM337.398 340.908C336.349 340.914 335.323 340.609 334.448 340.031C333.574 339.453 332.891 338.628 332.485 337.662C332.08 336.695 331.971 335.63 332.172 334.601C332.373 333.573 332.875 332.627 333.614 331.884C334.353 331.141 335.296 330.634 336.324 330.427C337.352 330.22 338.418 330.323 339.387 330.723C340.356 331.123 341.185 331.801 341.768 332.672C342.351 333.543 342.663 334.568 342.663 335.616C342.666 337.015 342.114 338.359 341.126 339.352C340.139 340.344 338.798 340.904 337.398 340.908ZM337.398 361.481C336.349 361.487 335.322 361.182 334.447 360.604C333.573 360.026 332.889 359.201 332.484 358.235C332.078 357.268 331.969 356.202 332.17 355.174C332.371 354.145 332.873 353.199 333.612 352.455C334.352 351.712 335.295 351.205 336.323 350.998C337.351 350.791 338.418 350.895 339.387 351.294C340.357 351.694 341.185 352.373 341.768 353.244C342.352 354.116 342.663 355.14 342.663 356.189C342.666 357.588 342.114 358.932 341.126 359.925C340.139 360.917 338.798 361.477 337.398 361.481ZM337.398 382.053C336.349 382.059 335.323 381.754 334.448 381.176C333.574 380.598 332.891 379.773 332.485 378.807C332.08 377.84 331.971 376.775 332.172 375.746C332.373 374.718 332.875 373.772 333.614 373.029C334.353 372.286 335.296 371.779 336.324 371.572C337.352 371.365 338.418 371.469 339.387 371.868C340.356 372.268 341.185 372.946 341.768 373.817C342.351 374.688 342.663 375.713 342.663 376.761C342.667 378.161 342.114 379.505 341.127 380.497C340.139 381.49 338.798 382.05 337.398 382.054V382.053ZM337.398 402.626C336.349 402.632 335.323 402.327 334.448 401.749C333.574 401.171 332.891 400.346 332.485 399.38C332.08 398.413 331.971 397.348 332.172 396.32C332.373 395.291 332.875 394.345 333.614 393.602C334.353 392.859 335.296 392.352 336.324 392.145C337.352 391.938 338.418 392.042 339.387 392.441C340.356 392.841 341.185 393.519 341.768 394.39C342.351 395.261 342.663 396.286 342.663 397.334C342.665 398.027 342.53 398.713 342.266 399.355C342.003 399.996 341.616 400.578 341.127 401.07C340.638 401.561 340.057 401.952 339.417 402.219C338.777 402.486 338.091 402.624 337.398 402.626ZM317.49 258.618C316.442 258.624 315.415 258.319 314.541 257.741C313.666 257.163 312.983 256.338 312.578 255.372C312.172 254.405 312.063 253.34 312.264 252.311C312.465 251.283 312.967 250.337 313.706 249.594C314.445 248.851 315.389 248.344 316.417 248.137C317.444 247.93 318.51 248.033 319.48 248.433C320.449 248.833 321.277 249.511 321.86 250.382C322.444 251.253 322.755 252.278 322.755 253.326C322.757 254.019 322.622 254.705 322.359 255.346C322.095 255.987 321.708 256.57 321.219 257.062C320.73 257.553 320.149 257.944 319.509 258.211C318.87 258.478 318.183 258.616 317.49 258.618ZM317.49 279.191C316.442 279.197 315.415 278.892 314.541 278.314C313.666 277.736 312.983 276.911 312.578 275.945C312.172 274.978 312.063 273.913 312.264 272.884C312.465 271.856 312.967 270.91 313.706 270.167C314.445 269.424 315.389 268.917 316.417 268.71C317.444 268.503 318.51 268.606 319.48 269.006C320.449 269.406 321.277 270.084 321.86 270.955C322.444 271.826 322.755 272.851 322.755 273.899C322.757 274.592 322.622 275.278 322.359 275.919C322.095 276.56 321.708 277.143 321.219 277.635C320.73 278.126 320.149 278.517 319.509 278.784C318.87 279.051 318.183 279.189 317.49 279.191ZM317.49 299.763C316.442 299.769 315.415 299.464 314.541 298.886C313.666 298.308 312.983 297.483 312.578 296.517C312.172 295.55 312.063 294.485 312.264 293.456C312.465 292.428 312.967 291.482 313.706 290.739C314.445 289.996 315.389 289.489 316.417 289.282C317.444 289.075 318.51 289.178 319.48 289.578C320.449 289.978 321.277 290.656 321.86 291.527C322.444 292.398 322.755 293.423 322.755 294.471C322.757 295.164 322.622 295.851 322.359 296.492C322.095 297.133 321.708 297.716 321.219 298.207C320.73 298.699 320.15 299.09 319.51 299.357C318.87 299.624 318.184 299.761 317.49 299.763ZM317.49 320.335C316.442 320.341 315.415 320.036 314.541 319.458C313.666 318.88 312.983 318.055 312.578 317.089C312.172 316.122 312.063 315.057 312.264 314.028C312.465 313 312.967 312.054 313.706 311.311C314.445 310.568 315.389 310.061 316.417 309.854C317.444 309.647 318.51 309.75 319.48 310.15C320.449 310.55 321.277 311.228 321.86 312.099C322.444 312.97 322.755 313.995 322.755 315.043C322.757 315.736 322.622 316.423 322.359 317.064C322.095 317.705 321.708 318.288 321.219 318.78C320.73 319.271 320.15 319.662 319.51 319.929C318.87 320.196 318.184 320.334 317.49 320.336V320.335ZM317.49 340.907C316.442 340.913 315.415 340.608 314.541 340.03C313.666 339.452 312.983 338.627 312.578 337.661C312.172 336.694 312.063 335.629 312.264 334.6C312.465 333.572 312.967 332.626 313.706 331.883C314.445 331.14 315.389 330.633 316.417 330.426C317.444 330.219 318.51 330.322 319.48 330.722C320.449 331.122 321.277 331.8 321.86 332.671C322.444 333.542 322.755 334.567 322.755 335.615C322.757 336.308 322.622 336.995 322.359 337.636C322.095 338.277 321.708 338.86 321.219 339.352C320.73 339.843 320.15 340.234 319.51 340.501C318.87 340.768 318.184 340.905 317.49 340.907ZM317.49 361.48C316.441 361.486 315.415 361.181 314.54 360.603C313.665 360.025 312.981 359.2 312.576 358.234C312.17 357.267 312.061 356.201 312.262 355.173C312.463 354.144 312.965 353.198 313.704 352.454C314.444 351.711 315.387 351.204 316.416 350.997C317.444 350.79 318.51 350.894 319.479 351.293C320.449 351.693 321.278 352.372 321.861 353.243C322.444 354.115 322.755 355.139 322.755 356.188C322.757 356.881 322.622 357.568 322.359 358.209C322.095 358.85 321.708 359.433 321.219 359.925C320.73 360.416 320.15 360.807 319.51 361.074C318.87 361.341 318.184 361.479 317.49 361.481V361.48ZM317.49 382.052C316.442 382.058 315.415 381.753 314.541 381.175C313.666 380.597 312.983 379.772 312.578 378.806C312.172 377.839 312.063 376.774 312.264 375.746C312.465 374.717 312.967 373.771 313.706 373.028C314.445 372.285 315.389 371.778 316.417 371.571C317.444 371.364 318.51 371.468 319.48 371.867C320.449 372.267 321.277 372.945 321.86 373.816C322.444 374.687 322.755 375.712 322.755 376.76C322.757 377.453 322.623 378.14 322.359 378.781C322.096 379.422 321.709 380.006 321.22 380.497C320.731 380.989 320.15 381.379 319.51 381.647C318.87 381.914 318.184 382.052 317.49 382.054V382.052ZM317.49 402.626C316.442 402.632 315.415 402.327 314.541 401.749C313.666 401.171 312.983 400.346 312.578 399.38C312.172 398.413 312.063 397.348 312.264 396.32C312.465 395.291 312.967 394.345 313.706 393.602C314.445 392.859 315.389 392.352 316.417 392.145C317.444 391.938 318.51 392.042 319.48 392.441C320.449 392.841 321.277 393.519 321.86 394.39C322.444 395.261 322.755 396.286 322.755 397.334C322.757 398.027 322.622 398.713 322.359 399.355C322.095 399.996 321.708 400.578 321.219 401.07C320.73 401.561 320.149 401.952 319.509 402.219C318.87 402.486 318.183 402.624 317.49 402.626ZM297.591 320.336C296.543 320.342 295.516 320.037 294.642 319.459C293.767 318.881 293.084 318.056 292.679 317.09C292.273 316.123 292.164 315.058 292.365 314.029C292.566 313.001 293.068 312.055 293.807 311.312C294.547 310.569 295.49 310.062 296.518 309.855C297.546 309.648 298.612 309.751 299.581 310.151C300.55 310.551 301.379 311.229 301.962 312.1C302.545 312.971 302.856 313.996 302.856 315.044C302.858 315.737 302.723 316.423 302.46 317.064C302.196 317.706 301.809 318.288 301.32 318.78C300.831 319.271 300.25 319.662 299.611 319.929C298.971 320.196 298.285 320.334 297.591 320.336ZM297.591 340.908C296.543 340.914 295.516 340.609 294.642 340.031C293.767 339.453 293.084 338.628 292.679 337.662C292.273 336.695 292.164 335.63 292.365 334.601C292.566 333.573 293.068 332.627 293.807 331.884C294.547 331.141 295.49 330.634 296.518 330.427C297.546 330.22 298.612 330.323 299.581 330.723C300.55 331.123 301.379 331.801 301.962 332.672C302.545 333.543 302.856 334.568 302.856 335.616C302.858 336.309 302.723 336.995 302.46 337.636C302.196 338.278 301.809 338.86 301.32 339.352C300.831 339.843 300.25 340.234 299.611 340.501C298.971 340.768 298.285 340.906 297.591 340.908ZM297.591 361.481C296.543 361.487 295.516 361.182 294.641 360.604C293.766 360.026 293.082 359.201 292.677 358.235C292.272 357.268 292.162 356.202 292.363 355.174C292.564 354.145 293.066 353.199 293.806 352.455C294.545 351.712 295.489 351.205 296.517 350.998C297.545 350.791 298.611 350.895 299.581 351.294C300.55 351.694 301.379 352.373 301.962 353.244C302.545 354.116 302.856 355.14 302.856 356.189C302.858 356.882 302.723 357.568 302.46 358.209C302.196 358.851 301.809 359.433 301.32 359.925C300.831 360.416 300.25 360.807 299.611 361.074C298.971 361.341 298.285 361.479 297.591 361.481ZM297.591 382.053C296.543 382.059 295.516 381.754 294.642 381.176C293.767 380.598 293.084 379.773 292.679 378.807C292.273 377.84 292.164 376.775 292.365 375.746C292.566 374.718 293.068 373.772 293.807 373.029C294.547 372.286 295.49 371.779 296.518 371.572C297.546 371.365 298.612 371.469 299.581 371.868C300.55 372.268 301.379 372.946 301.962 373.817C302.545 374.688 302.856 375.713 302.856 376.761C302.858 377.454 302.724 378.141 302.46 378.782C302.197 379.423 301.809 380.006 301.321 380.498C300.832 380.989 300.251 381.38 299.611 381.647C298.971 381.914 298.285 382.052 297.591 382.054V382.053ZM297.591 402.626C296.543 402.632 295.516 402.327 294.642 401.749C293.767 401.171 293.084 400.346 292.679 399.38C292.273 398.413 292.164 397.348 292.365 396.32C292.566 395.291 293.068 394.345 293.807 393.602C294.547 392.859 295.49 392.352 296.518 392.145C297.546 391.938 298.612 392.042 299.581 392.441C300.55 392.841 301.379 393.519 301.962 394.39C302.545 395.261 302.856 396.286 302.856 397.334C302.858 398.027 302.723 398.713 302.46 399.355C302.196 399.996 301.809 400.578 301.32 401.07C300.831 401.561 300.25 401.952 299.611 402.219C298.971 402.486 298.285 402.624 297.591 402.626Z" fill="url(#paint4_linear_263_732)"/>
<path d="M845.093 324.842H722.242C716.771 324.842 712.335 329.276 712.335 334.746V385.255C712.335 390.725 716.771 395.159 722.242 395.159H845.093C850.564 395.159 855 390.725 855 385.255V334.746C855 329.276 850.564 324.842 845.093 324.842Z" fill="white"/>
<path d="M844.599 331.91H723.08V388.292H844.599V331.91Z" fill="white"/>
<mask id="mask0_263_732" style="mask-type:luminance" maskUnits="userSpaceOnUse" x="723" y="331" width="122" height="58">
<path d="M844.599 331.91H723.08V388.292H844.599V331.91Z" fill="white"/>
</mask>
<g mask="url(#mask0_263_732)">
<path d="M725.062 381.104H843.374C843.812 381.433 843.947 345.435 844.292 345.01C844.374 344.911 844.435 344.796 844.471 344.672C844.507 344.549 844.517 344.419 844.502 344.291C844.486 344.163 844.444 344.04 844.379 343.929C844.314 343.818 844.227 343.721 844.124 343.645L839.588 340.238C839.375 340.078 839.108 340.007 838.844 340.04L828.48 341.305C828.363 341.319 828.25 341.353 828.144 341.404L818.578 346.117L809.481 343.701C809.263 343.643 809.033 343.657 808.824 343.742L799.5 347.468L782.239 340.943C782.054 340.874 781.854 340.858 781.661 340.898C781.469 340.937 781.291 341.03 781.149 341.167L779.068 343.194L773.248 339.232C773.134 339.156 773.006 339.103 772.871 339.076C772.736 339.049 772.598 339.05 772.463 339.077C772.329 339.103 772.202 339.156 772.089 339.232C771.975 339.309 771.879 339.407 771.804 339.522L762.095 354.583L757.995 355.084L747.295 349.835C747.129 349.754 746.945 349.719 746.761 349.733C746.577 349.747 746.4 349.809 746.248 349.914L740.808 353.655L735.932 351.228C735.762 351.145 735.574 351.109 735.385 351.124C735.197 351.139 735.016 351.204 734.862 351.313L723.544 359.422C723.094 359.744 724.182 381.508 724.514 381.941C724.622 382.081 724.766 382.189 724.929 382.257C725.093 382.324 725.271 382.347 725.446 382.325C725.619 382.303 725.784 382.239 725.927 382.138" fill="white" fill-opacity="0.3"/>
<path opacity="0.251" d="M725.062 381.104H843.373C843.811 381.433 843.946 345.435 844.291 345.01C844.373 344.911 844.434 344.796 844.47 344.672C844.506 344.549 844.517 344.419 844.501 344.291C844.485 344.163 844.443 344.04 844.378 343.929C844.313 343.818 844.226 343.721 844.123 343.645L839.587 340.238C839.374 340.078 839.107 340.007 838.843 340.04L828.479 341.306C828.362 341.32 828.249 341.354 828.143 341.405L818.578 346.118L809.481 343.702C809.263 343.644 809.033 343.658 808.824 343.743L799.5 347.469L782.24 340.941C782.055 340.872 781.855 340.856 781.663 340.896C781.47 340.935 781.292 341.029 781.15 341.165L779.069 343.192L773.248 339.231C773.134 339.154 773.006 339.101 772.871 339.074C772.736 339.047 772.598 339.048 772.463 339.075C772.329 339.101 772.202 339.154 772.089 339.23C771.975 339.307 771.879 339.405 771.804 339.52L762.095 354.582L757.995 355.083L747.295 349.834C747.129 349.754 746.945 349.718 746.761 349.732C746.577 349.746 746.4 349.808 746.249 349.913L740.808 353.654L735.932 351.227C735.763 351.144 735.574 351.108 735.386 351.123C735.198 351.138 735.017 351.203 734.863 351.312L723.539 359.423C723.089 359.745 724.177 381.509 724.509 381.942C724.618 382.082 724.761 382.19 724.924 382.257C725.088 382.325 725.266 382.348 725.441 382.326C725.614 382.304 725.78 382.24 725.922 382.139" fill="url(#paint5_linear_263_732)"/>
<path d="M724.259 361.168C724.083 361.191 723.905 361.168 723.741 361.101C723.578 361.033 723.435 360.925 723.326 360.785C723.248 360.683 723.191 360.566 723.159 360.441C723.127 360.316 723.121 360.186 723.141 360.059C723.161 359.931 723.206 359.809 723.275 359.7C723.343 359.591 723.433 359.497 723.539 359.423L734.857 351.314C735.012 351.205 735.192 351.14 735.381 351.125C735.569 351.11 735.758 351.146 735.927 351.229L740.804 353.656L746.244 349.915C746.396 349.81 746.572 349.748 746.756 349.734C746.94 349.72 747.124 349.756 747.29 349.837L757.99 355.085L762.091 354.584L771.8 339.523C771.874 339.408 771.971 339.31 772.084 339.234C772.197 339.157 772.325 339.104 772.459 339.078C772.593 339.051 772.732 339.05 772.866 339.077C773.001 339.104 773.129 339.157 773.243 339.234L779.064 343.195L781.144 341.168C781.286 341.032 781.464 340.938 781.657 340.899C781.85 340.859 782.05 340.875 782.234 340.944L799.495 347.47L808.818 343.743C809.027 343.658 809.258 343.644 809.475 343.702L818.572 346.118L828.139 341.405C828.244 341.354 828.358 341.32 828.474 341.306L838.838 340.041C839.103 340.008 839.369 340.079 839.582 340.239L844.118 343.646C844.222 343.722 844.309 343.819 844.374 343.93C844.439 344.041 844.48 344.164 844.496 344.292C844.512 344.42 844.501 344.55 844.465 344.673C844.429 344.797 844.368 344.912 844.286 345.011C844.117 345.216 843.876 345.349 843.612 345.381C843.347 345.413 843.081 345.342 842.868 345.184L838.661 342.024L828.889 343.218L819.13 348.025C818.903 348.138 818.643 348.163 818.399 348.097L809.259 345.67L799.878 349.42C799.636 349.518 799.365 349.521 799.121 349.427L782.102 342.99L779.885 345.147C779.714 345.312 779.491 345.414 779.254 345.435C779.017 345.456 778.78 345.395 778.582 345.263L772.935 341.425L763.536 356.004C763.454 356.129 763.346 356.235 763.218 356.314C763.091 356.393 762.948 356.443 762.799 356.46L757.909 357.054C757.709 357.078 757.507 357.044 757.326 356.955L746.896 351.838L741.454 355.581C741.301 355.685 741.123 355.748 740.938 355.761C740.753 355.774 740.568 355.738 740.401 355.656L735.536 353.233L724.728 360.978C724.59 361.08 724.428 361.145 724.259 361.168Z" fill="#5C96FD"/>
</g>
<path d="M191.211 280.276H167.433C161.962 280.276 157.526 284.71 157.526 290.179V314.939C157.526 320.408 161.962 324.842 167.433 324.842H191.211C196.682 324.842 201.118 320.408 201.118 314.939V290.179C201.118 284.71 196.682 280.276 191.211 280.276Z" fill="white"/>
<path d="M185.444 293.398L188.882 296.83L181.551 304.144L175.548 298.152L164.422 309.27L166.54 311.383L175.548 302.391L181.554 308.385L191.014 298.958L194.452 302.391V293.398H185.444Z" fill="#6C4FFE" stroke="#777E90" stroke-opacity="0.1"/>
<g filter="url(#filter0_d_263_732)">
<path d="M686.574 241.648H661.806C656.334 241.648 651.898 246.082 651.898 251.552V275.321C651.898 280.79 656.334 285.224 661.806 285.224H686.574C692.046 285.224 696.481 280.79 696.481 275.321V251.552C696.481 246.082 692.046 241.648 686.574 241.648Z" fill="white"/>
</g>
<path d="M680.033 254.341L683.472 257.772L676.14 265.086L670.138 259.094L659.012 270.212L661.129 272.326L670.138 263.333L676.143 269.328L685.603 259.901L689.042 263.333V254.341H680.033Z" fill="#5C96FD" stroke="#777E90" stroke-opacity="0.1"/>
<path d="M115.915 352.573H9.9073C4.43565 352.573 0 357.007 0 362.477V424.87C0 430.34 4.43565 434.774 9.9073 434.774H115.915C121.387 434.774 125.823 430.34 125.823 424.87V362.477C125.823 357.007 121.387 352.573 115.915 352.573Z" fill="white"/>
<path d="M107.989 418.928V395.159C107.989 394.633 108.198 394.13 108.57 393.758C108.941 393.387 109.445 393.178 109.971 393.178C110.496 393.178 111 393.387 111.372 393.758C111.744 394.13 111.952 394.633 111.952 395.159V418.928C111.952 419.453 111.744 419.957 111.372 420.328C111 420.7 110.496 420.909 109.971 420.909C109.445 420.909 108.941 420.7 108.57 420.328C108.198 419.957 107.989 419.453 107.989 418.928ZM96.1007 418.135V373.767C96.1007 373.241 96.3095 372.738 96.6811 372.366C97.0527 371.995 97.5567 371.786 98.0822 371.786C98.6077 371.786 99.1117 371.995 99.4833 372.366C99.8549 372.738 100.064 373.241 100.064 373.767V418.135C100.064 418.661 99.8549 419.165 99.4833 419.536C99.1117 419.908 98.6077 420.116 98.0822 420.116C97.5567 420.116 97.0527 419.908 96.6811 419.536C96.3095 419.165 96.1007 418.661 96.1007 418.135ZM84.212 418.135V385.651C84.212 385.126 84.4207 384.622 84.7923 384.251C85.1639 383.879 85.6679 383.67 86.1934 383.67C86.7189 383.67 87.2229 383.879 87.5945 384.251C87.9661 384.622 88.1749 385.126 88.1749 385.651V418.135C88.1749 418.661 87.9661 419.165 87.5945 419.536C87.2229 419.908 86.7189 420.116 86.1934 420.116C85.6679 420.116 85.1639 419.908 84.7923 419.536C84.4207 419.165 84.212 418.661 84.212 418.135ZM72.3232 418.135V370.598C72.3232 370.072 72.532 369.568 72.9035 369.197C73.2751 368.826 73.7791 368.617 74.3047 368.617C74.8302 368.617 75.3342 368.826 75.7058 369.197C76.0774 369.568 76.2861 370.072 76.2861 370.598V418.135C76.2861 418.661 76.0774 419.165 75.7058 419.536C75.3342 419.908 74.8302 420.116 74.3047 420.116C73.7791 420.116 73.2751 419.908 72.9035 419.536C72.532 419.165 72.3232 418.661 72.3232 418.135ZM60.4344 418.135V377.728C60.4344 377.203 60.6432 376.699 61.0148 376.328C61.3864 375.956 61.8904 375.748 62.4159 375.748C62.9414 375.748 63.4454 375.956 63.817 376.328C64.1886 376.699 64.3974 377.203 64.3974 377.728V418.135C64.3974 418.661 64.1886 419.165 63.817 419.536C63.4454 419.908 62.9414 420.116 62.4159 420.116C61.8904 420.116 61.3864 419.908 61.0148 419.536C60.6432 419.165 60.4344 418.661 60.4344 418.135ZM48.5457 418.135V367.428C48.5457 366.903 48.7544 366.399 49.126 366.028C49.4976 365.656 50.0016 365.448 50.5271 365.448C51.0526 365.448 51.5566 365.656 51.9282 366.028C52.2998 366.399 52.5086 366.903 52.5086 367.428V418.135C52.5086 418.661 52.2998 419.165 51.9282 419.536C51.5566 419.908 51.0526 420.116 50.5271 420.116C50.0016 420.116 49.4976 419.908 49.126 419.536C48.7544 419.165 48.5457 418.661 48.5457 418.135ZM36.6569 418.135V398.328C36.6569 397.803 36.8657 397.299 37.2373 396.927C37.6089 396.556 38.1129 396.347 38.6384 396.347C39.1639 396.347 39.6679 396.556 40.0395 396.927C40.4111 397.299 40.6198 397.803 40.6198 398.328V418.135C40.6198 418.661 40.4111 419.165 40.0395 419.536C39.6679 419.908 39.1639 420.116 38.6384 420.116C38.1129 420.116 37.6089 419.908 37.2373 419.536C36.8657 419.165 36.6569 418.661 36.6569 418.135ZM24.7682 418.135V377.728C24.7682 377.203 24.9769 376.699 25.3485 376.328C25.7201 375.956 26.2241 375.748 26.7496 375.748C27.2751 375.748 27.7791 375.956 28.1507 376.328C28.5223 376.699 28.7311 377.203 28.7311 377.728V418.135C28.7311 418.661 28.5223 419.165 28.1507 419.536C27.7791 419.908 27.2751 420.116 26.7496 420.116C26.2241 420.116 25.7201 419.908 25.3485 419.536C24.9769 419.165 24.7682 418.661 24.7682 418.135ZM12.8794 418.135V391.99C12.8794 391.464 13.0882 390.96 13.4598 390.589C13.8313 390.218 14.3353 390.009 14.8609 390.009C15.3864 390.009 15.8904 390.218 16.262 390.589C16.6336 390.96 16.8423 391.464 16.8423 391.99V418.135C16.8423 418.661 16.6336 419.165 16.262 419.536C15.8904 419.908 15.3864 420.116 14.8609 420.116C14.3353 420.116 13.8313 419.908 13.4598 419.536C13.0882 419.165 12.8794 418.661 12.8794 418.135Z" fill="#5C96FD"/>
<path d="M170.406 159.45H78.2677C72.796 159.45 68.3604 163.884 68.3604 169.354V226.795C68.3604 232.265 72.796 236.699 78.2677 236.699H170.406C175.877 236.699 180.313 232.265 180.313 226.795V169.354C180.313 163.884 175.877 159.45 170.406 159.45Z" fill="white"/>
<path d="M118.701 185.556H120.185V188.454H123.013V189.798H120.185V192.696H118.701V189.798H115.873V188.454H118.701V185.556ZM125.251 186.494C125.363 184.73 126.735 183.736 128.597 183.736C130.627 183.736 131.733 184.912 131.733 186.396C131.733 187.614 130.963 188.44 130.165 188.706V188.762C131.229 189.084 131.915 189.966 131.915 191.38C131.915 193.004 130.767 194.236 128.639 194.236C126.707 194.236 125.209 193.228 125.111 191.226H126.651C126.721 192.178 127.421 192.906 128.625 192.906C129.815 192.906 130.403 192.178 130.403 191.226C130.403 189.882 129.535 189.42 127.869 189.42H127.505V188.104H127.883C129.325 188.09 130.207 187.67 130.207 186.578C130.207 185.696 129.633 185.108 128.541 185.108C127.421 185.108 126.903 185.78 126.805 186.494H125.251ZM132.821 196.126L133.815 192.262H135.551L133.857 196.126H132.821ZM137.828 194.18V185.43H136.526V183.974H139.438V194.18H137.828ZM146.503 194.18V192.052H141.435V190.848L146.139 184.1H148.071V190.666H149.373V192.052H148.071V194.18H146.503ZM143.269 190.666H146.573V185.724L143.269 190.666ZM150.443 186.438C150.443 185.052 151.353 184.254 152.571 184.254C153.789 184.254 154.699 185.052 154.699 186.438C154.699 187.838 153.789 188.636 152.571 188.636C151.353 188.636 150.443 187.838 150.443 186.438ZM152.571 185.22C152.025 185.22 151.689 185.57 151.689 186.438C151.689 187.306 152.025 187.67 152.571 187.67C153.103 187.67 153.453 187.306 153.453 186.438C153.453 185.57 153.103 185.22 152.571 185.22ZM151.829 194.18L157.415 184.436H158.983L153.397 194.18H151.829ZM156.141 192.164C156.141 190.764 157.051 189.98 158.269 189.98C159.473 189.98 160.383 190.764 160.383 192.164C160.383 193.564 159.473 194.362 158.269 194.362C157.051 194.362 156.141 193.564 156.141 192.164ZM158.255 190.946C157.723 190.946 157.373 191.296 157.373 192.164C157.373 193.032 157.723 193.382 158.255 193.382C158.787 193.382 159.137 193.032 159.137 192.164C159.137 191.296 158.787 190.946 158.255 190.946Z" fill="#1AD598"/>
<path d="M98.0821 199.56C104.648 199.56 109.971 194.461 109.971 188.171C109.971 181.881 104.648 176.782 98.0821 176.782C91.5161 176.782 86.1934 181.881 86.1934 188.171C86.1934 194.461 91.5161 199.56 98.0821 199.56Z" fill="#1AD598" fill-opacity="0.2"/>
<path d="M94.3839 192.073C94.2246 191.911 94.1353 191.693 94.1353 191.466C94.1353 191.239 94.2246 191.021 94.3839 190.859L99.7458 185.452H96.6914C96.4634 185.452 96.2448 185.362 96.0836 185.201C95.9224 185.04 95.8319 184.821 95.8319 184.593C95.8319 184.365 95.9224 184.147 96.0836 183.986C96.2448 183.825 96.4634 183.734 96.6914 183.734H101.804C101.919 183.734 102.034 183.758 102.14 183.804H102.148H102.156C102.249 183.847 102.334 183.906 102.406 183.979C102.454 184.027 102.496 184.081 102.531 184.139L102.537 184.15L102.547 184.173C102.618 184.301 102.656 184.446 102.656 184.594V189.744C102.656 189.97 102.566 190.186 102.406 190.346C102.246 190.506 102.029 190.596 101.803 190.596C101.577 190.596 101.36 190.506 101.2 190.346C101.04 190.186 100.951 189.97 100.951 189.744V186.668L95.5887 192.073C95.5099 192.153 95.4161 192.216 95.3127 192.259C95.2093 192.302 95.0984 192.324 94.9863 192.324C94.8743 192.324 94.7633 192.302 94.6599 192.259C94.5565 192.216 94.4627 192.153 94.3839 192.073Z" fill="#1AD598"/>
<path d="M99.4433 208.809V212.071H102.999V213.121H99.4433V216.481H103.419V217.531H98.1693V207.759H103.419V208.809H99.4433ZM104.871 213.667C104.871 212.883 105.03 212.197 105.347 211.609C105.664 211.012 106.098 210.55 106.649 210.223C107.209 209.897 107.83 209.733 108.511 209.733C109.183 209.733 109.766 209.878 110.261 210.167C110.756 210.457 111.124 210.821 111.367 211.259V209.859H112.655V217.531H111.367V216.103C111.115 216.551 110.737 216.925 110.233 217.223C109.738 217.513 109.16 217.657 108.497 217.657C107.816 217.657 107.2 217.489 106.649 217.153C106.098 216.817 105.664 216.346 105.347 215.739C105.03 215.133 104.871 214.442 104.871 213.667ZM111.367 213.681C111.367 213.103 111.25 212.599 111.017 212.169C110.784 211.74 110.466 211.413 110.065 211.189C109.673 210.956 109.239 210.839 108.763 210.839C108.287 210.839 107.853 210.951 107.461 211.175C107.069 211.399 106.756 211.726 106.523 212.155C106.29 212.585 106.173 213.089 106.173 213.667C106.173 214.255 106.29 214.769 106.523 215.207C106.756 215.637 107.069 215.968 107.461 216.201C107.853 216.425 108.287 216.537 108.763 216.537C109.239 216.537 109.673 216.425 110.065 216.201C110.466 215.968 110.784 215.637 111.017 215.207C111.25 214.769 111.367 214.26 111.367 213.681ZM116.082 211.105C116.306 210.667 116.623 210.326 117.034 210.083C117.454 209.841 117.963 209.719 118.56 209.719V211.035H118.224C116.796 211.035 116.082 211.81 116.082 213.359V217.531H114.808V209.859H116.082V211.105ZM123.769 209.719C124.702 209.719 125.458 210.004 126.037 210.573C126.615 211.133 126.905 211.945 126.905 213.009V217.531H125.645V213.191C125.645 212.426 125.453 211.843 125.071 211.441C124.688 211.031 124.165 210.825 123.503 210.825C122.831 210.825 122.294 211.035 121.893 211.455C121.501 211.875 121.305 212.487 121.305 213.289V217.531H120.031V209.859H121.305V210.951C121.557 210.559 121.897 210.256 122.327 210.041C122.765 209.827 123.246 209.719 123.769 209.719ZM129.644 208.613C129.401 208.613 129.196 208.529 129.028 208.361C128.86 208.193 128.776 207.988 128.776 207.745C128.776 207.503 128.86 207.297 129.028 207.129C129.196 206.961 129.401 206.877 129.644 206.877C129.877 206.877 130.073 206.961 130.232 207.129C130.4 207.297 130.484 207.503 130.484 207.745C130.484 207.988 130.4 208.193 130.232 208.361C130.073 208.529 129.877 208.613 129.644 208.613ZM130.26 209.859V217.531H128.986V209.859H130.26ZM136.169 209.719C137.102 209.719 137.858 210.004 138.437 210.573C139.016 211.133 139.305 211.945 139.305 213.009V217.531H138.045V213.191C138.045 212.426 137.854 211.843 137.471 211.441C137.088 211.031 136.566 210.825 135.903 210.825C135.231 210.825 134.694 211.035 134.293 211.455C133.901 211.875 133.705 212.487 133.705 213.289V217.531H132.431V209.859H133.705V210.951C133.957 210.559 134.298 210.256 134.727 210.041C135.166 209.827 135.646 209.719 136.169 209.719ZM144.55 209.733C145.213 209.733 145.791 209.878 146.286 210.167C146.79 210.457 147.163 210.821 147.406 211.259V209.859H148.694V217.699C148.694 218.399 148.545 219.02 148.246 219.561C147.947 220.112 147.518 220.541 146.958 220.849C146.407 221.157 145.763 221.311 145.026 221.311C144.018 221.311 143.178 221.073 142.506 220.597C141.834 220.121 141.437 219.473 141.316 218.651H142.576C142.716 219.118 143.005 219.491 143.444 219.771C143.883 220.061 144.41 220.205 145.026 220.205C145.726 220.205 146.295 219.986 146.734 219.547C147.182 219.109 147.406 218.493 147.406 217.699V216.089C147.154 216.537 146.781 216.911 146.286 217.209C145.791 217.508 145.213 217.657 144.55 217.657C143.869 217.657 143.248 217.489 142.688 217.153C142.137 216.817 141.703 216.346 141.386 215.739C141.069 215.133 140.91 214.442 140.91 213.667C140.91 212.883 141.069 212.197 141.386 211.609C141.703 211.012 142.137 210.55 142.688 210.223C143.248 209.897 143.869 209.733 144.55 209.733ZM147.406 213.681C147.406 213.103 147.289 212.599 147.056 212.169C146.823 211.74 146.505 211.413 146.104 211.189C145.712 210.956 145.278 210.839 144.802 210.839C144.326 210.839 143.892 210.951 143.5 211.175C143.108 211.399 142.795 211.726 142.562 212.155C142.329 212.585 142.212 213.089 142.212 213.667C142.212 214.255 142.329 214.769 142.562 215.207C142.795 215.637 143.108 215.968 143.5 216.201C143.892 216.425 144.326 216.537 144.802 216.537C145.278 216.537 145.712 216.425 146.104 216.201C146.505 215.968 146.823 215.637 147.056 215.207C147.289 214.769 147.406 214.26 147.406 213.681ZM153.563 217.657C152.975 217.657 152.448 217.559 151.981 217.363C151.514 217.158 151.146 216.878 150.875 216.523C150.604 216.159 150.455 215.744 150.427 215.277H151.743C151.78 215.66 151.958 215.973 152.275 216.215C152.602 216.458 153.026 216.579 153.549 216.579C154.034 216.579 154.417 216.472 154.697 216.257C154.977 216.043 155.117 215.772 155.117 215.445C155.117 215.109 154.968 214.862 154.669 214.703C154.37 214.535 153.908 214.372 153.283 214.213C152.714 214.064 152.247 213.915 151.883 213.765C151.528 213.607 151.22 213.378 150.959 213.079C150.707 212.771 150.581 212.37 150.581 211.875C150.581 211.483 150.698 211.124 150.931 210.797C151.164 210.471 151.496 210.214 151.925 210.027C152.354 209.831 152.844 209.733 153.395 209.733C154.244 209.733 154.93 209.948 155.453 210.377C155.976 210.807 156.256 211.395 156.293 212.141H155.019C154.991 211.74 154.828 211.418 154.529 211.175C154.24 210.933 153.848 210.811 153.353 210.811C152.896 210.811 152.532 210.909 152.261 211.105C151.99 211.301 151.855 211.558 151.855 211.875C151.855 212.127 151.934 212.337 152.093 212.505C152.261 212.664 152.466 212.795 152.709 212.897C152.961 212.991 153.306 213.098 153.745 213.219C154.296 213.369 154.744 213.518 155.089 213.667C155.434 213.807 155.728 214.022 155.971 214.311C156.223 214.601 156.354 214.979 156.363 215.445C156.363 215.865 156.246 216.243 156.013 216.579C155.78 216.915 155.448 217.181 155.019 217.377C154.599 217.564 154.114 217.657 153.563 217.657Z" fill="#777E90"/>
<path d="M721.251 106.96H629.113C623.642 106.96 619.206 111.394 619.206 116.864V175.296C619.206 180.766 623.642 185.2 629.113 185.2H721.251C726.723 185.2 731.159 180.766 731.159 175.296V116.864C731.159 111.394 726.723 106.96 721.251 106.96Z" fill="white"/>
<path d="M669.644 133.305H671.128V136.203H673.956V137.547H671.128V140.445H669.644V137.547H666.816V136.203H669.644V133.305ZM676.096 141.789V140.627C678.504 138.513 681.038 136.665 681.038 134.663C681.038 133.599 680.576 132.871 679.386 132.871C678.266 132.871 677.664 133.655 677.622 134.803H676.082C676.138 132.591 677.566 131.513 679.372 131.513C681.444 131.513 682.62 132.759 682.62 134.593C682.62 137.071 680.1 138.961 678.462 140.459H682.9V141.789H676.096ZM683.532 143.875L684.526 140.011H686.262L684.568 143.875H683.532ZM688.538 141.929V133.179H687.236V131.723H690.148V141.929H688.538ZM697.213 141.929V139.801H692.145V138.597L696.849 131.849H698.781V138.415H700.083V139.801H698.781V141.929H697.213ZM693.979 138.415H697.283V133.473L693.979 138.415ZM701.153 134.187C701.153 132.801 702.063 132.003 703.281 132.003C704.499 132.003 705.409 132.801 705.409 134.187C705.409 135.587 704.499 136.385 703.281 136.385C702.063 136.385 701.153 135.587 701.153 134.187ZM703.281 132.969C702.735 132.969 702.399 133.319 702.399 134.187C702.399 135.055 702.735 135.419 703.281 135.419C703.813 135.419 704.163 135.055 704.163 134.187C704.163 133.319 703.813 132.969 703.281 132.969ZM702.539 141.929L708.125 132.185H709.693L704.107 141.929H702.539ZM706.851 139.913C706.851 138.513 707.761 137.729 708.979 137.729C710.183 137.729 711.093 138.513 711.093 139.913C711.093 141.313 710.183 142.111 708.979 142.111C707.761 142.111 706.851 141.313 706.851 139.913ZM708.965 138.695C708.433 138.695 708.083 139.045 708.083 139.913C708.083 140.781 708.433 141.131 708.965 141.131C709.497 141.131 709.847 140.781 709.847 139.913C709.847 139.045 709.497 138.695 708.965 138.695Z" fill="#EA3A3D"/>
<path d="M648.928 148.061C655.494 148.061 660.817 142.74 660.817 136.176C660.817 129.613 655.494 124.292 648.928 124.292C642.362 124.292 637.039 129.613 637.039 136.176C637.039 142.74 642.362 148.061 648.928 148.061Z" fill="#EA3A3D" fill-opacity="0.2"/>
<path d="M647.634 140.93C647.405 140.93 647.187 140.839 647.025 140.678C646.864 140.517 646.774 140.298 646.774 140.07C646.774 139.842 646.864 139.624 647.025 139.462C647.187 139.301 647.405 139.211 647.634 139.211H650.688L645.327 133.806C645.167 133.645 645.078 133.426 645.078 133.199C645.078 132.972 645.167 132.754 645.327 132.592C645.406 132.512 645.5 132.449 645.603 132.406C645.707 132.363 645.817 132.341 645.929 132.341C646.042 132.341 646.152 132.363 646.256 132.406C646.359 132.449 646.453 132.512 646.532 132.592L651.894 137.997V134.915C651.894 134.69 651.983 134.473 652.143 134.313C652.303 134.153 652.52 134.064 652.746 134.064C652.972 134.064 653.188 134.153 653.348 134.313C653.508 134.473 653.598 134.69 653.598 134.915V140.065C653.598 140.072 653.598 140.08 653.598 140.087C653.598 140.094 653.598 140.101 653.598 140.108C653.598 140.115 653.598 140.121 653.598 140.128C653.598 140.134 653.598 140.141 653.598 140.147C653.598 140.153 653.598 140.159 653.598 140.165C653.573 140.353 653.488 140.527 653.355 140.661C653.263 140.754 653.151 140.824 653.027 140.867L653.003 140.89H652.988C652.91 140.914 652.828 140.926 652.746 140.926L647.634 140.93Z" fill="#EA3A3D"/>
<path d="M651.28 156.274V166.032H650.006V156.274H651.28ZM657.189 158.22C658.122 158.22 658.878 158.505 659.457 159.074C660.036 159.634 660.325 160.446 660.325 161.51V166.032H659.065V161.692C659.065 160.927 658.874 160.343 658.491 159.942C658.108 159.531 657.586 159.326 656.923 159.326C656.251 159.326 655.714 159.536 655.313 159.956C654.921 160.376 654.725 160.987 654.725 161.79V166.032H653.451V158.36H654.725V159.452C654.977 159.06 655.318 158.757 655.747 158.542C656.186 158.327 656.666 158.22 657.189 158.22ZM663.96 159.41V163.932C663.96 164.305 664.039 164.571 664.198 164.73C664.357 164.879 664.632 164.954 665.024 164.954H665.962V166.032H664.814C664.105 166.032 663.573 165.869 663.218 165.542C662.863 165.215 662.686 164.679 662.686 163.932V159.41H661.692V158.36H662.686V156.428H663.96V158.36H665.962V159.41H663.96ZM674.506 161.902C674.506 162.145 674.492 162.401 674.464 162.672H668.332C668.378 163.428 668.635 164.021 669.102 164.45C669.578 164.87 670.152 165.08 670.824 165.08C671.374 165.08 671.832 164.954 672.196 164.702C672.569 164.441 672.83 164.095 672.98 163.666H674.352C674.146 164.403 673.736 165.005 673.12 165.472C672.504 165.929 671.738 166.158 670.824 166.158C670.096 166.158 669.442 165.995 668.864 165.668C668.294 165.341 667.846 164.879 667.52 164.282C667.193 163.675 667.03 162.975 667.03 162.182C667.03 161.389 667.188 160.693 667.506 160.096C667.823 159.499 668.266 159.041 668.836 158.724C669.414 158.397 670.077 158.234 670.824 158.234C671.552 158.234 672.196 158.393 672.756 158.71C673.316 159.027 673.745 159.466 674.044 160.026C674.352 160.577 674.506 161.202 674.506 161.902ZM673.19 161.636C673.19 161.151 673.082 160.735 672.868 160.39C672.653 160.035 672.359 159.769 671.986 159.592C671.622 159.405 671.216 159.312 670.768 159.312C670.124 159.312 669.573 159.517 669.116 159.928C668.668 160.339 668.411 160.908 668.346 161.636H673.19ZM677.461 159.606C677.685 159.167 678.003 158.827 678.413 158.584C678.833 158.341 679.342 158.22 679.939 158.22V159.536H679.603C678.175 159.536 677.461 160.311 677.461 161.86V166.032H676.187V158.36H677.461V159.606ZM688.41 161.902C688.41 162.145 688.396 162.401 688.368 162.672H682.236C682.283 163.428 682.539 164.021 683.006 164.45C683.482 164.87 684.056 165.08 684.728 165.08C685.279 165.08 685.736 164.954 686.1 164.702C686.473 164.441 686.735 164.095 686.884 163.666H688.256C688.051 164.403 687.64 165.005 687.024 165.472C686.408 165.929 685.643 166.158 684.728 166.158C684 166.158 683.347 165.995 682.768 165.668C682.199 165.341 681.751 164.879 681.424 164.282C681.097 163.675 680.934 162.975 680.934 162.182C680.934 161.389 681.093 160.693 681.41 160.096C681.727 159.499 682.171 159.041 682.74 158.724C683.319 158.397 683.981 158.234 684.728 158.234C685.456 158.234 686.1 158.393 686.66 158.71C687.22 159.027 687.649 159.466 687.948 160.026C688.256 160.577 688.41 161.202 688.41 161.902ZM687.094 161.636C687.094 161.151 686.987 160.735 686.772 160.39C686.557 160.035 686.263 159.769 685.89 159.592C685.526 159.405 685.12 159.312 684.672 159.312C684.028 159.312 683.477 159.517 683.02 159.928C682.572 160.339 682.315 160.908 682.25 161.636H687.094ZM692.808 166.158C692.22 166.158 691.692 166.06 691.226 165.864C690.759 165.659 690.39 165.379 690.12 165.024C689.849 164.66 689.7 164.245 689.672 163.778H690.988C691.025 164.161 691.202 164.473 691.52 164.716C691.846 164.959 692.271 165.08 692.794 165.08C693.279 165.08 693.662 164.973 693.942 164.758C694.222 164.543 694.362 164.273 694.362 163.946C694.362 163.61 694.212 163.363 693.914 163.204C693.615 163.036 693.153 162.873 692.528 162.714C691.958 162.565 691.492 162.415 691.128 162.266C690.773 162.107 690.465 161.879 690.204 161.58C689.952 161.272 689.826 160.871 689.826 160.376C689.826 159.984 689.942 159.625 690.176 159.298C690.409 158.971 690.74 158.715 691.17 158.528C691.599 158.332 692.089 158.234 692.64 158.234C693.489 158.234 694.175 158.449 694.698 158.878C695.22 159.307 695.5 159.895 695.538 160.642H694.264C694.236 160.241 694.072 159.919 693.774 159.676C693.484 159.433 693.092 159.312 692.598 159.312C692.14 159.312 691.776 159.41 691.506 159.606C691.235 159.802 691.1 160.059 691.1 160.376C691.1 160.628 691.179 160.838 691.338 161.006C691.506 161.165 691.711 161.295 691.954 161.398C692.206 161.491 692.551 161.599 692.99 161.72C693.54 161.869 693.988 162.019 694.334 162.168C694.679 162.308 694.973 162.523 695.216 162.812C695.468 163.101 695.598 163.479 695.608 163.946C695.608 164.366 695.491 164.744 695.258 165.08C695.024 165.416 694.693 165.682 694.264 165.878C693.844 166.065 693.358 166.158 692.808 166.158ZM698.96 159.41V163.932C698.96 164.305 699.039 164.571 699.198 164.73C699.357 164.879 699.632 164.954 700.024 164.954H700.962V166.032H699.814C699.105 166.032 698.573 165.869 698.218 165.542C697.863 165.215 697.686 164.679 697.686 163.932V159.41H696.692V158.36H697.686V156.428H698.96V158.36H700.962V159.41H698.96ZM705.222 166.158C704.634 166.158 704.106 166.06 703.64 165.864C703.173 165.659 702.804 165.379 702.534 165.024C702.263 164.66 702.114 164.245 702.086 163.778H703.402C703.439 164.161 703.616 164.473 703.934 164.716C704.26 164.959 704.685 165.08 705.208 165.08C705.693 165.08 706.076 164.973 706.356 164.758C706.636 164.543 706.776 164.273 706.776 163.946C706.776 163.61 706.626 163.363 706.328 163.204C706.029 163.036 705.567 162.873 704.942 162.714C704.372 162.565 703.906 162.415 703.542 162.266C703.187 162.107 702.879 161.879 702.618 161.58C702.366 161.272 702.24 160.871 702.24 160.376C702.24 159.984 702.356 159.625 702.59 159.298C702.823 158.971 703.154 158.715 703.584 158.528C704.013 158.332 704.503 158.234 705.054 158.234C705.903 158.234 706.589 158.449 707.112 158.878C707.634 159.307 707.914 159.895 707.952 160.642H706.678C706.65 160.241 706.486 159.919 706.188 159.676C705.898 159.433 705.506 159.312 705.012 159.312C704.554 159.312 704.19 159.41 703.92 159.606C703.649 159.802 703.514 160.059 703.514 160.376C703.514 160.628 703.593 160.838 703.752 161.006C703.92 161.165 704.125 161.295 704.368 161.398C704.62 161.491 704.965 161.599 705.404 161.72C705.954 161.869 706.402 162.019 706.748 162.168C707.093 162.308 707.387 162.523 707.63 162.812C707.882 163.101 708.012 163.479 708.022 163.946C708.022 164.366 707.905 164.744 707.672 165.08C707.438 165.416 707.107 165.682 706.678 165.878C706.258 166.065 705.772 166.158 705.222 166.158Z" fill="#777E90"/>
</g>
<defs>
<filter id="filter0_d_263_732" x="635.898" y="237.648" width="76.583" height="75.5764" filterUnits="userSpaceOnUse" color-interpolation-filters="sRGB">
<feFlood flood-opacity="0" result="BackgroundImageFix"/>
<feColorMatrix in="SourceAlpha" type="matrix" values="0 0 0 0 0 0 0 0 0 0 0 0 0 0 0 0 0 0 127 0" result="hardAlpha"/>
<feOffset dy="12"/>
<feGaussianBlur stdDeviation="8"/>
<feColorMatrix type="matrix" values="0 0 0 0 0 0 0 0 0 0 0 0 0 0 0 0 0 0 0.039 0"/>
<feBlend mode="normal" in2="BackgroundImageFix" result="effect1_dropShadow_263_732"/>
<feBlend mode="normal" in="SourceGraphic" in2="effect1_dropShadow_263_732" result="shape"/>
</filter>
<linearGradient id="paint0_linear_263_732" x1="427.005" y1="130.729" x2="427.005" y2="693.261" gradientUnits="userSpaceOnUse">
<stop stop-color="#5DC2FF"/>
<stop offset="1" stop-color="#6C4FFE"/>
</linearGradient>
<linearGradient id="paint1_linear_263_732" x1="427.005" y1="62.3935" x2="427.005" y2="761.597" gradientUnits="userSpaceOnUse">
<stop stop-color="#5DC2FF"/>
<stop offset="1" stop-color="#6C4FFE"/>
</linearGradient>
<linearGradient id="paint2_linear_263_732" x1="427.004" y1="204.017" x2="427.004" y2="619.974" gradientUnits="userSpaceOnUse">
<stop stop-color="#5DC2FF"/>
<stop offset="1" stop-color="#6C4FFE"/>
</linearGradient>
<linearGradient id="paint3_linear_263_732" x1="427" y1="130.868" x2="427" y2="823" gradientUnits="userSpaceOnUse">
<stop stop-color="#FCFCFD" stop-opacity="0"/>
<stop offset="0.755208" stop-color="white"/>
</linearGradient>
<linearGradient id="paint4_linear_263_732" x1="426.638" y1="404.945" x2="426.638" y2="245.714" gradientUnits="userSpaceOnUse">
<stop stop-color="#6C4FFE"/>
<stop offset="1" stop-color="#5C96FD"/>
</linearGradient>
<linearGradient id="paint5_linear_263_732" x1="783.97" y1="339.054" x2="783.97" y2="382.334" gradientUnits="userSpaceOnUse">
<stop stop-color="#5C96FD"/>
<stop offset="0.46" stop-color="#5C96FD"/>
<stop offset="1" stop-color="white"/>
</linearGradient>
<clipPath id="clip0_263_732">
<rect width="855" height="823" fill="white"/>
</clipPath>
</defs>
</svg>
