<svg width="252" height="252" viewBox="0 0 252 252" fill="none" xmlns="http://www.w3.org/2000/svg">
<path d="M111.723 14.1421C119.533 6.33165 132.197 6.33165 140.007 14.1421L237.588 111.723C245.398 119.533 245.398 132.197 237.588 140.007L140.007 237.588C132.197 245.398 119.533 245.398 111.723 237.588L14.1421 140.007C6.33162 132.197 6.33162 119.533 14.1421 111.723L111.723 14.1421Z" fill="white"/>
<path d="M177.355 177.095C148.918 205.532 102.812 205.532 74.3748 177.095C45.9375 148.657 45.9373 102.552 74.3748 74.1143C102.812 45.677 148.918 45.677 177.355 74.1143C205.793 102.552 205.792 148.657 177.355 177.095Z" fill="#C8C2FC"/>
<path d="M56.671 106.734C49.694 131.18 55.7385 158.458 74.8564 177.576C103.028 205.748 148.918 205.532 177.355 177.095C205.792 148.657 206.008 102.767 177.837 74.5959L126.347 126.086L56.671 106.734Z" fill="#6C4FFE"/>
</svg>
