<svg width="1242" height="400" viewBox="0 0 1242 400" fill="none" xmlns="http://www.w3.org/2000/svg">
<g opacity="0.5">
<path d="M0 414.729H1241.24" stroke="white"/>
<path d="M0 220.866H1241.24" stroke="white"/>
<path d="M0 350.394H1241.24" stroke="white"/>
<path d="M0 156.531H1241.24" stroke="white"/>
<path d="M0 286.059H1241.24" stroke="white"/>
<path d="M0 92.1959H1241.24" stroke="white"/>
<path d="M329.749 505.5L329.749 0.902008" stroke="white"/>
<path d="M652.49 505.5V0.902008" stroke="white"/>
<path d="M975.23 505.5V0.902008" stroke="white"/>
<path d="M136.104 505.5L136.104 0.902008" stroke="white"/>
<path d="M458.845 505.5L458.845 0.902008" stroke="white"/>
<path d="M781.587 505.5V0.902008" stroke="white"/>
<path d="M1104.33 505.5V0.902008" stroke="white"/>
<path d="M265.201 505.5L265.201 0.902008" stroke="white"/>
<path d="M587.941 505.5V0.902008" stroke="white"/>
<path d="M910.683 505.5V0.902008" stroke="white"/>
<path d="M71.5557 505.5L71.5557 0.902008" stroke="white"/>
<path d="M394.297 505.5L394.297 0.902008" stroke="white"/>
<path d="M717.038 505.5V0.902008" stroke="white"/>
<path d="M1039.78 505.5V0.902008" stroke="white"/>
<path d="M200.652 505.5L200.652 0.902008" stroke="white"/>
<path d="M523.394 505.5V0.902008" stroke="white"/>
<path d="M846.135 505.5V0.902008" stroke="white"/>
<path d="M1168.88 505.5V0.902008" stroke="white"/>
</g>
</svg>
