<svg width="21" height="28" viewBox="0 0 21 28" fill="none" xmlns="http://www.w3.org/2000/svg">
<path d="M18.375 9.33333H17.0625V6.66667C17.0625 2.98667 14.1225 0 10.5 0C6.8775 0 3.9375 2.98667 3.9375 6.66667V9.33333H2.625C1.18125 9.33333 0 10.5333 0 12V25.3333C0 26.8 1.18125 28 2.625 28H18.375C19.8188 28 21 26.8 21 25.3333V12C21 10.5333 19.8188 9.33333 18.375 9.33333ZM10.5 21.3333C9.05625 21.3333 7.875 20.1333 7.875 18.6667C7.875 17.2 9.05625 16 10.5 16C11.9438 16 13.125 17.2 13.125 18.6667C13.125 20.1333 11.9438 21.3333 10.5 21.3333ZM14.5688 9.33333H6.43125V6.66667C6.43125 4.38667 8.25562 2.53333 10.5 2.53333C12.7444 2.53333 14.5688 4.38667 14.5688 6.66667V9.33333Z" fill="#5C96FD"/>
</svg>
