<svg width="574" height="542" viewBox="0 0 574 542" fill="none" xmlns="http://www.w3.org/2000/svg">
<path opacity="0.08" d="M0 20C0 8.95429 8.95431 0 20 0H554C565.046 0 574 8.9543 574 20V522C574 533.046 565.046 542 554 542H20C8.95431 542 0 533.046 0 522V20Z" fill="url(#paint0_linear_263_503)"/>
<path d="M26 44C26 32.9543 34.9543 24 46 24H528C539.046 24 548 32.9543 548 44V498C548 509.046 539.046 518 528 518H46C34.9543 518 26 509.046 26 498V44Z" fill="url(#paint1_linear_263_503)"/>
<g clip-path="url(#clip0_263_503)">
<g opacity="0.9">
<mask id="mask0_263_503" style="mask-type:luminance" maskUnits="userSpaceOnUse" x="116" y="345" width="45" height="91">
<path d="M120.115 345.298H157.377C158.265 345.298 159.117 345.651 159.745 346.279C160.373 346.907 160.726 347.759 160.726 348.647V432.064C160.726 432.952 160.373 433.804 159.745 434.432C159.117 435.06 158.265 435.413 157.377 435.413H120.116C119.676 435.413 119.241 435.326 118.835 435.158C118.429 434.99 118.06 434.743 117.749 434.432C117.438 434.122 117.191 433.753 117.023 433.346C116.855 432.94 116.768 432.505 116.768 432.065V348.645C116.768 347.757 117.121 346.906 117.748 346.278C118.376 345.651 119.227 345.298 120.115 345.298Z" fill="white"/>
</mask>
<g mask="url(#mask0_263_503)">
<path d="M160.726 345.298H116.768V435.413H160.726V345.298Z" fill="url(#paint2_linear_263_503)"/>
</g>
<mask id="mask1_263_503" style="mask-type:luminance" maskUnits="userSpaceOnUse" x="189" y="301" width="45" height="135">
<path d="M192.959 301.546H230.22C231.108 301.546 231.96 301.899 232.588 302.527C233.216 303.155 233.569 304.007 233.569 304.895V432.063C233.569 432.951 233.216 433.803 232.588 434.431C231.96 435.059 231.108 435.412 230.22 435.412H192.959C192.071 435.412 191.22 435.059 190.592 434.432C189.964 433.804 189.612 432.953 189.612 432.065V304.893C189.612 304.005 189.964 303.154 190.592 302.526C191.22 301.899 192.071 301.546 192.959 301.546Z" fill="white"/>
</mask>
<g mask="url(#mask1_263_503)">
<path d="M233.569 301.546H189.612V435.412H233.569V301.546Z" fill="url(#paint3_linear_263_503)"/>
</g>
<mask id="mask2_263_503" style="mask-type:luminance" maskUnits="userSpaceOnUse" x="262" y="327" width="45" height="109">
<path d="M266.11 327.169H303.372C304.26 327.169 305.112 327.522 305.74 328.15C306.368 328.778 306.721 329.63 306.721 330.518V432.064C306.721 432.952 306.368 433.804 305.74 434.432C305.112 435.06 304.26 435.413 303.372 435.413H266.11C265.223 435.413 264.372 435.061 263.745 434.434C263.117 433.807 262.764 432.956 262.763 432.069V330.516C262.763 329.628 263.116 328.777 263.743 328.149C264.371 327.522 265.223 327.169 266.11 327.169Z" fill="white"/>
</mask>
<g mask="url(#mask2_263_503)">
<path d="M306.721 327.169H262.763V435.413H306.721V327.169Z" fill="url(#paint4_linear_263_503)"/>
</g>
<mask id="mask3_263_503" style="mask-type:luminance" maskUnits="userSpaceOnUse" x="335" y="239" width="45" height="197">
<path d="M339.264 239.983H376.528C377.416 239.983 378.267 240.336 378.895 240.963C379.522 241.591 379.875 242.442 379.875 243.33V432.064C379.875 432.952 379.522 433.804 378.894 434.432C378.266 435.06 377.414 435.413 376.526 435.413H339.264C338.376 435.413 337.525 435.06 336.897 434.433C336.27 433.805 335.917 432.954 335.917 432.066V243.33C335.917 242.442 336.27 241.591 336.897 240.963C337.525 240.336 338.376 239.983 339.264 239.983Z" fill="white"/>
</mask>
<g mask="url(#mask3_263_503)">
<path d="M379.875 239.983H335.917V435.413H379.875V239.983Z" fill="url(#paint5_linear_263_503)"/>
</g>
<mask id="mask4_263_503" style="mask-type:luminance" maskUnits="userSpaceOnUse" x="408" y="272" width="45" height="164">
<path d="M411.995 272.811H449.257C450.145 272.811 450.997 273.164 451.625 273.792C452.253 274.42 452.606 275.272 452.606 276.16V432.065C452.606 432.953 452.253 433.804 451.626 434.432C450.998 435.059 450.147 435.412 449.259 435.412H411.995C411.107 435.412 410.256 435.059 409.628 434.432C409.001 433.804 408.648 432.953 408.648 432.065V276.158C408.648 275.27 409.001 274.419 409.628 273.791C410.256 273.164 411.107 272.811 411.995 272.811Z" fill="white"/>
</mask>
<g mask="url(#mask4_263_503)">
<path d="M452.606 272.811H408.648V435.412H452.606V272.811Z" fill="url(#paint6_linear_263_503)"/>
</g>
<mask id="mask5_263_503" style="mask-type:luminance" maskUnits="userSpaceOnUse" x="89" y="432" width="401" height="5">
<path d="M91.545 432.244C90.9969 432.244 90.4713 432.462 90.0838 432.849C89.6962 433.237 89.4785 433.762 89.4785 434.31C89.4785 434.858 89.6962 435.384 90.0838 435.772C90.4713 436.159 90.9969 436.377 91.545 436.377H487.454C488.002 436.377 488.528 436.159 488.915 435.772C489.303 435.384 489.521 434.858 489.521 434.31C489.521 433.762 489.303 433.237 488.915 432.849C488.528 432.462 488.002 432.244 487.454 432.244H91.545Z" fill="white"/>
</mask>
<g mask="url(#mask5_263_503)">
<path d="M489.5 432.244H89.5V436.377H489.5V432.244Z" fill="url(#paint7_linear_263_503)"/>
</g>
<mask id="mask6_263_503" style="mask-type:luminance" maskUnits="userSpaceOnUse" x="127" y="194" width="329" height="110">
<path d="M274.305 281.49L201.648 256.016L127.748 300.256L129.826 303.813L202.093 260.548L275.605 286.32L348.605 199.235L420.291 231.435L420.916 231.717L455.616 210.549L455.716 206.424L421.316 227.377L347.468 194.203L274.305 281.49Z" fill="white"/>
</mask>
<g mask="url(#mask6_263_503)">
<path d="M455.714 194.203H127.753V303.813H455.714V194.203Z" fill="url(#paint8_linear_263_503)"/>
</g>
<mask id="mask7_263_503" style="mask-type:luminance" maskUnits="userSpaceOnUse" x="117" y="289" width="24" height="24">
<path d="M117.087 300.856C117.087 303.174 117.775 305.439 119.062 307.366C120.35 309.293 122.18 310.795 124.321 311.681C126.463 312.568 128.819 312.8 131.092 312.348C133.365 311.895 135.452 310.779 137.091 309.14C138.73 307.502 139.846 305.414 140.298 303.141C140.75 300.868 140.518 298.512 139.631 296.37C138.744 294.229 137.242 292.399 135.315 291.112C133.388 289.824 131.122 289.137 128.805 289.137C125.697 289.137 122.716 290.372 120.519 292.57C118.321 294.767 117.087 297.748 117.087 300.856Z" fill="white"/>
</mask>
<g mask="url(#mask7_263_503)">
<path d="M140.523 289.137H117.087V312.574H140.523V289.137Z" fill="url(#paint9_linear_263_503)"/>
</g>
<mask id="mask8_263_503" style="mask-type:luminance" maskUnits="userSpaceOnUse" x="189" y="245" width="25" height="25">
<path d="M189.987 257.593C189.987 259.911 190.674 262.177 191.961 264.104C193.249 266.031 195.079 267.534 197.22 268.421C199.362 269.308 201.718 269.54 203.991 269.088C206.265 268.636 208.353 267.52 209.992 265.881C211.631 264.242 212.747 262.154 213.2 259.881C213.652 257.607 213.42 255.251 212.533 253.11C211.646 250.968 210.144 249.138 208.217 247.85C206.289 246.562 204.024 245.875 201.706 245.875C198.598 245.875 195.617 247.11 193.42 249.307C191.222 251.505 189.987 254.485 189.987 257.593Z" fill="white"/>
</mask>
<g mask="url(#mask8_263_503)">
<path d="M213.424 245.875H189.987V269.311H213.424V245.875Z" fill="url(#paint10_linear_263_503)"/>
</g>
<mask id="mask9_263_503" style="mask-type:luminance" maskUnits="userSpaceOnUse" x="263" y="271" width="24" height="24">
<path d="M263.186 282.93C263.186 285.247 263.874 287.513 265.161 289.44C266.449 291.367 268.279 292.868 270.42 293.755C272.562 294.642 274.918 294.874 277.191 294.422C279.464 293.969 281.552 292.853 283.19 291.214C284.829 289.576 285.945 287.488 286.397 285.215C286.849 282.942 286.617 280.586 285.73 278.444C284.843 276.303 283.341 274.473 281.414 273.186C279.487 271.898 277.222 271.211 274.904 271.211C271.796 271.211 268.816 272.446 266.618 274.644C264.421 276.841 263.186 279.822 263.186 282.93Z" fill="white"/>
</mask>
<g mask="url(#mask9_263_503)">
<path d="M286.622 271.211H263.186V294.648H286.622V271.211Z" fill="url(#paint11_linear_263_503)"/>
</g>
<mask id="mask10_263_503" style="mask-type:luminance" maskUnits="userSpaceOnUse" x="336" y="185" width="24" height="24">
<path d="M348.103 185C345.785 185 343.519 185.687 341.592 186.975C339.664 188.262 338.162 190.092 337.275 192.234C336.388 194.375 336.156 196.732 336.608 199.005C337.06 201.278 338.176 203.367 339.815 205.006C341.454 206.645 343.542 207.761 345.816 208.213C348.089 208.665 350.446 208.433 352.587 207.546C354.728 206.659 356.559 205.156 357.846 203.229C359.134 201.302 359.821 199.036 359.821 196.718C359.821 193.61 358.586 190.63 356.389 188.432C354.191 186.235 351.211 185 348.103 185Z" fill="white"/>
</mask>
<g mask="url(#mask10_263_503)">
<path d="M359.82 185H336.384V208.437H359.82V185Z" fill="url(#paint12_linear_263_503)"/>
</g>
<mask id="mask11_263_503" style="mask-type:luminance" maskUnits="userSpaceOnUse" x="408" y="217" width="25" height="25">
<path d="M408.967 229.546C408.967 231.863 409.654 234.129 410.942 236.056C412.229 237.983 414.059 239.485 416.201 240.372C418.342 241.259 420.698 241.491 422.971 241.039C425.244 240.587 427.332 239.471 428.971 237.832C430.609 236.193 431.726 234.105 432.178 231.832C432.63 229.559 432.398 227.203 431.511 225.062C430.624 222.92 429.122 221.09 427.195 219.803C425.268 218.515 423.002 217.828 420.685 217.828C417.577 217.828 414.597 219.063 412.399 221.26C410.202 223.458 408.967 226.438 408.967 229.546Z" fill="white"/>
</mask>
<g mask="url(#mask11_263_503)">
<path d="M432.403 217.828H408.967V241.264H432.403V217.828Z" fill="url(#paint13_linear_263_503)"/>
</g>
</g>
<path d="M323.5 105H299.5C293.977 105 289.5 109.477 289.5 115V140C289.5 145.523 293.977 150 299.5 150H323.5C329.023 150 333.5 145.523 333.5 140V115C333.5 109.477 329.023 105 323.5 105Z" fill="white"/>
<path d="M317.679 118.25L321.15 121.715L313.75 129.1L307.691 123.05L296.461 134.276L298.598 136.41L307.691 127.33L313.753 133.383L323.301 123.864L326.772 127.33V118.25H317.679Z" fill="#6C4FFE" stroke="#777E90" stroke-opacity="0.1"/>
<path d="M102 226.688H77C71.4772 226.688 67 231.165 67 236.688V260.688C67 266.211 71.4772 270.688 77 270.688H102C107.523 270.688 112 266.211 112 260.688V236.688C112 231.165 107.523 226.688 102 226.688Z" fill="white"/>
<path d="M95.3962 239.501L98.8672 242.966L91.4672 250.351L85.4082 244.301L74.1782 255.527L76.3152 257.661L85.4082 248.581L91.4702 254.634L101.018 245.115L104.489 248.581V239.501H95.3962Z" fill="#5C96FD" stroke="#777E90" stroke-opacity="0.1"/>
<path d="M497.5 117H404.5C398.977 117 394.5 121.477 394.5 127V153C394.5 158.523 398.977 163 404.5 163H497.5C503.023 163 507.5 158.523 507.5 153V127C507.5 121.477 503.023 117 497.5 117Z" fill="white"/>
<path d="M444.271 137.797H445.755V140.695H448.583V142.039H445.755V144.937H444.271V142.039H441.443V140.695H444.271V137.797ZM451.367 143.649H452.837C453.019 144.559 453.621 145.077 454.685 145.077C455.959 145.077 456.603 144.223 456.603 141.619C456.141 142.263 455.259 142.613 454.335 142.613C452.543 142.613 451.087 141.507 451.087 139.351C451.087 137.321 452.333 135.977 454.475 135.977C457.107 135.977 457.989 137.783 457.989 141.129C457.989 144.573 457.261 146.407 454.587 146.407C452.473 146.407 451.493 145.105 451.367 143.649ZM454.615 141.269C455.749 141.269 456.421 140.499 456.421 139.351C456.421 138.049 455.679 137.307 454.517 137.307C453.327 137.307 452.613 138.133 452.613 139.309C452.613 140.359 453.201 141.269 454.615 141.269ZM458.966 148.367L459.96 144.503H461.696L460.002 148.367H458.966ZM462.853 138.735C462.965 136.971 464.337 135.977 466.199 135.977C468.229 135.977 469.335 137.153 469.335 138.637C469.335 139.855 468.565 140.681 467.767 140.947V141.003C468.831 141.325 469.517 142.207 469.517 143.621C469.517 145.245 468.369 146.477 466.241 146.477C464.309 146.477 462.811 145.469 462.713 143.467H464.253C464.323 144.419 465.023 145.147 466.227 145.147C467.417 145.147 468.005 144.419 468.005 143.467C468.005 142.123 467.137 141.661 465.471 141.661H465.107V140.345H465.485C466.927 140.331 467.809 139.911 467.809 138.819C467.809 137.937 467.235 137.349 466.143 137.349C465.023 137.349 464.505 138.021 464.407 138.735H462.853ZM471.067 146.281V145.119C473.475 143.005 476.009 141.157 476.009 139.155C476.009 138.091 475.547 137.363 474.357 137.363C473.237 137.363 472.635 138.147 472.593 139.295H471.053C471.109 137.083 472.537 136.005 474.343 136.005C476.415 136.005 477.591 137.251 477.591 139.085C477.591 141.563 475.071 143.453 473.433 144.951H477.871V146.281H471.067ZM479.021 138.679C479.021 137.293 479.931 136.495 481.149 136.495C482.367 136.495 483.277 137.293 483.277 138.679C483.277 140.079 482.367 140.877 481.149 140.877C479.931 140.877 479.021 140.079 479.021 138.679ZM481.149 137.461C480.603 137.461 480.267 137.811 480.267 138.679C480.267 139.547 480.603 139.911 481.149 139.911C481.681 139.911 482.031 139.547 482.031 138.679C482.031 137.811 481.681 137.461 481.149 137.461ZM480.407 146.421L485.993 136.677H487.561L481.975 146.421H480.407ZM484.719 144.405C484.719 143.005 485.629 142.221 486.847 142.221C488.051 142.221 488.961 143.005 488.961 144.405C488.961 145.805 488.051 146.603 486.847 146.603C485.629 146.603 484.719 145.805 484.719 144.405ZM486.833 143.187C486.301 143.187 485.951 143.537 485.951 144.405C485.951 145.273 486.301 145.623 486.833 145.623C487.365 145.623 487.715 145.273 487.715 144.405C487.715 143.537 487.365 143.187 486.833 143.187Z" fill="#1AD598"/>
<path d="M423.499 151.999C430.126 151.999 435.499 146.85 435.499 140.499C435.499 134.148 430.126 128.999 423.499 128.999C416.872 128.999 411.499 134.148 411.499 140.499C411.499 146.85 416.872 151.999 423.499 151.999Z" fill="#1AD598" fill-opacity="0.2"/>
<path d="M419.766 144.439C419.605 144.276 419.515 144.055 419.515 143.826C419.515 143.597 419.605 143.377 419.766 143.213L425.178 137.754H422.095C421.865 137.754 421.644 137.663 421.482 137.5C421.319 137.337 421.228 137.117 421.228 136.887C421.228 136.656 421.319 136.436 421.482 136.273C421.644 136.11 421.865 136.019 422.095 136.019H427.255C427.372 136.019 427.488 136.043 427.595 136.09H427.603H427.611C427.705 136.133 427.79 136.193 427.863 136.266C427.911 136.315 427.954 136.369 427.989 136.428L427.995 136.439L428.005 136.462C428.078 136.592 428.115 136.738 428.115 136.887V142.087C428.115 142.315 428.024 142.534 427.863 142.696C427.702 142.857 427.483 142.948 427.255 142.948C427.026 142.948 426.808 142.857 426.646 142.696C426.485 142.534 426.394 142.315 426.394 142.087V138.981L420.982 144.439C420.903 144.519 420.808 144.583 420.704 144.627C420.599 144.67 420.487 144.693 420.374 144.693C420.261 144.693 420.149 144.67 420.045 144.627C419.94 144.583 419.846 144.519 419.766 144.439Z" fill="#1AD598"/>
<path d="M243.5 169H150.5C144.977 169 140.5 173.477 140.5 179V205C140.5 210.523 144.977 215 150.5 215H243.5C249.023 215 253.5 210.523 253.5 205V179C253.5 173.477 249.023 169 243.5 169Z" fill="white"/>
<path d="M191.272 189.797H192.756V192.695H195.584V194.039H192.756V196.937H191.272V194.039H188.444V192.695H191.272V189.797ZM197.57 188.257H204.318V189.447L200.426 198.421H198.816L202.75 189.615H197.57V188.257ZM204.914 200.367L205.908 196.503H207.644L205.95 200.367H204.914ZM208.703 198.281V197.119C211.111 195.005 213.645 193.157 213.645 191.155C213.645 190.091 213.183 189.363 211.993 189.363C210.873 189.363 210.271 190.147 210.229 191.295H208.689C208.745 189.083 210.173 188.005 211.979 188.005C214.051 188.005 215.227 189.251 215.227 191.085C215.227 193.563 212.707 195.453 211.069 196.951H215.507V198.281H208.703ZM216.629 188.257H223.377V189.447L219.485 198.421H217.875L221.809 189.615H216.629V188.257ZM224.491 190.679C224.491 189.293 225.401 188.495 226.619 188.495C227.837 188.495 228.747 189.293 228.747 190.679C228.747 192.079 227.837 192.877 226.619 192.877C225.401 192.877 224.491 192.079 224.491 190.679ZM226.619 189.461C226.073 189.461 225.737 189.811 225.737 190.679C225.737 191.547 226.073 191.911 226.619 191.911C227.151 191.911 227.501 191.547 227.501 190.679C227.501 189.811 227.151 189.461 226.619 189.461ZM225.877 198.421L231.463 188.677H233.031L227.445 198.421H225.877ZM230.189 196.405C230.189 195.005 231.099 194.221 232.317 194.221C233.521 194.221 234.431 195.005 234.431 196.405C234.431 197.805 233.521 198.603 232.317 198.603C231.099 198.603 230.189 197.805 230.189 196.405ZM232.303 195.187C231.771 195.187 231.421 195.537 231.421 196.405C231.421 197.273 231.771 197.623 232.303 197.623C232.835 197.623 233.185 197.273 233.185 196.405C233.185 195.537 232.835 195.187 232.303 195.187Z" fill="#1AD598"/>
<path d="M170.5 203.999C177.127 203.999 182.5 198.85 182.5 192.499C182.5 186.148 177.127 180.999 170.5 180.999C163.873 180.999 158.5 186.148 158.5 192.499C158.5 198.85 163.873 203.999 170.5 203.999Z" fill="#1AD598" fill-opacity="0.2"/>
<path d="M166.767 196.439C166.606 196.276 166.516 196.055 166.516 195.826C166.516 195.597 166.606 195.377 166.767 195.213L172.179 189.754H169.096C168.866 189.754 168.645 189.663 168.483 189.5C168.32 189.337 168.229 189.117 168.229 188.887C168.229 188.656 168.32 188.436 168.483 188.273C168.645 188.11 168.866 188.019 169.096 188.019H174.256C174.373 188.019 174.489 188.043 174.596 188.09H174.604H174.612C174.706 188.133 174.791 188.193 174.864 188.266C174.912 188.315 174.955 188.369 174.99 188.428L174.996 188.439L175.006 188.462C175.079 188.592 175.116 188.738 175.116 188.887V194.087C175.116 194.315 175.025 194.534 174.864 194.696C174.703 194.857 174.484 194.948 174.256 194.948C174.027 194.948 173.809 194.857 173.647 194.696C173.486 194.534 173.395 194.315 173.395 194.087V190.981L167.983 196.439C167.904 196.519 167.809 196.583 167.705 196.627C167.6 196.67 167.488 196.693 167.375 196.693C167.262 196.693 167.15 196.67 167.046 196.627C166.941 196.583 166.847 196.519 166.767 196.439Z" fill="#1AD598"/>
</g>
<defs>
<linearGradient id="paint0_linear_263_503" x1="143.5" y1="135.5" x2="143.5" y2="135.5" gradientUnits="userSpaceOnUse">
<stop stop-color="#5C96FD"/>
<stop offset="1" stop-color="#6C4FFE"/>
</linearGradient>
<linearGradient id="paint1_linear_263_503" x1="156.5" y1="147.5" x2="156.5" y2="147.5" gradientUnits="userSpaceOnUse">
<stop stop-color="white" stop-opacity="0"/>
<stop offset="1" stop-color="white"/>
</linearGradient>
<linearGradient id="paint2_linear_263_503" x1="138.747" y1="345.298" x2="138.747" y2="435.413" gradientUnits="userSpaceOnUse">
<stop stop-color="#5C96FD"/>
<stop offset="1" stop-color="#6C4FFE"/>
</linearGradient>
<linearGradient id="paint3_linear_263_503" x1="211.59" y1="301.546" x2="211.59" y2="435.412" gradientUnits="userSpaceOnUse">
<stop stop-color="#5C96FD"/>
<stop offset="1" stop-color="#6C4FFE"/>
</linearGradient>
<linearGradient id="paint4_linear_263_503" x1="284.742" y1="327.169" x2="284.742" y2="435.413" gradientUnits="userSpaceOnUse">
<stop stop-color="#5C96FD"/>
<stop offset="1" stop-color="#6C4FFE"/>
</linearGradient>
<linearGradient id="paint5_linear_263_503" x1="357.896" y1="239.983" x2="357.896" y2="435.413" gradientUnits="userSpaceOnUse">
<stop stop-color="#5C96FD"/>
<stop offset="1" stop-color="#6C4FFE"/>
</linearGradient>
<linearGradient id="paint6_linear_263_503" x1="430.627" y1="272.811" x2="430.627" y2="435.412" gradientUnits="userSpaceOnUse">
<stop stop-color="#5C96FD"/>
<stop offset="1" stop-color="#6C4FFE"/>
</linearGradient>
<linearGradient id="paint7_linear_263_503" x1="289.5" y1="432.244" x2="289.5" y2="436.377" gradientUnits="userSpaceOnUse">
<stop stop-color="#5C96FD"/>
<stop offset="1" stop-color="#6C4FFE"/>
</linearGradient>
<linearGradient id="paint8_linear_263_503" x1="291.733" y1="194.203" x2="291.733" y2="303.813" gradientUnits="userSpaceOnUse">
<stop stop-color="#5C96FD"/>
<stop offset="1" stop-color="#6C4FFE"/>
</linearGradient>
<linearGradient id="paint9_linear_263_503" x1="128.805" y1="289.137" x2="128.805" y2="312.574" gradientUnits="userSpaceOnUse">
<stop stop-color="#5C96FD"/>
<stop offset="1" stop-color="#6C4FFE"/>
</linearGradient>
<linearGradient id="paint10_linear_263_503" x1="201.705" y1="245.875" x2="201.705" y2="269.311" gradientUnits="userSpaceOnUse">
<stop stop-color="#5C96FD"/>
<stop offset="1" stop-color="#6C4FFE"/>
</linearGradient>
<linearGradient id="paint11_linear_263_503" x1="274.904" y1="271.211" x2="274.904" y2="294.648" gradientUnits="userSpaceOnUse">
<stop stop-color="#5C96FD"/>
<stop offset="1" stop-color="#6C4FFE"/>
</linearGradient>
<linearGradient id="paint12_linear_263_503" x1="348.102" y1="185" x2="348.102" y2="208.437" gradientUnits="userSpaceOnUse">
<stop stop-color="#5C96FD"/>
<stop offset="1" stop-color="#6C4FFE"/>
</linearGradient>
<linearGradient id="paint13_linear_263_503" x1="420.685" y1="217.828" x2="420.685" y2="241.264" gradientUnits="userSpaceOnUse">
<stop stop-color="#5C96FD"/>
<stop offset="1" stop-color="#6C4FFE"/>
</linearGradient>
<clipPath id="clip0_263_503">
<rect width="440.5" height="331.376" fill="white" transform="translate(67 105)"/>
</clipPath>
</defs>
</svg>
