<svg width="962" height="302" viewBox="0 0 962 302" fill="none" xmlns="http://www.w3.org/2000/svg">
<path opacity="0.25" d="M781 241H721V301H781V241Z" fill="url(#paint0_linear_447_1612)"/>
<path opacity="0.02" d="M61 241H1V301H61V241Z" fill="url(#paint1_linear_447_1612)"/>
<path opacity="0.02" d="M61 181H1V241H61V181Z" fill="url(#paint2_linear_447_1612)"/>
<path opacity="0.02" d="M61 121H1V181H61V121Z" fill="url(#paint3_linear_447_1612)"/>
<path opacity="0.02" d="M61 61H1V121H61V61Z" fill="url(#paint4_linear_447_1612)"/>
<path opacity="0.25" d="M61 1H1V61H61V1Z" fill="url(#paint5_linear_447_1612)"/>
<path opacity="0.25" d="M541 241H481V301H541V241Z" fill="url(#paint6_linear_447_1612)"/>
<path opacity="0.05" d="M541 181H481V241H541V181Z" fill="url(#paint7_linear_447_1612)"/>
<path opacity="0.05" d="M541 121H481V181H541V121Z" fill="url(#paint8_linear_447_1612)"/>
<path opacity="0.05" d="M541 61H481V121H541V61Z" fill="url(#paint9_linear_447_1612)"/>
<path opacity="0.05" d="M541 1H481V61H541V1Z" fill="url(#paint10_linear_447_1612)"/>
<path opacity="0.02" d="M301 241H241V301H301V241Z" fill="url(#paint11_linear_447_1612)"/>
<path opacity="0.05" d="M301 181H241V241H301V181Z" fill="url(#paint12_linear_447_1612)"/>
<path opacity="0.05" d="M301 121H241V181H301V121Z" fill="url(#paint13_linear_447_1612)"/>
<path opacity="0.05" d="M301 61H241V121H301V61Z" fill="url(#paint14_linear_447_1612)"/>
<path opacity="0.25" d="M301 1H241V61H301V1Z" fill="url(#paint15_linear_447_1612)"/>
<path opacity="0.05" d="M781 181H721V241H781V181Z" fill="url(#paint16_linear_447_1612)"/>
<path opacity="0.25" d="M781 121H721V181H781V121Z" fill="url(#paint17_linear_447_1612)"/>
<path opacity="0.05" d="M781 61H721V121H781V61Z" fill="url(#paint18_linear_447_1612)"/>
<path opacity="0.05" d="M781 1H721V61H781V1Z" fill="url(#paint19_linear_447_1612)"/>
<path opacity="0.02" d="M181 241H121V301H181V241Z" fill="url(#paint20_linear_447_1612)"/>
<path opacity="0.05" d="M181 181H121V241H181V181Z" fill="url(#paint21_linear_447_1612)"/>
<path opacity="0.05" d="M181 121H121V181H181V121Z" fill="url(#paint22_linear_447_1612)"/>
<path opacity="0.25" d="M181 61H121V121H181V61Z" fill="url(#paint23_linear_447_1612)"/>
<path opacity="0.05" d="M181 1H121V61H181V1Z" fill="url(#paint24_linear_447_1612)"/>
<path opacity="0.02" d="M661 241H601V301H661V241Z" fill="url(#paint25_linear_447_1612)"/>
<path opacity="0.25" d="M661 181H601V241H661V181Z" fill="url(#paint26_linear_447_1612)"/>
<path opacity="0.05" d="M661 121H601V181H661V121Z" fill="url(#paint27_linear_447_1612)"/>
<path opacity="0.05" d="M661 61H601V121H661V61Z" fill="url(#paint28_linear_447_1612)"/>
<path opacity="0.05" d="M661 1H601V61H661V1Z" fill="url(#paint29_linear_447_1612)"/>
<path opacity="0.02" d="M421 241H361V301H421V241Z" fill="url(#paint30_linear_447_1612)"/>
<path opacity="0.05" d="M421 181H361V241H421V181Z" fill="url(#paint31_linear_447_1612)"/>
<path opacity="0.05" d="M421 121H361V181H421V121Z" fill="url(#paint32_linear_447_1612)"/>
<path opacity="0.25" d="M421 61H361V121H421V61Z" fill="url(#paint33_linear_447_1612)"/>
<path opacity="0.05" d="M421 1H361V61H421V1Z" fill="url(#paint34_linear_447_1612)"/>
<path opacity="0.02" d="M901 241H841V301H901V241Z" fill="url(#paint35_linear_447_1612)"/>
<path opacity="0.25" d="M901 181H841V241H901V181Z" fill="url(#paint36_linear_447_1612)"/>
<path opacity="0.05" d="M901 121H841V181H901V121Z" fill="url(#paint37_linear_447_1612)"/>
<path opacity="0.05" d="M901 61H841V121H901V61Z" fill="url(#paint38_linear_447_1612)"/>
<path opacity="0.05" d="M901 1H841V61H901V1Z" fill="url(#paint39_linear_447_1612)"/>
<path opacity="0.02" d="M121 241H61V301H121V241Z" fill="url(#paint40_linear_447_1612)"/>
<path opacity="0.25" d="M121 181H61V241H121V181Z" fill="url(#paint41_linear_447_1612)"/>
<path opacity="0.05" d="M121 121H61V181H121V121Z" fill="url(#paint42_linear_447_1612)"/>
<path opacity="0.05" d="M121 61H61V121H121V61Z" fill="url(#paint43_linear_447_1612)"/>
<path opacity="0.05" d="M121 1H61V61H121V1Z" fill="url(#paint44_linear_447_1612)"/>
<path opacity="0.02" d="M601 241H541V301H601V241Z" fill="url(#paint45_linear_447_1612)"/>
<path opacity="0.05" d="M601 181H541V241H601V181Z" fill="url(#paint46_linear_447_1612)"/>
<path opacity="0.05" d="M601 121H541V181H601V121Z" fill="url(#paint47_linear_447_1612)"/>
<path opacity="0.25" d="M601 61H541V121H601V61Z" fill="url(#paint48_linear_447_1612)"/>
<path opacity="0.05" d="M601 1H541V61H601V1Z" fill="url(#paint49_linear_447_1612)"/>
<path opacity="0.02" d="M361 241H301V301H361V241Z" fill="url(#paint50_linear_447_1612)"/>
<path opacity="0.25" d="M361 181H301V241H361V181Z" fill="url(#paint51_linear_447_1612)"/>
<path opacity="0.05" d="M361 121H301V181H361V121Z" fill="url(#paint52_linear_447_1612)"/>
<path opacity="0.05" d="M361 61H301V121H361V61Z" fill="url(#paint53_linear_447_1612)"/>
<path opacity="0.05" d="M361 1H301V61H361V1Z" fill="url(#paint54_linear_447_1612)"/>
<path opacity="0.02" d="M841 241H781V301H841V241Z" fill="url(#paint55_linear_447_1612)"/>
<path opacity="0.05" d="M841 181H781V241H841V181Z" fill="url(#paint56_linear_447_1612)"/>
<path opacity="0.05" d="M841 121H781V181H841V121Z" fill="url(#paint57_linear_447_1612)"/>
<path opacity="0.25" d="M841 61H781V121H841V61Z" fill="url(#paint58_linear_447_1612)"/>
<path opacity="0.05" d="M841 1H781V61H841V1Z" fill="url(#paint59_linear_447_1612)"/>
<path opacity="0.25" d="M241 241H181V301H241V241Z" fill="url(#paint60_linear_447_1612)"/>
<path opacity="0.05" d="M241 181H181V241H241V181Z" fill="url(#paint61_linear_447_1612)"/>
<path opacity="0.25" d="M241 121H181V181H241V121Z" fill="url(#paint62_linear_447_1612)"/>
<path opacity="0.05" d="M241 61H181V121H241V61Z" fill="url(#paint63_linear_447_1612)"/>
<path opacity="0.05" d="M241 1H181V61H241V1Z" fill="url(#paint64_linear_447_1612)"/>
<path opacity="0.02" d="M721 241H661V301H721V241Z" fill="url(#paint65_linear_447_1612)"/>
<path opacity="0.05" d="M721 181H661V241H721V181Z" fill="url(#paint66_linear_447_1612)"/>
<path opacity="0.05" d="M721 121H661V181H721V121Z" fill="url(#paint67_linear_447_1612)"/>
<path opacity="0.05" d="M721 61H661V121H721V61Z" fill="url(#paint68_linear_447_1612)"/>
<path opacity="0.25" d="M721 1H661V61H721V1Z" fill="url(#paint69_linear_447_1612)"/>
<path opacity="0.02" d="M481 241H421V301H481V241Z" fill="url(#paint70_linear_447_1612)"/>
<path opacity="0.05" d="M481 181H421V241H481V181Z" fill="url(#paint71_linear_447_1612)"/>
<path opacity="0.25" d="M481 121H421V181H481V121Z" fill="url(#paint72_linear_447_1612)"/>
<path opacity="0.05" d="M481 61H421V121H481V61Z" fill="url(#paint73_linear_447_1612)"/>
<path opacity="0.05" d="M481 1H421V61H481V1Z" fill="url(#paint74_linear_447_1612)"/>
<path opacity="0.02" d="M961 241H901V301H961V241Z" fill="url(#paint75_linear_447_1612)"/>
<path opacity="0.02" d="M961 181H901V241H961V181Z" fill="url(#paint76_linear_447_1612)"/>
<path opacity="0.02" d="M961 121H901V181H961V121Z" fill="url(#paint77_linear_447_1612)"/>
<path opacity="0.25" d="M961 61H901V121H961V61Z" fill="url(#paint78_linear_447_1612)"/>
<path opacity="0.02" d="M961 1H901V61H961V1Z" fill="url(#paint79_linear_447_1612)"/>
<path d="M421 301.5V1" stroke="white" stroke-width="2"/>
<path d="M1.5 301H961.5" stroke="white" stroke-width="2"/>
<path d="M1.5 241H961.5" stroke="white" stroke-width="2"/>
<path d="M1.5 181H961.5" stroke="white" stroke-width="2"/>
<path d="M1.5 121H961.5" stroke="white" stroke-width="2"/>
<path d="M1.5 61H961.5" stroke="white" stroke-width="2"/>
<path d="M1.5 1H961.5" stroke="white" stroke-width="2"/>
<path d="M1.5 301.5V1" stroke="white" stroke-width="2"/>
<path d="M61 301.5V1" stroke="white" stroke-width="2"/>
<path d="M121 301.5V1" stroke="white" stroke-width="2"/>
<path d="M181 301.5V1" stroke="white" stroke-width="2"/>
<path d="M241 301.5V1" stroke="white" stroke-width="2"/>
<path d="M301 301.5V1" stroke="white" stroke-width="2"/>
<path d="M541 301.5V1" stroke="white" stroke-width="2"/>
<path d="M661 301.5V1" stroke="white" stroke-width="2"/>
<path d="M781 301.5V1" stroke="white" stroke-width="2"/>
<path d="M901 301.5V1" stroke="white" stroke-width="2"/>
<path d="M361 301.5V1" stroke="white" stroke-width="2"/>
<path d="M481 301.5V1" stroke="white" stroke-width="2"/>
<path d="M601 301.5V1" stroke="white" stroke-width="2"/>
<path d="M721 301.5V1" stroke="white" stroke-width="2"/>
<path d="M841 301.5V1" stroke="white" stroke-width="2"/>
<path d="M961 301.5V1" stroke="white" stroke-width="2"/>
<defs>
<linearGradient id="paint0_linear_447_1612" x1="751" y1="241" x2="751" y2="301" gradientUnits="userSpaceOnUse">
<stop stop-color="#6C4FFE"/>
<stop offset="1" stop-color="white"/>
</linearGradient>
<linearGradient id="paint1_linear_447_1612" x1="31" y1="241" x2="31" y2="301" gradientUnits="userSpaceOnUse">
<stop stop-color="#6C4FFE"/>
<stop offset="1" stop-color="#6C4FFE"/>
</linearGradient>
<linearGradient id="paint2_linear_447_1612" x1="31" y1="181" x2="31" y2="241" gradientUnits="userSpaceOnUse">
<stop stop-color="#6C4FFE"/>
<stop offset="1" stop-color="#6C4FFE"/>
</linearGradient>
<linearGradient id="paint3_linear_447_1612" x1="31" y1="121" x2="31" y2="181" gradientUnits="userSpaceOnUse">
<stop stop-color="#6C4FFE"/>
<stop offset="1" stop-color="#6C4FFE"/>
</linearGradient>
<linearGradient id="paint4_linear_447_1612" x1="31" y1="61" x2="31" y2="121" gradientUnits="userSpaceOnUse">
<stop stop-color="#6C4FFE"/>
<stop offset="1" stop-color="#6C4FFE"/>
</linearGradient>
<linearGradient id="paint5_linear_447_1612" x1="31" y1="1" x2="31" y2="61" gradientUnits="userSpaceOnUse">
<stop stop-color="#6C4FFE"/>
<stop offset="1" stop-color="white"/>
</linearGradient>
<linearGradient id="paint6_linear_447_1612" x1="511" y1="241" x2="511" y2="301" gradientUnits="userSpaceOnUse">
<stop stop-color="#6C4FFE"/>
<stop offset="1" stop-color="white"/>
</linearGradient>
<linearGradient id="paint7_linear_447_1612" x1="511" y1="181" x2="511" y2="241" gradientUnits="userSpaceOnUse">
<stop stop-color="#6C4FFE"/>
<stop offset="1" stop-color="#6C4FFE"/>
</linearGradient>
<linearGradient id="paint8_linear_447_1612" x1="511" y1="121" x2="511" y2="181" gradientUnits="userSpaceOnUse">
<stop stop-color="#6C4FFE"/>
<stop offset="1" stop-color="#6C4FFE"/>
</linearGradient>
<linearGradient id="paint9_linear_447_1612" x1="511" y1="61" x2="511" y2="121" gradientUnits="userSpaceOnUse">
<stop stop-color="#6C4FFE"/>
<stop offset="1" stop-color="#6C4FFE"/>
</linearGradient>
<linearGradient id="paint10_linear_447_1612" x1="511" y1="1" x2="511" y2="61" gradientUnits="userSpaceOnUse">
<stop stop-color="#6C4FFE"/>
<stop offset="1" stop-color="#6C4FFE"/>
</linearGradient>
<linearGradient id="paint11_linear_447_1612" x1="271" y1="241" x2="271" y2="301" gradientUnits="userSpaceOnUse">
<stop stop-color="#6C4FFE"/>
<stop offset="1" stop-color="#6C4FFE"/>
</linearGradient>
<linearGradient id="paint12_linear_447_1612" x1="271" y1="181" x2="271" y2="241" gradientUnits="userSpaceOnUse">
<stop stop-color="#6C4FFE"/>
<stop offset="1" stop-color="#6C4FFE"/>
</linearGradient>
<linearGradient id="paint13_linear_447_1612" x1="271" y1="121" x2="271" y2="181" gradientUnits="userSpaceOnUse">
<stop stop-color="#6C4FFE"/>
<stop offset="1" stop-color="#6C4FFE"/>
</linearGradient>
<linearGradient id="paint14_linear_447_1612" x1="271" y1="61" x2="271" y2="121" gradientUnits="userSpaceOnUse">
<stop stop-color="#6C4FFE"/>
<stop offset="1" stop-color="#6C4FFE"/>
</linearGradient>
<linearGradient id="paint15_linear_447_1612" x1="271" y1="1" x2="271" y2="61" gradientUnits="userSpaceOnUse">
<stop stop-color="#6C4FFE"/>
<stop offset="1" stop-color="white"/>
</linearGradient>
<linearGradient id="paint16_linear_447_1612" x1="751" y1="181" x2="751" y2="241" gradientUnits="userSpaceOnUse">
<stop stop-color="#6C4FFE"/>
<stop offset="1" stop-color="#6C4FFE"/>
</linearGradient>
<linearGradient id="paint17_linear_447_1612" x1="751" y1="121" x2="751" y2="181" gradientUnits="userSpaceOnUse">
<stop stop-color="#6C4FFE"/>
<stop offset="1" stop-color="white"/>
</linearGradient>
<linearGradient id="paint18_linear_447_1612" x1="751" y1="61" x2="751" y2="121" gradientUnits="userSpaceOnUse">
<stop stop-color="#6C4FFE"/>
<stop offset="1" stop-color="#6C4FFE"/>
</linearGradient>
<linearGradient id="paint19_linear_447_1612" x1="751" y1="1" x2="751" y2="61" gradientUnits="userSpaceOnUse">
<stop stop-color="#6C4FFE"/>
<stop offset="1" stop-color="#6C4FFE"/>
</linearGradient>
<linearGradient id="paint20_linear_447_1612" x1="151" y1="241" x2="151" y2="301" gradientUnits="userSpaceOnUse">
<stop stop-color="#6C4FFE"/>
<stop offset="1" stop-color="#6C4FFE"/>
</linearGradient>
<linearGradient id="paint21_linear_447_1612" x1="151" y1="181" x2="151" y2="241" gradientUnits="userSpaceOnUse">
<stop stop-color="#6C4FFE"/>
<stop offset="1" stop-color="#6C4FFE"/>
</linearGradient>
<linearGradient id="paint22_linear_447_1612" x1="151" y1="121" x2="151" y2="181" gradientUnits="userSpaceOnUse">
<stop stop-color="#6C4FFE"/>
<stop offset="1" stop-color="#6C4FFE"/>
</linearGradient>
<linearGradient id="paint23_linear_447_1612" x1="151" y1="61" x2="151" y2="121" gradientUnits="userSpaceOnUse">
<stop stop-color="#6C4FFE"/>
<stop offset="1" stop-color="white"/>
</linearGradient>
<linearGradient id="paint24_linear_447_1612" x1="151" y1="1" x2="151" y2="61" gradientUnits="userSpaceOnUse">
<stop stop-color="#6C4FFE"/>
<stop offset="1" stop-color="#6C4FFE"/>
</linearGradient>
<linearGradient id="paint25_linear_447_1612" x1="631" y1="241" x2="631" y2="301" gradientUnits="userSpaceOnUse">
<stop stop-color="#6C4FFE"/>
<stop offset="1" stop-color="#6C4FFE"/>
</linearGradient>
<linearGradient id="paint26_linear_447_1612" x1="631" y1="181" x2="631" y2="241" gradientUnits="userSpaceOnUse">
<stop stop-color="#6C4FFE"/>
<stop offset="1" stop-color="white"/>
</linearGradient>
<linearGradient id="paint27_linear_447_1612" x1="631" y1="121" x2="631" y2="181" gradientUnits="userSpaceOnUse">
<stop stop-color="#6C4FFE"/>
<stop offset="1" stop-color="#6C4FFE"/>
</linearGradient>
<linearGradient id="paint28_linear_447_1612" x1="631" y1="61" x2="631" y2="121" gradientUnits="userSpaceOnUse">
<stop stop-color="#6C4FFE"/>
<stop offset="1" stop-color="#6C4FFE"/>
</linearGradient>
<linearGradient id="paint29_linear_447_1612" x1="631" y1="1" x2="631" y2="61" gradientUnits="userSpaceOnUse">
<stop stop-color="#6C4FFE"/>
<stop offset="1" stop-color="#6C4FFE"/>
</linearGradient>
<linearGradient id="paint30_linear_447_1612" x1="391" y1="241" x2="391" y2="301" gradientUnits="userSpaceOnUse">
<stop stop-color="#6C4FFE"/>
<stop offset="1" stop-color="#6C4FFE"/>
</linearGradient>
<linearGradient id="paint31_linear_447_1612" x1="391" y1="181" x2="391" y2="241" gradientUnits="userSpaceOnUse">
<stop stop-color="#6C4FFE"/>
<stop offset="1" stop-color="#6C4FFE"/>
</linearGradient>
<linearGradient id="paint32_linear_447_1612" x1="391" y1="121" x2="391" y2="181" gradientUnits="userSpaceOnUse">
<stop stop-color="#6C4FFE"/>
<stop offset="1" stop-color="#6C4FFE"/>
</linearGradient>
<linearGradient id="paint33_linear_447_1612" x1="391" y1="61" x2="391" y2="121" gradientUnits="userSpaceOnUse">
<stop stop-color="#6C4FFE"/>
<stop offset="1" stop-color="white"/>
</linearGradient>
<linearGradient id="paint34_linear_447_1612" x1="391" y1="1" x2="391" y2="61" gradientUnits="userSpaceOnUse">
<stop stop-color="#6C4FFE"/>
<stop offset="1" stop-color="#6C4FFE"/>
</linearGradient>
<linearGradient id="paint35_linear_447_1612" x1="871" y1="241" x2="871" y2="301" gradientUnits="userSpaceOnUse">
<stop stop-color="#6C4FFE"/>
<stop offset="1" stop-color="#6C4FFE"/>
</linearGradient>
<linearGradient id="paint36_linear_447_1612" x1="871" y1="181" x2="871" y2="241" gradientUnits="userSpaceOnUse">
<stop stop-color="#6C4FFE"/>
<stop offset="1" stop-color="white"/>
</linearGradient>
<linearGradient id="paint37_linear_447_1612" x1="871" y1="121" x2="871" y2="181" gradientUnits="userSpaceOnUse">
<stop stop-color="#6C4FFE"/>
<stop offset="1" stop-color="#6C4FFE"/>
</linearGradient>
<linearGradient id="paint38_linear_447_1612" x1="871" y1="61" x2="871" y2="121" gradientUnits="userSpaceOnUse">
<stop stop-color="#6C4FFE"/>
<stop offset="1" stop-color="#6C4FFE"/>
</linearGradient>
<linearGradient id="paint39_linear_447_1612" x1="871" y1="1" x2="871" y2="61" gradientUnits="userSpaceOnUse">
<stop stop-color="#6C4FFE"/>
<stop offset="1" stop-color="#6C4FFE"/>
</linearGradient>
<linearGradient id="paint40_linear_447_1612" x1="91" y1="241" x2="91" y2="301" gradientUnits="userSpaceOnUse">
<stop stop-color="#6C4FFE"/>
<stop offset="1" stop-color="#6C4FFE"/>
</linearGradient>
<linearGradient id="paint41_linear_447_1612" x1="91" y1="181" x2="91" y2="241" gradientUnits="userSpaceOnUse">
<stop stop-color="#6C4FFE"/>
<stop offset="1" stop-color="white"/>
</linearGradient>
<linearGradient id="paint42_linear_447_1612" x1="91" y1="121" x2="91" y2="181" gradientUnits="userSpaceOnUse">
<stop stop-color="#6C4FFE"/>
<stop offset="1" stop-color="#6C4FFE"/>
</linearGradient>
<linearGradient id="paint43_linear_447_1612" x1="91" y1="61" x2="91" y2="121" gradientUnits="userSpaceOnUse">
<stop stop-color="#6C4FFE"/>
<stop offset="1" stop-color="#6C4FFE"/>
</linearGradient>
<linearGradient id="paint44_linear_447_1612" x1="91" y1="1" x2="91" y2="61" gradientUnits="userSpaceOnUse">
<stop stop-color="#6C4FFE"/>
<stop offset="1" stop-color="#6C4FFE"/>
</linearGradient>
<linearGradient id="paint45_linear_447_1612" x1="571" y1="241" x2="571" y2="301" gradientUnits="userSpaceOnUse">
<stop stop-color="#6C4FFE"/>
<stop offset="1" stop-color="#6C4FFE"/>
</linearGradient>
<linearGradient id="paint46_linear_447_1612" x1="571" y1="181" x2="571" y2="241" gradientUnits="userSpaceOnUse">
<stop stop-color="#6C4FFE"/>
<stop offset="1" stop-color="#6C4FFE"/>
</linearGradient>
<linearGradient id="paint47_linear_447_1612" x1="571" y1="121" x2="571" y2="181" gradientUnits="userSpaceOnUse">
<stop stop-color="#6C4FFE"/>
<stop offset="1" stop-color="#6C4FFE"/>
</linearGradient>
<linearGradient id="paint48_linear_447_1612" x1="571" y1="61" x2="571" y2="121" gradientUnits="userSpaceOnUse">
<stop stop-color="#6C4FFE"/>
<stop offset="1" stop-color="white"/>
</linearGradient>
<linearGradient id="paint49_linear_447_1612" x1="571" y1="1" x2="571" y2="61" gradientUnits="userSpaceOnUse">
<stop stop-color="#6C4FFE"/>
<stop offset="1" stop-color="#6C4FFE"/>
</linearGradient>
<linearGradient id="paint50_linear_447_1612" x1="331" y1="241" x2="331" y2="301" gradientUnits="userSpaceOnUse">
<stop stop-color="#6C4FFE"/>
<stop offset="1" stop-color="#6C4FFE"/>
</linearGradient>
<linearGradient id="paint51_linear_447_1612" x1="331" y1="181" x2="331" y2="241" gradientUnits="userSpaceOnUse">
<stop stop-color="#6C4FFE"/>
<stop offset="1" stop-color="white"/>
</linearGradient>
<linearGradient id="paint52_linear_447_1612" x1="331" y1="121" x2="331" y2="181" gradientUnits="userSpaceOnUse">
<stop stop-color="#6C4FFE"/>
<stop offset="1" stop-color="#6C4FFE"/>
</linearGradient>
<linearGradient id="paint53_linear_447_1612" x1="331" y1="61" x2="331" y2="121" gradientUnits="userSpaceOnUse">
<stop stop-color="#6C4FFE"/>
<stop offset="1" stop-color="#6C4FFE"/>
</linearGradient>
<linearGradient id="paint54_linear_447_1612" x1="331" y1="1" x2="331" y2="61" gradientUnits="userSpaceOnUse">
<stop stop-color="#6C4FFE"/>
<stop offset="1" stop-color="#6C4FFE"/>
</linearGradient>
<linearGradient id="paint55_linear_447_1612" x1="811" y1="241" x2="811" y2="301" gradientUnits="userSpaceOnUse">
<stop stop-color="#6C4FFE"/>
<stop offset="1" stop-color="#6C4FFE"/>
</linearGradient>
<linearGradient id="paint56_linear_447_1612" x1="811" y1="181" x2="811" y2="241" gradientUnits="userSpaceOnUse">
<stop stop-color="#6C4FFE"/>
<stop offset="1" stop-color="#6C4FFE"/>
</linearGradient>
<linearGradient id="paint57_linear_447_1612" x1="811" y1="121" x2="811" y2="181" gradientUnits="userSpaceOnUse">
<stop stop-color="#6C4FFE"/>
<stop offset="1" stop-color="#6C4FFE"/>
</linearGradient>
<linearGradient id="paint58_linear_447_1612" x1="811" y1="61" x2="811" y2="121" gradientUnits="userSpaceOnUse">
<stop stop-color="#6C4FFE"/>
<stop offset="1" stop-color="white"/>
</linearGradient>
<linearGradient id="paint59_linear_447_1612" x1="811" y1="1" x2="811" y2="61" gradientUnits="userSpaceOnUse">
<stop stop-color="#6C4FFE"/>
<stop offset="1" stop-color="#6C4FFE"/>
</linearGradient>
<linearGradient id="paint60_linear_447_1612" x1="211" y1="241" x2="211" y2="301" gradientUnits="userSpaceOnUse">
<stop stop-color="#6C4FFE"/>
<stop offset="1" stop-color="white"/>
</linearGradient>
<linearGradient id="paint61_linear_447_1612" x1="211" y1="181" x2="211" y2="241" gradientUnits="userSpaceOnUse">
<stop stop-color="#6C4FFE"/>
<stop offset="1" stop-color="#6C4FFE"/>
</linearGradient>
<linearGradient id="paint62_linear_447_1612" x1="211" y1="121" x2="211" y2="181" gradientUnits="userSpaceOnUse">
<stop stop-color="#6C4FFE"/>
<stop offset="1" stop-color="white"/>
</linearGradient>
<linearGradient id="paint63_linear_447_1612" x1="211" y1="61" x2="211" y2="121" gradientUnits="userSpaceOnUse">
<stop stop-color="#6C4FFE"/>
<stop offset="1" stop-color="#6C4FFE"/>
</linearGradient>
<linearGradient id="paint64_linear_447_1612" x1="211" y1="1" x2="211" y2="61" gradientUnits="userSpaceOnUse">
<stop stop-color="#6C4FFE"/>
<stop offset="1" stop-color="#6C4FFE"/>
</linearGradient>
<linearGradient id="paint65_linear_447_1612" x1="691" y1="241" x2="691" y2="301" gradientUnits="userSpaceOnUse">
<stop stop-color="#6C4FFE"/>
<stop offset="1" stop-color="#6C4FFE"/>
</linearGradient>
<linearGradient id="paint66_linear_447_1612" x1="691" y1="181" x2="691" y2="241" gradientUnits="userSpaceOnUse">
<stop stop-color="#6C4FFE"/>
<stop offset="1" stop-color="#6C4FFE"/>
</linearGradient>
<linearGradient id="paint67_linear_447_1612" x1="691" y1="121" x2="691" y2="181" gradientUnits="userSpaceOnUse">
<stop stop-color="#6C4FFE"/>
<stop offset="1" stop-color="#6C4FFE"/>
</linearGradient>
<linearGradient id="paint68_linear_447_1612" x1="691" y1="61" x2="691" y2="121" gradientUnits="userSpaceOnUse">
<stop stop-color="#6C4FFE"/>
<stop offset="1" stop-color="#6C4FFE"/>
</linearGradient>
<linearGradient id="paint69_linear_447_1612" x1="691" y1="1" x2="691" y2="61" gradientUnits="userSpaceOnUse">
<stop stop-color="#6C4FFE"/>
<stop offset="1" stop-color="white"/>
</linearGradient>
<linearGradient id="paint70_linear_447_1612" x1="451" y1="241" x2="451" y2="301" gradientUnits="userSpaceOnUse">
<stop stop-color="#6C4FFE"/>
<stop offset="1" stop-color="#6C4FFE"/>
</linearGradient>
<linearGradient id="paint71_linear_447_1612" x1="451" y1="181" x2="451" y2="241" gradientUnits="userSpaceOnUse">
<stop stop-color="#6C4FFE"/>
<stop offset="1" stop-color="#6C4FFE"/>
</linearGradient>
<linearGradient id="paint72_linear_447_1612" x1="451" y1="121" x2="451" y2="181" gradientUnits="userSpaceOnUse">
<stop stop-color="#6C4FFE"/>
<stop offset="1" stop-color="white"/>
</linearGradient>
<linearGradient id="paint73_linear_447_1612" x1="451" y1="61" x2="451" y2="121" gradientUnits="userSpaceOnUse">
<stop stop-color="#6C4FFE"/>
<stop offset="1" stop-color="#6C4FFE"/>
</linearGradient>
<linearGradient id="paint74_linear_447_1612" x1="451" y1="1" x2="451" y2="61" gradientUnits="userSpaceOnUse">
<stop stop-color="#6C4FFE"/>
<stop offset="1" stop-color="#6C4FFE"/>
</linearGradient>
<linearGradient id="paint75_linear_447_1612" x1="931" y1="241" x2="931" y2="301" gradientUnits="userSpaceOnUse">
<stop stop-color="#6C4FFE"/>
<stop offset="1" stop-color="#6C4FFE"/>
</linearGradient>
<linearGradient id="paint76_linear_447_1612" x1="931" y1="181" x2="931" y2="241" gradientUnits="userSpaceOnUse">
<stop stop-color="#6C4FFE"/>
<stop offset="1" stop-color="#6C4FFE"/>
</linearGradient>
<linearGradient id="paint77_linear_447_1612" x1="931" y1="121" x2="931" y2="181" gradientUnits="userSpaceOnUse">
<stop stop-color="#6C4FFE"/>
<stop offset="1" stop-color="#6C4FFE"/>
</linearGradient>
<linearGradient id="paint78_linear_447_1612" x1="931" y1="61" x2="931" y2="121" gradientUnits="userSpaceOnUse">
<stop stop-color="#6C4FFE"/>
<stop offset="1" stop-color="white"/>
</linearGradient>
<linearGradient id="paint79_linear_447_1612" x1="931" y1="1" x2="931" y2="61" gradientUnits="userSpaceOnUse">
<stop stop-color="#6C4FFE"/>
<stop offset="1" stop-color="#6C4FFE"/>
</linearGradient>
</defs>
</svg>
