<svg width="574" height="542" viewBox="0 0 574 542" fill="none" xmlns="http://www.w3.org/2000/svg">
<path opacity="0.08" d="M554 0H20C8.9543 0 0 8.9543 0 20V522C0 533.046 8.9543 542 20 542H554C565.046 542 574 533.046 574 522V20C574 8.9543 565.046 0 554 0Z" fill="url(#paint0_linear_447_1397)"/>
<path d="M528 26H46C34.9543 26 26 34.9543 26 46V496C26 507.046 34.9543 516 46 516H528C539.046 516 548 507.046 548 496V46C548 34.9543 539.046 26 528 26Z" fill="url(#paint1_linear_447_1397)"/>
<g opacity="0.25">
<path d="M460.849 177.285H418.849V178.257H460.849V177.285Z" fill="url(#paint2_linear_447_1397)"/>
<path d="M460.849 183.384H418.849V185.32H460.849V183.384Z" fill="url(#paint3_linear_447_1397)"/>
<path d="M460.849 190.446H418.849V192.385H460.849V190.446Z" fill="url(#paint4_linear_447_1397)"/>
<path d="M460.849 197.516H418.849V199.452H460.849V197.516Z" fill="url(#paint5_linear_447_1397)"/>
<path d="M460.849 204.578H418.849V206.517H460.849V204.578Z" fill="url(#paint6_linear_447_1397)"/>
<path d="M460.849 211.644H418.849V213.583H460.849V211.644Z" fill="url(#paint7_linear_447_1397)"/>
<path d="M460.849 218.71H418.849V220.649H460.849V218.71Z" fill="url(#paint8_linear_447_1397)"/>
<path d="M367.895 227.712H409.895V225.773H367.895V227.712ZM418.847 227.712H460.847V225.773H418.847V227.712Z" fill="url(#paint9_linear_447_1397)"/>
<path d="M367.895 234.781H409.895V232.842H367.895V234.781ZM418.847 234.781H460.847V232.842H418.847V234.781Z" fill="url(#paint10_linear_447_1397)"/>
<path d="M266.001 241.844H308.001V239.905H266.001V241.844ZM367.894 241.844H409.894V239.905H367.894V241.844ZM418.846 241.844H460.846V239.905H418.846V241.844Z" fill="url(#paint11_linear_447_1397)"/>
<path d="M266.001 248.91H308.001V246.971H266.001V248.91ZM367.894 248.91H409.894V246.971H367.894V248.91ZM418.846 248.91H460.846V246.971H418.846V248.91Z" fill="url(#paint12_linear_447_1397)"/>
<path d="M266.001 255.976H308.001V254.037H266.001V255.976ZM367.894 255.976H409.894V254.037H367.894V255.976ZM418.846 255.976H460.846V254.037H418.846V255.976Z" fill="url(#paint13_linear_447_1397)"/>
<path d="M266.001 263.042H308.001V261.104H266.001V263.042ZM316.953 263.042H358.953V261.104H316.953V263.042ZM367.894 263.042H409.894V261.104H367.894V263.042ZM418.846 263.042H460.846V261.104H418.846V263.042Z" fill="url(#paint14_linear_447_1397)"/>
<path d="M266.001 270.105H308.001V268.166H266.001V270.105ZM316.953 270.105H358.953V268.166H316.953V270.105ZM367.894 270.105H409.894V268.166H367.894V270.105ZM418.846 270.105H460.846V268.166H418.846V270.105Z" fill="url(#paint15_linear_447_1397)"/>
<path d="M215.052 277.174H257.052V275.235H215.052V277.174ZM266.001 277.174H308.001V275.235H266.001V277.174ZM316.953 277.174H358.953V275.235H316.953V277.174ZM367.894 277.174H409.894V275.235H367.894V277.174ZM418.846 277.174H460.846V275.235H418.846V277.174Z" fill="url(#paint16_linear_447_1397)"/>
<path d="M164.108 284.237H206.108V284.108H164.108V284.237ZM215.053 284.237H257.053V282.293H215.053V284.237ZM266.002 284.237H308.002V282.293H266.002V284.237ZM316.954 284.237H358.954V282.293H316.954V284.237ZM367.895 284.237H409.895V282.293H367.895V284.237ZM418.847 284.237H460.847V282.293H418.847V284.237Z" fill="url(#paint17_linear_447_1397)"/>
<path d="M164.108 291.3H206.108V289.364H164.108V291.3ZM215.053 291.3H257.053V289.364H215.053V291.3ZM266.002 291.3H308.002V289.364H266.002V291.3ZM316.954 291.3H358.954V289.364H316.954V291.3ZM367.895 291.3H409.895V289.364H367.895V291.3ZM418.847 291.3H460.847V289.364H418.847V291.3Z" fill="url(#paint18_linear_447_1397)"/>
<path d="M164.108 298.369H206.108V296.43H164.108V298.369ZM215.053 298.369H257.053V296.43H215.053V298.369ZM266.002 298.369H308.002V296.43H266.002V298.369ZM316.954 298.369H358.954V296.43H316.954V298.369ZM367.895 298.369H409.895V296.43H367.895V298.369ZM418.847 298.369H460.847V296.43H418.847V298.369Z" fill="url(#paint19_linear_447_1397)"/>
<path d="M164.108 305.432H206.108V303.496H164.108V305.432ZM215.053 305.432H257.053V303.496H215.053V305.432ZM266.002 305.432H308.002V303.496H266.002V305.432ZM316.954 305.432H358.954V303.496H316.954V305.432ZM367.895 305.432H409.895V303.496H367.895V305.432ZM418.847 305.432H460.847V303.496H418.847V305.432Z" fill="url(#paint20_linear_447_1397)"/>
<path d="M164.108 312.501H206.108V310.562H164.108V312.501ZM215.053 312.501H257.053V310.562H215.053V312.501ZM266.002 312.501H308.002V310.562H266.002V312.501ZM316.954 312.501H358.954V310.562H316.954V312.501ZM367.895 312.501H409.895V310.562H367.895V312.501ZM418.847 312.501H460.847V310.562H418.847V312.501Z" fill="url(#paint21_linear_447_1397)"/>
<path d="M164.108 319.564H206.108V317.628H164.108V319.564ZM215.053 317.628V319.564H257.053V317.628H215.053ZM266.002 319.564H308.002V317.628H266.002V319.564ZM316.954 319.564H358.954V317.628H316.954V319.564ZM367.895 319.564H409.895V317.628H367.895V319.564ZM418.847 319.564H460.847V317.628H418.847V319.564Z" fill="url(#paint22_linear_447_1397)"/>
<path d="M113.16 326.63H155.16V324.691H113.16V326.63ZM164.109 326.63H206.109V324.691H164.109V326.63ZM215.054 326.63H257.054V324.691H215.054V326.63ZM266.003 326.63H308.003V324.691H265.998L266.003 326.63ZM316.955 326.63H358.955V324.691H316.955V326.63ZM367.896 326.63H409.896V324.691H367.896V326.63ZM418.848 326.63H460.848V324.691H418.848V326.63Z" fill="url(#paint23_linear_447_1397)"/>
<path d="M113.16 333.697H155.16V331.761H113.16V333.697ZM164.109 333.697H206.109V331.761H164.109V333.697ZM215.054 333.697H257.054V331.761H215.054V333.697ZM266.003 333.697H308.003V331.761H265.998L266.003 333.697ZM316.955 333.697H358.955V331.761H316.955V333.697ZM367.896 333.697H409.896V331.761H367.896V333.697ZM418.848 333.697H460.848V331.761H418.848V333.697Z" fill="url(#paint24_linear_447_1397)"/>
<path d="M113.16 340.767H155.16V338.823H113.16V340.767ZM164.109 340.767H206.109V338.823H164.109V340.767ZM215.054 340.767H257.054V338.823H215.054V340.767ZM265.998 338.823V340.767H307.998V338.823H265.998ZM316.954 340.767H358.954V338.823H316.954V340.767ZM367.895 340.767H409.895V338.823H367.895V340.767ZM418.847 340.767H460.847V338.823H418.847V340.767Z" fill="url(#paint25_linear_447_1397)"/>
<path d="M113.16 347.825H155.16V345.889H113.16V347.825ZM164.109 347.825H206.109V345.889H164.109V347.825ZM215.054 347.825H257.054V345.889H215.054V347.825ZM266.003 347.825H308.003V345.889H265.998L266.003 347.825ZM316.955 347.825H358.955V345.889H316.955V347.825ZM367.896 347.825H409.896V345.889H367.896V347.825ZM418.848 347.825H460.848V345.889H418.848V347.825Z" fill="url(#paint26_linear_447_1397)"/>
<path d="M113.16 354.894H155.16V352.954H113.16V354.894ZM164.109 354.894H206.109V352.954H164.109V354.894ZM215.054 354.894H257.054V352.954H215.054V354.894ZM266.003 354.894H308.003V352.954H265.998L266.003 354.894ZM316.955 354.894H358.955V352.954H316.955V354.894ZM367.896 354.894H409.896V352.954H367.896V354.894ZM418.848 354.894H460.848V352.954H418.848V354.894Z" fill="url(#paint27_linear_447_1397)"/>
<path d="M113.16 361.958H155.16V360.021H113.16V361.958ZM164.109 361.958H206.109V360.021H164.109V361.958ZM215.054 361.958H257.054V360.021H215.054V361.958ZM265.998 361.958H307.998V360.021H265.998V361.958ZM316.95 361.958H358.95V360.021H316.95V361.958ZM367.891 361.958H409.891V360.021H367.891V361.958ZM418.843 361.958H460.843V360.021H418.843V361.958Z" fill="url(#paint28_linear_447_1397)"/>
<path d="M113.16 369.022H155.16V367.083H113.16V369.022ZM164.109 369.022H206.109V367.083H164.109V369.022ZM215.054 369.022H257.054V367.083H215.054V369.022ZM266.003 369.022H308.003V367.083H265.998L266.003 369.022ZM316.955 369.022H358.955V367.083H316.955V369.022ZM367.896 369.022H409.896V367.083H367.896V369.022ZM418.848 369.022H460.848V367.083H418.848V369.022Z" fill="url(#paint29_linear_447_1397)"/>
<path d="M113.16 376.089H155.16V374.152H113.16V376.089ZM164.112 376.089H206.112V374.152H164.112V376.089ZM215.057 376.089H257.057V374.152H215.057V376.089ZM266.006 376.089H308.006V374.152H265.998L266.006 376.089ZM316.958 376.089H358.958V374.152H316.958V376.089ZM367.899 376.089H409.899V374.152H367.899V376.089ZM418.851 376.089H460.851V374.152H418.851V376.089Z" fill="url(#paint30_linear_447_1397)"/>
<path d="M113.16 383.155H155.16V381.216H113.16V383.155ZM164.112 383.155H206.112V381.216H164.112V383.155ZM215.057 383.155H257.057V381.216H215.057V383.155ZM266.006 383.155H308.006V381.216H265.998L266.006 383.155ZM316.958 383.155H358.958V381.216H316.958V383.155ZM367.899 383.155H409.899V381.216H367.899V383.155ZM418.851 383.155H460.851V381.216H418.851V383.155Z" fill="url(#paint31_linear_447_1397)"/>
<path d="M113.16 390.218H155.16V388.282H113.16V390.218ZM164.112 390.218H206.112V388.282H164.112V390.218ZM215.057 390.218H257.057V388.282H215.057V390.218ZM266.006 390.218H308.006V388.282H265.998L266.006 390.218ZM316.958 390.218H358.958V388.282H316.958V390.218ZM367.899 390.218H409.899V388.282H367.899V390.218ZM418.851 390.218H460.851V388.282H418.851V390.218Z" fill="url(#paint32_linear_447_1397)"/>
<path d="M113.16 397.287H155.16V395.348H113.16V397.287ZM164.112 397.287H206.112V395.348H164.112V397.287ZM215.057 397.287H257.057V395.348H215.057V397.287ZM266.006 397.287H308.006V395.348H265.998L266.006 397.287ZM316.958 397.287H358.958V395.348H316.958V397.287ZM367.899 397.287H409.899V395.348H367.899V397.287ZM418.851 397.287H460.851V395.348H418.851V397.287Z" fill="url(#paint33_linear_447_1397)"/>
<path d="M113.16 404.35H155.16V402.414H113.16V404.35ZM164.112 404.35H206.112V402.414H164.112V404.35ZM215.057 404.35H257.057V402.414H215.057V404.35ZM266.006 404.35H308.006V402.414H265.998L266.006 404.35ZM316.958 404.35H358.958V402.414H316.958V404.35ZM367.899 404.35H409.899V402.414H367.899V404.35ZM418.851 404.35H460.851V402.414H418.851V404.35Z" fill="url(#paint34_linear_447_1397)"/>
<path d="M113.16 411.415H155.16V409.476H113.16V411.415ZM164.112 411.415H206.112V409.476H164.112V411.415ZM215.057 411.415H257.057V409.476H215.057V411.415ZM266.006 411.415H308.006V409.476H265.998L266.006 411.415ZM316.958 411.415H358.958V409.476H316.958V411.415ZM367.899 411.415H409.899V409.476H367.899V411.415ZM418.851 411.415H460.851V409.476H418.851V411.415Z" fill="url(#paint35_linear_447_1397)"/>
<path d="M113.16 418.482H155.16V416.546H113.16V418.482ZM164.112 418.482H206.112V416.546H164.112V418.482ZM215.057 418.482H257.057V416.546H215.057V418.482ZM266.006 418.482H308.006V416.546H265.998L266.006 418.482ZM316.958 418.482H358.958V416.546H316.958V418.482ZM367.899 418.482H409.899V416.546H367.899V418.482ZM418.851 418.482H460.851V416.546H418.851V418.482Z" fill="url(#paint36_linear_447_1397)"/>
<path d="M113.16 423.608V425.548H155.16V423.608H113.16ZM164.112 425.548H206.112V423.608H164.112V425.548ZM215.057 425.548H257.057V423.608H215.057V425.548ZM266.006 425.548H308.006V423.608H265.998L266.006 425.548ZM316.958 425.548H358.958V423.608H316.958V425.548ZM367.899 425.548H409.899V423.608H367.899V425.548ZM418.851 425.548H460.851V423.608H418.851V425.548Z" fill="url(#paint37_linear_447_1397)"/>
<path d="M113.16 432.611H155.16V430.675H113.16V432.611ZM164.112 432.611H206.112V430.675H164.112V432.611ZM215.057 432.611H257.057V430.675H215.057V432.611ZM266.006 432.611H308.006V430.675H265.998L266.006 432.611ZM316.958 432.611H358.958V430.675H316.958V432.611ZM367.899 432.611H409.899V430.675H367.899V432.611ZM418.851 432.611H460.851V430.675H418.851V432.611Z" fill="url(#paint38_linear_447_1397)"/>
<path d="M113.16 439.68H155.16V437.741H113.16V439.68ZM164.112 439.68H206.112V437.741H164.112V439.68ZM215.057 439.68H257.057V437.741H215.057V439.68ZM266.006 439.68H308.006V437.741H265.998L266.006 439.68ZM316.958 439.68H358.958V437.741H316.958V439.68ZM367.899 439.68H409.899V437.741H367.899V439.68ZM418.851 439.68H460.851V437.741H418.851V439.68Z" fill="url(#paint39_linear_447_1397)"/>
</g>
<path opacity="0.9" d="M446.127 102.319V115.389H463.647L323.973 193.665L282.208 167.601L76.8604 272.848L82.3504 284.583L281.626 182.451L323.641 208.67L470.623 126.3L462.706 141.7L473.696 147.9L497.14 102.319H446.127Z" fill="url(#paint40_linear_447_1397)"/>
<g opacity="0.9">
<mask id="mask0_447_1397" style="mask-type:luminance" maskUnits="userSpaceOnUse" x="62" y="195" width="450" height="112">
<path d="M511.414 195.5H62.5859V306.727H511.414V195.5Z" fill="white"/>
</mask>
<g mask="url(#mask0_447_1397)">
<path d="M95.031 213.178C92.2074 213.177 89.4471 214.014 87.099 215.582C84.751 217.151 82.9207 219.38 81.8397 221.988C80.7587 224.597 80.4754 227.467 81.0258 230.237C81.5761 233.006 82.9353 235.55 84.9315 237.547C86.9278 239.544 89.4713 240.904 92.2405 241.455C95.0097 242.007 97.8803 241.724 100.489 240.644C103.098 239.564 105.328 237.735 106.897 235.387C108.466 233.04 109.304 230.28 109.304 227.456C109.304 225.581 108.936 223.725 108.219 221.993C107.502 220.26 106.45 218.686 105.125 217.361C103.8 216.035 102.226 214.983 100.494 214.265C98.7621 213.548 96.9057 213.178 95.031 213.178ZM96.481 234.787V237.078H93.581V234.818C92.0904 234.553 90.7067 233.867 89.593 232.842L91.483 230.587C92.4645 231.49 93.727 232.026 95.058 232.107C96.429 232.107 97.101 231.565 97.101 230.7C97.101 229.785 96.276 229.49 95.001 228.967L93.111 228.162C92.2693 227.89 91.5339 227.362 91.0076 226.651C90.4813 225.94 90.1905 225.082 90.176 224.198C90.2111 223.238 90.5641 222.316 91.1794 221.578C91.7947 220.84 92.6377 220.327 93.576 220.12V217.834H96.476V219.963C97.8188 220.185 99.0614 220.813 100.036 221.763L98.374 223.837C97.5318 223.118 96.4644 222.716 95.357 222.702C94.222 222.702 93.499 223.173 93.499 224.002C93.499 224.894 94.45 225.22 95.723 225.723L97.577 226.473C98.4274 226.722 99.1714 227.246 99.6931 227.962C100.215 228.678 100.485 229.547 100.461 230.433C100.461 232.472 99.011 234.268 96.477 234.782" fill="url(#paint41_linear_447_1397)"/>
<path d="M136.174 195.502C134.426 195.502 132.717 196.021 131.264 196.993C129.811 197.964 128.678 199.345 128.01 200.96C127.341 202.575 127.167 204.352 127.508 206.066C127.85 207.78 128.692 209.355 129.928 210.591C131.164 211.827 132.739 212.668 134.454 213.009C136.168 213.349 137.945 213.174 139.56 212.504C141.175 211.835 142.555 210.702 143.526 209.248C144.496 207.795 145.014 206.086 145.014 204.338C145.014 203.177 144.785 202.028 144.341 200.956C143.896 199.884 143.245 198.909 142.424 198.089C141.603 197.268 140.629 196.618 139.556 196.174C138.484 195.73 137.335 195.502 136.174 195.502ZM137.074 208.88V210.302H135.274V208.902C134.352 208.738 133.496 208.314 132.807 207.68L133.974 206.28C134.582 206.839 135.365 207.172 136.19 207.223C137.039 207.223 137.455 206.889 137.455 206.351C137.455 205.785 136.944 205.605 136.155 205.278L134.984 204.778C134.463 204.609 134.008 204.281 133.683 203.841C133.357 203.401 133.178 202.869 133.169 202.322C133.191 201.727 133.41 201.157 133.792 200.701C134.174 200.244 134.696 199.928 135.278 199.802V198.382H137.078V199.702C137.908 199.84 138.676 200.23 139.278 200.818L138.249 202.102C137.728 201.654 137.066 201.404 136.379 201.395C135.679 201.395 135.232 201.69 135.232 202.204C135.232 202.758 135.821 202.958 136.607 203.269L137.754 203.737C138.281 203.89 138.743 204.214 139.066 204.658C139.39 205.102 139.557 205.64 139.542 206.189C139.521 206.858 139.26 207.498 138.807 207.992C138.355 208.486 137.74 208.801 137.075 208.88" fill="url(#paint42_linear_447_1397)"/>
<path d="M494.76 231.479C491.465 231.479 488.245 232.455 485.506 234.285C482.766 236.115 480.631 238.716 479.37 241.759C478.109 244.803 477.779 248.152 478.421 251.383C479.064 254.614 480.65 257.582 482.979 259.912C485.308 262.241 488.276 263.828 491.507 264.471C494.738 265.114 498.087 264.784 501.13 263.524C504.174 262.263 506.776 260.128 508.606 257.39C510.436 254.651 511.413 251.43 511.414 248.136C511.414 243.719 509.659 239.482 506.536 236.359C503.413 233.235 499.177 231.48 494.76 231.479ZM496.451 256.692V259.362H493.065V256.722C491.328 256.413 489.716 255.615 488.417 254.422L490.617 251.79C491.761 252.843 493.234 253.469 494.787 253.563C496.387 253.563 497.174 252.932 497.174 251.923C497.174 250.856 496.209 250.511 494.726 249.901L492.52 248.963C491.537 248.645 490.678 248.027 490.064 247.197C489.449 246.366 489.11 245.365 489.093 244.332C489.134 243.212 489.547 242.138 490.265 241.277C490.983 240.417 491.967 239.82 493.062 239.579V236.908H496.448V239.394C498.015 239.655 499.464 240.39 500.601 241.501L498.668 243.922C497.684 243.08 496.436 242.61 495.142 242.592C493.819 242.592 492.977 243.144 492.977 244.116C492.977 245.156 494.089 245.535 495.572 246.124L497.734 247C499.807 247.839 501.103 249.22 501.103 251.62C501.103 254 499.412 256.094 496.452 256.694" fill="url(#paint43_linear_447_1397)"/>
<path d="M133.158 279.018C131.208 279.018 129.303 279.596 127.682 280.679C126.061 281.762 124.797 283.301 124.051 285.102C123.305 286.903 123.11 288.885 123.49 290.797C123.871 292.709 124.809 294.465 126.188 295.844C127.566 297.222 129.323 298.161 131.235 298.541C133.147 298.921 135.129 298.726 136.93 297.979C138.731 297.233 140.27 295.97 141.353 294.348C142.435 292.727 143.013 290.822 143.013 288.872C143.013 287.578 142.758 286.296 142.262 285.1C141.767 283.904 141.041 282.818 140.125 281.903C139.21 280.988 138.123 280.262 136.927 279.767C135.731 279.272 134.449 279.018 133.155 279.018M134.155 293.936V295.515H132.155V293.955C131.127 293.774 130.173 293.302 129.405 292.596L130.705 291.036C131.382 291.658 132.253 292.029 133.172 292.085C134.119 292.085 134.582 291.712 134.582 291.115C134.582 290.482 134.012 290.282 133.136 289.921L131.828 289.363C131.248 289.174 130.741 288.809 130.378 288.318C130.016 287.827 129.816 287.235 129.806 286.625C129.831 285.963 130.076 285.327 130.501 284.818C130.926 284.309 131.507 283.955 132.155 283.812V282.232H134.155V283.701C135.082 283.857 135.939 284.292 136.614 284.946L135.467 286.376C134.884 285.879 134.147 285.601 133.381 285.59C132.599 285.59 132.1 285.916 132.1 286.49C132.1 287.103 132.756 287.327 133.632 287.677L134.913 288.196C135.502 288.367 136.018 288.728 136.38 289.223C136.742 289.719 136.93 290.321 136.913 290.934C136.888 291.68 136.597 292.393 136.093 292.943C135.589 293.493 134.904 293.845 134.163 293.934" fill="url(#paint44_linear_447_1397)"/>
</g>
</g>
<mask id="mask1_447_1397" style="mask-type:luminance" maskUnits="userSpaceOnUse" x="66" y="280" width="442" height="144">
<path d="M507.099 280.607H66.9004V423.261H507.099V280.607Z" fill="white"/>
</mask>
<g mask="url(#mask1_447_1397)">
<path d="M377.337 290.648V390.519C377.337 396.091 373.566 400.558 368.864 400.558H222.938C218.238 400.558 214.469 396.091 214.469 390.519V290.648C214.469 285.08 218.24 280.609 222.938 280.609H368.864C373.564 280.609 377.337 285.08 377.337 290.648Z" fill="white"/>
</g>
<g opacity="0.9">
<mask id="mask2_447_1397" style="mask-type:luminance" maskUnits="userSpaceOnUse" x="243" y="353" width="20" height="32">
<path d="M262.116 353.6H243.93V384.695H262.116V353.6Z" fill="white"/>
</mask>
<g mask="url(#mask2_447_1397)">
<path d="M262.116 353.6H243.93V384.695H262.116V353.6Z" fill="url(#paint45_linear_447_1397)"/>
</g>
<mask id="mask3_447_1397" style="mask-type:luminance" maskUnits="userSpaceOnUse" x="272" y="333" width="19" height="52">
<path d="M290.704 333.33H272.518V384.695H290.704V333.33Z" fill="white"/>
</mask>
<g mask="url(#mask3_447_1397)">
<path d="M290.704 333.33H272.518V384.695H290.704V333.33Z" fill="url(#paint46_linear_447_1397)"/>
</g>
<mask id="mask4_447_1397" style="mask-type:luminance" maskUnits="userSpaceOnUse" x="301" y="312" width="19" height="73">
<path d="M319.286 312.444H301.104V384.696H319.286V312.444Z" fill="white"/>
</mask>
<g mask="url(#mask4_447_1397)">
<path d="M319.286 312.444H301.104V384.696H319.286V312.444Z" fill="url(#paint47_linear_447_1397)"/>
</g>
<mask id="mask5_447_1397" style="mask-type:luminance" maskUnits="userSpaceOnUse" x="329" y="296" width="19" height="89">
<path d="M347.874 296.474H329.688V384.695H347.874V296.474Z" fill="white"/>
</mask>
<g mask="url(#mask5_447_1397)">
<path d="M347.874 296.474H329.688V384.695H347.874V296.474Z" fill="url(#paint48_linear_447_1397)"/>
</g>
</g>
<g opacity="0.25">
<mask id="mask6_447_1397" style="mask-type:luminance" maskUnits="userSpaceOnUse" x="224" y="288" width="8" height="7">
<path d="M224.495 291.434C224.495 292.087 224.689 292.725 225.051 293.267C225.414 293.81 225.929 294.233 226.532 294.483C227.135 294.733 227.799 294.798 228.439 294.671C229.079 294.543 229.667 294.229 230.129 293.767C230.59 293.306 230.904 292.718 231.032 292.078C231.159 291.438 231.094 290.774 230.844 290.171C230.594 289.568 230.171 289.053 229.628 288.69C229.086 288.328 228.448 288.134 227.795 288.134C226.92 288.134 226.081 288.482 225.462 289.101C224.843 289.719 224.495 290.559 224.495 291.434Z" fill="white"/>
</mask>
<g mask="url(#mask6_447_1397)">
<path d="M231.095 288.13H224.495V294.734H231.095V288.13Z" fill="#6C4FFE"/>
</g>
<mask id="mask7_447_1397" style="mask-type:luminance" maskUnits="userSpaceOnUse" x="237" y="288" width="7" height="7">
<path d="M237.087 291.434C237.087 292.087 237.28 292.725 237.643 293.267C238.006 293.81 238.521 294.233 239.124 294.483C239.727 294.733 240.391 294.798 241.031 294.671C241.671 294.543 242.259 294.229 242.72 293.767C243.182 293.306 243.496 292.718 243.624 292.078C243.751 291.438 243.685 290.774 243.436 290.171C243.186 289.568 242.763 289.053 242.22 288.69C241.678 288.328 241.04 288.134 240.387 288.134C239.512 288.134 238.672 288.482 238.053 289.101C237.435 289.719 237.087 290.559 237.087 291.434Z" fill="white"/>
</mask>
<g mask="url(#mask7_447_1397)">
<path d="M243.691 288.13H237.087V294.734H243.691V288.13Z" fill="#6C4FFE"/>
</g>
<mask id="mask8_447_1397" style="mask-type:luminance" maskUnits="userSpaceOnUse" x="249" y="288" width="8" height="7">
<path d="M249.679 291.434C249.679 292.087 249.872 292.725 250.235 293.267C250.597 293.81 251.113 294.233 251.716 294.483C252.319 294.733 252.982 294.798 253.623 294.671C254.263 294.543 254.851 294.229 255.312 293.767C255.774 293.306 256.088 292.718 256.215 292.078C256.343 291.438 256.277 290.774 256.028 290.171C255.778 289.568 255.355 289.053 254.812 288.69C254.269 288.328 253.631 288.134 252.979 288.134C252.103 288.134 251.264 288.482 250.645 289.101C250.026 289.719 249.679 290.559 249.679 291.434Z" fill="white"/>
</mask>
<g mask="url(#mask8_447_1397)">
<path d="M256.283 288.13H249.679V294.734H256.283V288.13Z" fill="#6C4FFE"/>
</g>
</g>
<mask id="mask9_447_1397" style="mask-type:luminance" maskUnits="userSpaceOnUse" x="66" y="274" width="442" height="143">
<path d="M507.099 274.179H66.9004V416.833H507.099V274.179Z" fill="white"/>
</mask>
<g mask="url(#mask9_447_1397)">
<path d="M72.2674 366.801H186.3C189.277 366.801 191.667 369.63 191.667 373.159V396.266L200.087 400.466L191.667 404.666V410.48C191.667 414.009 189.277 416.838 186.3 416.838H72.2674C69.2904 416.835 66.9004 414.006 66.9004 410.477V373.159C66.9004 369.63 69.2904 366.801 72.2674 366.801Z" fill="white"/>
</g>
<mask id="mask10_447_1397" style="mask-type:luminance" maskUnits="userSpaceOnUse" x="66" y="280" width="442" height="144">
<path d="M507.099 280.607H66.9004V423.261H507.099V280.607Z" fill="white"/>
</mask>
<g mask="url(#mask10_447_1397)">
<path d="M507.099 335.938V401.344C507.099 404.99 504.629 407.918 501.55 407.918H405.987C402.908 407.918 400.438 404.99 400.438 401.344V335.938C400.438 332.292 402.908 329.364 405.987 329.364H501.55C504.629 329.364 507.099 332.292 507.099 335.938Z" fill="white"/>
</g>
<g opacity="0.25">
<mask id="mask11_447_1397" style="mask-type:luminance" maskUnits="userSpaceOnUse" x="407" y="334" width="5" height="5">
<path d="M407.005 336.456C407.004 336.884 407.131 337.302 407.368 337.657C407.605 338.013 407.943 338.291 408.338 338.455C408.733 338.619 409.167 338.662 409.587 338.579C410.006 338.496 410.392 338.29 410.694 337.988C410.997 337.686 411.203 337.301 411.287 336.882C411.371 336.462 411.328 336.028 411.165 335.632C411.002 335.237 410.725 334.899 410.37 334.661C410.014 334.423 409.596 334.296 409.169 334.296C408.596 334.296 408.046 334.523 407.64 334.928C407.234 335.333 407.006 335.883 407.005 336.456Z" fill="white"/>
</mask>
<g mask="url(#mask11_447_1397)">
<path d="M411.328 334.294H407.005V338.617H411.328V334.294Z" fill="#6C4FFE"/>
</g>
</g>
<g opacity="0.25">
<mask id="mask12_447_1397" style="mask-type:luminance" maskUnits="userSpaceOnUse" x="415" y="334" width="5" height="5">
<path d="M415.254 336.456C415.253 336.884 415.379 337.303 415.617 337.659C415.854 338.016 416.192 338.294 416.587 338.458C416.982 338.622 417.418 338.666 417.838 338.583C418.258 338.5 418.644 338.294 418.947 337.991C419.25 337.689 419.456 337.303 419.54 336.884C419.624 336.464 419.581 336.028 419.418 335.633C419.254 335.237 418.977 334.899 418.621 334.661C418.265 334.423 417.846 334.296 417.418 334.296C416.845 334.296 416.295 334.524 415.89 334.929C415.484 335.334 415.255 335.883 415.254 336.456Z" fill="white"/>
</mask>
<g mask="url(#mask12_447_1397)">
<path d="M419.578 334.294H415.251V338.617H419.578V334.294Z" fill="#6C4FFE"/>
</g>
</g>
<g opacity="0.25">
<mask id="mask13_447_1397" style="mask-type:luminance" maskUnits="userSpaceOnUse" x="423" y="334" width="5" height="5">
<path d="M423.5 336.456C423.5 336.884 423.626 337.302 423.864 337.658C424.101 338.014 424.439 338.291 424.834 338.455C425.229 338.619 425.664 338.662 426.083 338.578C426.503 338.495 426.888 338.289 427.191 337.987C427.493 337.684 427.699 337.299 427.783 336.879C427.866 336.46 427.823 336.025 427.659 335.63C427.495 335.234 427.218 334.897 426.862 334.659C426.506 334.422 426.088 334.296 425.66 334.296C425.087 334.296 424.538 334.523 424.133 334.929C423.728 335.334 423.5 335.883 423.5 336.456Z" fill="white"/>
</mask>
<g mask="url(#mask13_447_1397)">
<path d="M427.823 334.294H423.5V338.617H427.823V334.294Z" fill="#6C4FFE"/>
</g>
</g>
<g opacity="0.9">
<mask id="mask14_447_1397" style="mask-type:luminance" maskUnits="userSpaceOnUse" x="410" y="345" width="87" height="47">
<path d="M474.521 345.506V351.569H487.029L467.618 370.988L456.918 360.288L438.909 378.299L429.404 368.79L410.704 387.49L414.99 391.779L429.401 377.364L438.906 386.873L456.918 368.861L467.618 379.561L490.774 356.401V367.814H496.837V345.506H474.521Z" fill="white"/>
</mask>
<g mask="url(#mask14_447_1397)">
<path d="M496.838 345.506H410.704V391.78H496.838V345.506Z" fill="url(#paint49_linear_447_1397)"/>
</g>
</g>
<g opacity="0.9">
<mask id="mask15_447_1397" style="mask-type:luminance" maskUnits="userSpaceOnUse" x="80" y="376" width="90" height="6">
<path d="M169.74 376.883H80.6074V381.206H169.74V376.883Z" fill="white"/>
</mask>
<g mask="url(#mask15_447_1397)">
<path d="M169.74 376.883H80.6074V381.206H169.74V376.883Z" fill="url(#paint50_linear_447_1397)"/>
</g>
<mask id="mask16_447_1397" style="mask-type:luminance" maskUnits="userSpaceOnUse" x="80" y="385" width="56" height="5">
<path d="M135.063 385.394H80.6074V389.717H135.063V385.394Z" fill="white"/>
</mask>
<g mask="url(#mask16_447_1397)">
<path d="M135.063 385.394H80.6074V389.717H135.063V385.394Z" fill="url(#paint51_linear_447_1397)"/>
</g>
<mask id="mask17_447_1397" style="mask-type:luminance" maskUnits="userSpaceOnUse" x="80" y="393" width="78" height="6">
<path d="M157.923 393.904H80.6074V398.227H157.923V393.904Z" fill="white"/>
</mask>
<g mask="url(#mask17_447_1397)">
<path d="M157.923 393.904H80.6074V398.227H157.923V393.904Z" fill="url(#paint52_linear_447_1397)"/>
</g>
<mask id="mask18_447_1397" style="mask-type:luminance" maskUnits="userSpaceOnUse" x="80" y="402" width="41" height="5">
<path d="M120.069 402.415H80.6074V406.738H120.069V402.415Z" fill="white"/>
</mask>
<g mask="url(#mask18_447_1397)">
<path d="M120.069 402.415H80.6074V406.738H120.069V402.415Z" fill="url(#paint53_linear_447_1397)"/>
</g>
</g>
<defs>
<linearGradient id="paint0_linear_447_1397" x1="287" y1="0" x2="287" y2="542" gradientUnits="userSpaceOnUse">
<stop stop-color="#5C96FD"/>
<stop offset="1" stop-color="#6C4FFE"/>
</linearGradient>
<linearGradient id="paint1_linear_447_1397" x1="287" y1="26" x2="287" y2="516" gradientUnits="userSpaceOnUse">
<stop stop-color="white" stop-opacity="0"/>
<stop offset="1" stop-color="white"/>
</linearGradient>
<linearGradient id="paint2_linear_447_1397" x1="439.849" y1="177.285" x2="439.849" y2="178.257" gradientUnits="userSpaceOnUse">
<stop stop-color="#5C96FD"/>
<stop offset="1" stop-color="#6C4FFE"/>
</linearGradient>
<linearGradient id="paint3_linear_447_1397" x1="439.849" y1="183.384" x2="439.849" y2="185.32" gradientUnits="userSpaceOnUse">
<stop stop-color="#5C96FD"/>
<stop offset="1" stop-color="#6C4FFE"/>
</linearGradient>
<linearGradient id="paint4_linear_447_1397" x1="439.849" y1="190.446" x2="439.849" y2="192.385" gradientUnits="userSpaceOnUse">
<stop stop-color="#5C96FD"/>
<stop offset="1" stop-color="#6C4FFE"/>
</linearGradient>
<linearGradient id="paint5_linear_447_1397" x1="439.849" y1="197.516" x2="439.849" y2="199.452" gradientUnits="userSpaceOnUse">
<stop stop-color="#5C96FD"/>
<stop offset="1" stop-color="#6C4FFE"/>
</linearGradient>
<linearGradient id="paint6_linear_447_1397" x1="439.849" y1="204.578" x2="439.849" y2="206.517" gradientUnits="userSpaceOnUse">
<stop stop-color="#5C96FD"/>
<stop offset="1" stop-color="#6C4FFE"/>
</linearGradient>
<linearGradient id="paint7_linear_447_1397" x1="439.849" y1="211.644" x2="439.849" y2="213.583" gradientUnits="userSpaceOnUse">
<stop stop-color="#5C96FD"/>
<stop offset="1" stop-color="#6C4FFE"/>
</linearGradient>
<linearGradient id="paint8_linear_447_1397" x1="439.849" y1="218.71" x2="439.849" y2="220.649" gradientUnits="userSpaceOnUse">
<stop stop-color="#5C96FD"/>
<stop offset="1" stop-color="#6C4FFE"/>
</linearGradient>
<linearGradient id="paint9_linear_447_1397" x1="414.371" y1="225.773" x2="414.371" y2="227.712" gradientUnits="userSpaceOnUse">
<stop stop-color="#5C96FD"/>
<stop offset="1" stop-color="#6C4FFE"/>
</linearGradient>
<linearGradient id="paint10_linear_447_1397" x1="414.371" y1="232.842" x2="414.371" y2="234.781" gradientUnits="userSpaceOnUse">
<stop stop-color="#5C96FD"/>
<stop offset="1" stop-color="#6C4FFE"/>
</linearGradient>
<linearGradient id="paint11_linear_447_1397" x1="363.423" y1="239.905" x2="363.423" y2="241.844" gradientUnits="userSpaceOnUse">
<stop stop-color="#5C96FD"/>
<stop offset="1" stop-color="#6C4FFE"/>
</linearGradient>
<linearGradient id="paint12_linear_447_1397" x1="363.423" y1="246.971" x2="363.423" y2="248.91" gradientUnits="userSpaceOnUse">
<stop stop-color="#5C96FD"/>
<stop offset="1" stop-color="#6C4FFE"/>
</linearGradient>
<linearGradient id="paint13_linear_447_1397" x1="363.423" y1="254.037" x2="363.423" y2="255.976" gradientUnits="userSpaceOnUse">
<stop stop-color="#5C96FD"/>
<stop offset="1" stop-color="#6C4FFE"/>
</linearGradient>
<linearGradient id="paint14_linear_447_1397" x1="363.423" y1="261.104" x2="363.423" y2="263.042" gradientUnits="userSpaceOnUse">
<stop stop-color="#5C96FD"/>
<stop offset="1" stop-color="#6C4FFE"/>
</linearGradient>
<linearGradient id="paint15_linear_447_1397" x1="363.423" y1="268.166" x2="363.423" y2="270.105" gradientUnits="userSpaceOnUse">
<stop stop-color="#5C96FD"/>
<stop offset="1" stop-color="#6C4FFE"/>
</linearGradient>
<linearGradient id="paint16_linear_447_1397" x1="337.949" y1="275.235" x2="337.949" y2="277.174" gradientUnits="userSpaceOnUse">
<stop stop-color="#5C96FD"/>
<stop offset="1" stop-color="#6C4FFE"/>
</linearGradient>
<linearGradient id="paint17_linear_447_1397" x1="312.478" y1="282.293" x2="312.478" y2="284.237" gradientUnits="userSpaceOnUse">
<stop stop-color="#5C96FD"/>
<stop offset="1" stop-color="#6C4FFE"/>
</linearGradient>
<linearGradient id="paint18_linear_447_1397" x1="312.478" y1="289.364" x2="312.478" y2="291.3" gradientUnits="userSpaceOnUse">
<stop stop-color="#5C96FD"/>
<stop offset="1" stop-color="#6C4FFE"/>
</linearGradient>
<linearGradient id="paint19_linear_447_1397" x1="312.478" y1="296.43" x2="312.478" y2="298.369" gradientUnits="userSpaceOnUse">
<stop stop-color="#5C96FD"/>
<stop offset="1" stop-color="#6C4FFE"/>
</linearGradient>
<linearGradient id="paint20_linear_447_1397" x1="312.478" y1="303.496" x2="312.478" y2="305.432" gradientUnits="userSpaceOnUse">
<stop stop-color="#5C96FD"/>
<stop offset="1" stop-color="#6C4FFE"/>
</linearGradient>
<linearGradient id="paint21_linear_447_1397" x1="312.478" y1="310.562" x2="312.478" y2="312.501" gradientUnits="userSpaceOnUse">
<stop stop-color="#5C96FD"/>
<stop offset="1" stop-color="#6C4FFE"/>
</linearGradient>
<linearGradient id="paint22_linear_447_1397" x1="312.478" y1="317.628" x2="312.478" y2="319.564" gradientUnits="userSpaceOnUse">
<stop stop-color="#5C96FD"/>
<stop offset="1" stop-color="#6C4FFE"/>
</linearGradient>
<linearGradient id="paint23_linear_447_1397" x1="287.004" y1="324.691" x2="287.004" y2="326.63" gradientUnits="userSpaceOnUse">
<stop stop-color="#5C96FD"/>
<stop offset="1" stop-color="#6C4FFE"/>
</linearGradient>
<linearGradient id="paint24_linear_447_1397" x1="287.004" y1="331.761" x2="287.004" y2="333.697" gradientUnits="userSpaceOnUse">
<stop stop-color="#5C96FD"/>
<stop offset="1" stop-color="#6C4FFE"/>
</linearGradient>
<linearGradient id="paint25_linear_447_1397" x1="287.004" y1="338.823" x2="287.004" y2="340.767" gradientUnits="userSpaceOnUse">
<stop stop-color="#5C96FD"/>
<stop offset="1" stop-color="#6C4FFE"/>
</linearGradient>
<linearGradient id="paint26_linear_447_1397" x1="287.004" y1="345.889" x2="287.004" y2="347.825" gradientUnits="userSpaceOnUse">
<stop stop-color="#5C96FD"/>
<stop offset="1" stop-color="#6C4FFE"/>
</linearGradient>
<linearGradient id="paint27_linear_447_1397" x1="287.004" y1="352.954" x2="287.004" y2="354.894" gradientUnits="userSpaceOnUse">
<stop stop-color="#5C96FD"/>
<stop offset="1" stop-color="#6C4FFE"/>
</linearGradient>
<linearGradient id="paint28_linear_447_1397" x1="287.002" y1="360.021" x2="287.002" y2="361.958" gradientUnits="userSpaceOnUse">
<stop stop-color="#5C96FD"/>
<stop offset="1" stop-color="#6C4FFE"/>
</linearGradient>
<linearGradient id="paint29_linear_447_1397" x1="287.004" y1="367.083" x2="287.004" y2="369.022" gradientUnits="userSpaceOnUse">
<stop stop-color="#5C96FD"/>
<stop offset="1" stop-color="#6C4FFE"/>
</linearGradient>
<linearGradient id="paint30_linear_447_1397" x1="287.006" y1="374.152" x2="287.006" y2="376.089" gradientUnits="userSpaceOnUse">
<stop stop-color="#5C96FD"/>
<stop offset="1" stop-color="#6C4FFE"/>
</linearGradient>
<linearGradient id="paint31_linear_447_1397" x1="287.006" y1="381.216" x2="287.006" y2="383.155" gradientUnits="userSpaceOnUse">
<stop stop-color="#5C96FD"/>
<stop offset="1" stop-color="#6C4FFE"/>
</linearGradient>
<linearGradient id="paint32_linear_447_1397" x1="287.006" y1="388.282" x2="287.006" y2="390.218" gradientUnits="userSpaceOnUse">
<stop stop-color="#5C96FD"/>
<stop offset="1" stop-color="#6C4FFE"/>
</linearGradient>
<linearGradient id="paint33_linear_447_1397" x1="287.006" y1="395.348" x2="287.006" y2="397.287" gradientUnits="userSpaceOnUse">
<stop stop-color="#5C96FD"/>
<stop offset="1" stop-color="#6C4FFE"/>
</linearGradient>
<linearGradient id="paint34_linear_447_1397" x1="287.006" y1="402.414" x2="287.006" y2="404.35" gradientUnits="userSpaceOnUse">
<stop stop-color="#5C96FD"/>
<stop offset="1" stop-color="#6C4FFE"/>
</linearGradient>
<linearGradient id="paint35_linear_447_1397" x1="287.006" y1="409.476" x2="287.006" y2="411.415" gradientUnits="userSpaceOnUse">
<stop stop-color="#5C96FD"/>
<stop offset="1" stop-color="#6C4FFE"/>
</linearGradient>
<linearGradient id="paint36_linear_447_1397" x1="287.006" y1="416.546" x2="287.006" y2="418.482" gradientUnits="userSpaceOnUse">
<stop stop-color="#5C96FD"/>
<stop offset="1" stop-color="#6C4FFE"/>
</linearGradient>
<linearGradient id="paint37_linear_447_1397" x1="287.006" y1="423.608" x2="287.006" y2="425.548" gradientUnits="userSpaceOnUse">
<stop stop-color="#5C96FD"/>
<stop offset="1" stop-color="#6C4FFE"/>
</linearGradient>
<linearGradient id="paint38_linear_447_1397" x1="287.006" y1="430.675" x2="287.006" y2="432.611" gradientUnits="userSpaceOnUse">
<stop stop-color="#5C96FD"/>
<stop offset="1" stop-color="#6C4FFE"/>
</linearGradient>
<linearGradient id="paint39_linear_447_1397" x1="287.006" y1="437.741" x2="287.006" y2="439.68" gradientUnits="userSpaceOnUse">
<stop stop-color="#5C96FD"/>
<stop offset="1" stop-color="#6C4FFE"/>
</linearGradient>
<linearGradient id="paint40_linear_447_1397" x1="287" y1="102.319" x2="287" y2="284.583" gradientUnits="userSpaceOnUse">
<stop stop-color="#5C96FD"/>
<stop offset="1" stop-color="#6C4FFE"/>
</linearGradient>
<linearGradient id="paint41_linear_447_1397" x1="95.028" y1="213.178" x2="95.028" y2="241.73" gradientUnits="userSpaceOnUse">
<stop stop-color="#5C96FD"/>
<stop offset="1" stop-color="#6C4FFE"/>
</linearGradient>
<linearGradient id="paint42_linear_447_1397" x1="136.176" y1="195.502" x2="136.176" y2="213.178" gradientUnits="userSpaceOnUse">
<stop stop-color="#5C96FD"/>
<stop offset="1" stop-color="#6C4FFE"/>
</linearGradient>
<linearGradient id="paint43_linear_447_1397" x1="494.758" y1="231.479" x2="494.758" y2="264.791" gradientUnits="userSpaceOnUse">
<stop stop-color="#5C96FD"/>
<stop offset="1" stop-color="#6C4FFE"/>
</linearGradient>
<linearGradient id="paint44_linear_447_1397" x1="133.157" y1="279.018" x2="133.157" y2="298.73" gradientUnits="userSpaceOnUse">
<stop stop-color="#5C96FD"/>
<stop offset="1" stop-color="#6C4FFE"/>
</linearGradient>
<linearGradient id="paint45_linear_447_1397" x1="253.023" y1="353.6" x2="253.023" y2="384.695" gradientUnits="userSpaceOnUse">
<stop stop-color="#5C96FD"/>
<stop offset="1" stop-color="#6C4FFE"/>
</linearGradient>
<linearGradient id="paint46_linear_447_1397" x1="281.611" y1="333.33" x2="281.611" y2="384.695" gradientUnits="userSpaceOnUse">
<stop stop-color="#5C96FD"/>
<stop offset="1" stop-color="#6C4FFE"/>
</linearGradient>
<linearGradient id="paint47_linear_447_1397" x1="310.195" y1="312.444" x2="310.195" y2="384.696" gradientUnits="userSpaceOnUse">
<stop stop-color="#5C96FD"/>
<stop offset="1" stop-color="#6C4FFE"/>
</linearGradient>
<linearGradient id="paint48_linear_447_1397" x1="338.781" y1="296.474" x2="338.781" y2="384.695" gradientUnits="userSpaceOnUse">
<stop stop-color="#5C96FD"/>
<stop offset="1" stop-color="#6C4FFE"/>
</linearGradient>
<linearGradient id="paint49_linear_447_1397" x1="453.771" y1="345.506" x2="453.771" y2="391.78" gradientUnits="userSpaceOnUse">
<stop stop-color="#5C96FD"/>
<stop offset="1" stop-color="#6C4FFE"/>
</linearGradient>
<linearGradient id="paint50_linear_447_1397" x1="169.74" y1="376.883" x2="80.6074" y2="376.883" gradientUnits="userSpaceOnUse">
<stop stop-color="#5C96FD"/>
<stop offset="1" stop-color="#6C4FFE"/>
</linearGradient>
<linearGradient id="paint51_linear_447_1397" x1="135.063" y1="385.394" x2="80.6074" y2="385.394" gradientUnits="userSpaceOnUse">
<stop stop-color="#5C96FD"/>
<stop offset="1" stop-color="#6C4FFE"/>
</linearGradient>
<linearGradient id="paint52_linear_447_1397" x1="157.923" y1="393.904" x2="80.6074" y2="393.904" gradientUnits="userSpaceOnUse">
<stop stop-color="#5C96FD"/>
<stop offset="1" stop-color="#6C4FFE"/>
</linearGradient>
<linearGradient id="paint53_linear_447_1397" x1="120.069" y1="402.415" x2="80.6074" y2="402.415" gradientUnits="userSpaceOnUse">
<stop stop-color="#5C96FD"/>
<stop offset="1" stop-color="#6C4FFE"/>
</linearGradient>
</defs>
</svg>
