<svg width="864" height="147" viewBox="0 0 864 147" fill="none" xmlns="http://www.w3.org/2000/svg">
<mask id="mask0_419_1052" style="mask-type:luminance" maskUnits="userSpaceOnUse" x="0" y="118" width="74" height="30">
<path d="M73.9996 118.431H0.851562V147.001H73.9996V118.431Z" fill="white"/>
</mask>
<g mask="url(#mask0_419_1052)">
<path d="M55.4176 147.002H0.851562C0.851562 131.223 13.0676 118.432 28.1356 118.432C43.2036 118.432 55.4176 131.223 55.4176 147.002Z" fill="white"/>
<path d="M73.9998 147.001H46.7178C46.7178 139.113 52.8248 132.716 60.3578 132.716C67.8908 132.716 73.9998 139.116 73.9998 147.001Z" fill="white"/>
</g>
<mask id="mask1_419_1052" style="mask-type:luminance" maskUnits="userSpaceOnUse" x="781" y="89" width="83" height="32">
<path d="M864 89.417H781.882V120.925H864V89.417Z" fill="white"/>
</mask>
<g mask="url(#mask1_419_1052)">
<path d="M863.999 120.925H835.521C835.521 112.691 841.896 106.015 849.761 106.015C857.626 106.015 863.999 112.691 863.999 120.925Z" fill="white"/>
<path d="M842.06 120.925H781.882C781.882 103.523 795.354 89.417 811.972 89.417C828.59 89.417 842.06 103.523 842.06 120.925Z" fill="white"/>
</g>
<mask id="mask2_419_1052" style="mask-type:luminance" maskUnits="userSpaceOnUse" x="457" y="50" width="74" height="30">
<path d="M530.574 50.431H457.426V79.001H530.574V50.431Z" fill="white"/>
</mask>
<g mask="url(#mask2_419_1052)">
<path d="M511.992 79.002H457.426C457.426 63.223 469.642 50.432 484.71 50.432C499.778 50.432 511.992 63.223 511.992 79.002Z" fill="white"/>
<path d="M530.574 79.001H503.292C503.292 71.113 509.399 64.716 516.932 64.716C524.465 64.716 530.574 71.116 530.574 79.001Z" fill="white"/>
</g>
<mask id="mask3_419_1052" style="mask-type:luminance" maskUnits="userSpaceOnUse" x="204" y="0" width="74" height="30">
<path d="M277.574 0.570007H204.426V29.14H277.574V0.570007Z" fill="white"/>
</mask>
<g mask="url(#mask3_419_1052)">
<path d="M258.992 29.141H204.426C204.426 13.362 216.642 0.570984 231.71 0.570984C246.778 0.570984 258.992 13.362 258.992 29.141Z" fill="white"/>
<path d="M277.574 29.14H250.292C250.292 21.252 256.399 14.855 263.932 14.855C271.465 14.855 277.574 21.255 277.574 29.14Z" fill="white"/>
</g>
<path d="M736 0.570068H652C646.477 0.570068 642 5.04722 642 10.5701V37.5701C642 43.0929 646.477 47.5701 652 47.5701H736C741.523 47.5701 746 43.0929 746 37.5701V10.5701C746 5.04722 741.523 0.570068 736 0.570068Z" fill="white"/>
<path d="M688.003 20.135C690.033 20.135 691.783 21.157 692.525 23.061H690.607C690.089 22.081 689.165 21.591 688.003 21.591C686.071 21.591 684.671 22.963 684.671 25.105C684.671 27.247 686.071 28.633 688.003 28.633C689.767 28.633 690.873 27.569 691.111 25.931H687.457V24.657H692.819V25.903C692.525 28.157 690.621 30.075 688.003 30.075C685.259 30.075 683.033 28.031 683.033 25.105C683.033 22.193 685.259 20.135 688.003 20.135ZM695.989 25.931V29.991H694.393V22.277H695.989V23.397C696.437 22.627 697.207 22.151 698.299 22.151V23.803H697.893C696.717 23.803 695.989 24.293 695.989 25.931ZM707.116 26.127C707.116 28.549 705.324 30.117 703.112 30.117C700.914 30.117 699.248 28.549 699.248 26.127C699.248 23.705 700.984 22.151 703.182 22.151C705.38 22.151 707.116 23.705 707.116 26.127ZM700.872 26.127C700.872 27.877 701.908 28.731 703.112 28.731C704.302 28.731 705.478 27.877 705.478 26.127C705.478 24.377 704.344 23.537 703.154 23.537C701.95 23.537 700.872 24.377 700.872 26.127ZM710.192 29.991L707.784 22.277H709.408L711.018 28.479L712.656 22.277H714.322L715.89 28.451L717.486 22.277H719.054L716.66 29.991H714.98L713.426 24.293L711.872 29.991H710.192ZM720.498 27.849V23.579H719.588V22.277H720.498V20.359H722.108V22.277H723.984V23.579H722.108V27.849C722.108 28.423 722.332 28.661 723.004 28.661H723.984V29.991H722.724C721.352 29.991 720.498 29.417 720.498 27.849ZM725.455 29.991V19.631H727.051V23.173C727.583 22.529 728.451 22.151 729.445 22.151C731.167 22.151 732.511 23.285 732.511 25.441V29.991H730.929V25.679C730.929 24.265 730.159 23.537 728.997 23.537C727.821 23.537 727.051 24.265 727.051 25.679V29.991H725.455Z" fill="#1AD598"/>
<path d="M665.999 35.491C672.626 35.491 677.999 30.3422 677.999 23.991C677.999 17.6397 672.626 12.491 665.999 12.491C659.372 12.491 653.999 17.6397 653.999 23.991C653.999 30.3422 659.372 35.491 665.999 35.491Z" fill="#1AD598" fill-opacity="0.2"/>
<path d="M662.267 27.931C662.106 27.7675 662.016 27.5473 662.016 27.318C662.016 27.0886 662.106 26.8685 662.267 26.705L667.679 21.246H664.596C664.366 21.246 664.145 21.1546 663.982 20.9919C663.82 20.8292 663.728 20.6086 663.728 20.3785C663.728 20.1484 663.82 19.9278 663.982 19.7651C664.145 19.6024 664.366 19.511 664.596 19.511H669.756C669.873 19.511 669.988 19.5351 670.096 19.582H670.104H670.112C670.206 19.625 670.291 19.6846 670.364 19.758C670.412 19.8069 670.454 19.8613 670.49 19.92L670.496 19.931L670.506 19.954C670.578 20.0839 670.616 20.2302 670.616 20.379V25.579C670.616 25.8072 670.525 26.0261 670.364 26.1875C670.202 26.3488 669.983 26.4395 669.755 26.4395C669.527 26.4395 669.308 26.3488 669.147 26.1875C668.985 26.0261 668.895 25.8072 668.895 25.579V22.473L663.483 27.931C663.403 28.0114 663.308 28.0753 663.204 28.1188C663.1 28.1624 662.988 28.1849 662.875 28.1849C662.762 28.1849 662.65 28.1624 662.545 28.1188C662.441 28.0753 662.346 28.0114 662.267 27.931Z" fill="#1AD598"/>
<path d="M412.001 28.001H388.001C382.478 28.001 378.001 32.4781 378.001 38.001V63.001C378.001 68.5238 382.478 73.001 388.001 73.001H412.001C417.524 73.001 422.001 68.5238 422.001 63.001V38.001C422.001 32.4781 417.524 28.001 412.001 28.001Z" fill="white"/>
<path d="M406.18 41.251L409.651 44.716L402.251 52.101L396.192 46.051L384.962 57.277L387.099 59.411L396.192 50.331L402.254 56.384L411.802 46.865L415.273 50.331V41.251H406.18Z" fill="#1AD598" stroke="#777E90" stroke-opacity="0.1"/>
<path d="M161 31H68C62.4772 31 58 35.4772 58 41V69C58 74.5228 62.4772 79 68 79H161C166.523 79 171 74.5228 171 69V41C171 35.4772 166.523 31 161 31Z" fill="white"/>
<path d="M108.771 52.297H110.255V55.195H113.083V56.539H110.255V59.437H108.771V56.539H105.943V55.195H108.771V52.297ZM120.221 60.921V58.793H115.153V57.589L119.857 50.841H121.789V57.407H123.091V58.793H121.789V60.921H120.221ZM116.987 57.407H120.291V52.465L116.987 57.407ZM123.643 62.867L124.637 59.003H126.373L124.679 62.867H123.643ZM127.53 53.235C127.642 51.471 129.014 50.477 130.876 50.477C132.906 50.477 134.012 51.653 134.012 53.137C134.012 54.355 133.242 55.181 132.444 55.447V55.503C133.508 55.825 134.194 56.707 134.194 58.121C134.194 59.745 133.046 60.977 130.918 60.977C128.986 60.977 127.488 59.969 127.39 57.967H128.93C129 58.919 129.7 59.647 130.904 59.647C132.094 59.647 132.682 58.919 132.682 57.967C132.682 56.623 131.814 56.161 130.148 56.161H129.784V54.845H130.162C131.604 54.831 132.486 54.411 132.486 53.319C132.486 52.437 131.912 51.849 130.82 51.849C129.7 51.849 129.182 52.521 129.084 53.235H127.53ZM135.842 53.235C135.954 51.471 137.326 50.477 139.188 50.477C141.218 50.477 142.324 51.653 142.324 53.137C142.324 54.355 141.554 55.181 140.756 55.447V55.503C141.82 55.825 142.506 56.707 142.506 58.121C142.506 59.745 141.358 60.977 139.23 60.977C137.298 60.977 135.8 59.969 135.702 57.967H137.242C137.312 58.919 138.012 59.647 139.216 59.647C140.406 59.647 140.994 58.919 140.994 57.967C140.994 56.623 140.126 56.161 138.46 56.161H138.096V54.845H138.474C139.916 54.831 140.798 54.411 140.798 53.319C140.798 52.437 140.224 51.849 139.132 51.849C138.012 51.849 137.494 52.521 137.396 53.235H135.842Z" fill="#1AD598"/>
<path d="M87.999 66.499C94.6264 66.499 99.999 61.3503 99.999 54.999C99.999 48.6477 94.6264 43.499 87.999 43.499C81.3716 43.499 75.999 48.6477 75.999 54.999C75.999 61.3503 81.3716 66.499 87.999 66.499Z" fill="#1AD598" fill-opacity="0.2"/>
<path d="M84.2657 58.939C84.1048 58.7756 84.0146 58.5554 84.0146 58.326C84.0146 58.0967 84.1048 57.8765 84.2657 57.713L89.6777 52.254H86.5947C86.3646 52.254 86.1439 52.1626 85.9813 52C85.8186 51.8373 85.7272 51.6166 85.7272 51.3865C85.7272 51.1565 85.8186 50.9358 85.9813 50.7731C86.1439 50.6104 86.3646 50.519 86.5947 50.519H91.7547C91.8717 50.519 91.9874 50.5432 92.0947 50.59H92.1027H92.1107C92.2046 50.633 92.29 50.6927 92.3627 50.766C92.4108 50.8149 92.4531 50.8693 92.4887 50.928L92.4947 50.939L92.5047 50.962C92.5771 51.092 92.615 51.2383 92.6147 51.387V56.587C92.6147 56.8153 92.524 57.0341 92.3626 57.1955C92.2013 57.3569 91.9824 57.4475 91.7542 57.4475C91.5259 57.4475 91.3071 57.3569 91.1457 57.1955C90.9843 57.0341 90.8937 56.8153 90.8937 56.587V53.481L85.4817 58.939C85.4021 59.0195 85.3075 59.0833 85.2031 59.1269C85.0987 59.1705 84.9868 59.1929 84.8737 59.1929C84.7606 59.1929 84.6486 59.1705 84.5442 59.1269C84.4399 59.0833 84.3452 59.0195 84.2657 58.939Z" fill="#1AD598"/>
</svg>
