<svg width="350" height="132" viewBox="0 0 350 132" fill="none" xmlns="http://www.w3.org/2000/svg">
<g filter="url(#filter0_d_1_207)">
<rect x="15" y="3" width="320" height="102" fill="white"/>
<path d="M205 54.6582C205 54.1059 205.448 53.6582 206 53.6582H208C208.552 53.6582 209 54.1059 209 54.6582V81H205V54.6582Z" fill="#EBEAED"/>
<path d="M205 76.8572C205 76.3049 205.448 75.8572 206 75.8572H208C208.552 75.8572 209 76.3049 209 76.8572V81H205V76.8572Z" fill="#5542F6"/>
<path d="M215 43.7649C215 43.2126 215.448 42.7649 216 42.7649H218C218.552 42.7649 219 43.2126 219 43.7649V81H215V43.7649Z" fill="#EBEAED"/>
<path d="M215 78.5715C215 78.0192 215.448 77.5715 216 77.5715H218C218.552 77.5715 219 78.0192 219 78.5715V81.0001H215V78.5715Z" fill="#5542F6"/>
<path d="M225 28.8789C225 28.3266 225.448 27.8789 226 27.8789H228C228.552 27.8789 229 28.3266 229 28.8789V81.0001H225V28.8789Z" fill="#EBEAED"/>
<path d="M225 71.7146C225 71.1623 225.448 70.7146 226 70.7146H228C228.552 70.7146 229 71.1623 229 71.7146V81.0003H225V71.7146Z" fill="#5542F6"/>
<path d="M235 34.3472C235 33.7949 235.448 33.3472 236 33.3472H238C238.552 33.3472 239 33.7949 239 34.3472V81H235V34.3472Z" fill="#EBEAED"/>
<path d="M235 56.2856C235 55.7334 235.448 55.2856 236 55.2856H238C238.552 55.2856 239 55.7334 239 56.2856V80.9999H235V56.2856Z" fill="#EBEAED"/>
<path d="M245 30.4846C245 29.9323 245.448 29.4846 246 29.4846H248C248.552 29.4846 249 29.9323 249 30.4846V81H245V30.4846Z" fill="#EBEAED"/>
<path d="M245 53.7144C245 53.1621 245.448 52.7144 246 52.7144H248C248.552 52.7144 249 53.1621 249 53.7144V81.0001H245V53.7144Z" fill="#EBEAED"/>
<path d="M255 36.7341C255 36.1818 255.448 35.7341 256 35.7341H258C258.552 35.7341 259 36.1818 259 36.7341V81H255V36.7341Z" fill="#EBEAED"/>
<path d="M255 74.2856C255 73.7334 255.448 73.2856 256 73.2856H258C258.552 73.2856 259 73.7334 259 74.2856V80.9999H255V74.2856Z" fill="#5542F6"/>
<path d="M265 34.3472C265 33.7949 265.448 33.3472 266 33.3472H268C268.552 33.3472 269 33.7949 269 34.3472V81H265V34.3472Z" fill="#EBEAED"/>
<path d="M265 64C265 63.4477 265.448 63 266 63H268C268.552 63 269 63.4477 269 64V81H265V64Z" fill="#5542F6"/>
<path d="M275 46.0654C275 45.5131 275.448 45.0654 276 45.0654H278C278.552 45.0654 279 45.5131 279 46.0654V81.0003H275V46.0654Z" fill="#EBEAED"/>
<path d="M275 67.4285C275 66.8762 275.448 66.4285 276 66.4285H278C278.552 66.4285 279 66.8762 279 67.4285V80.9999H275V67.4285Z" fill="#5542F6"/>
<path d="M285 41.2366C285 40.6843 285.448 40.2366 286 40.2366H288C288.552 40.2366 289 40.6843 289 41.2366V80.8586H285V41.2366Z" fill="#EBEAED"/>
<path d="M285 59.7144C285 59.1621 285.448 58.7144 286 58.7144H288C288.552 58.7144 289 59.1621 289 59.7144V81.0001H285V59.7144Z" fill="#5542F6"/>
<path d="M295 28C295 27.4477 295.448 27 296 27H298C298.552 27 299 27.4477 299 28V81H295V28Z" fill="#EBEAED"/>
<path d="M295 69.1091C295 68.5568 295.448 68.1091 296 68.1091H298C298.552 68.1091 299 68.5568 299 69.1091V80.9999H295V69.1091Z" fill="#5542F6"/>
<path d="M305 28.8572C305 28.3049 305.448 27.8572 306 27.8572H308C308.552 27.8572 309 28.3049 309 28.8572V81H305V28.8572Z" fill="#EBEAED"/>
<path d="M305 74.2856C305 73.7334 305.448 73.2856 306 73.2856H308C308.552 73.2856 309 73.7334 309 74.2856V80.9999H305V74.2856Z" fill="#5542F6"/>
<path d="M315 42.9407C315 42.3884 315.448 41.9407 316 41.9407H318C318.552 41.9407 319 42.3884 319 42.9407V81.0004H315V42.9407Z" fill="#EBEAED"/>
<path d="M315 69.1428C315 68.5905 315.448 68.1428 316 68.1428H318C318.552 68.1428 319 68.5905 319 69.1428V81H315V69.1428Z" fill="#EBEAED"/>
<path d="M33.016 33.608H34.624C35.872 33.608 36.4 33.02 36.4 32.084C36.4 31.112 35.872 30.536 34.624 30.536H33.016V33.608ZM37.516 32.084C37.516 33.356 36.7 34.508 34.624 34.508H33.016V38H31.924V29.636H34.624C36.592 29.636 37.516 30.716 37.516 32.084ZM44.4892 38L43.8172 36.14H40.1692L39.4972 38H38.3452L41.3692 29.684H42.6292L45.6412 38H44.4892ZM43.5052 35.252L41.9932 31.028L40.4812 35.252H43.5052ZM48.9992 34.844L46.2632 29.636H47.4752L49.5392 33.872L51.6032 29.636H52.8152L50.0912 34.844V38H48.9992V34.844ZM53.967 38V29.696H55.143L58.215 36.56L61.287 29.696H62.451V38H61.359V31.808L58.599 38H57.831L55.059 31.796V38H53.967ZM68.8029 29.624V30.524H65.3949V33.32H68.4429V34.22H65.3949V37.1H68.8029V38H64.3029V29.624H68.8029ZM75.9393 29.624H77.0312V38H75.9393L71.5473 31.34V38H70.4553V29.624H71.5473L75.9393 36.272V29.624ZM78.3768 30.524V29.636H84.0408V30.524H81.7608V38H80.6688V30.524H78.3768ZM90.8209 35.72C90.8209 36.908 89.8489 38.084 88.0369 38.084C86.3569 38.084 85.1689 37.148 85.1449 35.768H86.3089C86.3809 36.464 86.8729 37.16 88.0369 37.16C89.0929 37.16 89.7169 36.56 89.7169 35.768C89.7169 33.512 85.1929 34.952 85.1929 31.844C85.1929 30.464 86.3089 29.528 87.9649 29.528C89.5609 29.528 90.6049 30.404 90.7369 31.676H89.5369C89.4649 31.112 88.9369 30.476 87.9169 30.464C87.0169 30.44 86.3089 30.908 86.3089 31.808C86.3089 33.968 90.8209 32.624 90.8209 35.72ZM95.2191 33.812C95.2191 31.304 97.0551 29.528 99.3951 29.528C101.207 29.528 102.647 30.44 103.271 32.06H101.963C101.507 31.052 100.619 30.488 99.3951 30.488C97.6431 30.488 96.3351 31.76 96.3351 33.812C96.3351 35.852 97.6431 37.124 99.3951 37.124C100.619 37.124 101.507 36.56 101.963 35.564H103.271C102.647 37.172 101.207 38.072 99.3951 38.072C97.0551 38.072 95.2191 36.32 95.2191 33.812ZM112.889 33.812C112.889 36.32 111.053 38.084 108.689 38.084C106.337 38.084 104.489 36.32 104.489 33.812C104.489 31.304 106.337 29.54 108.689 29.54C111.053 29.54 112.889 31.304 112.889 33.812ZM105.605 33.812C105.605 35.852 106.925 37.136 108.689 37.136C110.453 37.136 111.773 35.852 111.773 33.812C111.773 31.76 110.453 30.488 108.689 30.488C106.925 30.488 105.605 31.76 105.605 33.812ZM114.33 38V29.696H115.506L118.578 36.56L121.65 29.696H122.814V38H121.722V31.808L118.962 38H118.194L115.422 31.796V38H114.33ZM125.758 33.608H127.366C128.614 33.608 129.142 33.02 129.142 32.084C129.142 31.112 128.614 30.536 127.366 30.536H125.758V33.608ZM130.258 32.084C130.258 33.356 129.442 34.508 127.366 34.508H125.758V38H124.666V29.636H127.366C129.334 29.636 130.258 30.716 130.258 32.084ZM131.615 29.636H132.707V37.112H135.635V38H131.615V29.636ZM141.295 29.624V30.524H137.887V33.32H140.935V34.22H137.887V37.1H141.295V38H136.795V29.624H141.295ZM142.431 30.524V29.636H148.095V30.524H145.815V38H144.723V30.524H142.431ZM153.94 29.624V30.524H150.532V33.32H153.58V34.22H150.532V37.1H153.94V38H149.44V29.624H153.94ZM158.196 29.636C160.944 29.636 162.636 31.244 162.636 33.836C162.636 36.428 160.944 38 158.196 38H155.592V29.636H158.196ZM156.684 37.1H158.196C160.38 37.1 161.52 35.876 161.52 33.836C161.52 31.796 160.38 30.524 158.196 30.524H156.684V37.1Z" fill="#5542F6"/>
<path d="M33.548 56.532H46.204V59.976H37.132V64.764C37.888 63.84 39.428 63.112 41.136 63.112C45.896 63.112 47.52 66.696 47.52 69.86C47.52 74.032 45.112 77 40.464 77C36.068 77 33.548 74.564 33.212 71.232H37.02C37.356 72.66 38.504 73.696 40.408 73.696C42.704 73.696 43.74 72.072 43.74 69.916C43.74 67.62 42.592 66.36 40.38 66.36C38.756 66.36 37.72 67.256 37.3 68.516H33.548V56.532ZM64.7275 61.684H61.0875C60.7235 60.172 59.9115 59.332 58.1475 59.332C55.5995 59.332 54.4235 61.236 54.3675 65.94C55.2915 64.4 57.1395 63.56 59.1275 63.56C62.7675 63.56 65.3155 65.968 65.3155 70.224C65.3155 74.172 62.8795 77.056 58.5115 77.056C52.4635 77.056 50.9515 72.8 50.9515 66.472C50.9515 59.808 53.1075 56.112 58.2875 56.112C62.4595 56.112 64.4195 58.8 64.7275 61.684ZM58.2315 66.78C56.4115 66.78 54.7315 67.844 54.7315 70.168C54.7315 72.352 56.0195 73.724 58.3155 73.724C60.3315 73.724 61.5915 72.408 61.5915 70.308C61.5915 68.208 60.4995 66.78 58.2315 66.78ZM67.9657 82.068L75.5257 50.484H79.3617L71.8017 82.068H67.9657ZM81.5269 56.644H95.0229V59.556L87.5749 77H83.5989L91.1029 60.004H81.5269V56.644ZM97.1467 76.72V73.808C101.767 69.888 106.611 66.276 106.611 62.524C106.611 60.704 105.799 59.472 103.867 59.472C101.991 59.472 100.955 60.816 100.927 62.972H97.1187C97.2587 58.296 100.255 56.14 103.923 56.14C108.319 56.14 110.531 58.744 110.531 62.3C110.531 67.032 105.967 70.728 102.719 73.472H110.979V76.72H97.1467Z" fill="#2E2C34"/>
</g>
<defs>
<filter id="filter0_d_1_207" x="0" y="0" width="350" height="132" filterUnits="userSpaceOnUse" color-interpolation-filters="sRGB">
<feFlood flood-opacity="0" result="BackgroundImageFix"/>
<feColorMatrix in="SourceAlpha" type="matrix" values="0 0 0 0 0 0 0 0 0 0 0 0 0 0 0 0 0 0 127 0" result="hardAlpha"/>
<feOffset dy="12"/>
<feGaussianBlur stdDeviation="7.5"/>
<feComposite in2="hardAlpha" operator="out"/>
<feColorMatrix type="matrix" values="0 0 0 0 0 0 0 0 0 0 0 0 0 0 0 0 0 0 0.05 0"/>
<feBlend mode="normal" in2="BackgroundImageFix" result="effect1_dropShadow_1_207"/>
<feBlend mode="normal" in="SourceGraphic" in2="effect1_dropShadow_1_207" result="shape"/>
</filter>
</defs>
</svg>
