<svg width="293" height="140" viewBox="0 0 293 140" fill="none" xmlns="http://www.w3.org/2000/svg">
<g filter="url(#filter0_d_1_162)">
<path d="M15 7C15 4.79086 16.7909 3 19 3H274C276.209 3 278 4.79086 278 7V109C278 111.209 276.209 113 274 113H19C16.7909 113 15 111.209 15 109V7Z" fill="white"/>
<path d="M39 87C39 86.4477 39.4477 86 40 86H253C253.552 86 254 86.4477 254 87V90C254 90.5523 253.552 91 253 91H40C39.4477 91 39 90.5523 39 90V87Z" fill="#EBEAED"/>
<path d="M39 87C39 86.4477 39.4477 86 40 86H192.531C193.084 86 193.531 86.4477 193.531 87V90C193.531 90.5523 193.084 91 192.531 91H40C39.4477 91 39 90.5523 39 90V87Z" fill="#5542F6"/>
<path d="M173.456 74V67.378H172.462V66.328H173.456V65.782C173.456 64.074 174.296 63.304 176.256 63.304V64.368C175.108 64.368 174.73 64.788 174.73 65.782V66.328H176.34V67.378H174.73V74H173.456ZM179.1 69.828V74H177.826V66.328H179.1V67.574C179.534 66.72 180.36 66.188 181.578 66.188V67.504H181.242C180.024 67.504 179.1 68.05 179.1 69.828ZM190.328 70.15C190.328 72.586 188.578 74.126 186.394 74.126C184.224 74.126 182.572 72.586 182.572 70.15C182.572 67.728 184.28 66.202 186.45 66.202C188.634 66.202 190.328 67.728 190.328 70.15ZM183.874 70.15C183.874 72.096 185.064 73.006 186.394 73.006C187.724 73.006 189.026 72.096 189.026 70.15C189.026 68.218 187.752 67.308 186.436 67.308C185.092 67.308 183.874 68.218 183.874 70.15ZM203.077 74V69.66C203.077 68.092 202.237 67.294 200.977 67.294C199.689 67.294 198.807 68.12 198.807 69.772V74H197.547V69.66C197.547 68.092 196.707 67.294 195.447 67.294C194.159 67.294 193.277 68.12 193.277 69.772V74H192.003V66.328H193.277V67.434C193.781 66.622 194.691 66.188 195.699 66.188C196.959 66.188 198.009 66.748 198.513 67.896C198.961 66.79 200.053 66.188 201.229 66.188C202.979 66.188 204.337 67.28 204.337 69.478V74H203.077ZM209.796 73.888V72.978C212.456 70.836 214.976 68.82 214.976 66.748C214.976 65.628 214.486 64.788 213.114 64.788C211.798 64.788 211.126 65.698 211.07 66.972H209.838C209.922 64.816 211.28 63.696 213.1 63.696C215.004 63.696 216.236 64.816 216.236 66.692C216.236 69.212 213.52 71.354 211.714 72.824H216.53V73.888H209.796ZM217.974 66.426C218.1 64.69 219.416 63.682 221.292 63.682C223.266 63.682 224.344 64.83 224.344 66.286C224.344 67.448 223.616 68.358 222.552 68.596V68.666C223.728 68.946 224.526 69.814 224.526 71.27C224.526 72.838 223.434 74.07 221.32 74.07C219.402 74.07 217.974 73.048 217.82 71.088H219.052C219.178 72.166 219.962 72.992 221.306 72.992C222.664 72.992 223.308 72.194 223.308 71.158C223.308 69.73 222.314 69.184 220.494 69.184H220.172V68.12H220.508C222.202 68.106 223.112 67.588 223.112 66.412C223.112 65.446 222.468 64.774 221.25 64.774C220.06 64.774 219.346 65.446 219.22 66.426H217.974ZM225.351 76.002L226.373 72.236H227.773L226.205 76.002H225.351ZM229.022 68.834C229.022 65.936 229.75 63.724 232.55 63.724C235.336 63.724 236.064 65.936 236.064 68.834C236.064 71.774 235.336 74 232.55 74C229.75 74 229.022 71.774 229.022 68.834ZM234.804 68.834C234.804 66.734 234.538 64.886 232.55 64.886C230.548 64.886 230.282 66.734 230.282 68.834C230.282 71.018 230.548 72.838 232.55 72.838C234.538 72.838 234.804 71.018 234.804 68.834ZM237.813 68.834C237.813 65.936 238.541 63.724 241.341 63.724C244.127 63.724 244.855 65.936 244.855 68.834C244.855 71.774 244.127 74 241.341 74C238.541 74 237.813 71.774 237.813 68.834ZM243.595 68.834C243.595 66.734 243.329 64.886 241.341 64.886C239.339 64.886 239.073 66.734 239.073 68.834C239.073 71.018 239.339 72.838 241.341 72.838C243.329 72.838 243.595 71.018 243.595 68.834ZM248.452 68.736C247.416 68.33 246.828 67.546 246.828 66.412C246.828 64.928 247.948 63.724 250.146 63.724C252.344 63.724 253.478 64.942 253.478 66.412C253.478 67.504 252.848 68.344 251.854 68.736C253.002 69.086 253.744 70.01 253.744 71.27C253.744 73.104 252.288 74.28 250.146 74.28C248.018 74.28 246.576 73.104 246.576 71.27C246.576 69.996 247.318 69.072 248.452 68.736ZM250.146 68.316C251.392 68.316 252.246 67.616 252.246 66.566C252.246 65.404 251.42 64.788 250.146 64.788C248.9 64.788 248.06 65.39 248.06 66.58C248.06 67.63 248.914 68.316 250.146 68.316ZM250.146 69.296C248.844 69.296 247.794 69.884 247.794 71.228C247.794 72.418 248.704 73.216 250.146 73.216C251.588 73.216 252.484 72.404 252.484 71.228C252.484 69.926 251.476 69.296 250.146 69.296Z" fill="#84818A"/>
<path d="M39.924 33.636H41.016V41.112H43.944V42H39.924V33.636ZM53.0957 37.812C53.0957 40.32 51.2597 42.084 48.8957 42.084C46.5437 42.084 44.6957 40.32 44.6957 37.812C44.6957 35.304 46.5437 33.54 48.8957 33.54C51.2597 33.54 53.0957 35.304 53.0957 37.812ZM45.8117 37.812C45.8117 39.852 47.1317 41.136 48.8957 41.136C50.6597 41.136 51.9797 39.852 51.9797 37.812C51.9797 35.76 50.6597 34.488 48.8957 34.488C47.1317 34.488 45.8117 35.76 45.8117 37.812ZM59.0133 36.096C59.0133 35.148 58.4853 34.536 57.2373 34.536H55.6293V37.704H57.2373C58.4733 37.704 59.0133 37.032 59.0133 36.096ZM54.5373 33.636H57.2373C59.2053 33.636 60.1413 34.728 60.1413 36.096C60.1413 37.164 59.5533 38.184 58.1493 38.496L60.2493 42H58.9413L56.9493 38.58H55.6293V42H54.5373V33.636ZM66.3381 33.624V34.524H62.9301V37.32H65.9781V38.22H62.9301V41.1H66.3381V42H61.8381V33.624H66.3381ZM67.9904 42V33.696H69.1664L72.2384 40.56L75.3104 33.696H76.4744V42H75.3824V35.808L72.6224 42H71.8544L69.0824 35.796V42H67.9904ZM81.5256 42V33.636H82.6176V42H81.5256ZM85.5707 37.608H87.1787C88.4267 37.608 88.9547 37.02 88.9547 36.084C88.9547 35.112 88.4267 34.536 87.1787 34.536H85.5707V37.608ZM90.0707 36.084C90.0707 37.356 89.2547 38.508 87.1787 38.508H85.5707V42H84.4787V33.636H87.1787C89.1467 33.636 90.0707 34.716 90.0707 36.084ZM96.8639 39.72C96.8639 40.908 95.8919 42.084 94.0799 42.084C92.3999 42.084 91.2119 41.148 91.1879 39.768H92.3519C92.4239 40.464 92.9159 41.16 94.0799 41.16C95.1359 41.16 95.7599 40.56 95.7599 39.768C95.7599 37.512 91.2359 38.952 91.2359 35.844C91.2359 34.464 92.3519 33.528 94.0079 33.528C95.6039 33.528 96.6479 34.404 96.7799 35.676H95.5799C95.5079 35.112 94.9799 34.476 93.9599 34.464C93.0599 34.44 92.3519 34.908 92.3519 35.808C92.3519 37.968 96.8639 36.624 96.8639 39.72ZM98.4469 38.916V33.636H99.5389V38.928C99.5389 40.464 100.367 41.124 101.603 41.124C102.839 41.124 103.655 40.464 103.655 38.928V33.636H104.747V38.916C104.747 41.088 103.319 42.084 101.591 42.084C99.8629 42.084 98.4469 41.088 98.4469 38.916ZM106.569 42V33.696H107.745L110.817 40.56L113.889 33.696H115.053V42H113.961V35.808L111.201 42H110.433L107.661 35.796V42H106.569Z" fill="#84818A"/>
<path d="M41.394 74V63.2H39.648V60.878H43.986V74H41.394ZM46.5115 64.334C46.6375 61.904 48.3655 60.572 50.8855 60.572C53.5855 60.572 55.0255 62.102 55.0255 64.046C55.0255 65.684 53.9995 66.692 53.0455 67.016V67.088C54.3775 67.502 55.2595 68.582 55.2595 70.364C55.2595 72.506 53.7475 74.09 50.9935 74.09C48.4015 74.09 46.4395 72.794 46.3315 70.04H48.7795C48.8335 71.174 49.5895 71.984 50.9395 71.984C52.1995 71.984 52.8475 71.192 52.8475 70.148C52.8475 68.672 51.9115 68.132 50.0395 68.132H49.5175V66.062H50.0395C51.5155 66.062 52.5955 65.648 52.5955 64.352C52.5955 63.326 51.9655 62.714 50.8135 62.714C49.5895 62.714 49.0675 63.506 48.9775 64.334H46.5115ZM56.5129 76.592L57.7189 71.228H60.3829L58.1509 76.592H56.5129ZM62.5228 60.842H70.6588V63.056H64.8268V66.134C65.3128 65.54 66.3028 65.072 67.4008 65.072C70.4608 65.072 71.5048 67.376 71.5048 69.41C71.5048 72.092 69.9568 74 66.9688 74C64.1428 74 62.5228 72.434 62.3068 70.292H64.7548C64.9708 71.21 65.7088 71.876 66.9328 71.876C68.4088 71.876 69.0748 70.832 69.0748 69.446C69.0748 67.97 68.3368 67.16 66.9148 67.16C65.8708 67.16 65.2048 67.736 64.9348 68.546H62.5228V60.842ZM73.9988 70.31H76.3388C76.5368 71.354 77.2028 71.948 78.3728 71.948C79.8488 71.948 80.4968 70.85 80.4968 67.898C79.9388 68.672 78.8768 69.122 77.7248 69.122C75.4568 69.122 73.6388 67.7 73.6388 64.928C73.6388 62.3 75.2948 60.572 78.0668 60.572C81.6308 60.572 82.7288 62.984 82.7288 67.142C82.7288 71.606 81.7388 74.018 78.2648 74.018C75.4748 74.018 74.1428 72.236 73.9988 70.31ZM78.2468 67.07C79.5068 67.07 80.2628 66.224 80.2628 64.946C80.2628 63.506 79.4348 62.714 78.1568 62.714C76.8428 62.714 76.0508 63.596 76.0508 64.91C76.0508 66.098 76.7168 67.07 78.2468 67.07ZM93.8343 64.154H91.4943C91.2603 63.182 90.7383 62.642 89.6043 62.642C87.9663 62.642 87.2103 63.866 87.1743 66.89C87.7683 65.9 88.9563 65.36 90.2343 65.36C92.5743 65.36 94.2123 66.908 94.2123 69.644C94.2123 72.182 92.6463 74.036 89.8383 74.036C85.9503 74.036 84.9783 71.3 84.9783 67.232C84.9783 62.948 86.3643 60.572 89.6943 60.572C92.3763 60.572 93.6363 62.3 93.8343 64.154ZM89.6583 67.43C88.4883 67.43 87.4083 68.114 87.4083 69.608C87.4083 71.012 88.2363 71.894 89.7123 71.894C91.0083 71.894 91.8183 71.048 91.8183 69.698C91.8183 68.348 91.1163 67.43 89.6583 67.43Z" fill="#2E2C34"/>
</g>
<defs>
<filter id="filter0_d_1_162" x="0" y="0" width="293" height="140" filterUnits="userSpaceOnUse" color-interpolation-filters="sRGB">
<feFlood flood-opacity="0" result="BackgroundImageFix"/>
<feColorMatrix in="SourceAlpha" type="matrix" values="0 0 0 0 0 0 0 0 0 0 0 0 0 0 0 0 0 0 127 0" result="hardAlpha"/>
<feOffset dy="12"/>
<feGaussianBlur stdDeviation="7.5"/>
<feComposite in2="hardAlpha" operator="out"/>
<feColorMatrix type="matrix" values="0 0 0 0 0 0 0 0 0 0 0 0 0 0 0 0 0 0 0.05 0"/>
<feBlend mode="normal" in2="BackgroundImageFix" result="effect1_dropShadow_1_162"/>
<feBlend mode="normal" in="SourceGraphic" in2="effect1_dropShadow_1_162" result="shape"/>
</filter>
</defs>
</svg>
