<svg width="574" height="542" viewBox="0 0 574 542" fill="none" xmlns="http://www.w3.org/2000/svg">
<path opacity="0.08" d="M0 20C0 8.95429 8.95431 0 20 0H554C565.046 0 574 8.9543 574 20V522C574 533.046 565.046 542 554 542H20C8.95431 542 0 533.046 0 522V20Z" fill="url(#paint0_linear_263_673)"/>
<path d="M26 44C26 32.9543 34.9543 24 46 24H528C539.046 24 548 32.9543 548 44V498C548 509.046 539.046 518 528 518H46C34.9543 518 26 509.046 26 498V44Z" fill="url(#paint1_linear_263_673)"/>
<g clip-path="url(#clip0_263_673)">
<g opacity="0.9">
<mask id="mask0_263_673" style="mask-type:luminance" maskUnits="userSpaceOnUse" x="129" y="113" width="317" height="316">
<path d="M445.034 113H129V429H445.034V113Z" fill="white"/>
</mask>
<g mask="url(#mask0_263_673)">
<mask id="mask1_263_673" style="mask-type:luminance" maskUnits="userSpaceOnUse" x="129" y="113" width="317" height="316">
<path d="M445.034 113H129V429H445.034V113Z" fill="white"/>
</mask>
<g mask="url(#mask1_263_673)">
<g style="mix-blend-mode:hard-light">
<mask id="mask2_263_673" style="mask-type:luminance" maskUnits="userSpaceOnUse" x="161" y="145" width="252" height="252">
<path d="M412.408 145.679H161.626V396.474H412.408V145.679Z" fill="white"/>
</mask>
<g mask="url(#mask2_263_673)">
<path d="M410.647 281.92C411.119 281.914 411.57 281.722 411.9 281.384C412.231 281.047 412.414 280.592 412.409 280.12L412.164 259.142C412.156 258.668 411.962 258.216 411.623 257.885C411.283 257.553 410.827 257.369 410.353 257.372L380.999 251.092C380.157 247.094 379.057 243.155 377.708 239.298L399.508 218.663C399.915 218.419 400.21 218.025 400.327 217.565C400.445 217.105 400.376 216.617 400.136 216.208L389.436 198.167C389.193 197.76 388.797 197.466 388.337 197.35C387.877 197.233 387.39 197.304 386.982 197.547L358.382 206.78C355.663 203.748 352.748 200.898 349.654 198.249L358.227 169.442C358.457 169.027 358.515 168.538 358.386 168.082C358.258 167.625 357.955 167.237 357.542 167.003L339.251 156.723C338.836 156.497 338.349 156.442 337.895 156.57C337.44 156.698 337.053 156.999 336.817 157.408L316.692 179.69C312.811 178.425 308.852 177.415 304.84 176.664L297.866 147.457C297.86 146.981 297.666 146.527 297.326 146.193C296.986 145.86 296.528 145.675 296.052 145.679L275.074 145.923C274.601 145.936 274.152 146.133 273.822 146.473C273.493 146.813 273.31 147.269 273.313 147.742L267.008 177.105C263.016 177.942 259.083 179.04 255.235 180.392L234.599 158.592C234.354 158.187 233.96 157.895 233.501 157.779C233.042 157.663 232.556 157.732 232.148 157.972L214.095 168.663C213.689 168.908 213.396 169.303 213.28 169.763C213.165 170.223 213.236 170.71 213.479 171.118L222.704 199.718C219.677 202.435 216.829 205.345 214.178 208.431L185.378 199.875C185.173 199.76 184.947 199.686 184.714 199.658C184.48 199.63 184.243 199.648 184.017 199.712C183.79 199.775 183.579 199.883 183.394 200.028C183.209 200.174 183.055 200.355 182.94 200.56L172.665 218.84C172.549 219.045 172.475 219.271 172.446 219.505C172.418 219.739 172.436 219.976 172.5 220.202C172.564 220.429 172.672 220.641 172.818 220.826C172.964 221.011 173.145 221.165 173.351 221.279L195.613 241.409C194.356 245.294 193.348 249.255 192.595 253.268L163.395 260.234C163.16 260.235 162.928 260.283 162.712 260.374C162.496 260.465 162.3 260.598 162.135 260.766C161.971 260.933 161.841 261.131 161.753 261.349C161.665 261.566 161.621 261.799 161.624 262.034L161.868 283.02C161.871 283.254 161.92 283.486 162.013 283.701C162.106 283.916 162.24 284.111 162.408 284.274C162.576 284.437 162.775 284.565 162.993 284.651C163.211 284.737 163.444 284.779 163.678 284.774L193.029 291.087C193.879 295.081 194.979 299.017 196.324 302.872L174.533 323.501C174.331 323.62 174.154 323.777 174.012 323.964C173.87 324.152 173.767 324.365 173.708 324.592C173.649 324.819 173.635 325.056 173.668 325.288C173.7 325.521 173.778 325.745 173.897 325.947L184.597 343.997C184.716 344.201 184.874 344.378 185.061 344.52C185.249 344.662 185.464 344.766 185.692 344.824C185.92 344.882 186.157 344.895 186.39 344.861C186.623 344.827 186.847 344.746 187.049 344.625L215.64 335.384C218.369 338.41 221.285 341.262 224.371 343.923L215.807 372.714C215.691 372.919 215.616 373.144 215.588 373.377C215.559 373.611 215.576 373.847 215.639 374.074C215.702 374.301 215.809 374.513 215.954 374.698C216.099 374.883 216.279 375.038 216.484 375.153L234.778 385.431C234.982 385.547 235.208 385.621 235.441 385.649C235.674 385.678 235.91 385.66 236.136 385.597C236.362 385.534 236.574 385.428 236.758 385.283C236.943 385.138 237.098 384.958 237.213 384.754L257.339 362.488C261.222 363.742 265.18 364.75 269.19 365.506L276.168 394.712C276.174 395.185 276.368 395.636 276.706 395.967C277.045 396.297 277.501 396.48 277.974 396.474L298.952 396.23C299.425 396.226 299.876 396.034 300.208 395.698C300.539 395.361 300.724 394.907 300.722 394.435L307.014 365.064C311.007 364.221 314.943 363.123 318.796 361.778L339.431 383.571C339.551 383.773 339.709 383.95 339.897 384.091C340.085 384.232 340.3 384.334 340.527 384.392C340.755 384.449 340.992 384.461 341.225 384.427C341.457 384.392 341.681 384.312 341.882 384.191L359.927 373.498C360.334 373.254 360.629 372.86 360.746 372.4C360.864 371.94 360.795 371.452 360.555 371.043L351.322 342.443C354.347 339.718 357.195 336.803 359.849 333.716L388.649 342.288C389.063 342.518 389.551 342.576 390.006 342.447C390.462 342.318 390.848 342.015 391.08 341.602L401.364 323.308C401.595 322.895 401.652 322.407 401.523 321.951C401.395 321.496 401.092 321.109 400.679 320.877L378.422 300.761C379.68 296.88 380.687 292.922 381.435 288.911L410.647 281.92ZM287.937 350.791C272.173 350.971 256.709 346.472 243.501 337.864C230.293 329.255 219.934 316.924 213.735 302.428C207.535 287.933 205.773 271.924 208.671 256.427C211.569 240.93 218.997 226.641 230.017 215.366C241.036 204.09 255.151 196.336 270.577 193.082C286.003 189.829 302.048 191.222 316.682 197.087C331.316 202.952 343.882 213.025 352.792 226.031C361.702 239.038 366.555 254.394 366.737 270.159C366.858 280.628 364.915 291.017 361.021 300.735C357.126 310.453 351.355 319.309 344.038 326.796C336.72 334.283 328 340.256 318.374 344.373C308.748 348.49 298.406 350.671 287.937 350.791Z" fill="url(#paint2_linear_263_673)"/>
</g>
</g>
<g style="mix-blend-mode:hard-light">
<mask id="mask3_263_673" style="mask-type:luminance" maskUnits="userSpaceOnUse" x="129" y="113" width="287" height="211">
<path d="M415.243 113H129V323.203H415.243V113Z" fill="white"/>
</mask>
<g mask="url(#mask3_263_673)">
<path d="M220.84 141.625C248.261 127.471 279.488 122.452 309.963 127.3C340.438 132.148 368.566 146.61 390.24 168.575L370.24 166.05L381.396 180.421L411.46 184.207L415.246 154.144L404.087 139.773L401.314 161.849C376.363 135.757 343.232 118.992 307.43 114.343C271.628 109.695 235.314 117.442 204.527 136.297C173.739 155.152 150.334 183.978 138.204 217.982C126.074 251.985 125.95 289.116 137.852 323.2L149.778 319.016C125.861 250.844 156.412 174.582 220.84 141.625Z" fill="url(#paint3_linear_263_673)"/>
</g>
</g>
<g style="mix-blend-mode:hard-light">
<mask id="mask4_263_673" style="mask-type:luminance" maskUnits="userSpaceOnUse" x="158" y="218" width="288" height="211">
<path d="M445.034 218.797H158.791V429H445.034V218.797Z" fill="white"/>
</mask>
<g mask="url(#mask4_263_673)">
<path d="M436.182 218.797L424.256 222.981C448.172 291.155 417.622 367.418 353.193 400.374C325.772 414.528 294.545 419.547 264.07 414.699C233.595 409.85 205.468 395.389 183.793 373.424L203.793 375.948L192.64 361.578L162.577 357.792L158.791 387.855L169.947 402.227L172.725 380.151C197.677 406.241 230.808 423.004 266.609 427.651C302.41 432.298 338.722 424.55 369.508 405.695C400.295 386.84 423.699 358.015 435.828 324.012C447.958 290.01 448.083 252.88 436.182 218.797Z" fill="url(#paint4_linear_263_673)"/>
</g>
</g>
<g style="mix-blend-mode:hard-light">
<mask id="mask5_263_673" style="mask-type:luminance" maskUnits="userSpaceOnUse" x="216" y="200" width="142" height="142">
<path d="M357.782 200.306H216.252V341.846H357.782V200.306Z" fill="white"/>
</mask>
<g mask="url(#mask5_263_673)">
<path d="M287.019 200.306C273.022 200.305 259.339 204.454 247.7 212.23C236.061 220.006 226.989 231.058 221.632 243.99C216.275 256.921 214.872 271.151 217.602 284.88C220.333 298.608 227.073 311.219 236.97 321.117C246.867 331.014 259.477 337.755 273.206 340.486C286.934 343.217 301.164 341.816 314.096 336.459C327.028 331.102 338.081 322.031 345.857 310.393C353.633 298.754 357.784 285.071 357.783 271.074C357.783 252.306 350.328 234.307 337.057 221.035C323.787 207.764 305.787 200.307 287.019 200.306ZM310.14 301.466C305.454 306.739 299.401 308.71 292.54 308.91C292.512 313.322 292.36 316.432 295.24 318.062V319.983H278.35V318.097C281.712 317.479 281.508 312.32 281.528 308.916C277.828 308.341 275.759 307.98 272.048 307.304C265.286 306.072 263.776 305.75 261.667 308.275L261.048 308.23L259.617 278.913H261.828C262.745 285.313 265.262 290.478 269.309 294.259C273.264 298.017 278.532 300.079 283.987 300.002H284.019C284.922 300.004 285.823 299.952 286.719 299.846C289.257 299.538 293.841 298.429 296.026 294.468C297.588 291.636 297.826 286.348 293.475 283.458C291.506 282.359 289.327 281.688 287.081 281.491C286.463 281.403 285.774 281.327 285.044 281.248C279.044 280.593 269.988 279.604 263.644 268.385C260.144 262.204 260.138 254.25 263.617 247.109C266.768 240.642 272.729 236.109 281.533 234.988C281.508 231.34 282.033 225.122 278.369 224.21V222.317H295.823V224.201C292.085 224.868 292.566 231.696 292.546 234.988C303.129 236.643 304.754 237.713 307.418 235.536H308.403L309.714 257.85L307.706 258.085C306.444 253.828 303.893 250.066 300.406 247.317C298.72 246.076 296.839 245.125 294.841 244.501C286.221 241.769 281.502 245.04 280.08 248.671C278.552 252.571 280.308 258.31 286.574 261.256C288.919 262.281 291.329 263.15 293.789 263.856C294.831 264.181 295.908 264.516 296.948 264.867L297.833 265.167C306.615 268.106 314.911 270.882 316.008 283.23C316.301 286.509 315.933 289.813 314.926 292.947C313.919 296.081 312.293 298.981 310.145 301.476" fill="url(#paint5_linear_263_673)"/>
</g>
</g>
</g>
</g>
</g>
<path d="M188 95H118C112.477 95 108 99.4772 108 105V175C108 180.523 112.477 185 118 185H188C193.523 185 198 180.523 198 175V105C198 99.4772 193.523 95 188 95Z" fill="white"/>
<mask id="mask6_263_673" style="mask-type:luminance" maskUnits="userSpaceOnUse" x="123" y="109" width="60" height="62">
<path d="M182.811 109.351H123.188V170.65H182.811V109.351Z" fill="white"/>
</mask>
<g mask="url(#mask6_263_673)">
<path d="M167.905 116.804C164.308 116.81 160.836 118.116 158.125 120.48C155.415 122.844 153.65 126.107 153.155 129.669C155.914 129.689 158.645 130.223 161.209 131.243C161.296 131.044 161.443 130.877 161.629 130.766C161.815 130.655 162.032 130.605 162.248 130.623H162.765C162.256 129.84 161.999 128.92 162.027 127.986C162.027 124.931 164.737 122.786 168.212 122.786C172.529 122.786 174.621 125.102 174.621 127.025C174.631 127.265 174.589 127.504 174.498 127.727C174.407 127.949 174.269 128.149 174.093 128.313C173.917 128.477 173.708 128.601 173.48 128.676C173.252 128.752 173.011 128.777 172.772 128.75C170.605 128.75 171.934 125.744 168.608 125.744C168.258 125.709 167.905 125.746 167.569 125.853C167.234 125.959 166.925 126.133 166.659 126.364C166.394 126.595 166.179 126.878 166.026 127.195C165.874 127.512 165.789 127.857 165.775 128.208C165.849 129.066 166.128 129.894 166.588 130.623H169.275C170.285 130.623 170.804 130.993 170.804 131.806C170.804 132.619 170.286 132.988 169.275 132.988H167.324C167.404 133.175 167.447 133.376 167.45 133.58C167.441 133.985 167.355 134.384 167.197 134.757C167.998 135.428 168.752 136.155 169.452 136.931C170.111 137.101 170.786 137.202 171.467 137.231C171.883 137.231 172.899 136.96 173.289 136.96C173.49 136.958 173.689 136.999 173.872 137.08C174.056 137.16 174.221 137.279 174.356 137.427C174.491 137.576 174.593 137.752 174.656 137.942C174.718 138.133 174.74 138.335 174.719 138.535C174.719 139.925 173.475 140.529 172.192 140.613C173.053 142.048 173.751 143.575 174.274 145.165C177.335 143.72 179.812 141.276 181.298 138.234C182.783 135.193 183.189 131.737 182.447 128.434C181.705 125.132 179.86 122.181 177.217 120.067C174.573 117.953 171.288 116.803 167.904 116.806" fill="#6C4FFE"/>
<path d="M153.986 153.794V159.894C155.831 159.772 157.775 158.909 157.775 156.876C157.775 154.776 155.645 154.163 153.986 153.794Z" fill="#6C4FFE"/>
<path d="M148.686 146.495C148.686 148.038 149.827 148.927 152.136 149.395V143.876C150.036 143.94 148.686 145.17 148.686 146.495Z" fill="#6C4FFE"/>
<path d="M152.998 133.387C149.313 133.388 145.711 134.481 142.648 136.528C139.584 138.576 137.196 141.486 135.787 144.891C134.377 148.295 134.008 152.042 134.728 155.656C135.447 159.27 137.222 162.589 139.827 165.195C142.433 167.8 145.753 169.574 149.367 170.293C152.982 171.012 156.728 170.643 160.132 169.232C163.536 167.822 166.446 165.434 168.493 162.37C170.54 159.306 171.633 155.704 171.633 152.019C171.627 147.079 169.662 142.343 166.168 138.85C162.675 135.357 157.938 133.392 152.998 133.387ZM153.985 163.036V164.947C154.002 165.078 153.99 165.212 153.952 165.339C153.913 165.465 153.847 165.582 153.76 165.682C153.672 165.781 153.565 165.861 153.444 165.915C153.323 165.97 153.192 165.998 153.06 165.998C152.927 165.998 152.796 165.97 152.675 165.915C152.555 165.861 152.447 165.781 152.359 165.682C152.272 165.582 152.206 165.465 152.168 165.339C152.129 165.212 152.117 165.078 152.134 164.947V163.036C146.934 162.913 144.34 159.802 144.34 157.365C144.315 157.107 144.347 156.846 144.433 156.602C144.52 156.357 144.659 156.134 144.841 155.949C145.023 155.765 145.244 155.622 145.487 155.532C145.73 155.441 145.991 155.406 146.249 155.427C149.699 155.427 147.017 159.679 152.134 159.894V153.455C147.572 152.624 144.804 150.622 144.804 147.201C144.804 143.013 148.284 140.856 152.134 140.734V139.093C152.117 138.962 152.129 138.828 152.168 138.701C152.206 138.575 152.272 138.458 152.359 138.358C152.447 138.259 152.555 138.179 152.675 138.125C152.796 138.07 152.927 138.042 153.06 138.042C153.192 138.042 153.323 138.07 153.444 138.125C153.565 138.179 153.672 138.259 153.76 138.358C153.847 138.458 153.913 138.575 153.952 138.701C153.99 138.828 154.002 138.962 153.985 139.093V140.734C156.385 140.798 161.312 142.303 161.312 145.325C161.32 145.581 161.276 145.835 161.181 146.073C161.086 146.31 160.942 146.525 160.76 146.704C160.578 146.883 160.36 147.023 160.121 147.114C159.882 147.205 159.627 147.245 159.371 147.232C157.371 147.232 157.397 143.94 153.986 143.876V149.728C158.053 150.591 161.654 151.791 161.654 156.538C161.654 160.665 158.571 162.76 153.985 163.038" fill="#6C4FFE"/>
<path d="M149.288 130.003C149.595 126.752 150.749 123.639 152.635 120.973C152.046 118.365 150.765 115.963 148.929 114.019C147.092 112.076 144.766 110.663 142.195 109.927C139.624 109.192 136.903 109.162 134.316 109.84C131.729 110.518 129.373 111.88 127.493 113.782C125.614 115.685 124.281 118.057 123.634 120.652C122.987 123.247 123.05 125.968 123.817 128.529C124.583 131.091 126.025 133.4 127.99 135.213C129.956 137.026 132.373 138.277 134.988 138.835C136.283 137.075 137.827 135.513 139.571 134.198C139.257 134.237 138.942 134.258 138.626 134.259C137.828 134.262 137.038 134.105 136.302 133.798C135.566 133.491 134.899 133.039 134.34 132.47C132.992 130.978 132.213 129.059 132.14 127.05H130.527C130.368 127.05 130.279 126.944 130.279 126.731C130.304 126.445 130.388 126.167 130.527 125.916C130.686 125.597 130.827 125.438 130.935 125.438H132.035V124.978C132.035 124.588 132.053 124.057 132.088 123.348H130.527C130.368 123.348 130.279 123.242 130.279 123.029C130.299 122.742 130.384 122.463 130.527 122.214C130.686 121.878 130.827 121.714 130.935 121.714H132.228C132.777 117.272 134.872 115.048 138.515 115.042C139.996 115.005 141.449 115.446 142.66 116.3C143.191 116.622 143.63 117.074 143.937 117.613C144.244 118.153 144.408 118.761 144.413 119.382C144.416 119.775 144.27 120.154 144.006 120.445C143.876 120.581 143.719 120.689 143.545 120.762C143.371 120.835 143.184 120.872 142.996 120.87C142.823 120.883 142.65 120.862 142.486 120.807C142.322 120.752 142.17 120.665 142.04 120.551C141.796 120.239 141.599 119.893 141.456 119.524C141.265 118.999 140.962 118.522 140.57 118.124C140.07 117.756 139.452 117.585 138.834 117.646C138.418 117.626 138.003 117.705 137.624 117.878C137.245 118.05 136.913 118.311 136.655 118.638C136.055 119.557 135.718 120.623 135.681 121.72H139.788C139.965 121.72 140.054 121.826 140.054 122.056C140.035 122.341 139.956 122.618 139.823 122.871C139.666 123.191 139.526 123.351 139.401 123.351H135.576L135.541 124.609C135.541 124.981 135.559 125.264 135.576 125.442H139.788C139.965 125.442 140.054 125.548 140.054 125.761C140.035 126.052 139.956 126.335 139.823 126.594C139.664 126.913 139.523 127.054 139.398 127.054H135.646C135.946 130.118 136.939 131.659 138.604 131.659C139.199 131.659 139.785 131.507 140.304 131.216C140.995 130.673 141.511 129.939 141.788 129.105C141.963 128.608 142.235 128.151 142.588 127.759C142.793 127.604 143.041 127.518 143.297 127.511C143.517 127.497 143.737 127.529 143.944 127.605C144.151 127.682 144.339 127.8 144.497 127.954C144.646 128.119 144.761 128.312 144.834 128.522C144.907 128.732 144.937 128.954 144.922 129.176C144.914 130.025 144.637 130.85 144.129 131.531C145.78 130.815 147.513 130.302 149.288 130.003Z" fill="#6C4FFE"/>
</g>
<path d="M457 357H387C381.477 357 377 361.477 377 367V437C377 442.523 381.477 447 387 447H457C462.523 447 467 442.523 467 437V367C467 361.477 462.523 357 457 357Z" fill="white"/>
<path d="M392 432.3H451.587V430.3H392V432.3ZM392 427.359H394.162V425.359H392V427.359ZM392 422.416H394.162V420.416H392V422.416ZM392 417.473H394.162V415.473H392V417.473ZM392 412.529H394.162V410.529H392V412.529ZM396.91 427.638H413.139V410.413H396.91V427.638ZM392 407.588H394.162V405.588H392V407.588ZM392 402.647H394.162V400.647H392V402.647ZM392 397.706H394.162V395.706H392V397.706ZM414.887 427.638H431.113V394.432H414.887V427.638ZM392 392.766H394.162V390.766H392V392.766ZM392 387.823H394.162V385.823H392V387.823ZM392 382.88H394.162V380.88H392V382.88ZM432.862 427.638H449.088V376.208H432.862V427.638ZM392 377.936H394.162V375.943H392V377.936ZM392 373H394.162V371H392V373Z" fill="#5C96FD"/>
</g>
<defs>
<linearGradient id="paint0_linear_263_673" x1="143.5" y1="135.5" x2="143.5" y2="135.5" gradientUnits="userSpaceOnUse">
<stop stop-color="#5C96FD"/>
<stop offset="1" stop-color="#6C4FFE"/>
</linearGradient>
<linearGradient id="paint1_linear_263_673" x1="156.5" y1="147.5" x2="156.5" y2="147.5" gradientUnits="userSpaceOnUse">
<stop stop-color="white" stop-opacity="0"/>
<stop offset="1" stop-color="white"/>
</linearGradient>
<linearGradient id="paint2_linear_263_673" x1="287.017" y1="145.679" x2="287.017" y2="396.474" gradientUnits="userSpaceOnUse">
<stop stop-color="#5C96FD"/>
<stop offset="1" stop-color="#6C4FFE"/>
</linearGradient>
<linearGradient id="paint3_linear_263_673" x1="272.131" y1="113.027" x2="272.131" y2="323.2" gradientUnits="userSpaceOnUse">
<stop stop-color="#5C96FD"/>
<stop offset="1" stop-color="#6C4FFE"/>
</linearGradient>
<linearGradient id="paint4_linear_263_673" x1="301.904" y1="218.797" x2="301.904" y2="428.966" gradientUnits="userSpaceOnUse">
<stop stop-color="#5C96FD"/>
<stop offset="1" stop-color="#6C4FFE"/>
</linearGradient>
<linearGradient id="paint5_linear_263_673" x1="287.013" y1="200.306" x2="287.013" y2="341.846" gradientUnits="userSpaceOnUse">
<stop stop-color="#5C96FD"/>
<stop offset="1" stop-color="#6C4FFE"/>
</linearGradient>
<clipPath id="clip0_263_673">
<rect width="359" height="352" fill="white" transform="translate(108 95)"/>
</clipPath>
</defs>
</svg>
