<svg width="1401" height="97" viewBox="0 0 1401 97" fill="none" xmlns="http://www.w3.org/2000/svg">
<path d="M0.00264332 12.981V6.991C-0.0392193 5.46634 0.438209 3.97271 1.35664 2.755C1.72026 2.22141 2.20713 1.7833 2.776 1.47781C3.34487 1.17231 3.97899 1.00841 4.62464 1L215.381 1C216.026 1.00841 216.66 1.17231 217.229 1.47781C217.798 1.7833 218.285 2.22141 218.649 2.755C219.567 3.97271 220.045 5.46634 220.003 6.991V90.26C220.045 91.7847 219.567 93.2783 218.649 94.496C218.285 95.0296 217.798 95.4677 217.229 95.7732C216.66 96.0787 216.026 96.2426 215.381 96.251H4.62464C3.97934 96.243 3.34545 96.0798 2.77661 95.775C2.20777 95.4702 1.72071 95.0329 1.35664 94.5C0.437343 93.2812 -0.0401327 91.786 0.00264332 90.26V12.981Z" fill="white"/>
<path d="M208.002 21H119.068V76.655H208.002V21Z" fill="white"/>
<mask id="mask0_541_4294" style="mask-type:luminance" maskUnits="userSpaceOnUse" x="119" y="21" width="90" height="56">
<path d="M208.002 21H119.068V76.655H208.002V21Z" fill="white"/>
</mask>
<g mask="url(#mask0_541_4294)">
<path d="M114.073 81.622H213.996C214.366 81.9 214.48 37.557 214.772 37.198C214.841 37.1141 214.893 37.0169 214.923 36.9125C214.954 36.808 214.963 36.6984 214.949 36.5904C214.936 36.4823 214.901 36.3782 214.846 36.2842C214.791 36.1903 214.717 36.1085 214.63 36.044L210.802 33.17C210.621 33.0361 210.396 32.977 210.174 33.005L201.42 34.07C201.321 34.082 201.226 34.1104 201.137 34.154L193.057 38.133L185.374 36.092C185.19 36.0425 184.995 36.0544 184.819 36.126L176.944 39.27L162.365 33.762C162.209 33.7034 162.04 33.6901 161.877 33.7235C161.714 33.7569 161.564 33.8358 161.444 33.951L159.686 35.664L154.77 32.319C154.673 32.254 154.565 32.2089 154.451 32.1863C154.338 32.1636 154.22 32.1638 154.107 32.187C153.993 32.2089 153.886 32.2534 153.79 32.3178C153.694 32.3823 153.613 32.4653 153.55 32.562L145.35 45.288L141.886 45.711L132.846 41.275C132.706 41.2065 132.55 41.1766 132.395 41.1882C132.239 41.1998 132.09 41.2525 131.962 41.341L127.367 44.502L123.248 42.45C123.105 42.3805 122.946 42.3505 122.788 42.3632C122.63 42.3759 122.478 42.4307 122.348 42.522L112.787 49.37C112.408 49.641 113.326 81.96 113.606 82.323C113.697 82.4407 113.818 82.5325 113.956 82.5893C114.094 82.6461 114.245 82.666 114.393 82.647C114.539 82.6288 114.679 82.5745 114.799 82.489" fill="white" fill-opacity="0.3"/>
<path opacity="0.28" d="M114.073 81.622H213.996C214.366 81.9 214.48 37.557 214.772 37.198C214.841 37.1141 214.893 37.0169 214.923 36.9125C214.954 36.808 214.963 36.6984 214.949 36.5904C214.936 36.4823 214.901 36.3782 214.846 36.2842C214.791 36.1903 214.717 36.1085 214.63 36.044L210.802 33.17C210.621 33.0361 210.396 32.977 210.174 33.005L201.42 34.07C201.321 34.082 201.226 34.1104 201.137 34.154L193.057 38.133L185.374 36.092C185.19 36.0425 184.995 36.0544 184.819 36.126L176.944 39.27L162.365 33.762C162.209 33.7034 162.04 33.6901 161.877 33.7235C161.714 33.7569 161.564 33.8358 161.444 33.951L159.686 35.664L154.77 32.319C154.673 32.254 154.565 32.2089 154.451 32.1863C154.338 32.1636 154.22 32.1638 154.107 32.187C153.993 32.2089 153.886 32.2534 153.79 32.3178C153.694 32.3823 153.613 32.4653 153.55 32.562L145.35 45.288L141.886 45.711L132.846 41.275C132.706 41.2065 132.55 41.1766 132.395 41.1882C132.239 41.1998 132.09 41.2525 131.962 41.341L127.367 44.502L123.248 42.45C123.105 42.3805 122.946 42.3505 122.788 42.3632C122.63 42.3759 122.478 42.4307 122.348 42.522L112.787 49.37C112.408 49.641 113.326 81.96 113.606 82.323C113.697 82.4407 113.818 82.5325 113.956 82.5893C114.094 82.6461 114.245 82.666 114.393 82.647C114.539 82.6288 114.679 82.5745 114.799 82.489" fill="url(#paint0_linear_541_4294)"/>
<path d="M113.394 50.851C113.245 50.8701 113.095 50.8503 112.957 50.7935C112.819 50.7366 112.698 50.6448 112.607 50.527C112.539 50.4408 112.49 50.3417 112.462 50.2357C112.434 50.1297 112.428 50.0192 112.445 49.9109C112.462 49.8026 112.5 49.6989 112.559 49.6062C112.617 49.5135 112.694 49.4338 112.785 49.372L122.34 42.525C122.469 42.4337 122.621 42.3789 122.78 42.3662C122.938 42.3536 123.097 42.3835 123.24 42.453L127.359 44.505L131.96 41.343C132.088 41.2546 132.237 41.2018 132.393 41.1903C132.548 41.1787 132.704 41.2086 132.844 41.277L141.881 45.714L145.345 45.291L153.548 32.565C153.61 32.4683 153.692 32.3853 153.788 32.3209C153.884 32.2565 153.991 32.212 154.105 32.19C154.218 32.1669 154.335 32.1666 154.449 32.1893C154.563 32.212 154.671 32.2571 154.768 32.322L159.684 35.667L161.44 33.953C161.56 33.8378 161.71 33.759 161.873 33.7256C162.036 33.6921 162.205 33.7054 162.361 33.764L176.94 39.272L184.815 36.123C184.991 36.0515 185.186 36.0395 185.37 36.089L193.053 38.13L201.132 34.149C201.22 34.1054 201.316 34.077 201.415 34.065L210.172 33.003C210.395 32.9761 210.62 33.0367 210.8 33.172L214.631 36.05C214.718 36.1146 214.792 36.1963 214.847 36.2903C214.902 36.3842 214.937 36.4884 214.95 36.5964C214.963 36.7044 214.954 36.814 214.924 36.9185C214.893 37.023 214.842 37.1201 214.773 37.204C214.63 37.3778 214.425 37.49 214.202 37.5172C213.978 37.5443 213.753 37.4845 213.573 37.35L210.022 34.679L201.769 35.687L193.526 39.749C193.334 39.8433 193.114 39.8643 192.909 39.808L185.189 37.757L177.267 40.923C177.062 41.006 176.834 41.0085 176.628 40.93L162.254 35.494L160.381 37.316C160.236 37.4559 160.048 37.5422 159.848 37.5604C159.648 37.5786 159.448 37.5276 159.281 37.416L154.515 34.172L146.577 46.488C146.507 46.5939 146.416 46.6834 146.308 46.75C146.201 46.8167 146.08 46.8591 145.955 46.874L141.825 47.374C141.656 47.3949 141.485 47.3664 141.333 47.292L132.523 42.972L127.923 46.134C127.793 46.2225 127.643 46.275 127.487 46.2861C127.33 46.2971 127.174 46.2664 127.034 46.197L122.925 44.15L113.8 50.695C113.679 50.7803 113.54 50.8339 113.394 50.851Z" fill="#1AD598"/>
</g>
<path d="M19.6189 34.242C19.6189 35.698 18.4289 37.098 16.2589 37.098C14.3129 37.098 12.8149 36.034 12.8149 34.312H14.5229C14.5929 35.11 15.1529 35.754 16.2589 35.754C17.3789 35.754 18.0089 35.152 18.0089 34.326C18.0089 31.974 12.8429 33.5 12.8429 29.916C12.8429 28.208 14.2009 27.144 16.1889 27.144C18.0509 27.144 19.3669 28.124 19.5069 29.79H17.7429C17.6869 29.132 17.1129 28.53 16.1049 28.502C15.1809 28.474 14.4669 28.922 14.4669 29.86C14.4669 32.058 19.6189 30.686 19.6189 34.242ZM27.6901 29.44H26.0941C26.1221 28.726 25.7161 28.348 25.1141 28.348C24.4841 28.348 24.0781 28.768 24.0781 29.286C24.0781 29.818 24.3721 30.252 25.0581 30.994L27.6341 33.556L28.6281 31.918H30.3501L29.0901 34.074C28.9781 34.27 28.8521 34.466 28.7401 34.648L31.1061 37H29.0201L27.8161 35.796C26.8781 36.734 25.8001 37.182 24.4421 37.182C22.3421 37.182 20.9421 36.02 20.9421 34.2C20.9421 32.884 21.6841 31.778 23.2241 31.148C22.6781 30.49 22.4821 29.972 22.4821 29.286C22.4821 28.012 23.5181 27.046 25.1841 27.046C26.8781 27.046 27.7881 28.11 27.6901 29.44ZM24.4421 35.824C25.3521 35.824 26.0941 35.46 26.7661 34.746L24.1901 32.156C23.0561 32.604 22.5381 33.276 22.5381 34.144C22.5381 35.082 23.2941 35.824 24.4421 35.824ZM33.7485 31.75H35.5125C36.7585 31.75 37.3185 31.148 37.3185 30.168C37.3185 29.16 36.7585 28.572 35.5125 28.572H33.7485V31.75ZM38.9565 30.168C38.9565 31.554 38.0465 33.052 35.5125 33.052H33.7485V37H32.1525V27.27H35.5125C37.8225 27.27 38.9565 28.586 38.9565 30.168ZM44.3254 26.766H50.4854V28.166H45.7954V30.952C46.1734 30.448 46.9994 30.028 47.9094 30.028C50.4154 30.028 51.1854 31.89 51.1854 33.43C51.1854 35.46 50.0234 37 47.6574 37C45.5574 37 44.3394 35.838 44.1014 34.242H45.6554C45.8654 35.11 46.5934 35.67 47.6714 35.67C49.0434 35.67 49.6594 34.732 49.6594 33.472C49.6594 32.142 49.0014 31.386 47.6714 31.386C46.7334 31.386 46.1034 31.904 45.8374 32.66H44.3254V26.766ZM52.8468 31.764C52.8468 28.852 53.6308 26.612 56.4868 26.612C59.3428 26.612 60.1268 28.852 60.1268 31.764C60.1268 34.732 59.3428 36.972 56.4868 36.972C53.6308 36.972 52.8468 34.732 52.8468 31.764ZM58.5588 31.764C58.5588 29.86 58.3488 28.068 56.4868 28.068C54.6248 28.068 54.4148 29.86 54.4148 31.764C54.4148 33.766 54.6248 35.516 56.4868 35.516C58.3488 35.516 58.5588 33.766 58.5588 31.764ZM61.8156 31.764C61.8156 28.852 62.5996 26.612 65.4556 26.612C68.3116 26.612 69.0956 28.852 69.0956 31.764C69.0956 34.732 68.3116 36.972 65.4556 36.972C62.5996 36.972 61.8156 34.732 61.8156 31.764ZM67.5276 31.764C67.5276 29.86 67.3176 28.068 65.4556 28.068C63.5936 28.068 63.3836 29.86 63.3836 31.764C63.3836 33.766 63.5936 35.516 65.4556 35.516C67.3176 35.516 67.5276 33.766 67.5276 31.764Z" fill="#17181A"/>
<path d="M29.0429 68.236H30.1029V70.306H32.1229V71.266H30.1029V73.336H29.0429V71.266H27.0229V70.306H29.0429V68.236ZM38.7116 68.796H37.6616C37.5216 68.206 37.1716 67.876 36.4516 67.876C35.4216 67.876 34.8916 68.576 34.8616 70.486C35.2216 69.886 35.9416 69.566 36.7016 69.566C38.0116 69.566 38.9416 70.446 38.9416 71.966C38.9416 73.346 38.1116 74.396 36.5516 74.396C34.4316 74.396 33.8816 72.906 33.8816 70.586C33.8816 68.306 34.6416 66.926 36.4616 66.926C37.8816 66.926 38.5916 67.826 38.7116 68.796ZM36.4516 70.526C35.7016 70.526 34.9916 70.976 34.9916 71.946C34.9916 72.846 35.5216 73.446 36.4916 73.446C37.3316 73.446 37.8516 72.876 37.8516 72.016C37.8516 71.146 37.4116 70.526 36.4516 70.526ZM41.4876 73.736C41.4876 74.146 41.1676 74.466 40.7676 74.466C40.3576 74.466 40.0376 74.146 40.0376 73.736C40.0376 73.326 40.3576 73.006 40.7676 73.006C41.1676 73.006 41.4876 73.326 41.4876 73.736ZM42.5697 70.656C42.5697 68.576 43.1297 66.976 45.1697 66.976C47.2097 66.976 47.7697 68.576 47.7697 70.656C47.7697 72.776 47.2097 74.376 45.1697 74.376C43.1297 74.376 42.5697 72.776 42.5697 70.656ZM46.6497 70.656C46.6497 69.296 46.4997 68.016 45.1697 68.016C43.8397 68.016 43.6897 69.296 43.6897 70.656C43.6897 72.086 43.8397 73.336 45.1697 73.336C46.4997 73.336 46.6497 72.086 46.6497 70.656ZM48.776 67.136H53.596V67.986L50.816 74.396H49.666L52.476 68.106H48.776V67.136ZM58.4217 76.256H57.2417C55.9217 74.986 55.2117 72.936 55.2117 70.756C55.2117 68.576 55.9217 66.406 57.4417 65.056H58.6217V65.166C57.0217 66.636 56.3117 68.776 56.3117 70.756C56.3117 72.736 57.0217 74.706 58.4217 76.146V76.256ZM61.9336 68.236H62.9936V70.306H65.0136V71.266H62.9936V73.336H61.9336V71.266H59.9136V70.306H61.9336V68.236ZM66.6322 70.656C66.6322 68.576 67.1922 66.976 69.2322 66.976C71.2722 66.976 71.8322 68.576 71.8322 70.656C71.8322 72.776 71.2722 74.376 69.2322 74.376C67.1922 74.376 66.6322 72.776 66.6322 70.656ZM70.7122 70.656C70.7122 69.296 70.5622 68.016 69.2322 68.016C67.9022 68.016 67.7522 69.296 67.7522 70.656C67.7522 72.086 67.9022 73.336 69.2322 73.336C70.5622 73.336 70.7122 72.086 70.7122 70.656ZM74.3685 73.736C74.3685 74.146 74.0485 74.466 73.6485 74.466C73.2385 74.466 72.9185 74.146 72.9185 73.736C72.9185 73.326 73.2385 73.006 73.6485 73.006C74.0485 73.006 74.3685 73.326 74.3685 73.736ZM76.2306 74.396V68.146H75.3006V67.106H77.3806V74.396H76.2306ZM82.4267 74.396V72.876H78.8067V72.016L82.1667 67.196H83.5467V71.886H84.4767V72.876H83.5467V74.396H82.4267ZM80.1167 71.886H82.4767V68.356L80.1167 71.886ZM85.2413 68.866C85.2413 67.876 85.8913 67.306 86.7613 67.306C87.6313 67.306 88.2813 67.876 88.2813 68.866C88.2813 69.866 87.6313 70.436 86.7613 70.436C85.8913 70.436 85.2413 69.866 85.2413 68.866ZM86.7613 67.996C86.3713 67.996 86.1313 68.246 86.1313 68.866C86.1313 69.486 86.3713 69.746 86.7613 69.746C87.1413 69.746 87.3913 69.486 87.3913 68.866C87.3913 68.246 87.1413 67.996 86.7613 67.996ZM86.2313 74.396L90.2213 67.436H91.3413L87.3513 74.396H86.2313ZM89.3113 72.956C89.3113 71.956 89.9613 71.396 90.8313 71.396C91.6913 71.396 92.3413 71.956 92.3413 72.956C92.3413 73.956 91.6913 74.526 90.8313 74.526C89.9613 74.526 89.3113 73.956 89.3113 72.956ZM90.8213 72.086C90.4413 72.086 90.1913 72.336 90.1913 72.956C90.1913 73.576 90.4413 73.826 90.8213 73.826C91.2013 73.826 91.4513 73.576 91.4513 72.956C91.4513 72.336 91.2013 72.086 90.8213 72.086ZM93.2307 76.256V76.146C94.6307 74.706 95.3407 72.736 95.3407 70.756C95.3407 68.776 94.6307 66.636 93.0307 65.166V65.056H94.2107C95.7307 66.406 96.4407 68.576 96.4407 70.756C96.4407 72.936 95.7307 74.986 94.4107 76.256H93.2307Z" fill="#1AD598"/>
<path d="M16.8989 57.198V55.374H12.5549V54.342L16.5869 48.558H18.2429V54.186H19.3589V55.374H18.2429V57.198H16.8989ZM14.1269 54.186H16.9589V49.95L14.1269 54.186ZM19.8325 58.866L20.6845 55.554H22.1725L20.7205 58.866H19.8325ZM24.1238 57.198V49.698H23.0078V48.45H25.5038V57.198H24.1238ZM27.8271 54.822H29.0871C29.2431 55.602 29.7591 56.046 30.6711 56.046C31.7631 56.046 32.3151 55.314 32.3151 53.082C31.9191 53.634 31.1631 53.934 30.3711 53.934C28.8351 53.934 27.5871 52.986 27.5871 51.138C27.5871 49.398 28.6551 48.246 30.4911 48.246C32.7471 48.246 33.5031 49.794 33.5031 52.662C33.5031 55.614 32.8791 57.186 30.5871 57.186C28.7751 57.186 27.9351 56.07 27.8271 54.822ZM30.6111 52.782C31.5831 52.782 32.1591 52.122 32.1591 51.138C32.1591 50.022 31.5231 49.386 30.5271 49.386C29.5071 49.386 28.8951 50.094 28.8951 51.102C28.8951 52.002 29.3991 52.782 30.6111 52.782ZM35.9363 57.198V49.698H34.8203V48.45H37.3163V57.198H35.9363ZM40.7916 56.406C40.7916 56.898 40.4076 57.282 39.9276 57.282C39.4356 57.282 39.0516 56.898 39.0516 56.406C39.0516 55.914 39.4356 55.53 39.9276 55.53C40.4076 55.53 40.7916 55.914 40.7916 56.406ZM42.5341 54.822H43.7941C43.9501 55.602 44.4661 56.046 45.3781 56.046C46.4701 56.046 47.0221 55.314 47.0221 53.082C46.6261 53.634 45.8701 53.934 45.0781 53.934C43.5421 53.934 42.2941 52.986 42.2941 51.138C42.2941 49.398 43.3621 48.246 45.1981 48.246C47.4541 48.246 48.2101 49.794 48.2101 52.662C48.2101 55.614 47.5861 57.186 45.2941 57.186C43.4821 57.186 42.6421 56.07 42.5341 54.822ZM45.3181 52.782C46.2901 52.782 46.8661 52.122 46.8661 51.138C46.8661 50.022 46.2301 49.386 45.2341 49.386C44.2141 49.386 43.6021 50.094 43.6021 51.102C43.6021 52.002 44.1061 52.782 45.3181 52.782ZM51.1833 52.626C50.4393 52.254 49.9353 51.63 49.9353 50.658C49.9353 49.386 50.8833 48.294 52.8153 48.294C54.7473 48.294 55.6953 49.398 55.6953 50.658C55.6953 51.594 55.1553 52.278 54.4473 52.626C55.3353 52.962 55.9233 53.742 55.9233 54.786C55.9233 56.382 54.6273 57.414 52.8153 57.414C51.0153 57.414 49.7193 56.382 49.7193 54.786C49.7193 53.73 50.3073 52.95 51.1833 52.626ZM52.8153 52.194C53.7273 52.194 54.3873 51.618 54.3873 50.826C54.3873 49.926 53.7753 49.434 52.8153 49.434C51.8793 49.434 51.2553 49.914 51.2553 50.838C51.2553 51.63 51.9033 52.194 52.8153 52.194ZM52.8153 53.226C51.8073 53.226 51.0273 53.718 51.0273 54.738C51.0273 55.626 51.6993 56.274 52.8153 56.274C53.9193 56.274 54.5793 55.614 54.5793 54.738C54.5793 53.754 53.8473 53.226 52.8153 53.226Z" fill="#17181A"/>
<path d="M19.0129 67.396L20.1599 68.541L17.7159 70.981L15.7159 68.981L12.0029 72.691L12.7089 73.396L15.7089 70.396L17.7089 72.396L20.8709 69.251L22.0179 70.396V67.396H19.0129Z" fill="#1AD598"/>
<path d="M472.003 12.981V6.991C471.961 5.46634 472.438 3.97271 473.357 2.755C473.72 2.22141 474.207 1.7833 474.776 1.47781C475.345 1.17231 475.979 1.00841 476.625 1L687.381 1C688.026 1.00841 688.66 1.17231 689.229 1.47781C689.798 1.7833 690.285 2.22141 690.649 2.755C691.567 3.97271 692.045 5.46634 692.003 6.991V90.26C692.045 91.7847 691.567 93.2783 690.649 94.496C690.285 95.0296 689.798 95.4677 689.229 95.7732C688.66 96.0787 688.026 96.2426 687.381 96.251H476.625C475.979 96.243 475.345 96.0798 474.777 95.775C474.208 95.4702 473.721 95.0329 473.357 94.5C472.437 93.2812 471.96 91.786 472.003 90.26V12.981Z" fill="white"/>
<path d="M680.002 21H591.068V76.655H680.002V21Z" fill="white"/>
<mask id="mask1_541_4294" style="mask-type:luminance" maskUnits="userSpaceOnUse" x="591" y="21" width="90" height="56">
<path d="M680.002 21H591.068V76.655H680.002V21Z" fill="white"/>
</mask>
<g mask="url(#mask1_541_4294)">
<path d="M586.073 81.622H685.997C686.367 81.9 686.481 37.557 686.773 37.198C686.842 37.1141 686.894 37.017 686.924 36.9125C686.955 36.8081 686.963 36.6985 686.95 36.5904C686.937 36.4824 686.902 36.3782 686.847 36.2843C686.792 36.1903 686.718 36.1086 686.631 36.044L682.803 33.17C682.622 33.0362 682.397 32.9771 682.175 33.005L673.421 34.07C673.322 34.0821 673.227 34.1105 673.138 34.154L665.058 38.133L657.375 36.092C657.191 36.0426 656.996 36.0545 656.82 36.126L648.945 39.27L634.366 33.762C634.21 33.7034 634.041 33.6901 633.878 33.7236C633.715 33.757 633.565 33.8359 633.445 33.951L631.687 35.664L626.771 32.319C626.674 32.2541 626.566 32.2091 626.452 32.1864C626.339 32.1637 626.221 32.1639 626.108 32.187C625.994 32.209 625.887 32.2535 625.791 32.3179C625.695 32.3823 625.614 32.4653 625.551 32.562L617.351 45.288L613.887 45.711L604.847 41.275C604.707 41.2065 604.551 41.1765 604.396 41.1881C604.24 41.1997 604.091 41.2525 603.963 41.341L599.368 44.502L595.249 42.45C595.106 42.3805 594.947 42.3506 594.789 42.3633C594.631 42.3759 594.479 42.4307 594.349 42.522L584.788 49.37C584.409 49.641 585.327 81.96 585.607 82.323C585.698 82.4407 585.819 82.5325 585.957 82.5893C586.095 82.6461 586.246 82.666 586.394 82.647C586.54 82.6287 586.679 82.5744 586.799 82.489" fill="white" fill-opacity="0.3"/>
<path opacity="0.28" d="M586.073 81.622H685.997C686.367 81.9 686.481 37.557 686.773 37.198C686.842 37.1141 686.894 37.017 686.924 36.9125C686.955 36.8081 686.963 36.6985 686.95 36.5904C686.937 36.4824 686.902 36.3782 686.847 36.2843C686.792 36.1903 686.718 36.1086 686.631 36.044L682.803 33.17C682.622 33.0362 682.397 32.9771 682.175 33.005L673.421 34.07C673.322 34.0821 673.227 34.1105 673.138 34.154L665.058 38.133L657.375 36.092C657.191 36.0426 656.996 36.0545 656.82 36.126L648.945 39.27L634.366 33.762C634.21 33.7034 634.041 33.6901 633.878 33.7236C633.715 33.757 633.565 33.8359 633.445 33.951L631.687 35.664L626.771 32.319C626.674 32.2541 626.566 32.2091 626.452 32.1864C626.339 32.1637 626.221 32.1639 626.108 32.187C625.994 32.209 625.887 32.2535 625.791 32.3179C625.695 32.3823 625.614 32.4653 625.551 32.562L617.351 45.288L613.887 45.711L604.847 41.275C604.707 41.2065 604.551 41.1765 604.396 41.1881C604.24 41.1997 604.091 41.2525 603.963 41.341L599.368 44.502L595.249 42.45C595.106 42.3805 594.947 42.3506 594.789 42.3633C594.631 42.3759 594.479 42.4307 594.349 42.522L584.788 49.37C584.409 49.641 585.327 81.96 585.607 82.323C585.698 82.4407 585.819 82.5325 585.957 82.5893C586.095 82.6461 586.246 82.666 586.394 82.647C586.54 82.6287 586.679 82.5744 586.799 82.489" fill="url(#paint1_linear_541_4294)"/>
<path d="M585.394 50.8511C585.245 50.8702 585.095 50.8503 584.957 50.7935C584.819 50.7367 584.698 50.6449 584.607 50.5271C584.539 50.4409 584.49 50.3418 584.462 50.2358C584.434 50.1298 584.428 50.0192 584.445 49.9109C584.462 49.8026 584.5 49.6989 584.559 49.6062C584.617 49.5135 584.694 49.4338 584.785 49.3721L594.34 42.5241C594.469 42.4328 594.621 42.378 594.78 42.3653C594.938 42.3526 595.097 42.3826 595.24 42.4521L599.359 44.5041L603.96 41.3431C604.088 41.2545 604.237 41.2018 604.393 41.1902C604.548 41.1786 604.704 41.2086 604.844 41.2771L613.881 45.7141L617.345 45.2911L625.549 32.5651C625.611 32.4684 625.693 32.3854 625.789 32.321C625.885 32.2565 625.992 32.212 626.106 32.1901C626.219 32.167 626.336 32.1668 626.45 32.1895C626.564 32.2121 626.672 32.2572 626.769 32.3221L631.685 35.6671L633.44 33.9531C633.56 33.8379 633.71 33.7591 633.873 33.7256C634.036 33.6922 634.205 33.7055 634.361 33.7641L648.94 39.2721L656.815 36.1231C656.991 36.0515 657.186 36.0396 657.37 36.0891L665.053 38.1301L673.14 34.1541C673.229 34.1106 673.324 34.0822 673.423 34.0701L682.172 33.0031C682.395 32.9763 682.62 33.0369 682.8 33.1721L686.631 36.0511C686.718 36.1156 686.792 36.1974 686.847 36.2913C686.902 36.3853 686.937 36.4895 686.95 36.5975C686.963 36.7055 686.954 36.8151 686.924 36.9196C686.893 37.0241 686.842 37.1212 686.773 37.2051C686.63 37.3789 686.425 37.491 686.202 37.5182C685.978 37.5454 685.753 37.4855 685.573 37.3511L682.022 34.6791L673.768 35.6871L665.526 39.7491C665.334 39.8435 665.114 39.8645 664.908 39.8081L657.188 37.7571L649.267 40.9231C649.062 41.0061 648.834 41.0086 648.628 40.9301L634.254 35.4941L632.382 37.3161C632.237 37.456 632.049 37.5422 631.849 37.5604C631.649 37.5786 631.449 37.5277 631.282 37.4161L626.516 34.1721L618.578 46.4881C618.508 46.594 618.417 46.6834 618.309 46.7501C618.202 46.8168 618.081 46.8591 617.956 46.8741L613.826 47.3741C613.657 47.3948 613.485 47.366 613.333 47.2911L604.523 42.9721L599.923 46.1351C599.793 46.2236 599.643 46.276 599.487 46.2871C599.33 46.2982 599.174 46.2674 599.034 46.1981L594.925 44.1511L585.8 50.6951C585.68 50.7805 585.541 50.8345 585.395 50.8521L585.394 50.8511Z" fill="#1AD598"/>
</g>
<path d="M491.451 27.256H493.047V37H491.451L486.649 29.734V37H485.053V27.256H486.649L491.451 34.508V27.256ZM494.611 33.108C494.611 30.728 496.221 29.16 498.251 29.16C499.553 29.16 500.449 29.776 500.925 30.406V29.286H502.535V37H500.925V35.852C500.435 36.51 499.511 37.126 498.223 37.126C496.221 37.126 494.611 35.488 494.611 33.108ZM500.925 33.136C500.925 31.484 499.791 30.546 498.587 30.546C497.397 30.546 496.249 31.442 496.249 33.108C496.249 34.774 497.397 35.74 498.587 35.74C499.791 35.74 500.925 34.802 500.925 33.136ZM510.385 34.844C510.385 36.146 509.251 37.126 507.431 37.126C505.583 37.126 504.281 36.034 504.211 34.634H505.863C505.919 35.264 506.521 35.782 507.403 35.782C508.327 35.782 508.817 35.39 508.817 34.858C508.817 33.346 504.337 34.214 504.337 31.386C504.337 30.154 505.485 29.16 507.305 29.16C509.055 29.16 510.203 30.098 510.287 31.638H508.691C508.635 30.966 508.117 30.504 507.249 30.504C506.395 30.504 505.947 30.854 505.947 31.372C505.947 32.926 510.301 32.058 510.385 34.844ZM511.578 33.108C511.578 30.728 513.188 29.16 515.232 29.16C516.24 29.16 517.304 29.636 517.892 30.364V26.64H519.502V37H517.892V35.838C517.402 36.538 516.478 37.126 515.218 37.126C513.188 37.126 511.578 35.488 511.578 33.108ZM517.892 33.136C517.892 31.484 516.758 30.546 515.554 30.546C514.364 30.546 513.216 31.442 513.216 33.108C513.216 34.774 514.364 35.74 515.554 35.74C516.758 35.74 517.892 34.802 517.892 33.136ZM521.066 33.108C521.066 30.728 522.676 29.16 524.706 29.16C526.008 29.16 526.904 29.776 527.38 30.406V29.286H528.99V37H527.38V35.852C526.89 36.51 525.966 37.126 524.678 37.126C522.676 37.126 521.066 35.488 521.066 33.108ZM527.38 33.136C527.38 31.484 526.246 30.546 525.042 30.546C523.852 30.546 522.704 31.442 522.704 33.108C522.704 34.774 523.852 35.74 525.042 35.74C526.246 35.74 527.38 34.802 527.38 33.136ZM530.554 33.108C530.554 30.728 532.164 29.16 534.208 29.16C535.482 29.16 536.42 29.776 536.868 30.406V29.286H538.478V40.668H536.868V35.88C536.42 36.482 535.454 37.126 534.152 37.126C532.164 37.126 530.554 35.488 530.554 33.108ZM536.868 33.136C536.868 31.484 535.734 30.546 534.53 30.546C533.34 30.546 532.192 31.442 532.192 33.108C532.192 34.774 533.34 35.74 534.53 35.74C535.734 35.74 536.868 34.802 536.868 33.136Z" fill="#17181A"/>
<path d="M485.659 57V49.5H484.543V48.252H487.039V57H485.659ZM488.81 56.88V55.884C490.874 54.072 493.046 52.488 493.046 50.772C493.046 49.86 492.65 49.236 491.63 49.236C490.67 49.236 490.154 49.908 490.118 50.892H488.798C488.846 48.996 490.07 48.072 491.618 48.072C493.394 48.072 494.402 49.14 494.402 50.712C494.402 52.836 492.242 54.456 490.838 55.74H494.642V56.88H488.81ZM495.184 58.668L496.036 55.356H497.524L496.072 58.668H495.184ZM504.503 50.28H503.243C503.075 49.572 502.655 49.176 501.791 49.176C500.555 49.176 499.919 50.016 499.883 52.308C500.315 51.588 501.179 51.204 502.091 51.204C503.663 51.204 504.779 52.26 504.779 54.084C504.779 55.74 503.783 57 501.911 57C499.367 57 498.707 55.212 498.707 52.428C498.707 49.692 499.619 48.036 501.803 48.036C503.507 48.036 504.359 49.116 504.503 50.28ZM501.791 52.356C500.891 52.356 500.039 52.896 500.039 54.06C500.039 55.14 500.675 55.86 501.839 55.86C502.847 55.86 503.471 55.176 503.471 54.144C503.471 53.1 502.943 52.356 501.791 52.356ZM506.599 48.228H511.879V49.428H507.859V51.816C508.183 51.384 508.891 51.024 509.671 51.024C511.819 51.024 512.479 52.62 512.479 53.94C512.479 55.68 511.483 57 509.455 57C507.655 57 506.611 56.004 506.407 54.636H507.739C507.919 55.38 508.543 55.86 509.467 55.86C510.643 55.86 511.171 55.056 511.171 53.976C511.171 52.836 510.607 52.188 509.467 52.188C508.663 52.188 508.123 52.632 507.895 53.28H506.599V48.228ZM513.663 48.288H519.447V49.308L516.111 57H514.731L518.103 49.452H513.663V48.288ZM522.213 56.208C522.213 56.7 521.829 57.084 521.349 57.084C520.857 57.084 520.473 56.7 520.473 56.208C520.473 55.716 520.857 55.332 521.349 55.332C521.829 55.332 522.213 55.716 522.213 56.208ZM523.956 54.624H525.216C525.372 55.404 525.888 55.848 526.8 55.848C527.892 55.848 528.444 55.116 528.444 52.884C528.048 53.436 527.292 53.736 526.5 53.736C524.964 53.736 523.716 52.788 523.716 50.94C523.716 49.2 524.784 48.048 526.62 48.048C528.876 48.048 529.632 49.596 529.632 52.464C529.632 55.416 529.008 56.988 526.716 56.988C524.904 56.988 524.064 55.872 523.956 54.624ZM526.74 52.584C527.712 52.584 528.288 51.924 528.288 50.94C528.288 49.824 527.652 49.188 526.656 49.188C525.636 49.188 525.024 49.896 525.024 50.904C525.024 51.804 525.528 52.584 526.74 52.584ZM531.129 52.512C531.129 50.016 531.801 48.096 534.249 48.096C536.697 48.096 537.369 50.016 537.369 52.512C537.369 55.056 536.697 56.976 534.249 56.976C531.801 56.976 531.129 55.056 531.129 52.512ZM536.025 52.512C536.025 50.88 535.845 49.344 534.249 49.344C532.653 49.344 532.473 50.88 532.473 52.512C532.473 54.228 532.653 55.728 534.249 55.728C535.845 55.728 536.025 54.228 536.025 52.512Z" fill="#17181A"/>
<path d="M501.043 67.84H502.103V69.91H504.123V70.87H502.103V72.94H501.043V70.87H499.023V69.91H501.043V67.84ZM505.722 68.51C505.802 67.25 506.782 66.54 508.112 66.54C509.562 66.54 510.352 67.38 510.352 68.44C510.352 69.31 509.802 69.9 509.232 70.09V70.13C509.992 70.36 510.482 70.99 510.482 72C510.482 73.16 509.662 74.04 508.142 74.04C506.762 74.04 505.692 73.32 505.622 71.89H506.722C506.772 72.57 507.272 73.09 508.132 73.09C508.982 73.09 509.402 72.57 509.402 71.89C509.402 70.93 508.782 70.6 507.592 70.6H507.332V69.66H507.602C508.632 69.65 509.262 69.35 509.262 68.57C509.262 67.94 508.852 67.52 508.072 67.52C507.272 67.52 506.902 68 506.832 68.51H505.722ZM511.679 70.26C511.679 68.18 512.239 66.58 514.279 66.58C516.319 66.58 516.879 68.18 516.879 70.26C516.879 72.38 516.319 73.98 514.279 73.98C512.239 73.98 511.679 72.38 511.679 70.26ZM515.759 70.26C515.759 68.9 515.609 67.62 514.279 67.62C512.949 67.62 512.799 68.9 512.799 70.26C512.799 71.69 512.949 72.94 514.279 72.94C515.609 72.94 515.759 71.69 515.759 70.26ZM519.415 73.34C519.415 73.75 519.095 74.07 518.695 74.07C518.285 74.07 517.965 73.75 517.965 73.34C517.965 72.93 518.285 72.61 518.695 72.61C519.095 72.61 519.415 72.93 519.415 73.34ZM520.867 72.02H521.917C522.047 72.67 522.477 73.04 523.237 73.04C524.147 73.04 524.607 72.43 524.607 70.57C524.277 71.03 523.647 71.28 522.987 71.28C521.707 71.28 520.667 70.49 520.667 68.95C520.667 67.5 521.557 66.54 523.087 66.54C524.967 66.54 525.597 67.83 525.597 70.22C525.597 72.68 525.077 73.99 523.167 73.99C521.657 73.99 520.957 73.06 520.867 72.02ZM523.187 70.32C523.997 70.32 524.477 69.77 524.477 68.95C524.477 68.02 523.947 67.49 523.117 67.49C522.267 67.49 521.757 68.08 521.757 68.92C521.757 69.67 522.177 70.32 523.187 70.32ZM530.325 74V72.48H526.705V71.62L530.065 66.8H531.445V71.49H532.375V72.48H531.445V74H530.325ZM528.015 71.49H530.375V67.96L528.015 71.49ZM537.17 75.86H535.99C534.67 74.59 533.96 72.54 533.96 70.36C533.96 68.18 534.67 66.01 536.19 64.66H537.37V64.77C535.77 66.24 535.06 68.38 535.06 70.36C535.06 72.34 535.77 74.31 537.17 75.75V75.86ZM540.682 67.84H541.742V69.91H543.762V70.87H541.742V72.94H540.682V70.87H538.662V69.91H540.682V67.84ZM545.38 70.26C545.38 68.18 545.94 66.58 547.98 66.58C550.02 66.58 550.58 68.18 550.58 70.26C550.58 72.38 550.02 73.98 547.98 73.98C545.94 73.98 545.38 72.38 545.38 70.26ZM549.46 70.26C549.46 68.9 549.31 67.62 547.98 67.62C546.65 67.62 546.5 68.9 546.5 70.26C546.5 71.69 546.65 72.94 547.98 72.94C549.31 72.94 549.46 71.69 549.46 70.26ZM553.117 73.34C553.117 73.75 552.797 74.07 552.397 74.07C551.987 74.07 551.667 73.75 551.667 73.34C551.667 72.93 551.987 72.61 552.397 72.61C552.797 72.61 553.117 72.93 553.117 73.34ZM554.109 73.9V73.07C555.829 71.56 557.639 70.24 557.639 68.81C557.639 68.05 557.309 67.53 556.459 67.53C555.659 67.53 555.229 68.09 555.199 68.91H554.099C554.139 67.33 555.159 66.56 556.449 66.56C557.929 66.56 558.769 67.45 558.769 68.76C558.769 70.53 556.969 71.88 555.799 72.95H558.969V73.9H554.109ZM563.45 74V72.48H559.83V71.62L563.19 66.8H564.57V71.49H565.5V72.48H564.57V74H563.45ZM561.14 71.49H563.5V67.96L561.14 71.49ZM566.265 68.47C566.265 67.48 566.915 66.91 567.785 66.91C568.655 66.91 569.305 67.48 569.305 68.47C569.305 69.47 568.655 70.04 567.785 70.04C566.915 70.04 566.265 69.47 566.265 68.47ZM567.785 67.6C567.395 67.6 567.155 67.85 567.155 68.47C567.155 69.09 567.395 69.35 567.785 69.35C568.165 69.35 568.415 69.09 568.415 68.47C568.415 67.85 568.165 67.6 567.785 67.6ZM567.255 74L571.245 67.04H572.365L568.375 74H567.255ZM570.335 72.56C570.335 71.56 570.985 71 571.855 71C572.715 71 573.365 71.56 573.365 72.56C573.365 73.56 572.715 74.13 571.855 74.13C570.985 74.13 570.335 73.56 570.335 72.56ZM571.845 71.69C571.465 71.69 571.215 71.94 571.215 72.56C571.215 73.18 571.465 73.43 571.845 73.43C572.225 73.43 572.475 73.18 572.475 72.56C572.475 71.94 572.225 71.69 571.845 71.69ZM574.254 75.86V75.75C575.654 74.31 576.364 72.34 576.364 70.36C576.364 68.38 575.654 66.24 574.054 64.77V64.66H575.234C576.754 66.01 577.464 68.18 577.464 70.36C577.464 72.54 576.754 74.59 575.434 75.86H574.254Z" fill="#1AD598"/>
<path d="M491.013 67.396L492.16 68.541L489.716 70.981L487.716 68.981L484.003 72.691L484.709 73.396L487.709 70.396L489.709 72.396L492.871 69.251L494.018 70.396V67.396H491.013Z" fill="#1AD598"/>
<path d="M1180 12.981V6.991C1179.96 5.46634 1180.44 3.97271 1181.36 2.755C1181.72 2.22141 1182.21 1.7833 1182.78 1.47781C1183.34 1.17231 1183.98 1.00841 1184.62 1L1395.38 1C1396.03 1.00841 1396.66 1.17231 1397.23 1.47781C1397.8 1.7833 1398.29 2.22141 1398.65 2.755C1399.57 3.97271 1400.04 5.46634 1400 6.991V90.26C1400.04 91.7847 1399.57 93.2783 1398.65 94.496C1398.29 95.0296 1397.8 95.4677 1397.23 95.7732C1396.66 96.0787 1396.03 96.2426 1395.38 96.251H1184.62C1183.98 96.243 1183.35 96.0798 1182.78 95.775C1182.21 95.4702 1181.72 95.0329 1181.36 94.5C1180.44 93.2812 1179.96 91.786 1180 90.26V12.981Z" fill="white"/>
<path d="M1387.97 21H1299.04V76.655H1387.97V21Z" fill="white"/>
<mask id="mask2_541_4294" style="mask-type:luminance" maskUnits="userSpaceOnUse" x="1299" y="21" width="89" height="56">
<path d="M1387.97 21H1299.04V76.655H1387.97V21Z" fill="white"/>
</mask>
<g mask="url(#mask2_541_4294)">
<path d="M1294.04 81.622H1393.96C1394.33 81.9 1394.45 37.557 1394.74 37.198C1394.81 37.1141 1394.86 37.0169 1394.89 36.9125C1394.92 36.808 1394.93 36.6984 1394.92 36.5904C1394.9 36.4823 1394.87 36.3782 1394.81 36.2842C1394.76 36.1903 1394.68 36.1085 1394.6 36.044L1390.77 33.17C1390.59 33.0362 1390.36 32.9771 1390.14 33.005L1381.39 34.07C1381.29 34.082 1381.19 34.1104 1381.1 34.154L1373.02 38.133L1365.34 36.092C1365.16 36.0424 1364.96 36.0544 1364.79 36.126L1356.91 39.27L1342.33 33.762C1342.18 33.7034 1342.01 33.6901 1341.84 33.7235C1341.68 33.7569 1341.53 33.8358 1341.41 33.951L1339.65 35.664L1334.74 32.319C1334.64 32.254 1334.53 32.2089 1334.42 32.1863C1334.3 32.1636 1334.19 32.1638 1334.07 32.187C1333.96 32.209 1333.85 32.2535 1333.76 32.3179C1333.66 32.3823 1333.58 32.4653 1333.52 32.562L1325.32 45.288L1321.85 45.711L1312.81 41.275C1312.67 41.2065 1312.52 41.1766 1312.36 41.1882C1312.21 41.1998 1312.06 41.2525 1311.93 41.341L1307.33 44.502L1303.21 42.45C1303.07 42.3805 1302.91 42.3505 1302.75 42.3632C1302.6 42.3759 1302.44 42.4307 1302.31 42.522L1292.75 49.375C1292.37 49.646 1293.29 81.965 1293.57 82.328C1293.66 82.4457 1293.79 82.5375 1293.92 82.5943C1294.06 82.6511 1294.21 82.671 1294.36 82.652C1294.51 82.6337 1294.64 82.5794 1294.76 82.494" fill="white" fill-opacity="0.3"/>
<path opacity="0.28" d="M1294.04 81.622H1393.96C1394.33 81.9 1394.45 37.557 1394.74 37.198C1394.81 37.1141 1394.86 37.0169 1394.89 36.9125C1394.92 36.808 1394.93 36.6984 1394.92 36.5904C1394.9 36.4823 1394.87 36.3782 1394.81 36.2842C1394.76 36.1903 1394.68 36.1085 1394.6 36.044L1390.77 33.17C1390.59 33.0362 1390.36 32.9771 1390.14 33.005L1381.39 34.07C1381.29 34.082 1381.19 34.1104 1381.1 34.154L1373.02 38.133L1365.34 36.092C1365.16 36.0424 1364.96 36.0544 1364.79 36.126L1356.91 39.27L1342.33 33.762C1342.18 33.7034 1342.01 33.6901 1341.84 33.7235C1341.68 33.7569 1341.53 33.8358 1341.41 33.951L1339.65 35.664L1334.74 32.319C1334.64 32.254 1334.53 32.2089 1334.42 32.1863C1334.3 32.1636 1334.19 32.1638 1334.07 32.187C1333.96 32.209 1333.85 32.2535 1333.76 32.3179C1333.66 32.3823 1333.58 32.4653 1333.52 32.562L1325.32 45.288L1321.85 45.711L1312.81 41.275C1312.67 41.2065 1312.52 41.1766 1312.36 41.1882C1312.21 41.1998 1312.06 41.2525 1311.93 41.341L1307.33 44.502L1303.21 42.45C1303.07 42.3805 1302.91 42.3505 1302.75 42.3632C1302.6 42.3759 1302.44 42.4307 1302.31 42.522L1292.75 49.375C1292.37 49.646 1293.29 81.965 1293.57 82.328C1293.66 82.4457 1293.79 82.5375 1293.92 82.5943C1294.06 82.6511 1294.21 82.671 1294.36 82.652C1294.51 82.6337 1294.64 82.5794 1294.76 82.494" fill="url(#paint2_linear_541_4294)"/>
<path d="M1293.36 50.851C1293.21 50.8701 1293.06 50.8503 1292.92 50.7935C1292.79 50.7366 1292.66 50.6448 1292.57 50.527C1292.51 50.441 1292.46 50.3421 1292.43 50.2365C1292.4 50.1309 1292.4 50.0209 1292.41 49.9131C1292.43 49.8053 1292.47 49.702 1292.53 49.6097C1292.58 49.5173 1292.66 49.4378 1292.75 49.376L1302.31 42.525C1302.44 42.4337 1302.59 42.3789 1302.75 42.3662C1302.9 42.3536 1303.06 42.3835 1303.21 42.453L1307.33 44.505L1311.93 41.343C1312.05 41.2546 1312.2 41.2018 1312.36 41.1903C1312.51 41.1787 1312.67 41.2086 1312.81 41.277L1321.85 45.714L1325.31 45.291L1333.52 32.565C1333.58 32.4684 1333.66 32.3854 1333.76 32.321C1333.85 32.2566 1333.96 32.212 1334.07 32.19C1334.19 32.1669 1334.3 32.1666 1334.42 32.1893C1334.53 32.212 1334.64 32.2571 1334.74 32.322L1339.65 35.667L1341.41 33.953C1341.53 33.8378 1341.68 33.759 1341.84 33.7256C1342 33.6921 1342.17 33.7054 1342.33 33.764L1356.91 39.272L1364.78 36.123C1364.96 36.0514 1365.15 36.0395 1365.34 36.089L1373.02 38.13L1381.11 34.154C1381.2 34.1104 1381.29 34.082 1381.39 34.07L1390.14 33.003C1390.36 32.9762 1390.59 33.0368 1390.77 33.172L1394.6 36.051C1394.68 36.1156 1394.76 36.1973 1394.81 36.2913C1394.87 36.3852 1394.9 36.4894 1394.92 36.5974C1394.93 36.7054 1394.92 36.815 1394.89 36.9195C1394.86 37.024 1394.81 37.1211 1394.74 37.205C1394.6 37.3788 1394.39 37.491 1394.17 37.5182C1393.95 37.5453 1393.72 37.4855 1393.54 37.351L1389.99 34.679L1381.74 35.687L1373.49 39.749C1373.3 39.8433 1373.08 39.8643 1372.88 39.808L1365.16 37.757L1357.23 40.923C1357.03 41.006 1356.8 41.0085 1356.59 40.93L1342.22 35.494L1340.35 37.316C1340.2 37.4559 1340.02 37.5422 1339.82 37.5604C1339.62 37.5786 1339.42 37.5276 1339.25 37.416L1334.48 34.172L1326.54 46.488C1326.48 46.5939 1326.38 46.6834 1326.28 46.75C1326.17 46.8167 1326.05 46.8591 1325.92 46.874L1321.79 47.374C1321.62 47.3946 1321.45 47.3658 1321.3 47.291L1312.49 42.972L1307.89 46.135C1307.76 46.2235 1307.61 46.276 1307.45 46.2871C1307.3 46.2981 1307.14 46.2674 1307 46.198L1302.89 44.151L1293.77 50.695C1293.65 50.7803 1293.51 50.834 1293.36 50.851Z" fill="#1AD598"/>
</g>
<path d="M1197.49 27.144C1199.52 27.144 1201.27 28.166 1202.01 30.07H1200.09C1199.58 29.09 1198.65 28.6 1197.49 28.6C1195.56 28.6 1194.16 29.972 1194.16 32.114C1194.16 34.256 1195.56 35.642 1197.49 35.642C1199.25 35.642 1200.36 34.578 1200.6 32.94H1196.94V31.666H1202.31V32.912C1202.01 35.166 1200.11 37.084 1197.49 37.084C1194.75 37.084 1192.52 35.04 1192.52 32.114C1192.52 29.202 1194.75 27.144 1197.49 27.144ZM1211.23 33.136C1211.23 35.558 1209.44 37.126 1207.23 37.126C1205.03 37.126 1203.36 35.558 1203.36 33.136C1203.36 30.714 1205.1 29.16 1207.3 29.16C1209.5 29.16 1211.23 30.714 1211.23 33.136ZM1204.99 33.136C1204.99 34.886 1206.02 35.74 1207.23 35.74C1208.42 35.74 1209.59 34.886 1209.59 33.136C1209.59 31.386 1208.46 30.546 1207.27 30.546C1206.07 30.546 1204.99 31.386 1204.99 33.136ZM1212.81 37V26.64H1214.4V37H1212.81ZM1215.97 33.108C1215.97 30.728 1217.58 29.16 1219.62 29.16C1220.63 29.16 1221.69 29.636 1222.28 30.364V26.64H1223.89V37H1222.28V35.838C1221.79 36.538 1220.87 37.126 1219.61 37.126C1217.58 37.126 1215.97 35.488 1215.97 33.108ZM1222.28 33.136C1222.28 31.484 1221.15 30.546 1219.94 30.546C1218.75 30.546 1217.61 31.442 1217.61 33.108C1217.61 34.774 1218.75 35.74 1219.94 35.74C1221.15 35.74 1222.28 34.802 1222.28 33.136Z" fill="#17181A"/>
<path d="M1209.04 67.84H1210.1V69.91H1212.12V70.87H1210.1V72.94H1209.04V70.87H1207.02V69.91H1209.04V67.84ZM1213.65 73.9V73.07C1215.37 71.56 1217.18 70.24 1217.18 68.81C1217.18 68.05 1216.85 67.53 1216 67.53C1215.2 67.53 1214.77 68.09 1214.74 68.91H1213.64C1213.68 67.33 1214.7 66.56 1215.99 66.56C1217.47 66.56 1218.31 67.45 1218.31 68.76C1218.31 70.53 1216.51 71.88 1215.34 72.95H1218.51V73.9H1213.65ZM1219.51 70.26C1219.51 68.18 1220.07 66.58 1222.11 66.58C1224.15 66.58 1224.71 68.18 1224.71 70.26C1224.71 72.38 1224.15 73.98 1222.11 73.98C1220.07 73.98 1219.51 72.38 1219.51 70.26ZM1223.59 70.26C1223.59 68.9 1223.44 67.62 1222.11 67.62C1220.78 67.62 1220.63 68.9 1220.63 70.26C1220.63 71.69 1220.78 72.94 1222.11 72.94C1223.44 72.94 1223.59 71.69 1223.59 70.26ZM1227.25 73.34C1227.25 73.75 1226.93 74.07 1226.53 74.07C1226.12 74.07 1225.8 73.75 1225.8 73.34C1225.8 72.93 1226.12 72.61 1226.53 72.61C1226.93 72.61 1227.25 72.93 1227.25 73.34ZM1229.11 74V67.75H1228.18V66.71H1230.26V74H1229.11ZM1231.83 70.26C1231.83 68.18 1232.39 66.58 1234.43 66.58C1236.47 66.58 1237.03 68.18 1237.03 70.26C1237.03 72.38 1236.47 73.98 1234.43 73.98C1232.39 73.98 1231.83 72.38 1231.83 70.26ZM1235.91 70.26C1235.91 68.9 1235.76 67.62 1234.43 67.62C1233.1 67.62 1232.95 68.9 1232.95 70.26C1232.95 71.69 1233.1 72.94 1234.43 72.94C1235.76 72.94 1235.91 71.69 1235.91 70.26ZM1242.08 75.86H1240.9C1239.58 74.59 1238.87 72.54 1238.87 70.36C1238.87 68.18 1239.58 66.01 1241.1 64.66H1242.28V64.77C1240.68 66.24 1239.97 68.38 1239.97 70.36C1239.97 72.34 1240.68 74.31 1242.08 75.75V75.86ZM1245.6 67.84H1246.66V69.91H1248.68V70.87H1246.66V72.94H1245.6V70.87H1243.58V69.91H1245.6V67.84ZM1251.07 74V67.75H1250.14V66.71H1252.22V74H1251.07ZM1255.12 73.34C1255.12 73.75 1254.8 74.07 1254.4 74.07C1253.99 74.07 1253.67 73.75 1253.67 73.34C1253.67 72.93 1253.99 72.61 1254.4 72.61C1254.8 72.61 1255.12 72.93 1255.12 73.34ZM1256.2 70.26C1256.2 68.18 1256.76 66.58 1258.8 66.58C1260.84 66.58 1261.4 68.18 1261.4 70.26C1261.4 72.38 1260.84 73.98 1258.8 73.98C1256.76 73.98 1256.2 72.38 1256.2 70.26ZM1260.28 70.26C1260.28 68.9 1260.13 67.62 1258.8 67.62C1257.47 67.62 1257.32 68.9 1257.32 70.26C1257.32 71.69 1257.47 72.94 1258.8 72.94C1260.13 72.94 1260.28 71.69 1260.28 70.26ZM1262.59 68.51C1262.67 67.25 1263.65 66.54 1264.98 66.54C1266.43 66.54 1267.22 67.38 1267.22 68.44C1267.22 69.31 1266.67 69.9 1266.1 70.09V70.13C1266.86 70.36 1267.35 70.99 1267.35 72C1267.35 73.16 1266.53 74.04 1265.01 74.04C1263.63 74.04 1262.56 73.32 1262.49 71.89H1263.59C1263.64 72.57 1264.14 73.09 1265 73.09C1265.85 73.09 1266.27 72.57 1266.27 71.89C1266.27 70.93 1265.65 70.6 1264.46 70.6H1264.2V69.66H1264.47C1265.5 69.65 1266.13 69.35 1266.13 68.57C1266.13 67.94 1265.72 67.52 1264.94 67.52C1264.14 67.52 1263.77 68 1263.7 68.51H1262.59ZM1268.37 68.47C1268.37 67.48 1269.02 66.91 1269.89 66.91C1270.76 66.91 1271.41 67.48 1271.41 68.47C1271.41 69.47 1270.76 70.04 1269.89 70.04C1269.02 70.04 1268.37 69.47 1268.37 68.47ZM1269.89 67.6C1269.5 67.6 1269.26 67.85 1269.26 68.47C1269.26 69.09 1269.5 69.35 1269.89 69.35C1270.27 69.35 1270.52 69.09 1270.52 68.47C1270.52 67.85 1270.27 67.6 1269.89 67.6ZM1269.36 74L1273.35 67.04H1274.47L1270.48 74H1269.36ZM1272.44 72.56C1272.44 71.56 1273.09 71 1273.96 71C1274.82 71 1275.47 71.56 1275.47 72.56C1275.47 73.56 1274.82 74.13 1273.96 74.13C1273.09 74.13 1272.44 73.56 1272.44 72.56ZM1273.95 71.69C1273.57 71.69 1273.32 71.94 1273.32 72.56C1273.32 73.18 1273.57 73.43 1273.95 73.43C1274.33 73.43 1274.58 73.18 1274.58 72.56C1274.58 71.94 1274.33 71.69 1273.95 71.69ZM1276.36 75.86V75.75C1277.76 74.31 1278.47 72.34 1278.47 70.36C1278.47 68.38 1277.76 66.24 1276.16 64.77V64.66H1277.34C1278.86 66.01 1279.57 68.18 1279.57 70.36C1279.57 72.54 1278.86 74.59 1277.54 75.86H1276.36Z" fill="#1AD598"/>
<path d="M1193.66 57V49.5H1192.54V48.252H1195.04V57H1193.66ZM1196.26 58.668L1197.11 55.356H1198.6L1197.15 58.668H1196.26ZM1200.06 54.624H1201.32C1201.47 55.404 1201.99 55.848 1202.9 55.848C1203.99 55.848 1204.55 55.116 1204.55 52.884C1204.15 53.436 1203.39 53.736 1202.6 53.736C1201.07 53.736 1199.82 52.788 1199.82 50.94C1199.82 49.2 1200.89 48.048 1202.72 48.048C1204.98 48.048 1205.73 49.596 1205.73 52.464C1205.73 55.416 1205.11 56.988 1202.82 56.988C1201.01 56.988 1200.17 55.872 1200.06 54.624ZM1202.84 52.584C1203.81 52.584 1204.39 51.924 1204.39 50.94C1204.39 49.824 1203.75 49.188 1202.76 49.188C1201.74 49.188 1201.13 49.896 1201.13 50.904C1201.13 51.804 1201.63 52.584 1202.84 52.584ZM1206.99 48.288H1212.77V49.308L1209.44 57H1208.06L1211.43 49.452H1206.99V48.288ZM1214.39 54.624H1215.65C1215.81 55.404 1216.32 55.848 1217.23 55.848C1218.33 55.848 1218.88 55.116 1218.88 52.884C1218.48 53.436 1217.73 53.736 1216.93 53.736C1215.4 53.736 1214.15 52.788 1214.15 50.94C1214.15 49.2 1215.22 48.048 1217.05 48.048C1219.31 48.048 1220.07 49.596 1220.07 52.464C1220.07 55.416 1219.44 56.988 1217.15 56.988C1215.34 56.988 1214.5 55.872 1214.39 54.624ZM1217.17 52.584C1218.15 52.584 1218.72 51.924 1218.72 50.94C1218.72 49.824 1218.09 49.188 1217.09 49.188C1216.07 49.188 1215.46 49.896 1215.46 50.904C1215.46 51.804 1215.96 52.584 1217.17 52.584ZM1223.16 56.208C1223.16 56.7 1222.77 57.084 1222.29 57.084C1221.8 57.084 1221.42 56.7 1221.42 56.208C1221.42 55.716 1221.8 55.332 1222.29 55.332C1222.77 55.332 1223.16 55.716 1223.16 56.208ZM1224.9 54.624H1226.16C1226.32 55.404 1226.83 55.848 1227.75 55.848C1228.84 55.848 1229.39 55.116 1229.39 52.884C1228.99 53.436 1228.24 53.736 1227.45 53.736C1225.91 53.736 1224.66 52.788 1224.66 50.94C1224.66 49.2 1225.73 48.048 1227.57 48.048C1229.82 48.048 1230.58 49.596 1230.58 52.464C1230.58 55.416 1229.95 56.988 1227.66 56.988C1225.85 56.988 1225.01 55.872 1224.9 54.624ZM1227.69 52.584C1228.66 52.584 1229.23 51.924 1229.23 50.94C1229.23 49.824 1228.6 49.188 1227.6 49.188C1226.58 49.188 1225.97 49.896 1225.97 50.904C1225.97 51.804 1226.47 52.584 1227.69 52.584ZM1232.07 52.512C1232.07 50.016 1232.75 48.096 1235.19 48.096C1237.64 48.096 1238.31 50.016 1238.31 52.512C1238.31 55.056 1237.64 56.976 1235.19 56.976C1232.75 56.976 1232.07 55.056 1232.07 52.512ZM1236.97 52.512C1236.97 50.88 1236.79 49.344 1235.19 49.344C1233.6 49.344 1233.42 50.88 1233.42 52.512C1233.42 54.228 1233.6 55.728 1235.19 55.728C1236.79 55.728 1236.97 54.228 1236.97 52.512Z" fill="#17181A"/>
<path d="M1199.01 67.396L1200.16 68.541L1197.72 70.981L1195.72 68.981L1192 72.691L1192.71 73.396L1195.71 70.396L1197.71 72.396L1200.87 69.251L1202.02 70.396V67.396H1199.01Z" fill="#1AD598"/>
<path d="M236.003 12.981V6.991C235.961 5.46634 236.438 3.97271 237.357 2.755C237.72 2.22141 238.207 1.7833 238.776 1.47781C239.345 1.17231 239.979 1.00841 240.625 1L451.381 1C452.026 1.00841 452.66 1.17231 453.229 1.47781C453.798 1.7833 454.285 2.22141 454.649 2.755C455.567 3.97271 456.045 5.46634 456.003 6.991V90.26C456.045 91.7847 455.567 93.2783 454.649 94.496C454.285 95.0296 453.798 95.4677 453.229 95.7732C452.66 96.0787 452.026 96.2426 451.381 96.251H240.625C239.979 96.243 239.345 96.0798 238.777 95.775C238.208 95.4702 237.721 95.0329 237.357 94.5C236.437 93.2812 235.96 91.786 236.003 90.26V12.981Z" fill="white"/>
<path d="M444.002 21H355.068V76.655H444.002V21Z" fill="white"/>
<mask id="mask3_541_4294" style="mask-type:luminance" maskUnits="userSpaceOnUse" x="355" y="21" width="90" height="56">
<path d="M444.002 21H355.068V76.655H444.002V21Z" fill="white"/>
</mask>
<g mask="url(#mask3_541_4294)">
<path d="M449.311 81.622H349.385C349.014 81.9 348.901 37.558 348.609 37.199C348.54 37.1151 348.488 37.018 348.458 36.9135C348.427 36.8091 348.418 36.6995 348.432 36.5914C348.445 36.4834 348.48 36.3792 348.535 36.2853C348.59 36.1913 348.664 36.1096 348.751 36.045L352.582 33.17C352.762 33.0347 352.987 32.9742 353.21 33.001L361.963 34.07C362.062 34.0821 362.157 34.1105 362.246 34.154L370.326 38.133L378.009 36.092C378.193 36.0425 378.388 36.0544 378.564 36.126L386.44 39.27L401.018 33.762C401.174 33.7034 401.343 33.6901 401.506 33.7236C401.669 33.757 401.819 33.8359 401.939 33.951L403.698 35.664L408.614 32.319C408.711 32.2541 408.819 32.2091 408.933 32.1864C409.046 32.1637 409.164 32.1639 409.277 32.187C409.391 32.209 409.498 32.2535 409.594 32.3179C409.69 32.3823 409.771 32.4653 409.834 32.562L418.034 45.288L421.498 45.711L430.535 41.274C430.676 41.2044 430.833 41.1739 430.99 41.1857C431.147 41.1975 431.297 41.2511 431.426 41.341L436.021 44.502L440.14 42.45C440.283 42.3805 440.442 42.3506 440.6 42.3633C440.758 42.3759 440.91 42.4307 441.04 42.522L450.599 49.374C450.978 49.645 450.06 81.964 449.78 82.327C449.689 82.4447 449.568 82.5365 449.43 82.5933C449.292 82.6501 449.141 82.67 448.993 82.651C448.847 82.6327 448.708 82.5784 448.588 82.493" fill="white" fill-opacity="0.3"/>
<path opacity="0.28" d="M449.311 81.622H349.385C349.014 81.9 348.901 37.558 348.609 37.199C348.54 37.1151 348.488 37.018 348.458 36.9135C348.427 36.8091 348.418 36.6995 348.432 36.5914C348.445 36.4834 348.48 36.3792 348.535 36.2853C348.59 36.1913 348.664 36.1096 348.751 36.045L352.582 33.17C352.762 33.0347 352.987 32.9742 353.21 33.001L361.963 34.07C362.062 34.0821 362.157 34.1105 362.246 34.154L370.326 38.133L378.009 36.092C378.193 36.0425 378.388 36.0544 378.564 36.126L386.44 39.27L401.018 33.762C401.174 33.7034 401.343 33.6901 401.506 33.7236C401.669 33.757 401.819 33.8359 401.939 33.951L403.698 35.664L408.614 32.319C408.711 32.2541 408.819 32.2091 408.933 32.1864C409.046 32.1637 409.164 32.1639 409.277 32.187C409.391 32.209 409.498 32.2535 409.594 32.3179C409.69 32.3823 409.771 32.4653 409.834 32.562L418.034 45.288L421.498 45.711L430.535 41.274C430.676 41.2044 430.833 41.1739 430.99 41.1857C431.147 41.1975 431.297 41.2511 431.426 41.341L436.021 44.502L440.14 42.45C440.283 42.3805 440.442 42.3506 440.6 42.3633C440.758 42.3759 440.91 42.4307 441.04 42.522L450.599 49.374C450.978 49.645 450.06 81.964 449.78 82.327C449.689 82.4447 449.568 82.5365 449.43 82.5933C449.292 82.6501 449.141 82.67 448.993 82.651C448.847 82.6327 448.708 82.5784 448.588 82.493" fill="url(#paint3_linear_541_4294)"/>
<path d="M449.99 50.8511C450.138 50.8702 450.289 50.8503 450.427 50.7935C450.565 50.7367 450.686 50.6449 450.777 50.5271C450.844 50.441 450.893 50.3422 450.92 50.2366C450.948 50.131 450.953 50.0209 450.937 49.9131C450.92 49.8053 450.882 49.7021 450.824 49.6097C450.765 49.5174 450.689 49.4378 450.599 49.3761L441.04 42.5241C440.91 42.4328 440.758 42.378 440.6 42.3653C440.442 42.3526 440.283 42.3826 440.14 42.4521L436.018 44.5041L431.428 41.3431C431.3 41.2546 431.151 41.2019 430.995 41.1903C430.84 41.1787 430.684 41.2087 430.544 41.2771L421.507 45.7141L418.043 45.2911L409.835 32.5651C409.772 32.4684 409.691 32.3854 409.595 32.321C409.499 32.2565 409.392 32.212 409.278 32.1901C409.165 32.167 409.047 32.1668 408.934 32.1895C408.82 32.2121 408.712 32.2572 408.615 32.3221L403.7 35.6661L401.941 33.9531C401.821 33.8379 401.671 33.7591 401.508 33.7256C401.345 33.6922 401.176 33.7055 401.02 33.7641L386.442 39.2721L378.567 36.1281C378.391 36.0565 378.196 36.0445 378.012 36.0941L370.328 38.1351L362.249 34.1541C362.16 34.1106 362.065 34.0822 361.966 34.0701L353.212 33.0031C352.989 32.9763 352.764 33.0369 352.584 33.1721L348.753 36.0471C348.666 36.1116 348.592 36.1934 348.537 36.2873C348.482 36.3813 348.447 36.4855 348.434 36.5935C348.42 36.7015 348.429 36.8111 348.46 36.9156C348.49 37.0201 348.542 37.1172 348.611 37.2011C348.754 37.3749 348.959 37.487 349.182 37.5142C349.405 37.5414 349.631 37.4815 349.811 37.3471L353.362 34.6791L361.616 35.6871L369.858 39.7491C370.05 39.8436 370.27 39.8646 370.476 39.8081L378.196 37.7571L386.119 40.9251C386.324 41.008 386.552 41.0105 386.758 40.9321L401.128 35.4951L403.001 37.3171C403.145 37.4571 403.333 37.5435 403.534 37.5617C403.734 37.5799 403.934 37.5288 404.101 37.4171L408.87 34.1721L416.806 46.4891C416.876 46.5944 416.967 46.6833 417.075 46.7494C417.182 46.8156 417.303 46.8575 417.428 46.8721L421.558 47.3721C421.727 47.3926 421.898 47.3638 422.05 47.2891L430.86 42.9651L435.46 46.1281C435.59 46.2166 435.74 46.269 435.896 46.2801C436.052 46.2912 436.209 46.2604 436.349 46.1911L440.458 44.1441L449.587 50.6881C449.707 50.7737 449.847 50.8277 449.993 50.8451L449.99 50.8511Z" fill="#EA3A3D"/>
</g>
<path d="M252.231 27.27C255.353 27.27 257.397 29.16 257.397 32.17C257.397 35.166 255.353 37 252.231 37H249.053V27.27H252.231ZM250.649 35.698H252.231C254.527 35.698 255.759 34.382 255.759 32.17C255.759 29.944 254.527 28.572 252.231 28.572H250.649V35.698ZM266.329 33.136C266.329 35.558 264.537 37.126 262.325 37.126C260.127 37.126 258.461 35.558 258.461 33.136C258.461 30.714 260.197 29.16 262.395 29.16C264.593 29.16 266.329 30.714 266.329 33.136ZM260.085 33.136C260.085 34.886 261.121 35.74 262.325 35.74C263.515 35.74 264.691 34.886 264.691 33.136C264.691 31.386 263.557 30.546 262.367 30.546C261.163 30.546 260.085 31.386 260.085 33.136ZM269.404 37L266.996 29.286H268.62L270.23 35.488L271.868 29.286H273.534L275.102 35.46L276.698 29.286H278.266L275.872 37H274.192L272.638 31.302L271.084 37H269.404ZM282.858 29.314C282.97 27.55 284.342 26.556 286.204 26.556C288.234 26.556 289.34 27.732 289.34 29.216C289.34 30.434 288.57 31.26 287.772 31.526V31.582C288.836 31.904 289.522 32.786 289.522 34.2C289.522 35.824 288.374 37.056 286.246 37.056C284.314 37.056 282.816 36.048 282.718 34.046H284.258C284.328 34.998 285.028 35.726 286.232 35.726C287.422 35.726 288.01 34.998 288.01 34.046C288.01 32.702 287.142 32.24 285.476 32.24H285.112V30.924H285.49C286.932 30.91 287.814 30.49 287.814 29.398C287.814 28.516 287.24 27.928 286.148 27.928C285.028 27.928 284.51 28.6 284.412 29.314H282.858ZM291.198 31.764C291.198 28.852 291.982 26.612 294.838 26.612C297.694 26.612 298.478 28.852 298.478 31.764C298.478 34.732 297.694 36.972 294.838 36.972C291.982 36.972 291.198 34.732 291.198 31.764ZM296.91 31.764C296.91 29.86 296.7 28.068 294.838 28.068C292.976 28.068 292.766 29.86 292.766 31.764C292.766 33.766 292.976 35.516 294.838 35.516C296.7 35.516 296.91 33.766 296.91 31.764Z" fill="#17181A"/>
<path d="M262.873 70.885V69.925H266.983V70.885H262.873ZM269.233 74.025V67.775H268.303V66.735H270.383V74.025H269.233ZM271.949 70.285C271.949 68.205 272.509 66.605 274.549 66.605C276.589 66.605 277.149 68.205 277.149 70.285C277.149 72.405 276.589 74.005 274.549 74.005C272.509 74.005 271.949 72.405 271.949 70.285ZM276.029 70.285C276.029 68.925 275.879 67.645 274.549 67.645C273.219 67.645 273.069 68.925 273.069 70.285C273.069 71.715 273.219 72.965 274.549 72.965C275.879 72.965 276.029 71.715 276.029 70.285ZM278.725 72.045H279.775C279.905 72.695 280.335 73.065 281.095 73.065C282.005 73.065 282.465 72.455 282.465 70.595C282.135 71.055 281.505 71.305 280.845 71.305C279.565 71.305 278.525 70.515 278.525 68.975C278.525 67.525 279.415 66.565 280.945 66.565C282.825 66.565 283.455 67.855 283.455 70.245C283.455 72.705 282.935 74.015 281.025 74.015C279.515 74.015 278.815 73.085 278.725 72.045ZM281.045 70.345C281.855 70.345 282.335 69.795 282.335 68.975C282.335 68.045 281.805 67.515 280.975 67.515C280.125 67.515 279.615 68.105 279.615 68.945C279.615 69.695 280.035 70.345 281.045 70.345ZM286.033 73.365C286.033 73.775 285.713 74.095 285.313 74.095C284.903 74.095 284.583 73.775 284.583 73.365C284.583 72.955 284.903 72.635 285.313 72.635C285.713 72.635 286.033 72.955 286.033 73.365ZM287.025 73.925V73.095C288.745 71.585 290.555 70.265 290.555 68.835C290.555 68.075 290.225 67.555 289.375 67.555C288.575 67.555 288.145 68.115 288.115 68.935H287.015C287.055 67.355 288.075 66.585 289.365 66.585C290.845 66.585 291.685 67.475 291.685 68.785C291.685 70.555 289.885 71.905 288.715 72.975H291.885V73.925H287.025ZM294.116 70.215C293.496 69.905 293.076 69.385 293.076 68.575C293.076 67.515 293.866 66.605 295.476 66.605C297.086 66.605 297.876 67.525 297.876 68.575C297.876 69.355 297.426 69.925 296.836 70.215C297.576 70.495 298.066 71.145 298.066 72.015C298.066 73.345 296.986 74.205 295.476 74.205C293.976 74.205 292.896 73.345 292.896 72.015C292.896 71.135 293.386 70.485 294.116 70.215ZM295.476 69.855C296.236 69.855 296.786 69.375 296.786 68.715C296.786 67.965 296.276 67.555 295.476 67.555C294.696 67.555 294.176 67.955 294.176 68.725C294.176 69.385 294.716 69.855 295.476 69.855ZM295.476 70.715C294.636 70.715 293.986 71.125 293.986 71.975C293.986 72.715 294.546 73.255 295.476 73.255C296.396 73.255 296.946 72.705 296.946 71.975C296.946 71.155 296.336 70.715 295.476 70.715ZM303.113 75.885H301.933C300.613 74.615 299.903 72.565 299.903 70.385C299.903 68.205 300.613 66.035 302.133 64.685H303.313V64.795C301.713 66.265 301.003 68.405 301.003 70.385C301.003 72.365 301.713 74.335 303.113 75.775V75.885ZM304.455 70.885V69.925H308.565V70.885H304.455ZM310.035 70.285C310.035 68.205 310.595 66.605 312.635 66.605C314.675 66.605 315.235 68.205 315.235 70.285C315.235 72.405 314.675 74.005 312.635 74.005C310.595 74.005 310.035 72.405 310.035 70.285ZM314.115 70.285C314.115 68.925 313.965 67.645 312.635 67.645C311.305 67.645 311.155 68.925 311.155 70.285C311.155 71.715 311.305 72.965 312.635 72.965C313.965 72.965 314.115 71.715 314.115 70.285ZM317.771 73.365C317.771 73.775 317.451 74.095 317.051 74.095C316.641 74.095 316.321 73.775 316.321 73.365C316.321 72.955 316.641 72.635 317.051 72.635C317.451 72.635 317.771 72.955 317.771 73.365ZM318.833 68.535C318.913 67.275 319.893 66.565 321.223 66.565C322.673 66.565 323.463 67.405 323.463 68.465C323.463 69.335 322.913 69.925 322.343 70.115V70.155C323.103 70.385 323.593 71.015 323.593 72.025C323.593 73.185 322.773 74.065 321.253 74.065C319.873 74.065 318.803 73.345 318.733 71.915H319.833C319.883 72.595 320.383 73.115 321.243 73.115C322.093 73.115 322.513 72.595 322.513 71.915C322.513 70.955 321.893 70.625 320.703 70.625H320.443V69.685H320.713C321.743 69.675 322.373 69.375 322.373 68.595C322.373 67.965 321.963 67.545 321.183 67.545C320.383 67.545 320.013 68.025 319.943 68.535H318.833ZM324.77 68.535C324.85 67.275 325.83 66.565 327.16 66.565C328.61 66.565 329.4 67.405 329.4 68.465C329.4 69.335 328.85 69.925 328.28 70.115V70.155C329.04 70.385 329.53 71.015 329.53 72.025C329.53 73.185 328.71 74.065 327.19 74.065C325.81 74.065 324.74 73.345 324.67 71.915H325.77C325.82 72.595 326.32 73.115 327.18 73.115C328.03 73.115 328.45 72.595 328.45 71.915C328.45 70.955 327.83 70.625 326.64 70.625H326.38V69.685H326.65C327.68 69.675 328.31 69.375 328.31 68.595C328.31 67.965 327.9 67.545 327.12 67.545C326.32 67.545 325.95 68.025 325.88 68.535H324.77ZM330.548 68.495C330.548 67.505 331.198 66.935 332.068 66.935C332.938 66.935 333.588 67.505 333.588 68.495C333.588 69.495 332.938 70.065 332.068 70.065C331.198 70.065 330.548 69.495 330.548 68.495ZM332.068 67.625C331.678 67.625 331.438 67.875 331.438 68.495C331.438 69.115 331.678 69.375 332.068 69.375C332.448 69.375 332.698 69.115 332.698 68.495C332.698 67.875 332.448 67.625 332.068 67.625ZM331.538 74.025L335.528 67.065H336.648L332.658 74.025H331.538ZM334.618 72.585C334.618 71.585 335.268 71.025 336.138 71.025C336.998 71.025 337.648 71.585 337.648 72.585C337.648 73.585 336.998 74.155 336.138 74.155C335.268 74.155 334.618 73.585 334.618 72.585ZM336.128 71.715C335.748 71.715 335.498 71.965 335.498 72.585C335.498 73.205 335.748 73.455 336.128 73.455C336.508 73.455 336.758 73.205 336.758 72.585C336.758 71.965 336.508 71.715 336.128 71.715ZM338.537 75.885V75.775C339.937 74.335 340.647 72.365 340.647 70.385C340.647 68.405 339.937 66.265 338.337 64.795V64.685H339.517C341.037 66.035 341.747 68.205 341.747 70.385C341.747 72.565 341.037 74.615 339.717 75.885H338.537Z" fill="#FF0000"/>
<path d="M248.699 50.4249C248.795 48.9129 249.971 48.0609 251.567 48.0609C253.307 48.0609 254.255 49.0689 254.255 50.3409C254.255 51.3849 253.595 52.0929 252.911 52.3209V52.3689C253.823 52.6449 254.411 53.4009 254.411 54.6129C254.411 56.0049 253.427 57.0609 251.603 57.0609C249.947 57.0609 248.663 56.1969 248.579 54.4809H249.899C249.959 55.2969 250.559 55.9209 251.591 55.9209C252.611 55.9209 253.115 55.2969 253.115 54.4809C253.115 53.3289 252.371 52.9329 250.943 52.9329H250.631V51.8049H250.955C252.191 51.7929 252.947 51.4329 252.947 50.4969C252.947 49.7409 252.455 49.2369 251.519 49.2369C250.559 49.2369 250.115 49.8129 250.031 50.4249H248.699ZM255.824 50.4249C255.92 48.9129 257.096 48.0609 258.692 48.0609C260.432 48.0609 261.38 49.0689 261.38 50.3409C261.38 51.3849 260.72 52.0929 260.036 52.3209V52.3689C260.948 52.6449 261.536 53.4009 261.536 54.6129C261.536 56.0049 260.552 57.0609 258.728 57.0609C257.072 57.0609 255.788 56.1969 255.704 54.4809H257.024C257.084 55.2969 257.684 55.9209 258.716 55.9209C259.736 55.9209 260.24 55.2969 260.24 54.4809C260.24 53.3289 259.496 52.9329 258.068 52.9329H257.756V51.8049H258.08C259.316 51.7929 260.072 51.4329 260.072 50.4969C260.072 49.7409 259.58 49.2369 258.644 49.2369C257.684 49.2369 257.24 49.8129 257.156 50.4249H255.824ZM262.313 58.6809L263.165 55.3689H264.653L263.201 58.6809H262.313ZM269.844 57.0129V55.1889H265.5V54.1569L269.532 48.3729H271.188V54.0009H272.304V55.1889H271.188V57.0129H269.844ZM267.072 54.0009H269.904V49.7649L267.072 54.0009ZM273.33 56.8929V55.8969C275.394 54.0849 277.566 52.5009 277.566 50.7849C277.566 49.8729 277.17 49.2489 276.15 49.2489C275.19 49.2489 274.674 49.9209 274.638 50.9049H273.318C273.366 49.0089 274.59 48.0849 276.138 48.0849C277.914 48.0849 278.922 49.1529 278.922 50.7249C278.922 52.8489 276.762 54.4689 275.358 55.7529H279.162V56.8929H273.33ZM286.328 50.2929H285.068C284.9 49.5849 284.48 49.1889 283.616 49.1889C282.38 49.1889 281.744 50.0289 281.708 52.3209C282.14 51.6009 283.004 51.2169 283.916 51.2169C285.488 51.2169 286.604 52.2729 286.604 54.0969C286.604 55.7529 285.608 57.0129 283.736 57.0129C281.192 57.0129 280.532 55.2249 280.532 52.4409C280.532 49.7049 281.444 48.0489 283.628 48.0489C285.332 48.0489 286.184 49.1289 286.328 50.2929ZM283.616 52.3689C282.716 52.3689 281.864 52.9089 281.864 54.0729C281.864 55.1529 282.5 55.8729 283.664 55.8729C284.672 55.8729 285.296 55.1889 285.296 54.1569C285.296 53.1129 284.768 52.3689 283.616 52.3689ZM289.659 56.2209C289.659 56.7129 289.275 57.0969 288.795 57.0969C288.303 57.0969 287.919 56.7129 287.919 56.2209C287.919 55.7289 288.303 55.3449 288.795 55.3449C289.275 55.3449 289.659 55.7289 289.659 56.2209ZM296.921 50.2929H295.661C295.493 49.5849 295.073 49.1889 294.209 49.1889C292.973 49.1889 292.337 50.0289 292.301 52.3209C292.733 51.6009 293.597 51.2169 294.509 51.2169C296.081 51.2169 297.197 52.2729 297.197 54.0969C297.197 55.7529 296.201 57.0129 294.329 57.0129C291.785 57.0129 291.125 55.2249 291.125 52.4409C291.125 49.7049 292.037 48.0489 294.221 48.0489C295.925 48.0489 296.777 49.1289 296.921 50.2929ZM294.209 52.3689C293.309 52.3689 292.457 52.9089 292.457 54.0729C292.457 55.1529 293.093 55.8729 294.257 55.8729C295.265 55.8729 295.889 55.1889 295.889 54.1569C295.889 53.1129 295.361 52.3689 294.209 52.3689ZM298.633 50.4249C298.729 48.9129 299.905 48.0609 301.501 48.0609C303.241 48.0609 304.189 49.0689 304.189 50.3409C304.189 51.3849 303.529 52.0929 302.845 52.3209V52.3689C303.757 52.6449 304.345 53.4009 304.345 54.6129C304.345 56.0049 303.361 57.0609 301.537 57.0609C299.881 57.0609 298.597 56.1969 298.513 54.4809H299.833C299.893 55.2969 300.493 55.9209 301.525 55.9209C302.545 55.9209 303.049 55.2969 303.049 54.4809C303.049 53.3289 302.305 52.9329 300.877 52.9329H300.565V51.8049H300.889C302.125 51.7929 302.881 51.4329 302.881 50.4969C302.881 49.7409 302.389 49.2369 301.453 49.2369C300.493 49.2369 300.049 49.8129 299.965 50.4249H298.633Z" fill="#17181A"/>
<path d="M255.018 73.396L256.16 72.251L253.718 69.811L251.718 71.811L248.008 68.101L248.709 67.396L251.709 70.396L253.709 68.396L256.871 71.541L258.018 70.396V73.396H255.018Z" fill="#FF0000"/>
<path d="M708.003 12.981V6.991C707.961 5.46634 708.438 3.97271 709.357 2.755C709.72 2.22141 710.207 1.7833 710.776 1.47781C711.345 1.17231 711.979 1.00841 712.625 1L923.381 1C924.026 1.00841 924.66 1.17231 925.229 1.47781C925.798 1.7833 926.285 2.22141 926.649 2.755C927.567 3.97271 928.045 5.46634 928.003 6.991V90.26C928.045 91.7847 927.567 93.2783 926.649 94.496C926.285 95.0296 925.798 95.4677 925.229 95.7732C924.66 96.0787 924.026 96.2426 923.381 96.251H712.625C711.979 96.243 711.345 96.0798 710.777 95.775C710.208 95.4702 709.721 95.0329 709.357 94.5C708.437 93.2812 707.96 91.786 708.003 90.26V12.981Z" fill="white"/>
<path d="M726.219 30.182C726.219 29.202 725.659 28.572 724.413 28.572H722.649V31.834H724.413C725.659 31.834 726.219 31.148 726.219 30.182ZM721.053 27.27H724.413C726.723 27.27 727.857 28.6 727.857 30.182C727.857 31.33 727.241 32.562 725.603 32.968L728.011 37H726.107L723.867 33.108H722.649V37H721.053V27.27ZM736.885 29.286V37H735.289V36.076C734.785 36.734 733.917 37.112 733.007 37.112C731.201 37.112 729.829 35.978 729.829 33.822V29.286H731.411V33.584C731.411 34.998 732.181 35.726 733.343 35.726C734.519 35.726 735.289 34.998 735.289 33.584V29.286H736.885ZM744.744 34.844C744.744 36.146 743.61 37.126 741.79 37.126C739.942 37.126 738.64 36.034 738.57 34.634H740.222C740.278 35.264 740.88 35.782 741.762 35.782C742.686 35.782 743.176 35.39 743.176 34.858C743.176 33.346 738.696 34.214 738.696 31.386C738.696 30.154 739.844 29.16 741.664 29.16C743.414 29.16 744.562 30.098 744.646 31.638H743.05C742.994 30.966 742.476 30.504 741.608 30.504C740.754 30.504 740.306 30.854 740.306 31.372C740.306 32.926 744.66 32.058 744.744 34.844ZM752.223 34.844C752.223 36.146 751.089 37.126 749.269 37.126C747.421 37.126 746.119 36.034 746.049 34.634H747.701C747.757 35.264 748.359 35.782 749.241 35.782C750.165 35.782 750.655 35.39 750.655 34.858C750.655 33.346 746.175 34.214 746.175 31.386C746.175 30.154 747.323 29.16 749.143 29.16C750.893 29.16 752.041 30.098 752.125 31.638H750.529C750.473 30.966 749.955 30.504 749.087 30.504C748.233 30.504 747.785 30.854 747.785 31.372C747.785 32.926 752.139 32.058 752.223 34.844ZM757.195 30.504C756.117 30.504 755.249 31.232 755.081 32.45H759.351C759.323 31.26 758.385 30.504 757.195 30.504ZM760.807 34.704C760.373 36.048 759.155 37.126 757.265 37.126C755.053 37.126 753.415 35.558 753.415 33.136C753.415 30.714 754.983 29.16 757.265 29.16C759.463 29.16 761.017 30.686 761.017 32.954C761.017 33.22 761.003 33.472 760.961 33.738H755.067C755.179 35.012 756.089 35.782 757.265 35.782C758.245 35.782 758.791 35.306 759.085 34.704H760.807ZM762.588 37V26.64H764.184V37H762.588ZM766.279 37V26.64H767.875V37H766.279ZM773.272 36.86V35.698C775.68 33.584 778.214 31.736 778.214 29.734C778.214 28.67 777.752 27.942 776.562 27.942C775.442 27.942 774.84 28.726 774.798 29.874H773.258C773.314 27.662 774.742 26.584 776.548 26.584C778.62 26.584 779.796 27.83 779.796 29.664C779.796 32.142 777.276 34.032 775.638 35.53H780.076V36.86H773.272ZM781.478 31.764C781.478 28.852 782.262 26.612 785.118 26.612C787.974 26.612 788.758 28.852 788.758 31.764C788.758 34.732 787.974 36.972 785.118 36.972C782.262 36.972 781.478 34.732 781.478 31.764ZM787.19 31.764C787.19 29.86 786.98 28.068 785.118 28.068C783.256 28.068 783.046 29.86 783.046 31.764C783.046 33.766 783.256 35.516 785.118 35.516C786.98 35.516 787.19 33.766 787.19 31.764ZM790.446 31.764C790.446 28.852 791.23 26.612 794.086 26.612C796.942 26.612 797.726 28.852 797.726 31.764C797.726 34.732 796.942 36.972 794.086 36.972C791.23 36.972 790.446 34.732 790.446 31.764ZM796.158 31.764C796.158 29.86 795.948 28.068 794.086 28.068C792.224 28.068 792.014 29.86 792.014 31.764C792.014 33.766 792.224 35.516 794.086 35.516C795.948 35.516 796.158 33.766 796.158 31.764ZM799.415 31.764C799.415 28.852 800.199 26.612 803.055 26.612C805.911 26.612 806.695 28.852 806.695 31.764C806.695 34.732 805.911 36.972 803.055 36.972C800.199 36.972 799.415 34.732 799.415 31.764ZM805.127 31.764C805.127 29.86 804.917 28.068 803.055 28.068C801.193 28.068 800.983 29.86 800.983 31.764C800.983 33.766 801.193 35.516 803.055 35.516C804.917 35.516 805.127 33.766 805.127 31.764Z" fill="#17181A"/>
<path d="M734.873 70.86V69.9H738.983V70.86H734.873ZM741.233 74V67.75H740.303V66.71H742.383V74H741.233ZM744.729 74V67.75H743.799V66.71H745.879V74H744.729ZM748.775 73.34C748.775 73.75 748.455 74.07 748.055 74.07C747.645 74.07 747.325 73.75 747.325 73.34C747.325 72.93 747.645 72.61 748.055 72.61C748.455 72.61 748.775 72.93 748.775 73.34ZM750.637 74V67.75H749.707V66.71H751.787V74H750.637ZM756.833 74V72.48H753.213V71.62L756.573 66.8H757.953V71.49H758.883V72.48H757.953V74H756.833ZM754.523 71.49H756.883V67.96L754.523 71.49ZM763.678 75.86H762.498C761.178 74.59 760.468 72.54 760.468 70.36C760.468 68.18 761.178 66.01 762.698 64.66H763.878V64.77C762.278 66.24 761.568 68.38 761.568 70.36C761.568 72.34 762.278 74.31 763.678 75.75V75.86ZM765.019 70.86V69.9H769.129V70.86H765.019ZM770.599 70.26C770.599 68.18 771.159 66.58 773.199 66.58C775.239 66.58 775.799 68.18 775.799 70.26C775.799 72.38 775.239 73.98 773.199 73.98C771.159 73.98 770.599 72.38 770.599 70.26ZM774.679 70.26C774.679 68.9 774.529 67.62 773.199 67.62C771.869 67.62 771.719 68.9 771.719 70.26C771.719 71.69 771.869 72.94 773.199 72.94C774.529 72.94 774.679 71.69 774.679 70.26ZM778.335 73.34C778.335 73.75 778.015 74.07 777.615 74.07C777.205 74.07 776.885 73.75 776.885 73.34C776.885 72.93 777.205 72.61 777.615 72.61C778.015 72.61 778.335 72.93 778.335 73.34ZM784.387 68.4H783.337C783.197 67.81 782.847 67.48 782.127 67.48C781.097 67.48 780.567 68.18 780.537 70.09C780.897 69.49 781.617 69.17 782.377 69.17C783.687 69.17 784.617 70.05 784.617 71.57C784.617 72.95 783.787 74 782.227 74C780.107 74 779.557 72.51 779.557 70.19C779.557 67.91 780.317 66.53 782.137 66.53C783.557 66.53 784.267 67.43 784.387 68.4ZM782.127 70.13C781.377 70.13 780.667 70.58 780.667 71.55C780.667 72.45 781.197 73.05 782.167 73.05C783.007 73.05 783.527 72.48 783.527 71.62C783.527 70.75 783.087 70.13 782.127 70.13ZM785.743 73.9V73.07C787.463 71.56 789.273 70.24 789.273 68.81C789.273 68.05 788.943 67.53 788.093 67.53C787.293 67.53 786.863 68.09 786.833 68.91H785.733C785.773 67.33 786.793 66.56 788.083 66.56C789.563 66.56 790.403 67.45 790.403 68.76C790.403 70.53 788.603 71.88 787.433 72.95H790.603V73.9H785.743ZM791.425 68.47C791.425 67.48 792.075 66.91 792.945 66.91C793.815 66.91 794.465 67.48 794.465 68.47C794.465 69.47 793.815 70.04 792.945 70.04C792.075 70.04 791.425 69.47 791.425 68.47ZM792.945 67.6C792.555 67.6 792.315 67.85 792.315 68.47C792.315 69.09 792.555 69.35 792.945 69.35C793.325 69.35 793.575 69.09 793.575 68.47C793.575 67.85 793.325 67.6 792.945 67.6ZM792.415 74L796.405 67.04H797.525L793.535 74H792.415ZM795.495 72.56C795.495 71.56 796.145 71 797.015 71C797.875 71 798.525 71.56 798.525 72.56C798.525 73.56 797.875 74.13 797.015 74.13C796.145 74.13 795.495 73.56 795.495 72.56ZM797.005 71.69C796.625 71.69 796.375 71.94 796.375 72.56C796.375 73.18 796.625 73.43 797.005 73.43C797.385 73.43 797.635 73.18 797.635 72.56C797.635 71.94 797.385 71.69 797.005 71.69ZM799.414 75.86V75.75C800.814 74.31 801.524 72.34 801.524 70.36C801.524 68.38 800.814 66.24 799.214 64.77V64.66H800.394C801.914 66.01 802.624 68.18 802.624 70.36C802.624 72.54 801.914 74.59 800.594 75.86H799.414Z" fill="#FF0000"/>
<path d="M721.659 57V49.5H720.543V48.252H723.039V57H721.659ZM724.258 58.668L725.11 55.356H726.598L725.146 58.668H724.258ZM727.374 48.288H733.158V49.308L729.822 57H728.442L731.814 49.452H727.374V48.288ZM734.088 48.288H739.872V49.308L736.536 57H735.156L738.528 49.452H734.088V48.288ZM741.019 50.412C741.115 48.9 742.291 48.048 743.887 48.048C745.627 48.048 746.575 49.056 746.575 50.328C746.575 51.372 745.915 52.08 745.231 52.308V52.356C746.143 52.632 746.731 53.388 746.731 54.6C746.731 55.992 745.747 57.048 743.923 57.048C742.267 57.048 740.983 56.184 740.899 54.468H742.219C742.279 55.284 742.879 55.908 743.911 55.908C744.931 55.908 745.435 55.284 745.435 54.468C745.435 53.316 744.691 52.92 743.263 52.92H742.951V51.792H743.275C744.511 51.78 745.267 51.42 745.267 50.484C745.267 49.728 744.775 49.224 743.839 49.224C742.879 49.224 742.435 49.8 742.351 50.412H741.019ZM749.764 56.208C749.764 56.7 749.38 57.084 748.9 57.084C748.408 57.084 748.024 56.7 748.024 56.208C748.024 55.716 748.408 55.332 748.9 55.332C749.38 55.332 749.764 55.716 749.764 56.208ZM750.823 48.288H756.607V49.308L753.271 57H751.891L755.263 49.452H750.823V48.288ZM757.67 56.88V55.884C759.734 54.072 761.906 52.488 761.906 50.772C761.906 49.86 761.51 49.236 760.49 49.236C759.53 49.236 759.014 49.908 758.978 50.892H757.658C757.706 48.996 758.93 48.072 760.478 48.072C762.254 48.072 763.262 49.14 763.262 50.712C763.262 52.836 761.102 54.456 759.698 55.74H763.502V56.88H757.67Z" fill="#17181A"/>
<path d="M916.002 21H827.068V76.655H916.002V21Z" fill="white"/>
<mask id="mask4_541_4294" style="mask-type:luminance" maskUnits="userSpaceOnUse" x="827" y="21" width="90" height="56">
<path d="M916.002 21H827.068V76.655H916.002V21Z" fill="white"/>
</mask>
<g mask="url(#mask4_541_4294)">
<path d="M921.311 81.623H821.385C821.014 81.901 820.901 37.558 820.609 37.199C820.54 37.1151 820.488 37.018 820.458 36.9135C820.427 36.8091 820.418 36.6995 820.432 36.5914C820.445 36.4834 820.48 36.3792 820.535 36.2853C820.59 36.1913 820.664 36.1096 820.751 36.045L824.582 33.17C824.762 33.0347 824.987 32.9742 825.21 33.001L833.963 34.07C834.062 34.0821 834.157 34.1105 834.246 34.154L842.326 38.133L850.009 36.092C850.193 36.0425 850.388 36.0544 850.564 36.126L858.44 39.27L873.018 33.762C873.174 33.7034 873.343 33.6901 873.506 33.7236C873.669 33.757 873.819 33.8359 873.939 33.951L875.698 35.664L880.614 32.319C880.711 32.2541 880.819 32.2091 880.933 32.1864C881.046 32.1637 881.164 32.1639 881.277 32.187C881.391 32.209 881.498 32.2535 881.594 32.3179C881.69 32.3823 881.771 32.4653 881.834 32.562L890.034 45.288L893.498 45.711L902.535 41.274C902.676 41.2043 902.833 41.1737 902.99 41.1855C903.147 41.1973 903.297 41.251 903.426 41.341L908.021 44.502L912.14 42.45C912.283 42.3805 912.442 42.3506 912.6 42.3633C912.758 42.3759 912.91 42.4307 913.04 42.522L922.599 49.374C922.978 49.645 922.06 81.964 921.78 82.327C921.689 82.4448 921.568 82.5367 921.43 82.5935C921.292 82.6503 921.141 82.6701 920.993 82.651C920.847 82.6328 920.708 82.5785 920.588 82.493" fill="white" fill-opacity="0.3"/>
<path opacity="0.28" d="M921.311 81.623H821.385C821.014 81.901 820.901 37.558 820.609 37.199C820.54 37.1151 820.488 37.018 820.458 36.9135C820.427 36.8091 820.418 36.6995 820.432 36.5914C820.445 36.4834 820.48 36.3792 820.535 36.2853C820.59 36.1913 820.664 36.1096 820.751 36.045L824.582 33.17C824.762 33.0347 824.987 32.9742 825.21 33.001L833.963 34.07C834.062 34.0821 834.157 34.1105 834.246 34.154L842.326 38.133L850.009 36.092C850.193 36.0425 850.388 36.0544 850.564 36.126L858.44 39.27L873.018 33.762C873.174 33.7034 873.343 33.6901 873.506 33.7236C873.669 33.757 873.819 33.8359 873.939 33.951L875.698 35.664L880.614 32.319C880.711 32.2541 880.819 32.2091 880.933 32.1864C881.046 32.1637 881.164 32.1639 881.277 32.187C881.391 32.209 881.498 32.2535 881.594 32.3179C881.69 32.3823 881.771 32.4653 881.834 32.562L890.034 45.288L893.498 45.711L902.535 41.274C902.676 41.2043 902.833 41.1737 902.99 41.1855C903.147 41.1973 903.297 41.251 903.426 41.341L908.021 44.502L912.14 42.45C912.283 42.3805 912.442 42.3506 912.6 42.3633C912.758 42.3759 912.91 42.4307 913.04 42.522L922.599 49.374C922.978 49.645 922.06 81.964 921.78 82.327C921.689 82.4448 921.568 82.5367 921.43 82.5935C921.292 82.6503 921.141 82.6701 920.993 82.651C920.847 82.6328 920.708 82.5785 920.588 82.493" fill="url(#paint4_linear_541_4294)"/>
<path d="M921.99 50.852C922.138 50.8712 922.289 50.8513 922.427 50.7945C922.565 50.7377 922.686 50.6458 922.777 50.528C922.844 50.442 922.893 50.3431 922.92 50.2376C922.948 50.132 922.953 50.0219 922.937 49.9141C922.92 49.8063 922.882 49.7031 922.824 49.6107C922.765 49.5183 922.689 49.4388 922.599 49.377L913.04 42.525C912.91 42.4338 912.758 42.3789 912.6 42.3663C912.442 42.3536 912.283 42.3836 912.14 42.453L908.018 44.505L903.428 41.344C903.3 41.2555 903.151 41.2027 902.995 41.1911C902.84 41.1795 902.684 41.2095 902.544 41.278L893.507 45.715L890.043 45.292L881.835 32.566C881.772 32.4694 881.691 32.3864 881.595 32.3219C881.499 32.2575 881.392 32.213 881.278 32.191C881.165 32.168 881.047 32.1678 880.934 32.1904C880.82 32.2131 880.712 32.2582 880.615 32.323L875.7 35.667L873.941 33.954C873.821 33.8389 873.671 33.76 873.508 33.7266C873.345 33.6931 873.176 33.7065 873.02 33.765L858.442 39.273L850.567 36.129C850.391 36.0574 850.196 36.0455 850.012 36.095L842.328 38.136L834.249 34.155C834.16 34.1115 834.065 34.0831 833.966 34.071L825.212 33.004C824.989 32.9772 824.764 33.0377 824.584 33.173L820.753 36.048C820.666 36.1126 820.592 36.1943 820.537 36.2883C820.482 36.3823 820.447 36.4864 820.434 36.5945C820.42 36.7025 820.429 36.8121 820.46 36.9166C820.49 37.021 820.542 37.1182 820.611 37.202C820.754 37.3759 820.959 37.488 821.182 37.5152C821.405 37.5424 821.631 37.4825 821.811 37.348L825.362 34.68L833.616 35.688L841.858 39.75C842.05 39.8445 842.27 39.8655 842.476 39.809L850.196 37.758L858.119 40.926C858.324 41.0091 858.552 41.0116 858.758 40.933L873.128 35.496L875.001 37.318C875.146 37.458 875.333 37.5442 875.534 37.5624C875.734 37.5806 875.934 37.5296 876.101 37.418L880.87 34.173L888.806 46.49C888.876 46.5954 888.967 46.6843 889.075 46.7504C889.182 46.8166 889.303 46.8584 889.428 46.873L893.558 47.373C893.727 47.3935 893.898 47.3646 894.05 47.29L902.86 42.966L907.46 46.129C907.589 46.2177 907.74 46.2703 907.896 46.2816C908.052 46.2928 908.209 46.2623 908.349 46.193L912.458 44.146L921.587 50.69C921.707 50.7757 921.847 50.8297 921.993 50.847L921.99 50.852Z" fill="#EA3A3D"/>
</g>
<path d="M727.018 73.396L728.16 72.251L725.718 69.811L723.718 71.811L720.008 68.101L720.709 67.396L723.709 70.396L725.709 68.396L728.871 71.541L730.018 70.396V73.396H727.018Z" fill="#FF0000"/>
<path d="M944.003 12.981V6.991C943.961 5.46634 944.438 3.97271 945.357 2.755C945.72 2.22141 946.207 1.7833 946.776 1.47781C947.345 1.17231 947.979 1.00841 948.625 1L1159.38 1C1160.03 1.00841 1160.66 1.17231 1161.23 1.47781C1161.8 1.7833 1162.29 2.22141 1162.65 2.755C1163.57 3.97271 1164.04 5.46634 1164 6.991V90.26C1164.04 91.7847 1163.57 93.2783 1162.65 94.496C1162.29 95.0296 1161.8 95.4677 1161.23 95.7732C1160.66 96.0787 1160.03 96.2426 1159.38 96.251H948.625C947.979 96.243 947.345 96.0798 946.777 95.775C946.208 95.4702 945.721 95.0329 945.357 94.5C944.437 93.2812 943.96 91.786 944.003 90.26V12.981Z" fill="white"/>
<path d="M1152 21H1063.07V76.655H1152V21Z" fill="white"/>
<mask id="mask5_541_4294" style="mask-type:luminance" maskUnits="userSpaceOnUse" x="1063" y="21" width="90" height="56">
<path d="M1152 21H1063.07V76.655H1152V21Z" fill="white"/>
</mask>
<g mask="url(#mask5_541_4294)">
<path d="M1157.31 81.623H1057.39C1057.01 81.901 1056.9 37.558 1056.61 37.199C1056.54 37.1151 1056.49 37.018 1056.46 36.9135C1056.43 36.8091 1056.42 36.6995 1056.43 36.5914C1056.45 36.4834 1056.48 36.3792 1056.54 36.2853C1056.59 36.1913 1056.66 36.1096 1056.75 36.045L1060.58 33.17C1060.76 33.0347 1060.99 32.9742 1061.21 33.001L1069.96 34.07C1070.06 34.0821 1070.16 34.1105 1070.25 34.154L1078.33 38.133L1086.01 36.092C1086.19 36.0425 1086.39 36.0544 1086.56 36.126L1094.44 39.27L1109.02 33.762C1109.17 33.7034 1109.34 33.6901 1109.51 33.7236C1109.67 33.757 1109.82 33.8359 1109.94 33.951L1111.7 35.664L1116.61 32.319C1116.71 32.2541 1116.82 32.2091 1116.93 32.1864C1117.05 32.1637 1117.16 32.1639 1117.28 32.187C1117.39 32.209 1117.5 32.2535 1117.59 32.3179C1117.69 32.3823 1117.77 32.4653 1117.83 32.562L1126.03 45.288L1129.5 45.711L1138.54 41.274C1138.68 41.2043 1138.83 41.1737 1138.99 41.1855C1139.15 41.1973 1139.3 41.251 1139.43 41.341L1144.02 44.502L1148.14 42.45C1148.28 42.3805 1148.44 42.3506 1148.6 42.3633C1148.76 42.3759 1148.91 42.4307 1149.04 42.522L1158.6 49.374C1158.98 49.645 1158.06 81.964 1157.78 82.327C1157.69 82.4448 1157.57 82.5367 1157.43 82.5935C1157.29 82.6503 1157.14 82.6701 1156.99 82.651C1156.85 82.6328 1156.71 82.5785 1156.59 82.493" fill="white" fill-opacity="0.3"/>
<path opacity="0.28" d="M1157.31 81.623H1057.39C1057.01 81.901 1056.9 37.558 1056.61 37.199C1056.54 37.1151 1056.49 37.018 1056.46 36.9135C1056.43 36.8091 1056.42 36.6995 1056.43 36.5914C1056.45 36.4834 1056.48 36.3792 1056.54 36.2853C1056.59 36.1913 1056.66 36.1096 1056.75 36.045L1060.58 33.17C1060.76 33.0347 1060.99 32.9742 1061.21 33.001L1069.96 34.07C1070.06 34.0821 1070.16 34.1105 1070.25 34.154L1078.33 38.133L1086.01 36.092C1086.19 36.0425 1086.39 36.0544 1086.56 36.126L1094.44 39.27L1109.02 33.762C1109.17 33.7034 1109.34 33.6901 1109.51 33.7236C1109.67 33.757 1109.82 33.8359 1109.94 33.951L1111.7 35.664L1116.61 32.319C1116.71 32.2541 1116.82 32.2091 1116.93 32.1864C1117.05 32.1637 1117.16 32.1639 1117.28 32.187C1117.39 32.209 1117.5 32.2535 1117.59 32.3179C1117.69 32.3823 1117.77 32.4653 1117.83 32.562L1126.03 45.288L1129.5 45.711L1138.54 41.274C1138.68 41.2043 1138.83 41.1737 1138.99 41.1855C1139.15 41.1973 1139.3 41.251 1139.43 41.341L1144.02 44.502L1148.14 42.45C1148.28 42.3805 1148.44 42.3506 1148.6 42.3633C1148.76 42.3759 1148.91 42.4307 1149.04 42.522L1158.6 49.374C1158.98 49.645 1158.06 81.964 1157.78 82.327C1157.69 82.4448 1157.57 82.5367 1157.43 82.5935C1157.29 82.6503 1157.14 82.6701 1156.99 82.651C1156.85 82.6328 1156.71 82.5785 1156.59 82.493" fill="url(#paint5_linear_541_4294)"/>
<path d="M1157.99 50.852C1158.14 50.8712 1158.29 50.8513 1158.43 50.7945C1158.56 50.7377 1158.69 50.6458 1158.78 50.528C1158.84 50.442 1158.89 50.3431 1158.92 50.2376C1158.95 50.132 1158.95 50.0219 1158.94 49.9141C1158.92 49.8063 1158.88 49.7031 1158.82 49.6107C1158.77 49.5183 1158.69 49.4388 1158.6 49.377L1149.04 42.525C1148.91 42.4338 1148.76 42.3789 1148.6 42.3663C1148.44 42.3536 1148.28 42.3836 1148.14 42.453L1144.02 44.505L1139.43 41.344C1139.3 41.2555 1139.15 41.2027 1139 41.1911C1138.84 41.1795 1138.68 41.2095 1138.54 41.278L1129.51 45.715L1126.04 45.292L1117.84 32.566C1117.77 32.4694 1117.69 32.3864 1117.59 32.3219C1117.5 32.2575 1117.39 32.213 1117.28 32.191C1117.16 32.168 1117.05 32.1678 1116.93 32.1904C1116.82 32.2131 1116.71 32.2582 1116.62 32.323L1111.7 35.667L1109.94 33.954C1109.82 33.8389 1109.67 33.76 1109.51 33.7266C1109.35 33.6931 1109.18 33.7065 1109.02 33.765L1094.44 39.273L1086.57 36.129C1086.39 36.0574 1086.2 36.0455 1086.01 36.095L1078.33 38.136L1070.25 34.155C1070.16 34.1115 1070.06 34.0831 1069.97 34.071L1061.21 33.004C1060.99 32.9772 1060.76 33.0377 1060.58 33.173L1056.75 36.048C1056.67 36.1126 1056.59 36.1943 1056.54 36.2883C1056.48 36.3823 1056.45 36.4864 1056.43 36.5945C1056.42 36.7025 1056.43 36.8121 1056.46 36.9166C1056.49 37.021 1056.54 37.1182 1056.61 37.202C1056.75 37.3759 1056.96 37.488 1057.18 37.5152C1057.41 37.5424 1057.63 37.4825 1057.81 37.348L1061.36 34.68L1069.62 35.688L1077.86 39.75C1078.05 39.8445 1078.27 39.8655 1078.48 39.809L1086.2 37.758L1094.12 40.926C1094.32 41.0091 1094.55 41.0116 1094.76 40.933L1109.13 35.496L1111 37.318C1111.15 37.458 1111.33 37.5442 1111.53 37.5624C1111.73 37.5806 1111.93 37.5296 1112.1 37.418L1116.87 34.173L1124.81 46.49C1124.88 46.5954 1124.97 46.6843 1125.07 46.7504C1125.18 46.8166 1125.3 46.8584 1125.43 46.873L1129.56 47.373C1129.73 47.3935 1129.9 47.3646 1130.05 47.29L1138.86 42.966L1143.46 46.129C1143.59 46.2177 1143.74 46.2703 1143.9 46.2816C1144.05 46.2928 1144.21 46.2623 1144.35 46.193L1148.46 44.146L1157.59 50.69C1157.71 50.7757 1157.85 50.8297 1157.99 50.847L1157.99 50.852Z" fill="#EA3A3D"/>
</g>
<path d="M956.521 32.114C956.521 29.202 958.747 27.144 961.491 27.144C963.521 27.144 965.271 28.166 966.013 30.07H964.095C963.577 29.034 962.653 28.544 961.491 28.544C959.559 28.544 958.159 29.916 958.159 32.114C958.159 34.312 959.559 35.698 961.491 35.698C962.653 35.698 963.577 35.208 964.095 34.172H966.013C965.271 36.076 963.521 37.084 961.491 37.084C958.747 37.084 956.521 35.04 956.521 32.114ZM969.477 32.94V37H967.881V29.286H969.477V30.406C969.925 29.636 970.695 29.16 971.787 29.16V30.812H971.381C970.205 30.812 969.477 31.302 969.477 32.94ZM980.24 29.286V37H978.644V36.076C978.14 36.734 977.272 37.112 976.362 37.112C974.556 37.112 973.184 35.978 973.184 33.822V29.286H974.766V33.584C974.766 34.998 975.536 35.726 976.698 35.726C977.874 35.726 978.644 34.998 978.644 33.584V29.286H980.24ZM981.814 33.108C981.814 30.728 983.424 29.16 985.468 29.16C986.476 29.16 987.54 29.636 988.128 30.364V26.64H989.738V37H988.128V35.838C987.638 36.538 986.714 37.126 985.454 37.126C983.424 37.126 981.814 35.488 981.814 33.108ZM988.128 33.136C988.128 31.484 986.994 30.546 985.79 30.546C984.6 30.546 983.452 31.442 983.452 33.108C983.452 34.774 984.6 35.74 985.79 35.74C986.994 35.74 988.128 34.802 988.128 33.136ZM995.082 30.504C994.004 30.504 993.136 31.232 992.968 32.45H997.238C997.21 31.26 996.272 30.504 995.082 30.504ZM998.694 34.704C998.26 36.048 997.042 37.126 995.152 37.126C992.94 37.126 991.302 35.558 991.302 33.136C991.302 30.714 992.87 29.16 995.152 29.16C997.35 29.16 998.904 30.686 998.904 32.954C998.904 33.22 998.89 33.472 998.848 33.738H992.954C993.066 35.012 993.976 35.782 995.152 35.782C996.132 35.782 996.678 35.306 996.972 34.704H998.694ZM1013.52 32.114C1013.52 35.04 1011.32 37.098 1008.55 37.098C1005.81 37.098 1003.58 35.04 1003.58 32.114C1003.58 29.202 1005.81 27.144 1008.55 27.144C1011.32 27.144 1013.52 29.202 1013.52 32.114ZM1005.22 32.114C1005.22 34.312 1006.62 35.712 1008.55 35.712C1010.48 35.712 1011.88 34.312 1011.88 32.114C1011.88 29.916 1010.48 28.544 1008.55 28.544C1006.62 28.544 1005.22 29.916 1005.22 32.114ZM1015.09 37V29.286H1016.69V37H1015.09ZM1015.9 28.264C1015.33 28.264 1014.88 27.816 1014.88 27.242C1014.88 26.668 1015.33 26.22 1015.9 26.22C1016.46 26.22 1016.91 26.668 1016.91 27.242C1016.91 27.816 1016.46 28.264 1015.9 28.264ZM1018.78 37V26.64H1020.38V37H1018.78Z" fill="#17181A"/>
<path d="M970.873 70.86V69.9H974.983V70.86H970.873ZM976.453 70.26C976.453 68.18 977.013 66.58 979.053 66.58C981.093 66.58 981.653 68.18 981.653 70.26C981.653 72.38 981.093 73.98 979.053 73.98C977.013 73.98 976.453 72.38 976.453 70.26ZM980.533 70.26C980.533 68.9 980.383 67.62 979.053 67.62C977.723 67.62 977.573 68.9 977.573 70.26C977.573 71.69 977.723 72.94 979.053 72.94C980.383 72.94 980.533 71.69 980.533 70.26ZM984.189 73.34C984.189 73.75 983.869 74.07 983.469 74.07C983.059 74.07 982.739 73.75 982.739 73.34C982.739 72.93 983.059 72.61 983.469 72.61C983.869 72.61 984.189 72.93 984.189 73.34ZM986.051 74V67.75H985.121V66.71H987.201V74H986.051ZM989.137 72.02H990.187C990.317 72.67 990.747 73.04 991.507 73.04C992.417 73.04 992.877 72.43 992.877 70.57C992.547 71.03 991.917 71.28 991.257 71.28C989.977 71.28 988.937 70.49 988.937 68.95C988.937 67.5 989.827 66.54 991.357 66.54C993.237 66.54 993.867 67.83 993.867 70.22C993.867 72.68 993.347 73.99 991.437 73.99C989.927 73.99 989.227 73.06 989.137 72.02ZM991.457 70.32C992.267 70.32 992.747 69.77 992.747 68.95C992.747 68.02 992.217 67.49 991.387 67.49C990.537 67.49 990.027 68.08 990.027 68.92C990.027 69.67 990.447 70.32 991.457 70.32ZM998.965 75.86H997.785C996.465 74.59 995.755 72.54 995.755 70.36C995.755 68.18 996.465 66.01 997.985 64.66H999.165V64.77C997.565 66.24 996.855 68.38 996.855 70.36C996.855 72.34 997.565 74.31 998.965 75.75V75.86ZM1000.31 70.86V69.9H1004.42V70.86H1000.31ZM1005.89 70.26C1005.89 68.18 1006.45 66.58 1008.49 66.58C1010.53 66.58 1011.09 68.18 1011.09 70.26C1011.09 72.38 1010.53 73.98 1008.49 73.98C1006.45 73.98 1005.89 72.38 1005.89 70.26ZM1009.97 70.26C1009.97 68.9 1009.82 67.62 1008.49 67.62C1007.16 67.62 1007.01 68.9 1007.01 70.26C1007.01 71.69 1007.16 72.94 1008.49 72.94C1009.82 72.94 1009.97 71.69 1009.97 70.26ZM1013.62 73.34C1013.62 73.75 1013.3 74.07 1012.9 74.07C1012.49 74.07 1012.17 73.75 1012.17 73.34C1012.17 72.93 1012.49 72.61 1012.9 72.61C1013.3 72.61 1013.62 72.93 1013.62 73.34ZM1014.61 73.9V73.07C1016.33 71.56 1018.14 70.24 1018.14 68.81C1018.14 68.05 1017.81 67.53 1016.96 67.53C1016.16 67.53 1015.73 68.09 1015.7 68.91H1014.6C1014.64 67.33 1015.66 66.56 1016.95 66.56C1018.43 66.56 1019.27 67.45 1019.27 68.76C1019.27 70.53 1017.47 71.88 1016.3 72.95H1019.47V73.9H1014.61ZM1025.45 68.4H1024.4C1024.26 67.81 1023.91 67.48 1023.19 67.48C1022.16 67.48 1021.63 68.18 1021.6 70.09C1021.96 69.49 1022.68 69.17 1023.44 69.17C1024.75 69.17 1025.68 70.05 1025.68 71.57C1025.68 72.95 1024.85 74 1023.29 74C1021.17 74 1020.62 72.51 1020.62 70.19C1020.62 67.91 1021.38 66.53 1023.2 66.53C1024.62 66.53 1025.33 67.43 1025.45 68.4ZM1023.19 70.13C1022.44 70.13 1021.73 70.58 1021.73 71.55C1021.73 72.45 1022.26 73.05 1023.23 73.05C1024.07 73.05 1024.59 72.48 1024.59 71.62C1024.59 70.75 1024.15 70.13 1023.19 70.13ZM1026.71 68.47C1026.71 67.48 1027.36 66.91 1028.23 66.91C1029.1 66.91 1029.75 67.48 1029.75 68.47C1029.75 69.47 1029.1 70.04 1028.23 70.04C1027.36 70.04 1026.71 69.47 1026.71 68.47ZM1028.23 67.6C1027.84 67.6 1027.6 67.85 1027.6 68.47C1027.6 69.09 1027.84 69.35 1028.23 69.35C1028.61 69.35 1028.86 69.09 1028.86 68.47C1028.86 67.85 1028.61 67.6 1028.23 67.6ZM1027.7 74L1031.69 67.04H1032.81L1028.82 74H1027.7ZM1030.78 72.56C1030.78 71.56 1031.43 71 1032.3 71C1033.16 71 1033.81 71.56 1033.81 72.56C1033.81 73.56 1033.16 74.13 1032.3 74.13C1031.43 74.13 1030.78 73.56 1030.78 72.56ZM1032.29 71.69C1031.91 71.69 1031.66 71.94 1031.66 72.56C1031.66 73.18 1031.91 73.43 1032.29 73.43C1032.67 73.43 1032.92 73.18 1032.92 72.56C1032.92 71.94 1032.67 71.69 1032.29 71.69ZM1034.7 75.86V75.75C1036.1 74.31 1036.81 72.34 1036.81 70.36C1036.81 68.38 1036.1 66.24 1034.5 64.77V64.66H1035.68C1037.2 66.01 1037.91 68.18 1037.91 70.36C1037.91 72.54 1037.2 74.59 1035.88 75.86H1034.7Z" fill="#FF0000"/>
<path d="M956.483 48.288H962.267V49.308L958.931 57H957.551L960.923 49.452H956.483V48.288ZM964.374 57V49.5H963.258V48.252H965.754V57H964.374ZM969.229 56.208C969.229 56.7 968.845 57.084 968.365 57.084C967.873 57.084 967.489 56.7 967.489 56.208C967.489 55.716 967.873 55.332 968.365 55.332C968.845 55.332 969.229 55.716 969.229 56.208ZM976.492 50.28H975.232C975.064 49.572 974.644 49.176 973.78 49.176C972.544 49.176 971.908 50.016 971.872 52.308C972.304 51.588 973.168 51.204 974.08 51.204C975.652 51.204 976.768 52.26 976.768 54.084C976.768 55.74 975.772 57 973.9 57C971.356 57 970.696 55.212 970.696 52.428C970.696 49.692 971.608 48.036 973.792 48.036C975.496 48.036 976.348 49.116 976.492 50.28ZM973.78 52.356C972.88 52.356 972.028 52.896 972.028 54.06C972.028 55.14 972.664 55.86 973.828 55.86C974.836 55.86 975.46 55.176 975.46 54.144C975.46 53.1 974.932 52.356 973.78 52.356ZM977.987 48.288H983.771V49.308L980.435 57H979.055L982.427 49.452H977.987V48.288Z" fill="#17181A"/>
<path d="M963.018 73.396L964.16 72.251L961.718 69.811L959.718 71.811L956.008 68.101L956.709 67.396L959.709 70.396L961.709 68.396L964.871 71.541L966.018 70.396V73.396H963.018Z" fill="#FF0000"/>
<path d="M1400 0H0.00292969V1H1400V0Z" fill="#E6E8EC"/>
<path d="M1400 95H0.00292969V96H1400V95Z" fill="#E6E8EC"/>
<defs>
<linearGradient id="paint0_linear_541_4294" x1="163.826" y1="32.1694" x2="163.826" y2="82.654" gradientUnits="userSpaceOnUse">
<stop stop-color="#1AD598"/>
<stop offset="0.46" stop-color="#8DEACC"/>
<stop offset="1" stop-color="white"/>
</linearGradient>
<linearGradient id="paint1_linear_541_4294" x1="635.827" y1="32.1696" x2="635.827" y2="82.654" gradientUnits="userSpaceOnUse">
<stop stop-color="#1AD598"/>
<stop offset="0.46" stop-color="#8DEACC"/>
<stop offset="1" stop-color="white"/>
</linearGradient>
<linearGradient id="paint2_linear_541_4294" x1="1343.79" y1="32.1694" x2="1343.79" y2="82.659" gradientUnits="userSpaceOnUse">
<stop stop-color="#1AD598"/>
<stop offset="0.46" stop-color="#8DEACC"/>
<stop offset="1" stop-color="white"/>
</linearGradient>
<linearGradient id="paint3_linear_541_4294" x1="399.558" y1="32.1696" x2="399.558" y2="82.658" gradientUnits="userSpaceOnUse">
<stop stop-color="#EA3A3D"/>
<stop offset="0.46" stop-color="#F59D9E"/>
<stop offset="1" stop-color="white"/>
</linearGradient>
<linearGradient id="paint4_linear_541_4294" x1="871.558" y1="32.1696" x2="871.558" y2="82.6581" gradientUnits="userSpaceOnUse">
<stop stop-color="#EA3A3D"/>
<stop offset="0.46" stop-color="#F59D9E"/>
<stop offset="1" stop-color="white"/>
</linearGradient>
<linearGradient id="paint5_linear_541_4294" x1="1107.56" y1="32.1696" x2="1107.56" y2="82.6581" gradientUnits="userSpaceOnUse">
<stop stop-color="#EA3A3D"/>
<stop offset="0.46" stop-color="#F59D9E"/>
<stop offset="1" stop-color="white"/>
</linearGradient>
</defs>
</svg>
