<svg width="574" height="542" viewBox="0 0 574 542" fill="none" xmlns="http://www.w3.org/2000/svg">
<path opacity="0.08" d="M0 20C0 8.95429 8.95431 0 20 0H554C565.046 0 574 8.9543 574 20V522C574 533.046 565.046 542 554 542H20C8.95431 542 0 533.046 0 522V20Z" fill="url(#paint0_linear_263_608)"/>
<path d="M26 44C26 32.9543 34.9543 24 46 24H528C539.046 24 548 32.9543 548 44V498C548 509.046 539.046 518 528 518H46C34.9543 518 26 509.046 26 498V44Z" fill="url(#paint1_linear_263_608)"/>
<g clip-path="url(#clip0_263_608)">
<g opacity="0.9">
<mask id="mask0_263_608" style="mask-type:luminance" maskUnits="userSpaceOnUse" x="173" y="94" width="268" height="380">
<path d="M440.5 94.543H173.5V473.413H440.5V94.543Z" fill="white"/>
</mask>
<g mask="url(#mask0_263_608)">
<path d="M252.29 187.396C252.29 180.211 253.705 173.097 256.455 166.459C259.204 159.822 263.234 153.79 268.314 148.71C273.394 143.63 279.426 139.6 286.063 136.851C292.701 134.101 299.815 132.686 307 132.686C314.185 132.686 321.299 134.101 327.937 136.851C334.574 139.6 340.605 143.63 345.686 148.71C350.766 153.79 354.796 159.822 357.545 166.459C360.295 173.097 361.71 180.211 361.71 187.396V225.485H399.853V187.396C399.853 162.77 390.07 139.152 372.657 121.739C355.244 104.326 331.626 94.543 307 94.543C282.374 94.543 258.756 104.326 241.343 121.739C223.93 139.152 214.147 162.77 214.147 187.396V225.485H252.29V187.396Z" fill="url(#paint2_linear_263_608)"/>
<path d="M414.074 244.556H199.927C192.918 244.556 186.196 247.34 181.24 252.296C176.284 257.252 173.5 263.974 173.5 270.983V446.983C173.499 450.454 174.183 453.89 175.511 457.097C176.838 460.304 178.785 463.218 181.239 465.672C183.693 468.126 186.606 470.073 189.813 471.401C193.02 472.729 196.456 473.413 199.927 473.413H414.074C421.083 473.413 427.804 470.629 432.76 465.673C437.716 460.717 440.5 453.996 440.5 446.987V270.987C440.5 263.978 437.716 257.257 432.76 252.301C427.804 247.345 421.083 244.56 414.074 244.56M320.35 363.489V395.037C320.35 398.578 318.943 401.973 316.44 404.477C313.936 406.98 310.541 408.387 307 408.387C303.459 408.387 300.064 406.98 297.56 404.477C295.057 401.973 293.65 398.578 293.65 395.037V363.489C287.998 360.507 283.507 355.718 280.894 349.886C278.281 344.054 277.696 337.515 279.232 331.311C280.768 325.108 284.337 319.598 289.37 315.659C294.403 311.721 300.609 309.581 307 309.581C313.391 309.581 319.597 311.721 324.63 315.659C329.663 319.598 333.232 325.108 334.768 331.311C336.304 337.515 335.719 344.054 333.106 349.886C330.493 355.718 326.002 360.507 320.35 363.489Z" fill="url(#paint3_linear_263_608)"/>
</g>
</g>
<path d="M236 365H112C106.477 365 102 369.477 102 375V399C102 404.523 106.477 409 112 409H236C241.523 409 246 404.523 246 399V375C246 369.477 241.523 365 236 365Z" fill="white"/>
<path d="M132.249 383.991C132.048 383.833 131.804 383.74 131.549 383.722L126.909 383.397L125.188 379.064C125.095 378.824 124.931 378.618 124.719 378.473C124.507 378.328 124.256 378.25 123.999 378.25C123.742 378.25 123.491 378.328 123.279 378.473C123.067 378.618 122.904 378.824 122.811 379.064L121.065 383.423L116.451 383.723C116.194 383.74 115.949 383.833 115.746 383.991C115.543 384.149 115.393 384.365 115.315 384.61C115.232 384.858 115.225 385.126 115.297 385.377C115.368 385.629 115.514 385.853 115.715 386.021L119.265 389.021L118.212 393.176C118.139 393.456 118.152 393.751 118.25 394.023C118.348 394.295 118.526 394.532 118.76 394.701C118.986 394.865 119.256 394.958 119.536 394.967C119.815 394.976 120.091 394.9 120.327 394.75L123.989 392.43C123.989 392.43 123.999 392.424 124.01 392.43L127.95 394.93C128.164 395.067 128.414 395.136 128.668 395.128C128.921 395.12 129.167 395.036 129.372 394.886C129.585 394.733 129.746 394.519 129.836 394.273C129.925 394.026 129.937 393.759 129.872 393.505L128.749 388.963L132.283 386.022C132.484 385.854 132.629 385.63 132.701 385.378C132.772 385.127 132.766 384.859 132.683 384.611C132.604 384.365 132.453 384.149 132.249 383.991Z" fill="#FFC74A"/>
<path d="M157.249 383.991C157.048 383.833 156.804 383.74 156.549 383.722L151.909 383.397L150.188 379.064C150.095 378.824 149.931 378.618 149.719 378.473C149.507 378.328 149.256 378.25 148.999 378.25C148.742 378.25 148.491 378.328 148.279 378.473C148.067 378.618 147.904 378.824 147.811 379.064L146.065 383.423L141.451 383.723C141.194 383.74 140.949 383.833 140.746 383.991C140.543 384.149 140.393 384.365 140.315 384.61C140.232 384.858 140.225 385.126 140.297 385.377C140.368 385.629 140.514 385.853 140.715 386.021L144.265 389.021L143.212 393.176C143.139 393.456 143.152 393.751 143.25 394.023C143.348 394.295 143.526 394.532 143.76 394.701C143.986 394.865 144.256 394.958 144.536 394.967C144.815 394.976 145.091 394.9 145.327 394.75L148.989 392.43C148.989 392.43 148.999 392.424 149.01 392.43L152.95 394.93C153.164 395.067 153.414 395.136 153.668 395.128C153.921 395.12 154.167 395.036 154.372 394.886C154.585 394.733 154.746 394.519 154.836 394.273C154.925 394.026 154.937 393.759 154.872 393.505L153.749 388.963L157.283 386.022C157.484 385.854 157.629 385.63 157.701 385.378C157.772 385.127 157.766 384.859 157.683 384.611C157.604 384.365 157.453 384.149 157.249 383.991Z" fill="#FFC74A"/>
<path d="M182.249 383.991C182.048 383.833 181.804 383.74 181.549 383.722L176.909 383.397L175.188 379.064C175.095 378.824 174.931 378.618 174.719 378.473C174.507 378.328 174.256 378.25 173.999 378.25C173.742 378.25 173.491 378.328 173.279 378.473C173.067 378.618 172.904 378.824 172.811 379.064L171.065 383.423L166.451 383.723C166.194 383.74 165.949 383.833 165.746 383.991C165.543 384.149 165.393 384.365 165.315 384.61C165.232 384.858 165.225 385.126 165.297 385.377C165.368 385.629 165.514 385.853 165.715 386.021L169.265 389.021L168.212 393.176C168.139 393.456 168.152 393.751 168.25 394.023C168.348 394.295 168.526 394.532 168.76 394.701C168.986 394.865 169.256 394.958 169.536 394.967C169.815 394.976 170.091 394.9 170.327 394.75L173.989 392.43C173.989 392.43 173.999 392.424 174.01 392.43L177.95 394.93C178.164 395.067 178.414 395.136 178.668 395.128C178.921 395.12 179.167 395.036 179.372 394.886C179.585 394.733 179.746 394.519 179.836 394.273C179.925 394.026 179.937 393.759 179.872 393.505L178.749 388.963L182.283 386.022C182.484 385.854 182.629 385.63 182.701 385.378C182.772 385.127 182.766 384.859 182.683 384.611C182.604 384.365 182.453 384.149 182.249 383.991Z" fill="#FFC74A"/>
<path d="M207.249 383.991C207.048 383.833 206.804 383.74 206.549 383.722L201.909 383.397L200.188 379.064C200.095 378.824 199.931 378.618 199.719 378.473C199.507 378.328 199.256 378.25 198.999 378.25C198.742 378.25 198.491 378.328 198.279 378.473C198.067 378.618 197.904 378.824 197.811 379.064L196.065 383.423L191.451 383.723C191.194 383.74 190.949 383.833 190.746 383.991C190.543 384.149 190.393 384.365 190.315 384.61C190.232 384.858 190.225 385.126 190.297 385.377C190.368 385.629 190.514 385.853 190.715 386.021L194.265 389.021L193.212 393.176C193.139 393.456 193.152 393.751 193.25 394.023C193.348 394.295 193.526 394.532 193.76 394.701C193.986 394.865 194.256 394.958 194.536 394.967C194.815 394.976 195.091 394.9 195.327 394.75L198.989 392.43C198.989 392.43 198.999 392.424 199.01 392.43L202.95 394.93C203.164 395.067 203.414 395.136 203.668 395.128C203.921 395.12 204.167 395.036 204.372 394.886C204.585 394.733 204.746 394.519 204.836 394.273C204.925 394.026 204.937 393.759 204.872 393.505L203.749 388.963L207.283 386.022C207.484 385.854 207.629 385.63 207.701 385.378C207.772 385.127 207.766 384.859 207.683 384.611C207.604 384.365 207.453 384.149 207.249 383.991Z" fill="#FFC74A"/>
<path d="M232.249 383.991C232.048 383.833 231.804 383.74 231.549 383.722L226.909 383.397L225.188 379.064C225.095 378.824 224.931 378.618 224.719 378.473C224.507 378.328 224.256 378.25 223.999 378.25C223.742 378.25 223.491 378.328 223.279 378.473C223.067 378.618 222.904 378.824 222.811 379.064L221.065 383.423L216.451 383.723C216.194 383.74 215.949 383.833 215.746 383.991C215.543 384.149 215.393 384.365 215.315 384.61C215.232 384.858 215.225 385.126 215.297 385.377C215.368 385.629 215.514 385.853 215.715 386.021L219.265 389.021L218.212 393.176C218.139 393.456 218.152 393.751 218.25 394.023C218.348 394.295 218.526 394.532 218.76 394.701C218.986 394.865 219.256 394.958 219.536 394.967C219.815 394.976 220.091 394.9 220.327 394.75L223.989 392.43C223.989 392.43 223.999 392.424 224.01 392.43L227.95 394.93C228.164 395.067 228.414 395.136 228.668 395.128C228.921 395.12 229.167 395.036 229.372 394.886C229.585 394.733 229.746 394.519 229.836 394.273C229.925 394.026 229.937 393.759 229.872 393.505L228.749 388.963L232.283 386.022C232.484 385.854 232.629 385.63 232.701 385.378C232.772 385.127 232.766 384.859 232.683 384.611C232.604 384.365 232.453 384.149 232.249 383.991Z" fill="#FFC74A"/>
<path d="M487 284H394C388.477 284 384 288.477 384 294V353C384 358.523 388.477 363 394 363H487C492.523 363 497 358.523 497 353V294C497 288.477 492.523 284 487 284Z" fill="white"/>
<path d="M434.87 310.539H436.354V313.437H439.182V314.781H436.354V317.679H434.87V314.781H432.042V313.437H434.87V310.539ZM441.322 319.023V317.861C443.73 315.747 446.264 313.899 446.264 311.897C446.264 310.833 445.802 310.105 444.612 310.105C443.492 310.105 442.89 310.889 442.848 312.037H441.308C441.364 309.825 442.792 308.747 444.598 308.747C446.67 308.747 447.846 309.993 447.846 311.827C447.846 314.305 445.326 316.195 443.688 317.693H448.126V319.023H441.322ZM448.758 321.109L449.752 317.245H451.488L449.794 321.109H448.758ZM453.765 319.163V310.413H452.463V308.957H455.375V319.163H453.765ZM462.439 319.163V317.035H457.371V315.831L462.075 309.083H464.007V315.649H465.309V317.035H464.007V319.163H462.439ZM459.205 315.649H462.509V310.707L459.205 315.649ZM466.38 311.421C466.38 310.035 467.29 309.237 468.508 309.237C469.726 309.237 470.636 310.035 470.636 311.421C470.636 312.821 469.726 313.619 468.508 313.619C467.29 313.619 466.38 312.821 466.38 311.421ZM468.508 310.203C467.962 310.203 467.626 310.553 467.626 311.421C467.626 312.289 467.962 312.653 468.508 312.653C469.04 312.653 469.39 312.289 469.39 311.421C469.39 310.553 469.04 310.203 468.508 310.203ZM467.766 319.163L473.352 309.419H474.92L469.334 319.163H467.766ZM472.078 317.147C472.078 315.747 472.988 314.963 474.206 314.963C475.41 314.963 476.32 315.747 476.32 317.147C476.32 318.547 475.41 319.345 474.206 319.345C472.988 319.345 472.078 318.547 472.078 317.147ZM474.192 315.929C473.66 315.929 473.31 316.279 473.31 317.147C473.31 318.015 473.66 318.365 474.192 318.365C474.724 318.365 475.074 318.015 475.074 317.147C475.074 316.279 474.724 315.929 474.192 315.929Z" fill="#EA3A3D"/>
<path d="M414 325.5C420.627 325.5 426 320.127 426 313.5C426 306.873 420.627 301.5 414 301.5C407.373 301.5 402 306.873 402 313.5C402 320.127 407.373 325.5 414 325.5Z" fill="#EA3A3D" fill-opacity="0.2"/>
<path d="M412.694 318.3C412.463 318.3 412.243 318.208 412.08 318.046C411.917 317.883 411.826 317.662 411.826 317.432C411.826 317.202 411.917 316.981 412.08 316.818C412.243 316.655 412.463 316.564 412.694 316.564H415.777L410.366 311.107C410.204 310.944 410.114 310.723 410.114 310.494C410.114 310.264 410.204 310.044 410.366 309.881C410.445 309.8 410.54 309.737 410.644 309.693C410.749 309.649 410.86 309.627 410.974 309.627C411.087 309.627 411.199 309.649 411.303 309.693C411.407 309.737 411.502 309.8 411.582 309.881L416.994 315.339V312.227C416.994 311.999 417.084 311.78 417.245 311.619C417.407 311.457 417.626 311.367 417.854 311.367C418.082 311.367 418.3 311.457 418.462 311.619C418.623 311.78 418.714 311.999 418.714 312.227V317.427C418.714 317.434 418.714 317.442 418.714 317.449C418.714 317.456 418.714 317.463 418.714 317.47C418.714 317.477 418.714 317.483 418.714 317.49C418.714 317.496 418.714 317.503 418.714 317.509C418.714 317.515 418.714 317.522 418.714 317.528C418.689 317.717 418.603 317.893 418.469 318.028C418.376 318.122 418.263 318.193 418.138 318.236L418.114 318.26H418.099C418.019 318.284 417.937 318.296 417.854 318.296L412.694 318.3Z" fill="#EA3A3D"/>
<path d="M415.078 343.5V333.742H416.352V343.5H415.078ZM424.137 343.5V339.16C424.137 337.592 423.283 336.794 421.995 336.794C420.693 336.794 419.797 337.606 419.797 339.258V343.5H418.523V335.828H419.797V336.92C420.301 336.122 421.225 335.688 422.261 335.688C424.039 335.688 425.397 336.78 425.397 338.978V343.5H424.137ZM427.758 341.4V336.878H426.764V335.828H427.758V333.896H429.032V335.828H431.034V336.878H429.032V341.4C429.032 342.156 429.312 342.422 430.096 342.422H431.034V343.5H429.886C428.528 343.5 427.758 342.94 427.758 341.4ZM435.84 336.78C434.594 336.78 433.558 337.606 433.418 339.104H438.262C438.276 337.606 437.156 336.78 435.84 336.78ZM439.424 341.134C439.032 342.534 437.8 343.626 435.896 343.626C433.712 343.626 432.102 342.086 432.102 339.65C432.102 337.228 433.656 335.702 435.896 335.702C438.122 335.702 439.578 337.27 439.578 339.37C439.578 339.65 439.564 339.874 439.536 340.14H433.404C433.502 341.694 434.594 342.548 435.896 342.548C437.044 342.548 437.772 341.96 438.052 341.134H439.424ZM442.534 339.328V343.5H441.26V335.828H442.534V337.074C442.968 336.22 443.794 335.688 445.012 335.688V337.004H444.676C443.458 337.004 442.534 337.55 442.534 339.328ZM449.744 336.78C448.498 336.78 447.462 337.606 447.322 339.104H452.166C452.18 337.606 451.06 336.78 449.744 336.78ZM453.328 341.134C452.936 342.534 451.704 343.626 449.8 343.626C447.616 343.626 446.006 342.086 446.006 339.65C446.006 337.228 447.56 335.702 449.8 335.702C452.026 335.702 453.482 337.27 453.482 339.37C453.482 339.65 453.468 339.874 453.44 340.14H447.308C447.406 341.694 448.498 342.548 449.8 342.548C450.948 342.548 451.676 341.96 451.956 341.134H453.328ZM460.68 341.414C460.68 342.674 459.574 343.626 457.88 343.626C456.088 343.626 454.828 342.646 454.744 341.246H456.06C456.13 341.988 456.788 342.548 457.866 342.548C458.874 342.548 459.434 342.044 459.434 341.414C459.434 339.706 454.898 340.7 454.898 337.844C454.898 336.668 456.004 335.702 457.712 335.702C459.406 335.702 460.526 336.612 460.61 338.11H459.336C459.28 337.34 458.692 336.78 457.67 336.78C456.732 336.78 456.172 337.228 456.172 337.844C456.172 339.664 460.624 338.67 460.68 341.414ZM462.758 341.4V336.878H461.764V335.828H462.758V333.896H464.032V335.828H466.034V336.878H464.032V341.4C464.032 342.156 464.312 342.422 465.096 342.422H466.034V343.5H464.886C463.528 343.5 462.758 342.94 462.758 341.4ZM473.094 341.414C473.094 342.674 471.988 343.626 470.294 343.626C468.502 343.626 467.242 342.646 467.158 341.246H468.474C468.544 341.988 469.202 342.548 470.28 342.548C471.288 342.548 471.848 342.044 471.848 341.414C471.848 339.706 467.312 340.7 467.312 337.844C467.312 336.668 468.418 335.702 470.126 335.702C471.82 335.702 472.94 336.612 473.024 338.11H471.75C471.694 337.34 471.106 336.78 470.084 336.78C469.146 336.78 468.586 337.228 468.586 337.844C468.586 339.664 473.038 338.67 473.094 341.414Z" fill="#777E90"/>
<path d="M181 69H88C82.4772 69 78 73.4772 78 79V137C78 142.523 82.4772 147 88 147H181C186.523 147 191 142.523 191 137V79C191 73.4772 186.523 69 181 69Z" fill="white"/>
<path d="M128.772 95.2981H130.256V98.1961H133.084V99.5401H130.256V102.438H128.772V99.5401H125.944V98.1961H128.772V95.2981ZM135.322 96.2361C135.434 94.4721 136.806 93.4781 138.668 93.4781C140.698 93.4781 141.804 94.6541 141.804 96.1381C141.804 97.3561 141.034 98.1821 140.236 98.4481V98.5041C141.3 98.8261 141.986 99.7081 141.986 101.122C141.986 102.746 140.838 103.978 138.71 103.978C136.778 103.978 135.28 102.97 135.182 100.968H136.722C136.792 101.92 137.492 102.648 138.696 102.648C139.886 102.648 140.474 101.92 140.474 100.968C140.474 99.6241 139.606 99.1621 137.94 99.1621H137.576V97.8461H137.954C139.396 97.8321 140.278 97.4121 140.278 96.3201C140.278 95.4381 139.704 94.8501 138.612 94.8501C137.492 94.8501 136.974 95.5221 136.876 96.2361H135.322ZM142.893 105.868L143.887 102.004H145.623L143.929 105.868H142.893ZM147.899 103.922V95.1721H146.597V93.7161H149.509V103.922H147.899ZM156.574 103.922V101.794H151.506V100.59L156.21 93.8421H158.142V100.408H159.444V101.794H158.142V103.922H156.574ZM153.34 100.408H156.644V95.4661L153.34 100.408ZM160.514 96.1801C160.514 94.7941 161.424 93.9961 162.642 93.9961C163.86 93.9961 164.77 94.7941 164.77 96.1801C164.77 97.5801 163.86 98.3781 162.642 98.3781C161.424 98.3781 160.514 97.5801 160.514 96.1801ZM162.642 94.9621C162.096 94.9621 161.76 95.3121 161.76 96.1801C161.76 97.0481 162.096 97.4121 162.642 97.4121C163.174 97.4121 163.524 97.0481 163.524 96.1801C163.524 95.3121 163.174 94.9621 162.642 94.9621ZM161.9 103.922L167.486 94.1781H169.054L163.468 103.922H161.9ZM166.212 101.906C166.212 100.506 167.122 99.7221 168.34 99.7221C169.544 99.7221 170.454 100.506 170.454 101.906C170.454 103.306 169.544 104.104 168.34 104.104C167.122 104.104 166.212 103.306 166.212 101.906ZM168.326 100.688C167.794 100.688 167.444 101.038 167.444 101.906C167.444 102.774 167.794 103.124 168.326 103.124C168.858 103.124 169.208 102.774 169.208 101.906C169.208 101.038 168.858 100.688 168.326 100.688Z" fill="#1AD598"/>
<path d="M108 109.5C114.627 109.5 120 104.351 120 98C120 91.6487 114.627 86.5 108 86.5C101.373 86.5 96 91.6487 96 98C96 104.351 101.373 109.5 108 109.5Z" fill="#1AD598" fill-opacity="0.2"/>
<path d="M104.267 101.94C104.106 101.777 104.016 101.556 104.016 101.327C104.016 101.098 104.106 100.878 104.267 100.714L109.679 95.255H106.596C106.366 95.255 106.145 95.1636 105.983 95.0009C105.82 94.8382 105.729 94.6176 105.729 94.3875C105.729 94.1574 105.82 93.9368 105.983 93.7741C106.145 93.6114 106.366 93.52 106.596 93.52H111.756C111.873 93.52 111.989 93.5442 112.096 93.591H112.104H112.112C112.206 93.634 112.291 93.6936 112.364 93.767C112.412 93.8159 112.455 93.8703 112.49 93.929L112.496 93.94L112.506 93.963C112.579 94.0929 112.616 94.2393 112.616 94.388V99.588C112.616 99.8162 112.525 100.035 112.364 100.196C112.203 100.358 111.984 100.449 111.756 100.449C111.527 100.449 111.309 100.358 111.147 100.196C110.986 100.035 110.895 99.8162 110.895 99.588V96.482L105.483 101.94C105.404 102.02 105.309 102.084 105.205 102.128C105.1 102.171 104.988 102.194 104.875 102.194C104.762 102.194 104.65 102.171 104.546 102.128C104.441 102.084 104.347 102.02 104.267 101.94Z" fill="#1AD598"/>
<path d="M113.328 117.728V118.778H109.352V122.04H112.908V123.09H109.352V126.45H113.328V127.5H108.078V117.728H113.328ZM114.78 123.636C114.78 121.242 116.362 119.702 118.42 119.702C119.848 119.702 120.828 120.43 121.276 121.228V119.828H122.564V127.5H121.276V126.072C120.814 126.898 119.82 127.626 118.406 127.626C116.362 127.626 114.78 126.016 114.78 123.636ZM121.276 123.65C121.276 121.872 120.072 120.808 118.672 120.808C117.272 120.808 116.082 121.83 116.082 123.636C116.082 125.442 117.272 126.506 118.672 126.506C120.072 126.506 121.276 125.456 121.276 123.65ZM125.991 123.328V127.5H124.717V119.828H125.991V121.074C126.425 120.22 127.251 119.688 128.469 119.688V121.004H128.133C126.915 121.004 125.991 121.55 125.991 123.328ZM135.553 127.5V123.16C135.553 121.592 134.699 120.794 133.411 120.794C132.109 120.794 131.213 121.606 131.213 123.258V127.5H129.939V119.828H131.213V120.92C131.717 120.122 132.641 119.688 133.677 119.688C135.455 119.688 136.813 120.78 136.813 122.978V127.5H135.553ZM138.894 127.5V119.828H140.168V127.5H138.894ZM139.552 118.582C139.062 118.582 138.684 118.204 138.684 117.714C138.684 117.224 139.062 116.846 139.552 116.846C140.014 116.846 140.392 117.224 140.392 117.714C140.392 118.204 140.014 118.582 139.552 118.582ZM147.954 127.5V123.16C147.954 121.592 147.1 120.794 145.812 120.794C144.51 120.794 143.614 121.606 143.614 123.258V127.5H142.34V119.828H143.614V120.92C144.118 120.122 145.042 119.688 146.078 119.688C147.856 119.688 149.214 120.78 149.214 122.978V127.5H147.954ZM150.819 123.636C150.819 121.242 152.401 119.702 154.459 119.702C155.859 119.702 156.867 120.402 157.315 121.228V119.828H158.603V127.668C158.603 129.782 157.189 131.28 154.935 131.28C152.919 131.28 151.477 130.258 151.225 128.62H152.485C152.765 129.544 153.675 130.174 154.935 130.174C156.293 130.174 157.315 129.306 157.315 127.668V126.058C156.853 126.884 155.859 127.626 154.459 127.626C152.401 127.626 150.819 126.016 150.819 123.636ZM157.315 123.65C157.315 121.872 156.111 120.808 154.711 120.808C153.311 120.808 152.121 121.83 152.121 123.636C152.121 125.442 153.311 126.506 154.711 126.506C156.111 126.506 157.315 125.456 157.315 123.65ZM166.272 125.414C166.272 126.674 165.166 127.626 163.472 127.626C161.68 127.626 160.42 126.646 160.336 125.246H161.652C161.722 125.988 162.38 126.548 163.458 126.548C164.466 126.548 165.026 126.044 165.026 125.414C165.026 123.706 160.49 124.7 160.49 121.844C160.49 120.668 161.596 119.702 163.304 119.702C164.998 119.702 166.118 120.612 166.202 122.11H164.928C164.872 121.34 164.284 120.78 163.262 120.78C162.324 120.78 161.764 121.228 161.764 121.844C161.764 123.664 166.216 122.67 166.272 125.414Z" fill="#777E90"/>
</g>
<defs>
<linearGradient id="paint0_linear_263_608" x1="143.5" y1="135.5" x2="143.5" y2="135.5" gradientUnits="userSpaceOnUse">
<stop stop-color="#5C96FD"/>
<stop offset="1" stop-color="#6C4FFE"/>
</linearGradient>
<linearGradient id="paint1_linear_263_608" x1="156.5" y1="147.5" x2="156.5" y2="147.5" gradientUnits="userSpaceOnUse">
<stop stop-color="white" stop-opacity="0"/>
<stop offset="1" stop-color="white"/>
</linearGradient>
<linearGradient id="paint2_linear_263_608" x1="307" y1="94.543" x2="307" y2="225.485" gradientUnits="userSpaceOnUse">
<stop stop-color="#5C96FD"/>
<stop offset="1" stop-color="#6C4FFE"/>
</linearGradient>
<linearGradient id="paint3_linear_263_608" x1="307" y1="244.556" x2="307" y2="473.413" gradientUnits="userSpaceOnUse">
<stop stop-color="#5C96FD"/>
<stop offset="1" stop-color="#6C4FFE"/>
</linearGradient>
<clipPath id="clip0_263_608">
<rect width="419" height="404.413" fill="white" transform="translate(78 69)"/>
</clipPath>
</defs>
</svg>
