<svg width="31" height="28" viewBox="0 0 31 28" fill="none" xmlns="http://www.w3.org/2000/svg">
<path d="M24.6339 27.92C23.5879 28.665 16.8769 23.943 15.5919 23.932C14.3069 23.921 7.51989 28.532 6.48589 27.774C5.45189 27.016 7.88589 19.189 7.49489 17.966C7.10389 16.743 0.609886 11.734 1.01689 10.518C1.42389 9.30203 9.63689 9.18903 10.6829 8.44403C11.7289 7.69903 14.4999 -0.0109668 15.7829 -0.000966843C17.0659 0.00903316 19.7139 7.76303 20.7479 8.52503C21.7819 9.28703 29.9919 9.53203 30.3789 10.754C30.7659 11.976 24.1879 16.881 23.7789 18.097C23.3699 19.313 25.6799 27.175 24.6339 27.92Z" fill="#5C96FD"/>
</svg>
